<svg class="" xmlns="http://www.w3.org/2000/svg" xmlns:xlink="http://www.w3.org/1999/xlink" version="1.1" x="0px" y="0px" viewBox="0 0 378.47 536.42" style="enable-background:new 0 0 378.47 536.42;" xml:space="preserve"> <g> <path d="M219.54,227.8v-4.9c-40.53-18.77-74.51-40.42-101.95-64.92c-27.43-24.48-49.45-50.4-66.16-77.77 C34.72,52.87,21.03,26.15,10.3,0h168.11c8.32,31.84,20.85,62.27,37.56,91.25c16.67,28.98,38.72,55.72,66.16,80.22 c27.43,24.5,59.61,45.73,96.6,63.68v66.13c-54.87,26.94-98.67,59.82-131.45,98.59c-32.82,38.79-55.77,84.31-68.87,136.55H15.68 c8.32-26.12,21.15-53.46,38.46-82.06c17.24-28.57,39.59-55.51,67.06-80.82c27.4-25.31,60.18-45.32,98.34-60.01v-4.91V227.8z"></path> </g> </svg>