<?xml version="1.0" encoding="UTF-8"?> <!-- Generator: Adobe Illustrator 28.1.0, SVG Export Plug-In . SVG Version: 6.00 Build 0) --> <svg xmlns="http://www.w3.org/2000/svg" xmlns:xlink="http://www.w3.org/1999/xlink" version="1.1" id="Calque_1" x="0px" y="0px" viewBox="0 0 3278.69 3288.57" style="enable-background:new 0 0 3278.69 3288.57;" xml:space="preserve"> <g> <path d="M652.77,1644.28v328.86h56.36C672.76,1870.26,652.77,1759.63,652.77,1644.28z"></path> <path d="M709.13,1315.43h-56.36v328.86C652.77,1528.94,672.76,1418.31,709.13,1315.43z"></path> <path d="M1639.34,2630.86h328.86v-56.36C1865.32,2610.87,1754.69,2630.86,1639.34,2630.86z"></path> <path d="M1310.49,2574.5v56.36h328.86C1524,2630.86,1413.37,2610.87,1310.49,2574.5z"></path> <path d="M1968.2,714.07v-56.36h-328.86C1754.69,657.71,1865.32,677.7,1968.2,714.07z"></path> <path d="M1639.34,657.71h-328.86v56.36C1413.37,677.7,1524,657.71,1639.34,657.71z"></path> <path d="M2625.92,1644.28v-328.86h-56.36C2605.93,1418.31,2625.92,1528.94,2625.92,1644.28z"></path> <path d="M2569.56,1973.14h56.36v-328.86C2625.92,1759.63,2605.93,1870.26,2569.56,1973.14z"></path> <rect x="-4.94" width="657.71" height="657.71"></rect> <polygon points="1968.2,657.71 1968.2,0 1310.49,0 1310.49,657.71 1639.34,657.71 "></polygon> <rect x="2625.92" width="657.71" height="657.71"></rect> <rect x="-4.94" y="2630.86" width="657.71" height="657.71"></rect> <polygon points="1310.49,2630.86 1310.49,3288.57 1968.2,3288.57 1968.2,2630.86 1639.34,2630.86 "></polygon> <rect x="2625.92" y="2630.86" width="657.71" height="657.71"></rect> <path d="M1310.49,714.07v-56.36H652.77v657.71h56.36C808.22,1035.17,1030.23,813.16,1310.49,714.07z"></path> <path d="M1968.2,657.71v56.36c280.25,99.09,502.27,321.1,601.36,601.35h56.36V657.71H1968.2z"></path> <path d="M709.13,1973.14h-56.36v657.72h657.71v-56.36C1030.23,2475.41,808.22,2253.4,709.13,1973.14z"></path> <path d="M1968.2,2574.5v56.36h657.71v-657.72h-56.36C2470.47,2253.39,2248.46,2475.41,1968.2,2574.5z"></path> <polygon points="652.77,1315.43 -4.94,1315.43 -4.94,1973.14 652.77,1973.14 652.77,1644.28 "></polygon> <polygon points="2625.92,1973.14 3283.63,1973.14 3283.63,1315.43 2625.92,1315.43 2625.92,1644.28 "></polygon> <path d="M1472.48,1378.26c23.64,38.73,54.79,75.4,93.63,110.02c38.8,34.69,86.9,65.32,144.27,91.87v6.95v114.39v6.95 c-54,20.77-100.39,49.07-139.15,84.89c-38.88,35.81-70.51,73.94-94.9,114.39c-24.5,40.45-42.69,79.17-54.45,116.11h230.27 c18.56-73.91,51.02-138.33,97.47-193.23c46.38-54.86,108.38-101.39,186.02-139.52v-93.59c-52.36-25.39-97.88-55.46-136.72-90.11 c-38.8-34.66-70.02-72.49-93.59-113.49c-23.68-41.01-41.38-84.07-53.18-129.14h-237.89 C1429.45,1301.74,1448.84,1339.57,1472.48,1378.26z"></path> </g> </svg> 