<?xml version="1.0" encoding="UTF-8"?> <!-- Generator: Adobe Illustrator 28.1.0, SVG Export Plug-In . SVG Version: 6.00 Build 0) --> <svg xmlns="http://www.w3.org/2000/svg" xmlns:xlink="http://www.w3.org/1999/xlink" version="1.1" id="Calque_1" x="0px" y="0px" viewBox="0 0 3624.41 3651.63" style="enable-background:new 0 0 3624.41 3651.63;" xml:space="preserve"> <path d="M3624.41,1817.36c0-222.81-102.28-421.7-262.42-552.38c160.14-130.67,262.42-329.57,262.42-552.38 C3624.41,319.04,3305.37,0,2911.81,0c-220.48,0-417.56,100.15-548.27,257.42C2232.82,100.15,2035.74,0,1815.26,0 c-222.21,0-420.64,101.72-551.33,261.11C1133.25,101.72,934.81,0,712.61,0C319.05,0,0,319.04,0,712.61 c0,222.81,102.28,421.7,262.42,552.38C102.28,1395.66,0,1594.55,0,1817.36c0,227.65,106.75,430.37,272.93,560.83 C106.75,2508.65,0,2711.37,0,2939.02c0,393.56,319.05,712.61,712.61,712.61c222.21,0,420.64-101.72,551.33-261.11 c130.69,159.4,329.12,261.11,551.33,261.11c220.48,0,417.56-100.15,548.28-257.42c130.71,157.27,327.79,257.42,548.27,257.42 c393.56,0,712.61-319.04,712.61-712.61c0-227.65-106.75-430.37-272.93-560.83C3517.66,2247.73,3624.41,2045.01,3624.41,1817.36z M2363.53,2483.84c-32.35-38.93-68.76-74.37-108.6-105.65c39.84-31.27,76.24-66.72,108.6-105.65 c32.35,38.93,68.76,74.37,108.6,105.65C2432.29,2409.47,2395.89,2444.91,2363.53,2483.84z M1263.93,2487.53 c-33.11-40.38-70.55-77.08-111.65-109.34c41.09-32.26,78.54-68.95,111.65-109.34c33.11,40.38,70.55,77.08,111.65,109.34 C1334.49,2410.45,1297.04,2447.15,1263.93,2487.53z M1263.93,1164.1c30.26,36.91,64.16,70.71,101.14,100.88 c-36.98,30.18-70.88,63.98-101.14,100.88c-30.26-36.91-64.16-70.71-101.14-100.88C1199.77,1234.81,1233.67,1201.01,1263.93,1164.1z M2363.53,1362.18c-29.48-35.47-62.35-68.03-98.09-97.19c35.74-29.17,68.61-61.72,98.09-97.19c29.48,35.47,62.35,68.03,98.09,97.19 C2425.88,1294.15,2393.01,1326.7,2363.53,1362.18z"></path> </svg> 