<?xml version="1.0" encoding="UTF-8"?> <svg xmlns="http://www.w3.org/2000/svg" id="uuid-95f43dd4-8c5d-4103-a36c-5574d7fb1213" viewBox="0 0 130.66 83.88"><defs><style>.uuid-ad169a34-2ac2-4303-9a7d-ae3e2d6691ea{fill:#81518c;}.uuid-ad169a34-2ac2-4303-9a7d-ae3e2d6691ea,.uuid-540c0910-cfa2-45d7-bf72-d86073aff956{stroke-width:0px;}.uuid-540c0910-cfa2-45d7-bf72-d86073aff956{fill:#fff9ee;}</style></defs><path class="uuid-ad169a34-2ac2-4303-9a7d-ae3e2d6691ea" d="M130.66,42.31C130.66,9.48,95.57.06,65.46,0h0s-.08,0-.13,0-.08,0-.13,0h0C35.09.06,0,9.48,0,42.31s42.63,41.5,65.2,41.56h0s.09,0,.13,0,.09,0,.13,0h0c22.57-.07,65.2-8.77,65.2-41.57Z"></path><path class="uuid-540c0910-cfa2-45d7-bf72-d86073aff956" d="M45.71,26.81l6.44.02v2.23s-3.79,0-3.79,0l-.03,12.08h3.41s0,2.2,0,2.2h-3.41s-.04,14.91-.04,14.91h-2.65s.08-31.43.08-31.43Z"></path><path class="uuid-540c0910-cfa2-45d7-bf72-d86073aff956" d="M56.27,26.83l-.08,31.42h-2.65s.08-31.43.08-31.43h2.65Z"></path><path class="uuid-540c0910-cfa2-45d7-bf72-d86073aff956" d="M62.47,26.62c2.65,0,4.01,2.28,4,5.69v5.53s-2.36,0-2.36,0c-.26-1.14-.3-2.46-.29-3.79v-3.07c.01-1.33-.48-2.16-1.35-2.16-.95,0-1.48.83-1.48,2.27l-.06,22.9c0,1.44.52,2.27,1.47,2.28.87,0,1.37-.83,1.37-2.15l.03-10.41h2.65s-.04,14.58-.04,14.58h-1.33s-.3-1.9-.3-1.9h-.38c-.19,1.13-.99,2.08-2.54,2.08-2.27,0-3.78-2.05-3.77-5.31l.05-19.72c.01-4.35,1.49-6.81,4.33-6.8Z"></path><path class="uuid-540c0910-cfa2-45d7-bf72-d86073aff956" d="M72.32,56.33c.87,0,1.33-.64,1.33-1.7l.07-27.75h2.5s-.07,26.54-.07,26.54c0,3.18-1.34,5.11-3.91,5.1-2.57,0-3.89-1.94-3.89-5.12l.07-26.54h2.65s-.07,27.75-.07,27.75c0,1.06.45,1.71,1.32,1.71Z"></path><path class="uuid-540c0910-cfa2-45d7-bf72-d86073aff956" d="M84.92,26.9v2.2s-4.02,0-4.02,0l-.03,12.11h3.56s0,2.2,0,2.2h-3.56s-.03,12.71-.03,12.71h4.01s0,2.21,0,2.21l-6.66-.02.08-31.42,6.66.02Z"></path></svg> 