<?xml version="1.0" encoding="UTF-8"?> <svg xmlns="http://www.w3.org/2000/svg" id="uuid-d613a737-6165-4213-8f41-4f478c889d31" viewBox="0 0 166.55 27.31"><defs><style>.uuid-608fd463-514b-417a-997b-f3a8d5d1a784{fill:#ff5301;stroke-width:0px;}</style></defs><g id="uuid-6c161191-81a4-4f08-a254-fb59682cdf43"><rect class="uuid-608fd463-514b-417a-997b-f3a8d5d1a784" width="7.57" height="7.57"></rect><rect class="uuid-608fd463-514b-417a-997b-f3a8d5d1a784" x="15.14" width="7.57" height="7.57"></rect><rect class="uuid-608fd463-514b-417a-997b-f3a8d5d1a784" x="30.27" width="7.57" height="7.57"></rect><rect class="uuid-608fd463-514b-417a-997b-f3a8d5d1a784" x="45.41" width="7.57" height="7.57"></rect><rect class="uuid-608fd463-514b-417a-997b-f3a8d5d1a784" x="60.54" width="7.57" height="7.57"></rect><rect class="uuid-608fd463-514b-417a-997b-f3a8d5d1a784" x="75.68" width="7.57" height="7.57"></rect><rect class="uuid-608fd463-514b-417a-997b-f3a8d5d1a784" x="90.81" width="7.57" height="7.57"></rect><rect class="uuid-608fd463-514b-417a-997b-f3a8d5d1a784" x="105.95" width="7.57" height="7.57"></rect><rect class="uuid-608fd463-514b-417a-997b-f3a8d5d1a784" x="121.08" width="7.57" height="7.57"></rect><rect class="uuid-608fd463-514b-417a-997b-f3a8d5d1a784" x="136.22" width="7.57" height="7.57"></rect><rect class="uuid-608fd463-514b-417a-997b-f3a8d5d1a784" x="151.36" width="7.57" height="7.57"></rect><rect class="uuid-608fd463-514b-417a-997b-f3a8d5d1a784" x="7.63" y="7.57" width="7.57" height="19.74"></rect><rect class="uuid-608fd463-514b-417a-997b-f3a8d5d1a784" x="22.76" y="7.57" width="7.57" height="19.74"></rect><rect class="uuid-608fd463-514b-417a-997b-f3a8d5d1a784" x="37.9" y="7.57" width="7.57" height="19.74"></rect><rect class="uuid-608fd463-514b-417a-997b-f3a8d5d1a784" x="53.03" y="7.57" width="7.57" height="19.74"></rect><rect class="uuid-608fd463-514b-417a-997b-f3a8d5d1a784" x="68.17" y="7.57" width="7.57" height="19.74"></rect><rect class="uuid-608fd463-514b-417a-997b-f3a8d5d1a784" x="83.3" y="7.57" width="7.57" height="19.74"></rect><rect class="uuid-608fd463-514b-417a-997b-f3a8d5d1a784" x="98.44" y="7.57" width="7.57" height="19.74"></rect><rect class="uuid-608fd463-514b-417a-997b-f3a8d5d1a784" x="113.58" y="7.57" width="7.57" height="19.74"></rect><rect class="uuid-608fd463-514b-417a-997b-f3a8d5d1a784" x="128.71" y="7.57" width="7.57" height="19.74"></rect><rect class="uuid-608fd463-514b-417a-997b-f3a8d5d1a784" x="143.85" y="7.57" width="7.57" height="19.74"></rect><rect class="uuid-608fd463-514b-417a-997b-f3a8d5d1a784" x="158.98" y="7.57" width="7.57" height="19.74"></rect></g></svg> 