<?xml version="1.0" encoding="UTF-8"?>
<svg xmlns="http://www.w3.org/2000/svg" id="uuid-dd7e9b90-468c-4125-b729-16d360709329" viewBox="0 0 941.75 283.61"><defs><style>.uuid-deed6231-4379-4337-b0d5-b090c0d2ef88{fill:#fff;}.uuid-deed6231-4379-4337-b0d5-b090c0d2ef88,.uuid-4bf71f2e-4ed7-4cc6-bd52-b3260a255a31,.uuid-93796122-ab1c-45a0-84e1-6db7ba161374{stroke-width:0px;}.uuid-4bf71f2e-4ed7-4cc6-bd52-b3260a255a31{fill:#fff6e7;}.uuid-93796122-ab1c-45a0-84e1-6db7ba161374{fill:#ff5400;}</style></defs><rect class="uuid-93796122-ab1c-45a0-84e1-6db7ba161374" x="-6273.93" width="14005.76" height="283.61"/><path class="uuid-4bf71f2e-4ed7-4cc6-bd52-b3260a255a31" d="M352.17,48.33l.92,5.34-32.03,5.71-.92-5.34,32.03-5.71ZM353.09,62.32v10.68h-19.51v58.91h17.31v10.68h-17.31v61.86h19.51v10.68h-32.4V62.32h32.4Z"/><path class="uuid-4bf71f2e-4ed7-4cc6-bd52-b3260a255a31" d="M395.25,62.32l14.36,116.9h1.84l14.36-116.9h14.36v152.8h-12.15l.92-96.83h-1.84l-11.78,96.83h-9.57l-11.78-96.83h-1.84l.92,96.83h-12.15V62.32h14.36Z"/><path class="uuid-4bf71f2e-4ed7-4cc6-bd52-b3260a255a31" d="M490.79,61.22c13.81,0,21.17,12.33,21.17,33.14v88.74c0,20.8-7.36,33.14-21.17,33.14s-21.17-12.33-21.17-33.14v-88.74c0-20.8,7.36-33.14,21.17-33.14ZM490.79,205.55c4.79,0,7.36-4.05,7.36-11.05v-111.56c0-7-2.58-11.05-7.36-11.05s-7.36,4.05-7.36,11.05v111.56c0,7,2.58,11.05,7.36,11.05Z"/><path class="uuid-4bf71f2e-4ed7-4cc6-bd52-b3260a255a31" d="M573.27,62.32v10.68h-12.89v142.12h-12.89V73h-12.89v-10.68h38.66Z"/><path class="uuid-4bf71f2e-4ed7-4cc6-bd52-b3260a255a31" d="M613.59,62.32v152.8h-12.89V62.32h12.89Z"/><path class="uuid-4bf71f2e-4ed7-4cc6-bd52-b3260a255a31" d="M664.21,61.22c13.81,0,21.17,12.33,21.17,33.14v88.74c0,20.8-7.36,33.14-21.17,33.14s-21.17-12.33-21.17-33.14v-88.74c0-20.8,7.36-33.14,21.17-33.14ZM664.21,205.55c4.79,0,7.36-4.05,7.36-11.05v-111.56c0-7-2.58-11.05-7.36-11.05s-7.36,4.05-7.36,11.05v111.56c0,7,2.58,11.05,7.36,11.05Z"/><path class="uuid-4bf71f2e-4ed7-4cc6-bd52-b3260a255a31" d="M727.36,62.32l13.62,102.73h1.84l-2.21-102.73h12.15v152.8h-12.52l-13.62-102.73h-1.84l2.21,102.73h-12.15V62.32h12.52Z"/><path class="uuid-4bf71f2e-4ed7-4cc6-bd52-b3260a255a31" d="M793.63,183.82v13.44c0,5.34,2.39,8.65,6.44,8.65,4.42,0,7.36-3.31,7.36-12.7,0-14.54-6.44-34.24-12.89-51.92l-2.95-8.1c-6.26-16.94-11.05-30.74-11.05-46.58s7.36-25.41,20.07-25.41,18.59,9.39,18.59,21.91v27.06h-10.49c-1.29-5.52-1.47-11.97-1.47-18.41v-11.78c0-5.15-2.39-8.47-6.44-8.47-4.42,0-7.36,3.31-7.36,12.7,0,13.25,4.97,27.61,10.31,42.16l2.95,8.1c6.08,16.57,13.62,38.11,13.62,55.6,0,16.38-7.18,26.14-20.07,26.14s-18.59-9.21-18.59-23.01v-27.8h10.49c1.29,5.52,1.47,11.97,1.47,18.41Z"/><path class="uuid-deed6231-4379-4337-b0d5-b090c0d2ef88" d="M74.76,98.43l1.9-1.9-12.78-43.97c-2.64.82-5.23,1.76-7.77,2.81l18.64,43.07Z"/><path class="uuid-deed6231-4379-4337-b0d5-b090c0d2ef88" d="M70.73,102.45l1.61-1.61-19.13-44.21c-2.51,1.14-4.97,2.39-7.35,3.75l24.88,42.07Z"/><path class="uuid-deed6231-4379-4337-b0d5-b090c0d2ef88" d="M66.98,106.2l1.43-1.43-25.3-42.78c-2.35,1.45-4.63,2.99-6.83,4.64l30.69,39.57Z"/><path class="uuid-deed6231-4379-4337-b0d5-b090c0d2ef88" d="M79.22,93.96l2.38-2.38-6.6-41.68c-2.73.48-5.42,1.07-8.06,1.78l12.28,42.28Z"/><path class="uuid-deed6231-4379-4337-b0d5-b090c0d2ef88" d="M97.17,89.04l2.69,2.69,9.24-41.32c-2.67-.55-5.39-.97-8.15-1.28l-3.77,39.91Z"/><path class="uuid-deed6231-4379-4337-b0d5-b090c0d2ef88" d="M78.14,49.41l6.24,39.39,3.14-3.14-1.16-37.02c-2.78.13-5.51.4-8.22.77Z"/><path class="uuid-deed6231-4379-4337-b0d5-b090c0d2ef88" d="M42.89,130.29l2.38-2.38L3.08,115.66c-.71,2.64-1.29,5.32-1.76,8.05l41.57,6.58Z"/><path class="uuid-deed6231-4379-4337-b0d5-b090c0d2ef88" d="M52.15,121.03l1.61-1.61-42.02-24.85c-1.35,2.39-2.6,4.84-3.74,7.36l44.15,19.11Z"/><path class="uuid-deed6231-4379-4337-b0d5-b090c0d2ef88" d="M47.83,125.35l1.9-1.9L6.74,104.84c-1.04,2.53-1.98,5.12-2.79,7.76l43.88,12.75Z"/><path class="uuid-deed6231-4379-4337-b0d5-b090c0d2ef88" d="M59.78,113.41l1.35-1.35-35.75-35.75c-1.91,1.98-3.73,4.04-5.45,6.19l39.85,30.91Z"/><path class="uuid-deed6231-4379-4337-b0d5-b090c0d2ef88" d="M56.08,117.11l1.43-1.43-39.55-30.68c-1.64,2.2-3.18,4.48-4.63,6.83l42.74,25.28Z"/><path class="uuid-deed6231-4379-4337-b0d5-b090c0d2ef88" d="M63.37,109.81l1.34-1.34-30.93-39.87c-2.14,1.73-4.2,3.55-6.17,5.46l35.75,35.75Z"/><path class="uuid-deed6231-4379-4337-b0d5-b090c0d2ef88" d="M34.06,139.3l-34.06-1.07c0,.33-.02.65-.02.98,0,2.44.12,4.85.31,7.24l37.39-3.53-3.62-3.62Z"/><path class="uuid-deed6231-4379-4337-b0d5-b090c0d2ef88" d="M119.87,111.75l37.95-33.46c-1.84-2.03-3.79-3.97-5.8-5.83l-33.47,37.96,1.32,1.32Z"/><path class="uuid-deed6231-4379-4337-b0d5-b090c0d2ef88" d="M129.62,121.5l1.72,1.72,44.2-15.91c-.97-2.57-2.04-5.1-3.23-7.56l-42.69,21.75Z"/><path class="uuid-deed6231-4379-4337-b0d5-b090c0d2ef88" d="M133.82,125.7l2.09,2.09,42.95-9.6c-.64-2.68-1.39-5.31-2.26-7.89l-42.78,15.4Z"/><path class="uuid-deed6231-4379-4337-b0d5-b090c0d2ef88" d="M179.55,121.29l-40.98,9.16,2.68,2.68,39.54-3.74c-.29-2.74-.71-5.45-1.24-8.11Z"/><path class="uuid-deed6231-4379-4337-b0d5-b090c0d2ef88" d="M36.97,136.21l3.14-3.14L.84,126.85c-.37,2.7-.63,5.43-.76,8.2l36.89,1.16Z"/><path class="uuid-deed6231-4379-4337-b0d5-b090c0d2ef88" d="M102.51,94.39l2.09,2.09,15.49-43.03c-2.59-.89-5.23-1.67-7.91-2.32l-9.67,43.26Z"/><path class="uuid-deed6231-4379-4337-b0d5-b090c0d2ef88" d="M61.88,167.11l-37.96,33.47c1.85,2.01,3.79,3.95,5.81,5.79l33.46-37.95-1.31-1.31Z"/><path class="uuid-deed6231-4379-4337-b0d5-b090c0d2ef88" d="M107.09,98.96l1.72,1.72,21.84-42.86c-2.46-1.21-4.98-2.3-7.56-3.29l-16,44.43Z"/><path class="uuid-deed6231-4379-4337-b0d5-b090c0d2ef88" d="M111.16,103.04l1.49,1.49,27.89-41.03c-2.29-1.51-4.65-2.93-7.07-4.23l-22.3,43.77Z"/><path class="uuid-deed6231-4379-4337-b0d5-b090c0d2ef88" d="M114.94,106.81l1.37,1.37,33.33-37.81c-2.08-1.79-4.25-3.48-6.49-5.07l-28.21,41.52Z"/><path class="uuid-deed6231-4379-4337-b0d5-b090c0d2ef88" d="M125.77,117.65l1.49,1.49,43.6-22.22c-1.28-2.43-2.68-4.79-4.17-7.08l-40.92,27.81Z"/><path class="uuid-deed6231-4379-4337-b0d5-b090c0d2ef88" d="M122.13,114l1.37,1.37,41.43-28.16c-1.58-2.25-3.25-4.42-5.02-6.51l-37.78,33.31Z"/><path class="uuid-deed6231-4379-4337-b0d5-b090c0d2ef88" d="M106.58,179.97l-1.84,1.84,12.79,44.03c2.62-.81,5.18-1.75,7.69-2.79l-18.65-43.08Z"/><path class="uuid-deed6231-4379-4337-b0d5-b090c0d2ef88" d="M124.99,161.55l-1.37,1.37,39.57,30.7c1.64-2.18,3.17-4.44,4.6-6.76l-42.8-25.31Z"/><path class="uuid-deed6231-4379-4337-b0d5-b090c0d2ef88" d="M121.35,165.19l-1.3,1.3,35.75,35.75c1.89-1.96,3.71-4,5.42-6.12l-39.88-30.93Z"/><path class="uuid-deed6231-4379-4337-b0d5-b090c0d2ef88" d="M128.86,157.69l-1.55,1.55,42.1,24.9c1.35-2.36,2.6-4.79,3.73-7.28l-44.29-19.16Z"/><path class="uuid-deed6231-4379-4337-b0d5-b090c0d2ef88" d="M110.54,176.01l-1.55,1.55,19.14,44.23c2.49-1.13,4.92-2.37,7.28-3.71l-24.87-42.06Z"/><path class="uuid-deed6231-4379-4337-b0d5-b090c0d2ef88" d="M133.11,153.44l-1.84,1.84,43.15,18.67c1.04-2.51,1.99-5.08,2.8-7.7l-44.12-12.82Z"/><path class="uuid-deed6231-4379-4337-b0d5-b090c0d2ef88" d="M117.81,168.74l-1.31,1.31,30.92,39.86c2.13-1.71,4.18-3.52,6.14-5.42l-35.75-35.75Z"/><path class="uuid-deed6231-4379-4337-b0d5-b090c0d2ef88" d="M114.24,172.31l-1.38,1.38,25.29,42.77c2.32-1.43,4.59-2.96,6.76-4.59l-30.68-39.56Z"/><path class="uuid-deed6231-4379-4337-b0d5-b090c0d2ef88" d="M90.97,195.57l-.32.32-3.28-3.28-3.5,37c2.24.17,4.49.28,6.77.28.47,0,.93-.03,1.4-.04l-1.08-34.28Z"/><path class="uuid-deed6231-4379-4337-b0d5-b090c0d2ef88" d="M90.6,82.58l.05-.05,3.6,3.6,3.52-37.29c-2.35-.18-4.72-.3-7.12-.3-.38,0-.75.02-1.12.03l1.07,34.02Z"/><path class="uuid-deed6231-4379-4337-b0d5-b090c0d2ef88" d="M181.07,132.56l-36.89,3.49,3.17,3.17-.46.46,34.41,1.08c0-.51.04-1.02.04-1.54,0-2.24-.11-4.45-.27-6.65Z"/><path class="uuid-deed6231-4379-4337-b0d5-b090c0d2ef88" d="M143.8,142.75l-3.05,3.05,39.66,6.28c.38-2.68.66-5.4.8-8.15l-37.41-1.18Z"/><path class="uuid-deed6231-4379-4337-b0d5-b090c0d2ef88" d="M43.26,148.5l-2.66-2.66-40.01,3.78c.31,2.75.74,5.46,1.29,8.13l41.38-9.25Z"/><path class="uuid-deed6231-4379-4337-b0d5-b090c0d2ef88" d="M137.98,148.57l-2.3,2.3,42.43,12.33c.72-2.62,1.31-5.28,1.8-7.99l-41.92-6.64Z"/><path class="uuid-deed6231-4379-4337-b0d5-b090c0d2ef88" d="M102.18,184.37l-2.3,2.3,6.62,41.81c2.7-.48,5.37-1.07,7.98-1.78l-12.3-42.34Z"/><path class="uuid-deed6231-4379-4337-b0d5-b090c0d2ef88" d="M66.78,172.02l-1.35-1.35-33.31,37.78c2.08,1.76,4.25,3.43,6.49,5l28.16-41.44Z"/><path class="uuid-deed6231-4379-4337-b0d5-b090c0d2ef88" d="M56,161.23l-1.47-1.47-43.79,22.31c1.3,2.42,2.72,4.77,4.22,7.05l41.04-27.89Z"/><path class="uuid-deed6231-4379-4337-b0d5-b090c0d2ef88" d="M52.16,157.4l-1.7-1.7-44.47,16.01c.99,2.57,2.08,5.08,3.29,7.53l42.88-21.85Z"/><path class="uuid-deed6231-4379-4337-b0d5-b090c0d2ef88" d="M47.98,153.22l-2.07-2.07-43.33,9.68c.66,2.68,1.44,5.31,2.32,7.89l43.07-15.51Z"/><path class="uuid-deed6231-4379-4337-b0d5-b090c0d2ef88" d="M59.63,164.86l-1.35-1.35-41.52,28.22c1.59,2.23,3.28,4.39,5.06,6.46l37.81-33.34Z"/><path class="uuid-deed6231-4379-4337-b0d5-b090c0d2ef88" d="M84.46,189.7l-2.66-2.66-9.18,41.05c2.65.54,5.35.95,8.09,1.24l3.75-39.64Z"/><path class="uuid-deed6231-4379-4337-b0d5-b090c0d2ef88" d="M103.36,228.99l-6.26-39.54-3.05,3.05,1.17,37.28c2.75-.14,5.46-.41,8.14-.79Z"/><path class="uuid-deed6231-4379-4337-b0d5-b090c0d2ef88" d="M79.14,184.38l-2.07-2.07-15.41,42.81c2.57.87,5.2,1.62,7.87,2.26l9.61-43.01Z"/><path class="uuid-deed6231-4379-4337-b0d5-b090c0d2ef88" d="M70.54,175.78l-1.47-1.47-27.82,40.93c2.29,1.49,4.64,2.88,7.06,4.16l22.23-43.62Z"/><path class="uuid-deed6231-4379-4337-b0d5-b090c0d2ef88" d="M74.59,179.83l-1.7-1.7-21.76,42.71c2.45,1.19,4.97,2.26,7.53,3.23l15.93-44.24Z"/></svg>