<?xml version="1.0" encoding="UTF-8"?>
<svg xmlns="http://www.w3.org/2000/svg" id="uuid-d3499a36-15e9-4d19-a365-b3024cc65ba6" viewBox="0 0 1086.48 283.61"><defs><style>.uuid-4b0e551a-c88e-4c1f-922f-4156fa5ae87a{fill:#fff6e7;}.uuid-4b0e551a-c88e-4c1f-922f-4156fa5ae87a,.uuid-a06907cd-cbb8-433e-aa42-3521bea9c282{stroke-width:0px;}.uuid-a06907cd-cbb8-433e-aa42-3521bea9c282{fill:#ff5400;}</style></defs><rect class="uuid-a06907cd-cbb8-433e-aa42-3521bea9c282" x="-12919.28" width="14005.76" height="283.61"/><path class="uuid-4b0e551a-c88e-4c1f-922f-4156fa5ae87a" d="M393.24,61.22c12.89,0,19.51,11.05,19.51,27.61v26.88h-11.41c-1.29-5.52-1.47-11.97-1.47-18.41v-14.91c0-6.44-2.39-10.49-6.63-10.49-4.6,0-7.18,4.05-7.18,11.05v111.56c0,7,2.58,11.05,7.18,11.05,4.23,0,6.63-4.05,6.63-10.49v-15.83c0-6.44.18-12.89,1.47-18.41h11.41v27.8c0,16.57-6.63,27.62-19.51,27.62-13.81,0-20.99-11.97-20.99-33.14v-88.74c0-21.17,7.18-33.14,20.99-33.14Z"/><path class="uuid-4b0e551a-c88e-4c1f-922f-4156fa5ae87a" d="M461.54,61.22c13.81,0,21.17,12.33,21.17,33.14v88.74c0,20.8-7.36,33.14-21.17,33.14s-21.17-12.33-21.17-33.14v-88.74c0-20.8,7.36-33.14,21.17-33.14ZM461.54,205.55c4.79,0,7.36-4.05,7.36-11.05v-111.56c0-7-2.58-11.05-7.36-11.05s-7.36,4.05-7.36,11.05v111.56c0,7,2.58,11.05,7.36,11.05Z"/><path class="uuid-4b0e551a-c88e-4c1f-922f-4156fa5ae87a" d="M531.13,205.55c4.23,0,6.44-3.13,6.44-8.28V62.32h12.15v129.05c0,15.46-6.44,24.85-18.96,24.85s-18.96-9.39-18.96-24.85V62.32h12.89v134.94c0,5.15,2.21,8.28,6.44,8.28Z"/><path class="uuid-4b0e551a-c88e-4c1f-922f-4156fa5ae87a" d="M592.8,62.32v142.12h18.41v10.68h-31.3V62.32h12.89Z"/><path class="uuid-4b0e551a-c88e-4c1f-922f-4156fa5ae87a" d="M671.04,62.32v10.68h-19.51v58.91h17.3v10.68h-17.3v61.86h19.51v10.68h-32.4V62.32h32.4Z"/><path class="uuid-4b0e551a-c88e-4c1f-922f-4156fa5ae87a" d="M717.8,205.55c4.23,0,6.44-3.13,6.44-8.28V62.32h12.15v129.05c0,15.46-6.44,24.85-18.96,24.85s-18.96-9.39-18.96-24.85V62.32h12.89v134.94c0,5.15,2.21,8.28,6.44,8.28Z"/><path class="uuid-4b0e551a-c88e-4c1f-922f-4156fa5ae87a" d="M805.8,101.9v3.31c0,18.41-4.79,30.93-13.81,37v1.84c7.18,4.42,9.21,10.12,9.57,24.12l.74,26.69c.18,8.1.92,14.36,2.95,18.41v1.84h-13.25c-1.47-4.23-1.84-9.21-2.03-16.02l-1.29-37.56c-.37-9.02-3.5-12.89-9.21-12.89v66.46h-12.89V62.32h12.89c14.36,0,26.33,11.05,26.33,39.58ZM780.39,138.54c7.36,0,12.15-6.44,12.15-25.77v-14.54c0-19.33-4.79-25.77-12.15-25.77h-.92v66.09h.92Z"/><path class="uuid-4b0e551a-c88e-4c1f-922f-4156fa5ae87a" d="M843.54,183.82v13.44c0,5.34,2.39,8.65,6.44,8.65,4.42,0,7.36-3.31,7.36-12.7,0-14.54-6.44-34.24-12.89-51.92l-2.95-8.1c-6.26-16.94-11.04-30.74-11.04-46.58s7.36-25.41,20.07-25.41,18.59,9.39,18.59,21.91v27.06h-10.49c-1.29-5.52-1.47-11.97-1.47-18.41v-11.78c0-5.15-2.39-8.47-6.44-8.47-4.42,0-7.36,3.31-7.36,12.7,0,13.25,4.97,27.61,10.31,42.16l2.95,8.1c6.08,16.57,13.62,38.11,13.62,55.6,0,16.38-7.18,26.14-20.07,26.14s-18.59-9.21-18.59-23.01v-27.8h10.49c1.29,5.52,1.47,11.97,1.47,18.41Z"/><rect class="uuid-4b0e551a-c88e-4c1f-922f-4156fa5ae87a" y="62.65" width="30.69" height="30.69"/><polygon class="uuid-4b0e551a-c88e-4c1f-922f-4156fa5ae87a" points="92.06 93.33 92.06 62.65 61.37 62.65 61.37 93.33 76.72 93.33 92.06 93.33"/><polygon class="uuid-4b0e551a-c88e-4c1f-922f-4156fa5ae87a" points="61.37 124.02 61.37 93.33 30.69 93.33 30.69 124.02 46.03 124.02 61.37 124.02"/><polygon class="uuid-4b0e551a-c88e-4c1f-922f-4156fa5ae87a" points="122.74 124.02 122.74 93.33 92.06 93.33 92.06 124.02 107.4 124.02 122.74 124.02"/><polygon class="uuid-4b0e551a-c88e-4c1f-922f-4156fa5ae87a" points="61.37 185.39 61.37 154.71 30.69 154.71 30.69 185.39 46.03 185.39 61.37 185.39"/><polygon class="uuid-4b0e551a-c88e-4c1f-922f-4156fa5ae87a" points="122.74 185.39 122.74 154.71 92.06 154.71 92.06 185.39 107.4 185.39 122.74 185.39"/><rect class="uuid-4b0e551a-c88e-4c1f-922f-4156fa5ae87a" x="122.74" y="62.65" width="30.69" height="30.69"/><rect class="uuid-4b0e551a-c88e-4c1f-922f-4156fa5ae87a" y="185.39" width="30.69" height="30.69"/><polygon class="uuid-4b0e551a-c88e-4c1f-922f-4156fa5ae87a" points="61.37 185.39 61.37 216.08 92.06 216.08 92.06 185.39 76.72 185.39 61.37 185.39"/><rect class="uuid-4b0e551a-c88e-4c1f-922f-4156fa5ae87a" x="122.74" y="185.39" width="30.69" height="30.69"/><polygon class="uuid-4b0e551a-c88e-4c1f-922f-4156fa5ae87a" points="30.69 124.02 0 124.02 0 154.71 30.69 154.71 30.69 139.36 30.69 124.02"/><polygon class="uuid-4b0e551a-c88e-4c1f-922f-4156fa5ae87a" points="122.74 154.71 153.43 154.71 153.43 124.02 122.74 124.02 122.74 139.36 122.74 154.71"/><polygon class="uuid-4b0e551a-c88e-4c1f-922f-4156fa5ae87a" points="61.37 154.71 92.06 154.71 92.06 124.02 61.37 124.02 61.37 139.36 61.37 154.71"/></svg>