<?xml version="1.0" encoding="UTF-8"?>
<svg xmlns="http://www.w3.org/2000/svg" id="uuid-439ac42b-1ac0-4f5f-aee2-80c4e9f0105f" viewBox="0 0 762.99 283.61"><defs><style>.uuid-f3fcba93-9f60-494e-86e0-7cf599b35e7b{fill:#fcf7f0;fill-rule:evenodd;}.uuid-f3fcba93-9f60-494e-86e0-7cf599b35e7b,.uuid-cadd90f0-a28a-48af-b569-921c57d595a3,.uuid-82720562-5742-476b-b7be-ef8c1e9fcfc0{stroke-width:0px;}.uuid-cadd90f0-a28a-48af-b569-921c57d595a3{fill:#fff6e7;}.uuid-82720562-5742-476b-b7be-ef8c1e9fcfc0{fill:#ff5400;}</style></defs><rect class="uuid-82720562-5742-476b-b7be-ef8c1e9fcfc0" x="-4876.98" width="14005.76" height="283.61"/><path class="uuid-cadd90f0-a28a-48af-b569-921c57d595a3" d="M330.63,62.32l13.62,150.96v1.84h-12.89l-2.58-40.5h-11.78l-2.58,40.5h-11.97v-1.84l13.62-150.96h14.54ZM328.05,163.57l-4.23-63.7h-1.84l-4.23,63.7h10.31Z"/><path class="uuid-cadd90f0-a28a-48af-b569-921c57d595a3" d="M386.04,62.32l14.36,116.9h1.84l14.36-116.9h14.36v152.8h-12.15l.92-96.83h-1.84l-11.78,96.83h-9.57l-11.78-96.83h-1.84l.92,96.83h-12.15V62.32h14.36Z"/><path class="uuid-cadd90f0-a28a-48af-b569-921c57d595a3" d="M481.59,61.22c13.81,0,21.17,12.33,21.17,33.14v88.74c0,20.8-7.36,33.14-21.17,33.14s-21.17-12.33-21.17-33.14v-88.74c0-20.8,7.36-33.14,21.17-33.14ZM481.59,205.55c4.79,0,7.36-4.05,7.36-11.05v-111.56c0-7-2.58-11.05-7.36-11.05s-7.36,4.05-7.36,11.05v111.56c0,7,2.58,11.05,7.36,11.05Z"/><path class="uuid-cadd90f0-a28a-48af-b569-921c57d595a3" d="M551.18,205.55c4.23,0,6.44-3.13,6.44-8.28V62.32h12.15v129.05c0,15.46-6.44,24.85-18.96,24.85s-18.96-9.39-18.96-24.85V62.32h12.89v134.94c0,5.15,2.21,8.28,6.44,8.28Z"/><path class="uuid-cadd90f0-a28a-48af-b569-921c57d595a3" d="M639.18,101.9v3.31c0,18.41-4.79,30.93-13.81,37v1.84c7.18,4.42,9.21,10.12,9.57,24.12l.74,26.69c.18,8.1.92,14.36,2.95,18.41v1.84h-13.25c-1.47-4.23-1.84-9.21-2.02-16.02l-1.29-37.56c-.37-9.02-3.5-12.89-9.21-12.89v66.46h-12.89V62.32h12.89c14.36,0,26.33,11.05,26.33,39.58ZM613.77,138.54c7.36,0,12.15-6.44,12.15-25.77v-14.54c0-19.33-4.79-25.77-12.15-25.77h-.92v66.09h.92Z"/><path class="uuid-f3fcba93-9f60-494e-86e0-7cf599b35e7b" d="M39.78,61.22c-6.86.07-13.72,1.76-19.64,5.2-5.54,3.22-10.18,7.93-13.53,13.4-3.34,5.47-5.4,11.7-6.21,18.06-1.61,12.72,1.78,25.75,7.92,37.02,11.71,21.52,32.29,36.32,51.17,52.05.89.74,1.78,1.48,2.66,2.23,10.01,8.48,19.56,17.52,28.57,27.05,9.01-9.54,18.55-18.57,28.57-27.05,19.58-16.58,41.57-31.75,53.83-54.28,6.13-11.27,9.53-24.29,7.92-37.02-.81-6.36-2.86-12.59-6.21-18.06-2.83-4.62-6.59-8.69-11.03-11.79-.81-.57-1.64-1.12-2.5-1.61-7.29-4.24-15.99-5.81-24.38-4.99-8.39.82-16.47,3.97-23.56,8.53-9.67,6.22-17.59,15.13-22.64,25.46-5.05-10.33-12.98-19.24-22.65-25.46-7.09-4.56-15.17-7.71-23.56-8.53-1.57-.15-3.16-.22-4.74-.21Z"/></svg>