<?xml version="1.0" encoding="UTF-8"?>
<svg xmlns="http://www.w3.org/2000/svg" id="uuid-23a03433-2752-40cb-adb8-86a469776916" viewBox="0 0 633.95 283.61"><defs><style>.uuid-5deaae0f-3b03-4144-8d44-6f411c47b3d7{fill:#fff;}.uuid-5deaae0f-3b03-4144-8d44-6f411c47b3d7,.uuid-eca496de-8529-4d46-8836-39f4dc28575c,.uuid-e3268f95-57cd-4028-bd14-bde6de127f4f,.uuid-0e32f06b-3b8e-411a-a10a-f205579591af{stroke-width:0px;}.uuid-eca496de-8529-4d46-8836-39f4dc28575c{fill:#fff6e7;}.uuid-e3268f95-57cd-4028-bd14-bde6de127f4f{fill:#fcf7f0;}.uuid-0e32f06b-3b8e-411a-a10a-f205579591af{fill:#ff5400;}</style></defs><rect class="uuid-0e32f06b-3b8e-411a-a10a-f205579591af" x="-5639.97" width="14005.76" height="283.61"/><path class="uuid-eca496de-8529-4d46-8836-39f4dc28575c" d="M300.83,170.02v28.35c0,5.34,2.02,8.65,5.52,8.65,3.87,0,5.52-2.76,5.52-8.47V62.32h12.89v129.97c0,15.1-6.08,23.93-17.86,23.93s-18.04-8.84-18.04-23.93v-38.84h11.05c.92,5.52.92,10.12.92,16.57Z"/><path class="uuid-eca496de-8529-4d46-8836-39f4dc28575c" d="M375.02,61.22c13.81,0,21.17,12.33,21.17,33.14v88.74c0,20.8-7.36,33.14-21.17,33.14s-21.17-12.33-21.17-33.14v-88.74c0-20.8,7.36-33.14,21.17-33.14ZM375.02,205.55c4.79,0,7.36-4.05,7.36-11.05v-111.56c0-7-2.58-11.05-7.36-11.05s-7.36,4.05-7.36,11.05v111.56c0,7,2.58,11.05,7.36,11.05Z"/><path class="uuid-eca496de-8529-4d46-8836-39f4dc28575c" d="M438.54,62.32v152.8h-12.89V62.32h12.89Z"/><path class="uuid-eca496de-8529-4d46-8836-39f4dc28575c" d="M501.5,62.32v10.68h-19.51v58.91h17.31v10.68h-17.31v61.86h19.51v10.68h-32.4V62.32h32.4Z"/><path class="uuid-e3268f95-57cd-4028-bd14-bde6de127f4f" d="M79.24,146.56c1.33-3.6,2.79-7.16,4.34-10.65.58-1.3,1.18-2.59,1.79-3.88-.76-2.02-1.34-4.06-1.72-6.1-1.3,1.92-2.56,3.81-3.35,5.03-.22.33-.89,1.31-2,2.52-1.9,4.43-3.66,8.94-5.22,13.51,1.74-.14,3.83-.29,6.16-.42Z"/><path class="uuid-e3268f95-57cd-4028-bd14-bde6de127f4f" d="M97.27,173.42c-5.98,5.61-11.69,12.6-11.27,21.3.25,8.68,4.8,17.03,11.52,22.47-.56-.16-1.12-.33-1.67-.5-2.24-.71-4.43-1.62-6.51-2.73-1.13-1.18-2.02-2.63-2.82-4.07-1.96-3.57-3.6-7.39-4.15-11.42-1.04-7.61,2.3-15.43.16-22.9-1.42-4.97-3.22-6.41-5.29-8.13-.24-.2-.57.02-.52.34.64,4.28,1.03,6.92-1.52,13.19-1.52,3.74-2.03,7.3-1.95,10.56.56,5.72,2.23,11.22,5.87,15.84,0,0,0,0,0,0-1.77-2.1-3.12-4.4-4.14-6.85-2.3-5.51-2.9-11.72-2.75-17.8,0-.21,0-.42,0-.63,0-5.89.67-11.72,1.82-17.47-1.98-.1-3.81-.44-5.5-.97-1.86,9.41-2.47,19.01-1.14,28.67,2.09,13.74,10.67,23.4,22.14,28.68-3.08-.35-6.06-.85-8.86-1.47-7.42-3.28-14.17-11-16.16-14.34-2.12-3.58-8.13-16.36-1.92-27.7.1-.18-.07-.39-.27-.33-17.33,5.38-11.72,24.06-.9,34.12-5.6-4.05-10.19-9.41-13.05-15.77-3.1-6.84-4.59-14.75-3.86-22.32-.75,1.36-1.56,2.55-2.41,3.49-1.24,1.35-2.37,2.72-3.43,4.31,1.15,10.38,5.57,20.43,12.74,27.99-3.83-3.16-7.39-7.09-10.9-8.69-5.38-2.46-15.21-1.64-14.63,3.39,2.22,3.86,1.4-.58,5.03-.47,3.63.12,9.36,4.56,14.16,8.42,4.3,3.46,13.28,7.93,19.9,7.24,5.3,2.61,11.12,4.41,17.13,5.53.47-.09.94-.21,1.41-.34.23-.07.47-.12.7-.19,2.19-.73,4.5-1.47,6.84-1.4-1.14.11-2.31.31-3.4.68-2.75,1.07-5.52,2.29-8.48,2.64-3.45.61-8.35,0-16.21-3.09,0,2.88,5.67,7.21,14.52,7.21,4.53,0,9.73-2.39,13.22-4.34,5.76.5,11.55.47,17.12.06,7.54.6,15.61-.5,21.95-4.58,2.75-1.43,4.02-2.22,6.64-2.38,3.11-.18,1.31-2.24-2.43-5.13-2.31-1.79-3.31-1.44-7.89,2.91-2.35,1.16-4.94,1.92-7.5,2.38-12.97.74-24.34-11.95-17.03-25.34.18-.33-.16-.7-.5-.55-1.5.65-4.26,2.1-6.09,4.57-1.95,3.35-1.98,7.59-.01,10.97.66,1.21,1.53,2.3,2.44,3.34-.97-.97-1.91-1.98-2.66-3.15,0-.02-.02-.03-.03-.04-.42-.64-.77-1.32-1.07-2.03-1.35-2.26-2.38-4.72-2.99-7.31-.76-2.95-.72-6.16.04-9.09,1.91-6.62,8.13-11.77,14.2-16.07.77-1.84,1.7-3.66,2.73-5.48-3.91,2.85-7.45,4.21-10.37,4.8Z"/><path class="uuid-e3268f95-57cd-4028-bd14-bde6de127f4f" d="M44.05,123.77c.72-.09,1.46-.06,2.21.1,1.09.24,2.07.69,2.91,1.28.03-.05.06-.11.09-.16,2.27-4.13,4.14-7.53,6.5-9.6.92-2.93,1.44-5.83,1.58-8.63-4.87-.09-9.01-.72-9.52-1.77-.09-.19-.31-.83.65-1.36,1.77-.97,4.74-2.95,8.07-5.24-1.36-5.36-4.36-9.87-8.79-12.8.1,9.36-2.83,18.96-5.79,25.22.28,1.79.62,3.46.96,5.08.59,2.82,1.12,5.4,1.13,7.87Z"/><path class="uuid-e3268f95-57cd-4028-bd14-bde6de127f4f" d="M50.29,125.55c-.06.12-.13.24-.2.36.82.8,1.42,1.76,1.73,2.84.37,1.32.23,2.66-.36,3.79.12-.01.23-.02.35-.02.02,0,.04,0,.07,0,.4-.17.75-.29.95-.35,2.26-1.33,4.49-2.54,6.67-3.62.63-.45,1.27-.93,1.93-1.46,6.36-5.11,4.14-11.57,3.54-12.99-.47.02-1.59.08-4.26.31-4.52.39-7,4.9-10.43,11.14Z"/><path class="uuid-e3268f95-57cd-4028-bd14-bde6de127f4f" d="M53.82,132.93c.51.22.98.51,1.38.91,1.12,1.09,1.81,2.94,1.86,4.73,13.75,3.62,20.96-6.23,22.27-8.25.94-1.45,2.53-3.82,4.06-6.08-.09-.65-.16-1.3-.21-1.95-1.67.75-3.68,1.39-5.94,1.59-5.98.53-14.49,3.82-23.42,9.04Z"/><path class="uuid-e3268f95-57cd-4028-bd14-bde6de127f4f" d="M70.05,150.15c-.77-1-1.07-1.79-.91-2.42l.04-.17c-5.09-2.81-10.39-4.25-13.75-4.95-.18.13-.37.25-.58.35-.56.25-1.18.41-1.82.5.25.31.43.67.53,1.06l.04.03c1.19.93,4.72,6.04,6,12.16,4.87,4.81,11.74,8.34,21.74,6.06-.24-1.67-.73-3.27-1.44-4.79-4.23-2.55-8.14-5.64-9.84-7.84Z"/><path class="uuid-e3268f95-57cd-4028-bd14-bde6de127f4f" d="M49.93,151.34c-.51.14-1.03.2-1.54.2-.03,0-.05,0-.08,0,.44,1.43.63,3.14.54,5.14-.06,2.29-.37,4.7-.89,7.05,1.22,3.2,3.33,5.85,6.84,7.02,2.84-2.59,4.23-6.02,4.11-10.19-.17-5.88-3.41-11.94-5.24-14.25-.08,1.7-.65,4.21-3.75,5.04Z"/><path class="uuid-e3268f95-57cd-4028-bd14-bde6de127f4f" d="M47.03,151.38c-.95-.2-1.83-.59-2.56-1.11.11,1.48-.63,2.87-2.12,3.79-.98.61-2.17.94-3.37.94-.13,0-.26-.01-.39-.02-.54,1.13-1.01,2.18-1.32,3.07-.87,2.55-3.58,5.51-6.44,8.2-1.73,6.65-1.69,13.58,3.09,21.68,2.14-5.68,4.48-8.93,7.34-12.06,3-3.28,6.23-11.37,6.42-19.25.09-2.13-.14-3.87-.66-5.25Z"/><path class="uuid-e3268f95-57cd-4028-bd14-bde6de127f4f" d="M36.17,157.68c.29-.86.73-1.84,1.22-2.89-1.14-.31-2.21-.96-3.01-2.04-.48-.65-.81-1.32-1-1.98-2.85,1.37-6.03,2.56-9.48,3.54-4.32,4.09-7.47,9.79-6.92,18.28,2.73.5,4.35.63,7.61-2.29.47-.42.99-.88,1.54-1.36,3.74-3.29,8.86-7.8,10.03-11.25Z"/><path class="uuid-e3268f95-57cd-4028-bd14-bde6de127f4f" d="M33.55,147.22c-.11.08-.22.17-.34.24-.78.46-1.64.69-2.51.69-1.17,0-2.37-.41-3.42-1.22-1.72-1.32-2.51-2.97-2.35-4.91-1.21-.13-2.37-.3-3.47-.51-7.44.88-16.68,5.35-21.47,14.99,12.97-.28,24.64-2.75,33.18-6.93-.06-.85.09-1.66.38-2.36Z"/><path class="uuid-e3268f95-57cd-4028-bd14-bde6de127f4f" d="M28.54,133c-.14-1.33.09-2.48.69-3.42.47-.74,1.16-1.34,2.05-1.78-.89-2.29-1.63-4.47-2.24-6.53-6.31-11.2-18.14-13.5-25.32-12.86,1.79,1.02,4.5,3.19,5.49,7.36.84,3.5,3.02,6,5.8,9.16,1.37,1.56,2.91,3.33,4.47,5.43.66.03,1.29.09,1.88.17,2.64.38,5.19,1.34,7.19,2.48Z"/><path class="uuid-e3268f95-57cd-4028-bd14-bde6de127f4f" d="M28.38,105.81c-.57,6.28.66,13.01,3.98,21.56.27-.08.54-.16.83-.23,1.97-.43,3.92.57,5.14,2.02,0,0,0,0,0,0,0-.01,0-.03,0-.04.21-1.06.74-2.15,1.54-3.09.85-.98,1.88-1.67,3-2.03.03-2.44-.51-5.04-1.1-7.88-.4-1.94-.82-3.94-1.13-6.16-1-7.16-10.68-13.3-12.23-13.3,0,0-.02,0-.03,0-.19,0-.24.04-.24.04-.11.15-.01.99.07,1.72.18,1.55.46,3.9.15,7.38Z"/><path class="uuid-e3268f95-57cd-4028-bd14-bde6de127f4f" d="M26.15,138.37c.46-.85,1.64-1.68,3-2.12.24-.08.48-.15.73-.2,0,0-.02-.01-.02-.02-.45-.41-.79-.91-1-1.47-1.87-1.23-4.6-2.43-7.68-2.88-3.23-.47-7.87-.24-11.96,3.38,2.67,2.38,8.11,4.98,15.91,5.82.2-.79.54-1.63,1.02-2.52Z"/><path class="uuid-e3268f95-57cd-4028-bd14-bde6de127f4f" d="M48.21,142.39s-.01,0-.02-.01v.02s0,0,.02,0Z"/><path class="uuid-e3268f95-57cd-4028-bd14-bde6de127f4f" d="M27.17,138.92c-1.7,3.11-1.44,5.36.82,7.09,1.45,1.11,3.22,1.28,4.63.45,1.48-.87,2.17-2.66,1.89-4.79l-.28-1.78c-.36-1.6-1.18-2.54-2.46-2.77-1.93-.35-4.14.96-4.6,1.8Z"/><path class="uuid-e3268f95-57cd-4028-bd14-bde6de127f4f" d="M47,142.79s-.01.03-.02.04c.02,0,.05-.02.07-.03h-.04Z"/><path class="uuid-e3268f95-57cd-4028-bd14-bde6de127f4f" d="M33.44,128.28c-1.55.34-2.64.99-3.23,1.92-.58.91-.7,2.12-.37,3.6.32,1.4,1.51,1.95,2.2,2.16,1.29.39,2.85.18,3.54-.47h0l2.1-1.7c1.15-.88.7-2.25.44-2.8-.76-1.66-2.71-3.12-4.68-2.69Z"/><path class="uuid-e3268f95-57cd-4028-bd14-bde6de127f4f" d="M55.83,139.75c.31-1.76-.32-3.98-1.44-5.08-.66-.65-1.55-1-2.49-1-.02,0-.05,0-.07,0-.98.02-1.92.43-2.58,1.12-.07.07-.18.17-.29.28-.15.14-.43.4-.49.5-.41.6-.64,1.2-.81,2.07-.37,1.92.29,3.43,1.81,4.15,1.5.71,3.47.75,4.92.1.95-.43,1.31-1.41,1.44-2.16Z"/><path class="uuid-e3268f95-57cd-4028-bd14-bde6de127f4f" d="M49.63,150.22c2.66-.71,2.96-2.83,2.89-5.01-.03-.81-.63-1.51-1.5-1.74l-.06-.02c-.39-.08-.76-.11-1.1-.11-1.46,0-2.61.61-3.9,1.29-.38.2-.76.4-1.17.6-.75.45-1.59,1.28-1.07,2.51.7,1.65,3.49,3.13,5.9,2.49Z"/><path class="uuid-e3268f95-57cd-4028-bd14-bde6de127f4f" d="M41.74,153.07c.58-.36,2.37-1.7,1.21-3.96l-.04-.12c-.02-.07-.48-1.63-2.71-2.61l-.69-.27s-.07-.02-.1-.04h0s-.48-.19-.48-.19h0c-1.7-.73-3.07-.01-3.8.9-.95,1.2-1.26,3.3.19,5.27,1.58,2.14,4.5,2.19,6.41,1.01Z"/><path class="uuid-e3268f95-57cd-4028-bd14-bde6de127f4f" d="M41.83,133.08l2.49.96h0s.09.03.13.05l.28.11c1.72.55,3.99-.45,5.15-1.42h0c.9-1,1.2-2.33.81-3.71-.56-1.98-2.36-3.54-4.68-4.06-1.98-.44-3.89.22-5.26,1.8-1.09,1.26-1.58,2.87-1.28,4.05.43.89,1.31,1.75,2.35,2.23Z"/><path class="uuid-e3268f95-57cd-4028-bd14-bde6de127f4f" d="M40.72,145.34c.63.24,1.34.13,1.86-.3l3.1-2.51c.52-.42.78-1.1.68-1.76l-.62-3.94c-.11-.66-.56-1.23-1.19-1.47l-3.72-1.43c-.22-.08-.45-.13-.67-.13-.43,0-.85.14-1.19.42l-3.1,2.51c-.52.42-.78,1.1-.68,1.76l.62,3.94c.11.66.56,1.23,1.19,1.47l2.92,1.12c.26.09.5.18.72.28l.08.03Z"/><path class="uuid-e3268f95-57cd-4028-bd14-bde6de127f4f" d="M105.18,77.3c1.18.64,1.99,1.46,2.4,2.47.49,1.2.4,2.59-.26,4.14-.05.13-.12.24-.18.36.07,0,.15-.01.22-.02,2.6-1.31,4.79-2.4,6.95-3.14,4.44-3.67,6.75-9.38,7.15-11.67.28-1.6.78-3.05,1.19-4.22.17-.49.37-1.07.46-1.45-.78.11-1.54-.06-2.23-.22-.54-.12-1.04-.24-1.46-.21-6.4.25-9.92,3.06-13.16,8.09-.34,1.62-.71,3.51-1.06,5.81v.07Z"/><path class="uuid-e3268f95-57cd-4028-bd14-bde6de127f4f" d="M94.76,72.01c1.58.36,2.93,1.35,3.83,2.86.56.95.86,2,.89,2.97,1.25-1,2.99-1.55,4.59-1.03h.01c.66-4.28,1.35-7.14,1.91-9.45.8-3.31,1.24-5.13.72-7.78-.8-4.07-.51-9.65-.41-11.26-1.02-.3-4.03-.76-7.29,2.92-3.91,4.41-6.24,7.37-6.17,13.38.72,2.06,1.35,4.48,1.9,7.31,0,.02.01.04.02.06Z"/><path class="uuid-e3268f95-57cd-4028-bd14-bde6de127f4f" d="M89.41,73.07c1.06-.71,2.35-1.15,3.76-1.2.13,0,.25,0,.37,0-2.11-10.57-5.17-15.02-11.18-16.19-.91.96-.66,2.97-.38,5.27.16,1.3.33,2.77.33,4.25,1.11,1.12,2.15,2.29,3.07,3.5l4.03,4.37Z"/><path class="uuid-e3268f95-57cd-4028-bd14-bde6de127f4f" d="M82.03,80.95c.41-.65.92-1.2,1.49-1.58.96-.65,2.13-.88,3.3-.65.08.02.15.05.23.07-.32-1.1-.23-2.3.32-3.42.29-.59.68-1.11,1.15-1.56l-4.04-4.38c-6.03-7.95-16.04-13.35-20.31-12.51-.58.11-.8.23-.87.28.08.23.53.76.87,1.16.71.82,1.67,1.95,2.34,3.43.12.27.27.61.44,1,1.37,3.12,4.36,9.92,7.18,12.6,3.05.82,5.18,2.9,7.46,5.14.14.14.29.28.44.43Z"/><path class="uuid-e3268f95-57cd-4028-bd14-bde6de127f4f" d="M81.05,85.74c-.09-.35-.14-.73-.14-1.14,0-.86.21-1.75.56-2.57-.23-.23-.47-.45-.7-.68-4.21-4.13-7.54-7.39-17.48-3.26-.51,3.75.2,6.55,2.11,8.32,1.54,1.42,3.64,1.95,5.42,2.11,2.75-1.73,6.93-2.47,10.23-2.77Z"/><path class="uuid-e3268f95-57cd-4028-bd14-bde6de127f4f" d="M71.79,103.82c2.63-1.14,5.05-3,7.1-5.07.17-.25.34-.5.52-.75.95-1.3,1.99-2.5,3.01-3.55.22-.33.43-.65.63-.97-.49-1.43-.18-2.93-.02-3.69.12-.55.41-1.03.81-1.4-.54-.18-1.05-.41-1.49-.71-.32-.22-.59-.5-.81-.83-3.29.28-7.66.98-10.29,2.75-2.47,1.66-5.51,3.79-8.45,5.85-5.35,3.74-10.87,7.61-13.68,9.16,2.34,1.07,16.8,1.76,22.68-.79Z"/><path class="uuid-e3268f95-57cd-4028-bd14-bde6de127f4f" d="M76.87,114.85c3.61.9,5.8-1.23,7.45-4.17,1.19-4.39,3.22-8.8,6.11-13.22-.1-.49-.1-.99,0-1.48-.78.35-1.68.55-2.59.55-.82,0-1.65-.16-2.43-.53-.72-.34-1.25-.77-1.64-1.23-4.33,4.24-9.5,11.44-6.9,20.08Z"/><path class="uuid-e3268f95-57cd-4028-bd14-bde6de127f4f" d="M96.92,108.24c-1.21-2.37-1.86-4.94-2.04-7.14-1.17-.16-2.29-.68-3.13-1.44-.32-.28-.56-.6-.78-.92-8.03,12.66-8.88,25.21-2.52,37.33,3.94-3.84,6.8-7.55,8.66-11.38-1.08-5.08-.84-11.97.69-14.91-.34-.53-.64-1.05-.89-1.54Z"/><path class="uuid-e3268f95-57cd-4028-bd14-bde6de127f4f" d="M106.48,95.72c-.14.07-.29.13-.44.19,1.8,3.47,2.9,6.47,3.29,9.14,3.82,3.51,8.38,5.43,13.19,5.39.8-6.04-2.88-10.68-6.18-13.55-3.04-.45-6.08-1.19-8.35-2.26-.42.41-.92.77-1.52,1.08Z"/><path class="uuid-e3268f95-57cd-4028-bd14-bde6de127f4f" d="M104.92,96.25c-.3.05-.59.09-.89.09-1.1,0-2.16-.37-3.01-1.11-.05-.05-.1-.1-.15-.15.26,1.47-.15,3.24-1.7,4.7-.92.87-2.02,1.28-3.12,1.36.18,2.02.79,4.4,1.9,6.57.17.34.37.7.59,1.06.35-.33.73-.53,1.16-.58l.28-.03.2.2c.95.99,1.96,1.99,3.02,3.05.86.86,1.75,1.74,2.64,2.66,3.53-4.51,3.28-9.81-.93-17.82Z"/><path class="uuid-e3268f95-57cd-4028-bd14-bde6de127f4f" d="M106.73,85.86c1.06.62,1.91,1.5,2.18,2.3.76,2.27.7,4.13-.16,5.55,4.3,1.91,11.83,2.87,16.38,2.46,2.62-.23,5.67-1.22,8.89-2.26,3.58-1.16,7.28-2.35,11.11-2.81,3.61-.43,4.96-1.41,5.45-2.17.18-.27.25-.52.27-.72-1.99.08-8.65.14-13.81-2.44-16.45-6.9-19.96-5.13-29.35-.4l-.95.48Z"/><path class="uuid-e3268f95-57cd-4028-bd14-bde6de127f4f" d="M107.81,88.52c-.27-.8-2.05-2.32-3.78-2.32h0c-1.16,0-2.04.7-2.61,2.06l-.54,1.54c-.6,1.85-.27,3.55.9,4.56,1.11.96,2.71,1.09,4.17.34,2.28-1.18,2.87-3.13,1.86-6.17Z"/><path class="uuid-e3268f95-57cd-4028-bd14-bde6de127f4f" d="M103.94,77.99c-1.65-.68-3.66.32-4.57,1.64-.31.44-.92,1.57-.06,2.52l1.64,1.9c.52.67,1.84,1.09,3.03.95.63-.07,1.77-.37,2.28-1.55.53-1.25.62-2.34.25-3.24-.37-.92-1.24-1.66-2.56-2.22Z"/><path class="uuid-e3268f95-57cd-4028-bd14-bde6de127f4f" d="M85.93,79.79c-.63,0-1.24.18-1.77.54-1.17.79-2.08,2.67-2.09,4.28,0,.68.16,1.6.92,2.12,1.18.81,2.94,1.09,4.39.7,1.45-.39,2.28-1.63,2.26-3.38,0-.8-.12-1.38-.38-1.97-.04-.09-.25-.37-.36-.52-.09-.12-.17-.23-.22-.31-.47-.72-1.24-1.23-2.1-1.4-.22-.04-.44-.06-.65-.06Z"/><path class="uuid-e3268f95-57cd-4028-bd14-bde6de127f4f" d="M92.85,81.37l.27-.05s.08-.02.12-.03h0s2.4-.45,2.4-.45c1-.26,1.92-.88,2.44-1.6.45-.99.27-2.5-.49-3.79-.96-1.62-2.55-2.51-4.38-2.44-2.15.09-4,1.18-4.81,2.85-.56,1.16-.51,2.38.11,3.4h0c.87,1.05,2.73,2.3,4.34,2.09Z"/><path class="uuid-e3268f95-57cd-4028-bd14-bde6de127f4f" d="M85.91,94.95c2.04.96,4.75.1,5.63-1.25.52-.79.32-1.6-.58-2.39-.29-.21-.6-.45-.91-.69-1.32-1.03-2.36-1.85-4.2-1.85-.03,0-.07,0-.1,0-.8.07-1.44.58-1.59,1.28-.41,1.93-.49,3.86,1.75,4.91Z"/><path class="uuid-e3268f95-57cd-4028-bd14-bde6de127f4f" d="M99.4,94.3c-.49-.92-1.59-1.77-3.2-1.39h0s-.47.08-.47.08h0s-.06.01-.09.02l-.64.12s0,0,0,0c-2.14.51-2.81,1.82-2.84,1.89l-.06.11c-1.38,1.8,0,3.27.44,3.68,1.51,1.36,4.1,1.78,5.85.14,1.61-1.52,1.67-3.42,1.02-4.64Z"/><path class="uuid-e3268f95-57cd-4028-bd14-bde6de127f4f" d="M91.56,83.76l-1.11,3.19c-.22.63-.09,1.34.35,1.85l2.21,2.56c.44.51,1.12.74,1.78.62l3.32-.63c.66-.13,1.21-.6,1.43-1.23l1.11-3.19c.22-.64.09-1.35-.35-1.86l-2.21-2.56c-.44-.51-1.12-.75-1.78-.62l-3.32.63c-.66.13-1.21.6-1.43,1.23Z"/><path class="uuid-e3268f95-57cd-4028-bd14-bde6de127f4f" d="M133.56,162.24c-.46-.78-.84-1.49-1.16-2.17-.34.07-.69.11-1.04.11s-.7-.04-1.05-.11c.38.98.32,2.11-.26,3.23-.73,1.42-2.15,2.57-3.8,2.94.92,1.01,2.17,2.22,3.9,3.69,1.57,1.34,2.93,2.99,4.07,4.91,3.31,1.33,5.92,1.75,6.93,1.87.17-.68.47-2.14.49-4.14-3.1-2.69-5.53-6.07-8.08-10.35Z"/><path class="uuid-e3268f95-57cd-4028-bd14-bde6de127f4f" d="M132.34,132.05l-5.56,8.84c.22.48.34.98.38,1.5.06-.04.11-.09.17-.13.99-.62,2.16-.81,3.28-.55,1.57.37,3.15,1.75,3.97,3.38,9.45-1.54,11.97-6.6,16.91-16.55,1.07-2.16,2.27-4.58,3.68-7.23h-.09c-8.49,0-16.2,3.68-22.74,10.75Z"/><path class="uuid-e3268f95-57cd-4028-bd14-bde6de127f4f" d="M136.67,155.21c-.13,1.25-.85,2.51-2.17,3.77-.3.29-.64.52-1,.7.29.61.64,1.26,1.05,1.95,6.68,11.21,12.25,15.66,30.18,18.27.04,0,.08-.01.1-.03.02-.02.05-.05.05-.1.38-4.79-4.23-10.78-5.96-13.03-1.16-1.51-4.28-3.04-8.22-4.98-2.53-1.25-5.52-2.72-8.58-4.49-1.51-.34-3.07-.89-4.68-1.68-.28-.14-.54-.27-.79-.4Z"/><path class="uuid-e3268f95-57cd-4028-bd14-bde6de127f4f" d="M118.46,137.92v.48c.2-.09.41-.18.62-.25,2.42-.8,4.94-.34,6.58,1.21.15.14.29.29.42.45l5.61-8.92c5.12-9.2,3.63-20.47,2.29-26.37-.04-.17-.16-.32-.32-.39-.08-.03-.15-.05-.23-.05-.1,0-.2.03-.29.08-12.08,7-16.61,17.42-14.67,33.76Z"/><path class="uuid-e3268f95-57cd-4028-bd14-bde6de127f4f" d="M102.39,112.24c-.98-.98-1.91-1.9-2.8-2.82-.25.13-.46.4-.61.64-1.78,2.88-1.79,12.19-.02,16.88,1.25,3.3,5.05,8.48,9.12,12.75,2.07,1.31,4.4,3.06,7.04,5.34-.12-.7-.12-1.45,0-2.21.27-1.55,1.04-2.82,2.18-3.7-.36-12.38-8.42-20.4-14.91-26.86Z"/><path class="uuid-e3268f95-57cd-4028-bd14-bde6de127f4f" d="M113.53,145.19c-10.16-8.56-15.26-8.61-18.8-7.2,2.1,5.51,3.84,7.8,10.27,9.25,1.16.18,2.27.39,3.34.62.11.02.22.03.34.05.32-.53.75-1.05,1.27-1.56.99-.95,2.3-1.27,3.59-1.17Z"/><path class="uuid-e3268f95-57cd-4028-bd14-bde6de127f4f" d="M109.43,154.13c-1.43-1.68-1.86-3.43-1.28-5.12-12.17-2.74-31.29-1.25-37.81-.62.08.23.26.56.64,1.05,3,3.89,13.67,10.97,19.62,11.87l18.84-7.17Z"/><path class="uuid-e3268f95-57cd-4028-bd14-bde6de127f4f" d="M110.22,158.65c-.03-.91.54-2.17,1.44-3.17-.46-.07-.89-.23-1.27-.47l-19.34,7.37c-2.89,4.71-3.2,8.49-2.82,9.13.21.21,2.16,1.12,5.3,1.14,3.78,0,9.34-1.3,15.72-6.77.66-1.09,1.34-2.2,2.04-3.32-.63-.99-1-2.28-1.06-3.91Z"/><path class="uuid-e3268f95-57cd-4028-bd14-bde6de127f4f" d="M120.56,163.67c-.25-.46-.42-.93-.51-1.4-.03.05-.04.11-.07.17-.82,1.51-2.4,2.39-4.21,2.39-.22,0-.44-.01-.66-.04-1.26-.15-2.26-.59-3.03-1.29-6.33,10.22-11.22,18.44-6.13,30.51,5.54-2.43,11.25-9.55,14.02-17.56.08-.22.14-.43.21-.65-.67-4.41-.62-8.92.39-12.13Z"/><path class="uuid-e3268f95-57cd-4028-bd14-bde6de127f4f" d="M160.18,139.63c-10.9-3.39-22.04,6.55-25.35,11.39.08.07.16.14.23.21.81.86,1.31,1.74,1.52,2.62.4.22.85.45,1.39.72,12.82,6.32,22.99-3.99,26.33-7.38.35-.36.64-.65.85-.84,1.32-1.22,3.89-1.79,5.96-2.24.6-.13,1.29-.28,1.75-.42-.68-.42-1.22-.58-4.03-1.42-1.78-.53-4.47-1.33-8.65-2.63Z"/><path class="uuid-e3268f95-57cd-4028-bd14-bde6de127f4f" d="M129.4,170.82c-1.97-1.67-3.49-3.15-4.58-4.45-.52-.04-1.05-.15-1.57-.37-.74-.31-1.32-.72-1.8-1.19-1.68,6.81.63,18.91,4.56,23.15,1.68,1.81,2.87,2.55,3.83,3.15,1.38.86,2.38,1.48,3.41,4.33,1.09,3.01,2.71,4.11,3.57,4.5.46-3.63,2.12-21.02-7.42-29.12Z"/><path class="uuid-e3268f95-57cd-4028-bd14-bde6de127f4f" d="M129.02,162.77c.27-.53,1.02-2.35-.87-3.54h0s-.08-.05-.11-.07c-.13-.08-.23-.18-.35-.27-.55-.33-1.74-.81-3.62-.36h0s-.46.08-.46.08h0c-1.61.22-2.33,1.38-2.46,2.39-.18,1.34.54,3.08,2.55,3.91,2.17.91,4.42-.38,5.33-2.15Z"/><path class="uuid-e3268f95-57cd-4028-bd14-bde6de127f4f" d="M133.7,158.15c2.3-2.22,2.46-4.05.51-6.12-.91-.97-2.24-.81-2.95-.63-1.62.41-2.94,1.58-3.16,2.41h0s-.69,1.89-.69,1.89c-.23,1.01.43,1.8.93,2.22.25.15.42.28.5.36,1.42.89,3.56,1.14,4.88-.13Z"/><path class="uuid-e3268f95-57cd-4028-bd14-bde6de127f4f" d="M113.06,154.27c.19-.05.37-.11.56-.18.01,0,.02-.01.03-.02.01,0,.02,0,.03-.01,1.22-.5,2.26-1.5,2.59-2.31l.8-2.18c.24-1.26-.92-2.16-1.31-2.43-1.42-.95-3.65-1.25-5.01.05-2.18,2.1-2.24,4.28-.17,6.49.76.81,1.77.77,2.48.59Z"/><path class="uuid-e3268f95-57cd-4028-bd14-bde6de127f4f" d="M119.45,139.24c-1.71.57-2.87,1.94-3.19,3.76-.25,1.45.1,2.9.86,3.66.73.48,1.78.73,2.79.62l2.38-.41h0c1.73-.13,3.18-2.12,3.66-3.5h0c.22-1.16-.16-2.3-1.08-3.17-1.33-1.26-3.41-1.62-5.42-.95Z"/><path class="uuid-e3268f95-57cd-4028-bd14-bde6de127f4f" d="M133.74,146.05c-.56-1.48-2.06-2.89-3.41-3.21-.81-.19-1.66-.05-2.39.4-.73.46-1.26,1.19-1.45,2.02-.02.09-.06.22-.1.36-.05.18-.14.5-.15.6-.04.64.06,1.2.33,1.95.59,1.62,1.77,2.47,3.25,2.33,1.46-.14,2.99-1.01,3.8-2.17.52-.75.35-1.65.11-2.27Z"/><path class="uuid-e3268f95-57cd-4028-bd14-bde6de127f4f" d="M115.23,163.64c1.6.18,3.03-.49,3.72-1.76.72-1.33.44-3.01-.75-4.5l-1.04-1.25c-.99-1.04-2.03-1.38-3.08-.99-.02,0-.03.01-.05.02-1.58.62-2.68,2.62-2.65,3.43.12,3.14,1.34,4.74,3.85,5.04Z"/><path class="uuid-e3268f95-57cd-4028-bd14-bde6de127f4f" d="M134.28,150.61c.09.06.18.12.27.19-.02-.03-.04-.06-.06-.09-.02-.03-.1-.06-.21-.09Z"/><path class="uuid-e3268f95-57cd-4028-bd14-bde6de127f4f" d="M124.72,148.58c-.36-.43-.9-.68-1.45-.68-.11,0-.21,0-.32.03l-3.24.57c-.66.11-1.22.58-1.45,1.21l-1.13,3.09c-.23.63-.11,1.34.32,1.86l2.11,2.53c.43.52,1.11.77,1.77.65l2.64-.46c.21-.05.42-.08.62-.11.66-.12,1.21-.58,1.44-1.21l1.13-3.09c.23-.63.11-1.34-.32-1.86l-2.11-2.53Z"/><path class="uuid-5deaae0f-3b03-4144-8d44-6f411c47b3d7" d="M668.01,139.3l-34.06-1.07c0,.33-.02.65-.02.98,0,2.44.12,4.85.31,7.24l37.39-3.53-3.62-3.62Z"/></svg>