<?xml version="1.0" encoding="UTF-8"?>
<svg xmlns="http://www.w3.org/2000/svg" id="uuid-d05bcc97-b452-4256-a293-b21f33602025" viewBox="0 0 880.31 283.61"><defs><style>.uuid-76d2aac0-10dc-4479-8811-d1ccff6cfbe3{fill:#fff6e7;}.uuid-76d2aac0-10dc-4479-8811-d1ccff6cfbe3,.uuid-ca563324-0151-4b7f-a536-414bcf166ab3{stroke-width:0px;}.uuid-ca563324-0151-4b7f-a536-414bcf166ab3{fill:#ff5400;}</style></defs><rect class="uuid-ca563324-0151-4b7f-a536-414bcf166ab3" x="-8365.7" width="14005.76" height="283.61"/><path class="uuid-76d2aac0-10dc-4479-8811-d1ccff6cfbe3" d="M370,104.29v3.31c0,31.85-11.23,41.97-26.14,41.97v65.54h-12.89V62.32h11.97c15.46,0,27.06,10.12,27.06,41.97ZM344.77,139.46c6.81,0,11.97-5.89,11.97-23.93v-19.15c0-18.04-5.16-23.93-11.97-23.93h-.92v67.01h.92Z"/><path class="uuid-76d2aac0-10dc-4479-8811-d1ccff6cfbe3" d="M417.31,62.32l13.62,150.96v1.84h-12.89l-2.58-40.5h-11.78l-2.58,40.5h-11.97v-1.84l13.62-150.96h14.54ZM414.73,163.57l-4.23-63.7h-1.84l-4.23,63.7h10.31Z"/><path class="uuid-76d2aac0-10dc-4479-8811-d1ccff6cfbe3" d="M497.57,101.9v3.31c0,18.41-4.79,30.93-13.81,37v1.84c7.18,4.42,9.21,10.12,9.57,24.12l.74,26.69c.18,8.1.92,14.36,2.95,18.41v1.84h-13.25c-1.47-4.23-1.84-9.21-2.03-16.02l-1.29-37.56c-.37-9.02-3.5-12.89-9.21-12.89v66.46h-12.89V62.32h12.89c14.36,0,26.33,11.05,26.33,39.58ZM472.17,138.54c7.36,0,12.15-6.44,12.15-25.77v-14.54c0-19.33-4.79-25.77-12.15-25.77h-.92v66.09h.92Z"/><path class="uuid-76d2aac0-10dc-4479-8811-d1ccff6cfbe3" d="M555.74,62.32v10.68h-12.89v142.12h-12.89V73h-12.89v-10.68h38.66Z"/><path class="uuid-76d2aac0-10dc-4479-8811-d1ccff6cfbe3" d="M600.11,62.32l13.62,150.96v1.84h-12.89l-2.58-40.5h-11.78l-2.58,40.5h-11.97v-1.84l13.62-150.96h14.54ZM597.54,163.57l-4.23-63.7h-1.84l-4.23,63.7h10.31Z"/><path class="uuid-76d2aac0-10dc-4479-8811-d1ccff6cfbe3" d="M659.76,61.22c12.89,0,19.51,11.05,19.51,27.61v26.88h-11.41c-1.29-5.52-1.47-11.97-1.47-18.41v-14.91c0-6.44-2.39-10.49-6.63-10.49-4.6,0-7.18,4.05-7.18,11.05v111.38c0,7,2.58,11.05,7.18,11.05,4.23,0,6.63-4.05,6.63-10.49v-50.63h12.89v70.88h-6.44l-1.47-9.21h-1.84c-.92,5.52-4.79,10.12-12.33,10.12-11.04,0-18.41-9.94-18.41-25.77v-95.92c0-21.17,7.18-33.14,20.99-33.14Z"/><path class="uuid-76d2aac0-10dc-4479-8811-d1ccff6cfbe3" d="M741.68,62.32v10.68h-19.51v58.91h17.31v10.68h-17.31v61.86h19.51v10.68h-32.4V62.32h32.4Z"/><circle class="uuid-76d2aac0-10dc-4479-8811-d1ccff6cfbe3" cx="25.8" cy="87.02" r="25.8"/><circle class="uuid-76d2aac0-10dc-4479-8811-d1ccff6cfbe3" cx="77.41" cy="87.02" r="25.8"/><circle class="uuid-76d2aac0-10dc-4479-8811-d1ccff6cfbe3" cx="129.02" cy="87.02" r="25.8"/><circle class="uuid-76d2aac0-10dc-4479-8811-d1ccff6cfbe3" cx="25.8" cy="138.63" r="25.8"/><circle class="uuid-76d2aac0-10dc-4479-8811-d1ccff6cfbe3" cx="77.41" cy="138.63" r="25.8"/><circle class="uuid-76d2aac0-10dc-4479-8811-d1ccff6cfbe3" cx="129.02" cy="138.63" r="25.8"/><circle class="uuid-76d2aac0-10dc-4479-8811-d1ccff6cfbe3" cx="25.8" cy="190.23" r="25.8"/><circle class="uuid-76d2aac0-10dc-4479-8811-d1ccff6cfbe3" cx="77.41" cy="190.23" r="25.8"/><circle class="uuid-76d2aac0-10dc-4479-8811-d1ccff6cfbe3" cx="129.02" cy="190.23" r="25.8"/><ellipse class="uuid-76d2aac0-10dc-4479-8811-d1ccff6cfbe3" cx="933.8" cy="88.3" rx="53.5" ry="25.44"/></svg>