<?xml version="1.0" encoding="UTF-8"?>
<svg xmlns="http://www.w3.org/2000/svg" id="uuid-869cc122-919c-4590-b8dc-2547250443f7" viewBox="0 0 895.9 283.61"><defs><style>.uuid-d6a606ba-9d7b-4dfc-beb2-caf6539a6366{fill:#fff6e7;}.uuid-d6a606ba-9d7b-4dfc-beb2-caf6539a6366,.uuid-3d370c8b-3953-467b-bc0b-29e9ab4faa83{stroke-width:0px;}.uuid-3d370c8b-3953-467b-bc0b-29e9ab4faa83{fill:#ff5400;}</style></defs><rect class="uuid-3d370c8b-3953-467b-bc0b-29e9ab4faa83" x="-9997.43" width="14005.76" height="283.61"/><path class="uuid-d6a606ba-9d7b-4dfc-beb2-caf6539a6366" d="M363.94,100.24v2.95c0,19.15-7.18,28.9-12.89,33.51v1.84c6.08,3.87,13.25,12.89,13.25,32.95v5.34c0,28.54-11.6,38.29-27.06,38.29h-12.33V62.32h11.97c15.46,0,27.06,9.21,27.06,37.92ZM338.71,133.01c6.81,0,11.97-5.89,11.97-23.93v-12.7c0-18.04-5.16-23.93-11.97-23.93h-.92v60.57h.92ZM339.08,204.99c6.81,0,11.97-6.44,11.97-25.77v-10.31c0-19.33-5.16-25.77-11.97-25.77h-1.29v61.86h1.29Z"/><path class="uuid-d6a606ba-9d7b-4dfc-beb2-caf6539a6366" d="M411.8,61.22c13.81,0,21.17,12.33,21.17,33.14v88.74c0,20.8-7.36,33.14-21.17,33.14s-21.17-12.33-21.17-33.14v-88.74c0-20.8,7.36-33.14,21.17-33.14ZM411.8,205.55c4.79,0,7.36-4.05,7.36-11.05v-111.56c0-7-2.58-11.05-7.36-11.05s-7.36,4.05-7.36,11.05v111.56c0,7,2.58,11.05,7.36,11.05Z"/><path class="uuid-d6a606ba-9d7b-4dfc-beb2-caf6539a6366" d="M474.95,62.32l13.62,102.73h1.84l-2.21-102.73h12.15v152.8h-12.52l-13.62-102.73h-1.84l2.21,102.73h-12.15V62.32h12.52Z"/><path class="uuid-d6a606ba-9d7b-4dfc-beb2-caf6539a6366" d="M543.8,62.32v69.96h12.89V62.32h12.89v152.8h-12.89v-72.17h-12.89v72.17h-12.89V62.32h12.89Z"/><path class="uuid-d6a606ba-9d7b-4dfc-beb2-caf6539a6366" d="M632.53,62.32v10.68h-19.51v58.91h17.3v10.68h-17.3v61.86h19.51v10.68h-32.4V62.32h32.4Z"/><path class="uuid-d6a606ba-9d7b-4dfc-beb2-caf6539a6366" d="M679.29,205.55c4.23,0,6.44-3.13,6.44-8.28V62.32h12.15v129.05c0,15.46-6.44,24.85-18.96,24.85s-18.96-9.39-18.96-24.85V62.32h12.89v134.94c0,5.15,2.21,8.28,6.44,8.28Z"/><path class="uuid-d6a606ba-9d7b-4dfc-beb2-caf6539a6366" d="M767.29,101.9v3.31c0,18.41-4.79,30.93-13.81,37v1.84c7.18,4.42,9.21,10.12,9.57,24.12l.74,26.69c.18,8.1.92,14.36,2.95,18.41v1.84h-13.25c-1.47-4.23-1.84-9.21-2.02-16.02l-1.29-37.56c-.37-9.02-3.5-12.89-9.21-12.89v66.46h-12.89V62.32h12.89c14.36,0,26.33,11.05,26.33,39.58ZM741.89,138.54c7.36,0,12.15-6.44,12.15-25.77v-14.54c0-19.33-4.79-25.77-12.15-25.77h-.92v66.09h.92Z"/><path class="uuid-d6a606ba-9d7b-4dfc-beb2-caf6539a6366" d="M119.88,158.41c-.88-1.48-1.59-2.83-2.2-4.11-.65.13-1.3.21-1.97.21s-1.33-.08-1.98-.2c.72,1.85.6,4-.5,6.13-1.39,2.68-4.08,4.87-7.2,5.58,1.74,1.91,4.12,4.22,7.39,6.99,2.98,2.53,5.55,5.66,7.71,9.32,6.28,2.52,11.22,3.33,13.14,3.55.33-1.29.89-4.05.92-7.84-5.88-5.11-10.48-11.51-15.32-19.62Z"/><path class="uuid-d6a606ba-9d7b-4dfc-beb2-caf6539a6366" d="M117.55,101.17l-10.54,16.76c.41.9.64,1.86.72,2.84.11-.08.21-.18.33-.25,1.88-1.17,4.09-1.54,6.21-1.04,2.97.71,5.98,3.32,7.53,6.41,17.91-2.93,22.7-12.51,32.06-31.38,2.03-4.1,4.31-8.69,6.97-13.71h-.16c-16.09,0-30.72,6.97-43.12,20.37Z"/><path class="uuid-d6a606ba-9d7b-4dfc-beb2-caf6539a6366" d="M125.77,145.09c-.25,2.37-1.62,4.76-4.11,7.15-.58.55-1.21.99-1.89,1.33.56,1.15,1.21,2.38,2,3.71,12.67,21.26,23.22,29.69,57.23,34.64.09.01.15-.02.19-.05.04-.03.1-.09.1-.19.71-9.08-8.02-20.43-11.31-24.71-2.2-2.86-8.11-5.77-15.59-9.44-4.81-2.36-10.47-5.15-16.27-8.51-2.87-.65-5.83-1.68-8.87-3.18-.53-.26-1.02-.51-1.49-.75Z"/><path class="uuid-d6a606ba-9d7b-4dfc-beb2-caf6539a6366" d="M91.25,112.29v.91c.39-.17.77-.34,1.18-.48,4.58-1.52,9.37-.64,12.48,2.3.29.27.55.56.79.85l10.63-16.91c9.7-17.45,6.88-38.82,4.33-50.01-.08-.33-.3-.6-.61-.73-.14-.06-.29-.09-.44-.09-.19,0-.38.05-.56.15-22.91,13.28-31.49,33.02-27.81,64.01Z"/><path class="uuid-d6a606ba-9d7b-4dfc-beb2-caf6539a6366" d="M60.77,63.61c-1.86-1.85-3.63-3.61-5.31-5.35-.48.25-.88.77-1.15,1.21-3.38,5.47-3.4,23.11-.03,32,2.37,6.25,9.58,16.07,17.28,24.17,3.93,2.49,8.35,5.8,13.35,10.12-.23-1.32-.24-2.76.01-4.19.51-2.93,1.97-5.35,4.13-7.02-.69-23.48-15.96-38.68-28.28-50.93Z"/><path class="uuid-d6a606ba-9d7b-4dfc-beb2-caf6539a6366" d="M81.89,126.07c-19.26-16.23-28.93-16.33-35.65-13.65,3.99,10.44,7.27,14.79,19.47,17.55,2.19.34,4.31.73,6.33,1.18.21.03.42.06.64.1.61-1.01,1.41-2,2.42-2.96,1.88-1.8,4.37-2.41,6.8-2.22Z"/><path class="uuid-d6a606ba-9d7b-4dfc-beb2-caf6539a6366" d="M74.13,143.04c-2.71-3.19-3.52-6.5-2.43-9.71-23.08-5.2-59.33-2.38-71.7-1.18.16.43.5,1.07,1.21,1.98,5.69,7.37,25.92,20.8,37.21,22.51l35.72-13.6Z"/><path class="uuid-d6a606ba-9d7b-4dfc-beb2-caf6539a6366" d="M75.62,151.6c-.06-1.73,1.02-4.11,2.73-6-.87-.14-1.68-.44-2.41-.9l-36.68,13.97c-5.48,8.94-6.06,16.09-5.34,17.32.39.4,4.09,2.13,10.04,2.15,7.16,0,17.71-2.46,29.81-12.83,1.25-2.08,2.54-4.17,3.86-6.29-1.2-1.88-1.9-4.33-2.01-7.42Z"/><path class="uuid-d6a606ba-9d7b-4dfc-beb2-caf6539a6366" d="M95.22,161.13c-.48-.86-.8-1.77-.97-2.66-.05.1-.08.21-.14.32-1.56,2.87-4.54,4.54-7.98,4.54-.41,0-.83-.02-1.26-.07-2.38-.28-4.28-1.11-5.75-2.45-12,19.38-21.27,34.97-11.63,57.85,10.51-4.61,21.33-18.11,26.58-33.3.14-.41.27-.82.4-1.23-1.26-8.36-1.17-16.9.74-23Z"/><path class="uuid-d6a606ba-9d7b-4dfc-beb2-caf6539a6366" d="M170.34,115.53c-20.68-6.44-41.79,12.42-48.07,21.61.15.13.3.26.44.4,1.53,1.64,2.49,3.3,2.89,4.97.76.41,1.61.86,2.63,1.36,24.32,11.98,43.59-7.57,49.92-14,.67-.68,1.21-1.23,1.61-1.6,2.5-2.31,7.38-3.38,11.31-4.25,1.13-.25,2.45-.54,3.32-.8-1.29-.79-2.3-1.11-7.65-2.69-3.37-1-8.47-2.52-16.4-4.99Z"/><path class="uuid-d6a606ba-9d7b-4dfc-beb2-caf6539a6366" d="M111.99,174.68c-3.74-3.17-6.62-5.98-8.69-8.44-.99-.07-1.99-.29-2.98-.7-1.4-.58-2.51-1.37-3.41-2.25-3.19,12.9,1.19,35.86,8.65,43.89,3.18,3.43,5.45,4.84,7.27,5.97,2.62,1.63,4.51,2.81,6.47,8.22,2.07,5.71,5.14,7.8,6.77,8.53.88-6.89,4.01-39.86-14.07-55.21Z"/><path class="uuid-d6a606ba-9d7b-4dfc-beb2-caf6539a6366" d="M111.28,159.42c.52-1.01,1.94-4.46-1.65-6.7h-.02c-.07-.06-.15-.09-.21-.13-.24-.16-.44-.34-.66-.51-1.05-.63-3.3-1.53-6.86-.68h0s-.87.15-.87.15h0c-3.06.41-4.42,2.62-4.67,4.54-.34,2.55,1.03,5.83,4.83,7.42,4.12,1.72,8.38-.72,10.11-4.08Z"/><path class="uuid-d6a606ba-9d7b-4dfc-beb2-caf6539a6366" d="M120.13,150.66c4.37-4.2,4.66-7.68.97-11.61-1.72-1.84-4.25-1.54-5.6-1.2-3.07.78-5.58,2.99-6,4.57h-.01s-1.32,3.59-1.32,3.59c-.44,1.92.82,3.4,1.76,4.22.47.28.79.54.94.68,2.69,1.68,6.75,2.17,9.26-.24Z"/><path class="uuid-d6a606ba-9d7b-4dfc-beb2-caf6539a6366" d="M81,143.3c.36-.09.71-.21,1.06-.35.02,0,.04-.02.06-.03.02,0,.04-.01.06-.02,2.31-.96,4.28-2.85,4.91-4.38l1.52-4.14c.45-2.4-1.74-4.1-2.48-4.6-2.68-1.8-6.93-2.38-9.51.1-4.14,3.98-4.25,8.12-.33,12.31,1.44,1.54,3.36,1.45,4.71,1.11Z"/><path class="uuid-d6a606ba-9d7b-4dfc-beb2-caf6539a6366" d="M93.13,114.81c-3.23,1.07-5.44,3.67-6.04,7.13-.48,2.75.19,5.5,1.63,6.93,1.38.91,3.37,1.38,5.29,1.18l4.5-.78h0c3.28-.24,6.04-4.02,6.94-6.64h0c.42-2.2-.3-4.37-2.04-6.01-2.52-2.38-6.46-3.08-10.28-1.81Z"/><path class="uuid-d6a606ba-9d7b-4dfc-beb2-caf6539a6366" d="M120.22,127.71c-1.07-2.81-3.91-5.49-6.46-6.09-1.54-.36-3.15-.1-4.54.77-1.39.87-2.39,2.26-2.74,3.83-.04.16-.11.41-.18.68-.09.33-.27.95-.28,1.14-.07,1.21.11,2.28.63,3.69,1.12,3.07,3.36,4.69,6.16,4.41,2.77-.26,5.67-1.92,7.2-4.11.99-1.42.66-3.13.21-4.31Z"/><path class="uuid-d6a606ba-9d7b-4dfc-beb2-caf6539a6366" d="M85.12,161.07c3.04.35,5.74-.92,7.05-3.33,1.37-2.53.83-5.7-1.42-8.54l-1.97-2.36c-1.88-1.97-3.84-2.61-5.85-1.87-.03.01-.07.03-.1.04-3,1.17-5.07,4.96-5.02,6.51.22,5.96,2.55,9,7.3,9.55Z"/><path class="uuid-d6a606ba-9d7b-4dfc-beb2-caf6539a6366" d="M103.11,132.52c-.68-.82-1.7-1.28-2.75-1.28-.2,0-.41.02-.61.05l-6.15,1.07c-1.26.22-2.31,1.1-2.75,2.29l-2.15,5.86c-.44,1.2-.2,2.55.61,3.52l4,4.79c.82.98,2.11,1.45,3.36,1.23l5-.87c.4-.09.79-.16,1.17-.21,1.25-.22,2.29-1.1,2.73-2.29l2.15-5.86c.44-1.2.2-2.55-.61-3.52l-4-4.79Z"/></svg>