<?xml version="1.0" encoding="UTF-8"?>
<svg xmlns="http://www.w3.org/2000/svg" id="uuid-c3e9c0a2-a13e-4ca1-918c-e4d3290a90bb" viewBox="0 0 968.82 283.61"><defs><style>.uuid-394fa85e-bbbd-4b7c-b0f2-fe85b92f9341{fill:#fff6e8;}.uuid-394fa85e-bbbd-4b7c-b0f2-fe85b92f9341,.uuid-2109dfb2-7a00-4a44-af1b-be8d91fedfbc,.uuid-5aff2afb-3d08-4df1-86b6-05a7c661ea7a{stroke-width:0px;}.uuid-2109dfb2-7a00-4a44-af1b-be8d91fedfbc{fill:#fff6e7;}.uuid-5aff2afb-3d08-4df1-86b6-05a7c661ea7a{fill:#ff5400;}</style></defs><rect class="uuid-5aff2afb-3d08-4df1-86b6-05a7c661ea7a" x="-11950.46" width="14005.76" height="283.61"/><path class="uuid-2109dfb2-7a00-4a44-af1b-be8d91fedfbc" d="M395.3,104.29v3.31c0,31.85-11.23,41.97-26.14,41.97v65.54h-12.89V62.32h11.97c15.46,0,27.06,10.12,27.06,41.97ZM370.08,139.46c6.81,0,11.97-5.89,11.97-23.93v-19.15c0-18.04-5.16-23.93-11.97-23.93h-.92v67.01h.92Z"/><path class="uuid-2109dfb2-7a00-4a44-af1b-be8d91fedfbc" d="M435.25,62.32v142.12h18.41v10.68h-31.3V62.32h12.89Z"/><path class="uuid-2109dfb2-7a00-4a44-af1b-be8d91fedfbc" d="M506.12,62.32l13.62,150.96v1.84h-12.89l-2.58-40.5h-11.78l-2.58,40.5h-11.97v-1.84l13.62-150.96h14.54ZM503.54,163.57l-4.23-63.7h-1.84l-4.23,63.7h10.31Z"/><path class="uuid-2109dfb2-7a00-4a44-af1b-be8d91fedfbc" d="M560.06,62.32v152.8h-12.89V62.32h12.89Z"/><path class="uuid-2109dfb2-7a00-4a44-af1b-be8d91fedfbc" d="M600.93,183.82v13.44c0,5.34,2.39,8.65,6.44,8.65,4.42,0,7.36-3.31,7.36-12.7,0-14.54-6.44-34.24-12.89-51.92l-2.95-8.1c-6.26-16.94-11.05-30.74-11.05-46.58s7.36-25.41,20.07-25.41,18.59,9.39,18.59,21.91v27.06h-10.49c-1.29-5.52-1.47-11.97-1.47-18.41v-11.78c0-5.15-2.39-8.47-6.44-8.47-4.42,0-7.36,3.31-7.36,12.7,0,13.25,4.97,27.61,10.31,42.16l2.95,8.1c6.08,16.57,13.62,38.11,13.62,55.6,0,16.38-7.18,26.14-20.07,26.14s-18.59-9.21-18.59-23.01v-27.8h10.49c1.29,5.52,1.47,11.97,1.47,18.41Z"/><path class="uuid-2109dfb2-7a00-4a44-af1b-be8d91fedfbc" d="M668.12,62.32v152.8h-12.89V62.32h12.89Z"/><path class="uuid-2109dfb2-7a00-4a44-af1b-be8d91fedfbc" d="M737.89,101.9v3.31c0,18.41-4.79,30.93-13.81,37v1.84c7.18,4.42,9.21,10.12,9.57,24.12l.74,26.69c.18,8.1.92,14.36,2.95,18.41v1.84h-13.25c-1.47-4.23-1.84-9.21-2.03-16.02l-1.29-37.56c-.37-9.02-3.5-12.89-9.21-12.89v66.46h-12.89V62.32h12.89c14.36,0,26.33,11.05,26.33,39.58ZM712.49,138.54c7.36,0,12.15-6.44,12.15-25.77v-14.54c0-19.33-4.79-25.77-12.15-25.77h-.92v66.09h.92Z"/><path class="uuid-394fa85e-bbbd-4b7c-b0f2-fe85b92f9341" d="M82.19,63.75C36.8,63.75,0,86.59,0,114.76h164.39c0-28.17-36.8-51-82.19-51Z"/><path class="uuid-394fa85e-bbbd-4b7c-b0f2-fe85b92f9341" d="M82.19,114.76C36.8,114.76,0,137.59,0,165.76h164.39c0-28.17-36.8-51-82.19-51Z"/><path class="uuid-394fa85e-bbbd-4b7c-b0f2-fe85b92f9341" d="M0,216.76h164.39c0-28.17-36.8-51-82.19-51S0,188.59,0,216.76Z"/></svg>