<?xml version="1.0" encoding="UTF-8"?>
<svg xmlns="http://www.w3.org/2000/svg" id="uuid-8ea8443b-0e18-4958-8871-317bcdd8aab5" viewBox="0 0 1150.03 283.61"><defs><style>.uuid-2b511eec-f45a-40d3-978f-bf9fd37bc6cb{fill:#fff6e7;}.uuid-2b511eec-f45a-40d3-978f-bf9fd37bc6cb,.uuid-ea706ebd-2569-4b31-b562-a85b7e4c231f,.uuid-e31e4def-a67e-44c3-86fa-acf1acad4400{stroke-width:0px;}.uuid-ea706ebd-2569-4b31-b562-a85b7e4c231f{fill:#fcf7f0;}.uuid-e31e4def-a67e-44c3-86fa-acf1acad4400{fill:#ff5400;}</style></defs><rect class="uuid-e31e4def-a67e-44c3-86fa-acf1acad4400" x="-7215.68" width="14005.76" height="283.61"/><path class="uuid-2b511eec-f45a-40d3-978f-bf9fd37bc6cb" d="M316.89,183.82v13.44c0,5.34,2.39,8.65,6.44,8.65,4.42,0,7.36-3.31,7.36-12.7,0-14.54-6.44-34.24-12.89-51.92l-2.95-8.1c-6.26-16.94-11.05-30.74-11.05-46.58s7.36-25.41,20.07-25.41,18.59,9.39,18.59,21.91v27.06h-10.49c-1.29-5.52-1.47-11.97-1.47-18.41v-11.78c0-5.15-2.39-8.47-6.44-8.47-4.42,0-7.36,3.31-7.36,12.7,0,13.25,4.97,27.61,10.31,42.16l2.95,8.1c6.08,16.57,13.62,38.11,13.62,55.6,0,16.38-7.18,26.14-20.07,26.14s-18.59-9.21-18.59-23.01v-27.8h10.49c1.29,5.52,1.47,11.97,1.47,18.41Z"/><path class="uuid-2b511eec-f45a-40d3-978f-bf9fd37bc6cb" d="M396.06,62.32l13.62,150.96v1.84h-12.89l-2.58-40.5h-11.78l-2.58,40.5h-11.97v-1.84l13.62-150.96h14.54ZM393.48,163.57l-4.23-63.7h-1.84l-4.23,63.7h10.31Z"/><path class="uuid-2b511eec-f45a-40d3-978f-bf9fd37bc6cb" d="M427.35,64.16v-1.84h12.89l7.55,113.4h1.84l7.55-113.4h11.97v1.84l-14.18,150.96h-13.44l-14.18-150.96Z"/><path class="uuid-2b511eec-f45a-40d3-978f-bf9fd37bc6cb" d="M515.35,61.22c13.81,0,21.17,12.33,21.17,33.14v88.74c0,20.8-7.36,33.14-21.17,33.14s-21.17-12.33-21.17-33.14v-88.74c0-20.8,7.36-33.14,21.17-33.14ZM515.35,205.55c4.79,0,7.36-4.05,7.36-11.05v-111.56c0-7-2.58-11.05-7.36-11.05s-7.36,4.05-7.36,11.05v111.56c0,7,2.58,11.05,7.36,11.05Z"/><path class="uuid-2b511eec-f45a-40d3-978f-bf9fd37bc6cb" d="M578.86,62.32v152.8h-12.89V62.32h12.89Z"/><path class="uuid-2b511eec-f45a-40d3-978f-bf9fd37bc6cb" d="M648.63,101.9v3.31c0,18.41-4.79,30.93-13.81,37v1.84c7.18,4.42,9.21,10.12,9.57,24.12l.74,26.69c.18,8.1.92,14.36,2.95,18.41v1.84h-13.26c-1.47-4.23-1.84-9.21-2.02-16.02l-1.29-37.56c-.37-9.02-3.5-12.89-9.21-12.89v66.46h-12.89V62.32h12.89c14.36,0,26.33,11.05,26.33,39.58ZM623.23,138.54c7.36,0,12.15-6.44,12.15-25.77v-14.54c0-19.33-4.79-25.77-12.15-25.77h-.92v66.09h.92Z"/><path class="uuid-2b511eec-f45a-40d3-978f-bf9fd37bc6cb" d="M697.79,138.17v5.89h-22.09v-5.89h22.09Z"/><path class="uuid-2b511eec-f45a-40d3-978f-bf9fd37bc6cb" d="M727.98,62.32h31.3v10.86h-18.41v58.73h16.57v10.68h-16.57v72.53h-12.89V62.32Z"/><path class="uuid-2b511eec-f45a-40d3-978f-bf9fd37bc6cb" d="M806.59,62.32l13.62,150.96v1.84h-12.89l-2.58-40.5h-11.78l-2.58,40.5h-11.97v-1.84l13.62-150.96h14.54ZM804.01,163.57l-4.23-63.7h-1.84l-4.23,63.7h10.31Z"/><path class="uuid-2b511eec-f45a-40d3-978f-bf9fd37bc6cb" d="M860.53,62.32v152.8h-12.89V62.32h12.89Z"/><path class="uuid-2b511eec-f45a-40d3-978f-bf9fd37bc6cb" d="M930.3,101.9v3.31c0,18.41-4.79,30.93-13.81,37v1.84c7.18,4.42,9.21,10.12,9.57,24.12l.74,26.69c.18,8.1.92,14.36,2.95,18.41v1.84h-13.25c-1.47-4.23-1.84-9.21-2.03-16.02l-1.29-37.56c-.37-9.02-3.5-12.89-9.2-12.89v66.46h-12.89V62.32h12.89c14.36,0,26.33,11.05,26.33,39.58ZM904.89,138.54c7.36,0,12.15-6.44,12.15-25.77v-14.54c0-19.33-4.79-25.77-12.15-25.77h-.92v66.09h.92Z"/><path class="uuid-2b511eec-f45a-40d3-978f-bf9fd37bc6cb" d="M990.13,62.32v10.68h-19.51v58.91h17.3v10.68h-17.3v61.86h19.51v10.68h-32.4V62.32h32.4Z"/><path class="uuid-ea706ebd-2569-4b31-b562-a85b7e4c231f" d="M102.72,213.06c-6.24,6.93-14.4,11.52-23.17,13.45,14.15.08,27.44-7.31,34.6-19.71,5.29-9.16,6.7-19.83,3.96-30.05-2.36-8.83-7.59-16.4-14.88-21.71,6.4,7.34,10.17,16.53,10.69,26.41.61,11.68-3.37,22.9-11.2,31.6Z"/><path class="uuid-ea706ebd-2569-4b31-b562-a85b7e4c231f" d="M94.75,187.34c-4.2,10.92-12.39,19.55-23.09,24.31-5.71,2.54-11.78,3.78-17.8,3.78-3,0-5.98-.34-8.91-.95,12.89,5.87,28.09,4.53,39.7-3.9,8.56-6.22,14.18-15.39,15.84-25.84,1.43-9.03-.26-18.07-4.76-25.88,2.86,9.31,2.57,19.24-.97,28.48Z"/><path class="uuid-ea706ebd-2569-4b31-b562-a85b7e4c231f" d="M104.64,185.4c-1.83,11.55-8.06,21.7-17.52,28.58-7.54,5.48-16.48,8.28-25.45,8.35,13.8,3.02,28.35-1.45,37.93-12.1,7.08-7.86,10.67-18.01,10.12-28.57-.47-9.13-4.01-17.61-10.03-24.32,4.73,8.51,6.51,18.27,4.96,28.04Z"/><path class="uuid-ea706ebd-2569-4b31-b562-a85b7e4c231f" d="M43.86,197.73c-9.46,0-18.4-3.15-25.76-8.5,9.38,10.77,23.92,15.81,38.05,12.81,19.96-4.24,33.21-22.91,31.16-42.76-2.64,21.63-21.1,38.46-43.45,38.46Z"/><path class="uuid-ea706ebd-2569-4b31-b562-a85b7e4c231f" d="M57.64,174.59c-5.1,1.95-10.41,2.93-15.71,2.93-6.06,0-12.11-1.27-17.81-3.81-8.64-3.85-15.52-10.35-20.07-18.24,4.19,13.65,15.42,24.17,29.55,27.17,19.95,4.25,39.65-7.42,45.85-26.38-5,8.36-12.58,14.79-21.82,18.34Z"/><path class="uuid-ea706ebd-2569-4b31-b562-a85b7e4c231f" d="M122.18,175.67c3.02,11.3,1.47,23.1-4.38,33.24-4.7,8.14-11.82,14.32-20.08,18.02,13.94-2.79,25.5-12.82,29.95-26.52,3.27-10.06,2.43-20.79-2.37-30.21-4.15-8.15-10.84-14.47-19.08-18.15,7.79,5.85,13.4,14.05,15.96,23.62Z"/><path class="uuid-ea706ebd-2569-4b31-b562-a85b7e4c231f" d="M41.85,187.72c-3.01,0-6.06-.31-9.12-.96-9.25-1.97-17.34-6.9-23.42-13.67,6.94,12.48,20.1,20.44,34.55,20.44,20.41,0,37.26-15.52,39.37-35.37-6.09,17.74-22.88,29.56-41.38,29.56Z"/><path class="uuid-ea706ebd-2569-4b31-b562-a85b7e4c231f" d="M57.03,206.15c-3.02.64-6.07.95-9.08.95-6.17,0-12.21-1.37-17.77-3.84,11.4,8.51,26.61,10.39,39.78,4.53,9.66-4.3,17.07-12.1,20.87-21.98,3.28-8.54,3.5-17.74.72-26.32,1.91,21.71-12.65,42-34.51,46.65Z"/><path class="uuid-ea706ebd-2569-4b31-b562-a85b7e4c231f" d="M162.59,119.43c7.56,5.49,12.98,13.14,15.81,21.68-1.37-14.09-10.13-26.56-23.23-32.39-18.65-8.3-40.34-.98-50.34,16.28,14.85-15.95,39.68-18.71,57.76-5.57Z"/><path class="uuid-ea706ebd-2569-4b31-b562-a85b7e4c231f" d="M164.44,150.47c4.73,8.19,6.47,17.51,5.51,26.56,4.64-13.51,1.74-28.62-7.93-39.36-13.65-15.17-36.44-17.3-52.61-5.61,20.05-8.53,43.85-.94,55.02,18.41Z"/><path class="uuid-ea706ebd-2569-4b31-b562-a85b7e4c231f" d="M129.05,168.28c5.31,10.43,6.24,22.3,2.62,33.43-2.92,9-8.68,16.53-16.05,21.87,13.14-5.6,22.43-17.86,23.94-32.23,2.13-20.29-11.53-38.66-31.04-42.84,8.84,4.1,16.03,10.96,20.52,19.78Z"/><path class="uuid-ea706ebd-2569-4b31-b562-a85b7e4c231f" d="M18.42,159.15c-7.56-5.49-12.98-13.15-15.81-21.68,1.37,14.09,10.13,26.56,23.23,32.39,9.67,4.3,20.42,4.58,30.3.8,8.49-3.26,15.44-9.21,19.96-16.95-8.47,9.03-20.15,13.8-31.97,13.8-8.93,0-17.94-2.71-25.7-8.35Z"/><path class="uuid-ea706ebd-2569-4b31-b562-a85b7e4c231f" d="M165.15,134.85c6.33,7.03,9.97,15.77,10.91,24.83,1.72-14.17-4.25-28.35-15.94-36.84-16.51-12-39.25-9.34-52.63,5.46,17.84-12.52,42.7-10.06,57.66,6.55Z"/><path class="uuid-ea706ebd-2569-4b31-b562-a85b7e4c231f" d="M138.73,140.09c10.42,5.32,18.15,14.37,21.77,25.5,2.92,8.99,2.69,18.46-.13,27.12,7.34-12.25,7.65-27.63.42-40.14-10.2-17.67-32.04-24.49-50.28-16.43,9.56-1.88,19.4-.55,28.21,3.95Z"/><path class="uuid-ea706ebd-2569-4b31-b562-a85b7e4c231f" d="M143.75,191.79c-.99,9.41-5.05,17.97-11.15,24.72,11.69-8.2,18.23-22.13,16.72-36.5-2.14-20.3-19.34-35.46-39.29-35.47,21.25,4.88,36.06,25.01,33.72,47.24Z"/><path class="uuid-ea706ebd-2569-4b31-b562-a85b7e4c231f" d="M153.5,179.57c.98,9.29-1.08,18.44-5.53,26.25,9.55-10.44,12.95-25.3,8.52-38.93-3.27-10.06-10.26-18.25-19.68-23.05-8.15-4.15-17.26-5.34-26.09-3.47,21.79.37,40.44,16.97,42.77,39.19Z"/><path class="uuid-ea706ebd-2569-4b31-b562-a85b7e4c231f" d="M137.15,80.85c9.46,0,18.4,3.15,25.76,8.51-9.38-10.77-23.9-15.82-38.05-12.81-19.96,4.24-33.21,22.91-31.16,42.76,2.64-21.63,21.11-38.46,43.45-38.46Z"/><path class="uuid-ea706ebd-2569-4b31-b562-a85b7e4c231f" d="M93.89,64.59c7.66-5.56,16.74-8.27,25.84-8.25-13.92-3.2-28.65,1.26-38.32,12-13.65,15.16-13.4,38.06-.07,52.91-10.58-19.06-5.54-43.53,12.54-56.66Z"/><path class="uuid-ea706ebd-2569-4b31-b562-a85b7e4c231f" d="M123.98,72.43c9.15-1.94,18.46-.84,26.7,2.77-11.39-8.41-26.52-10.26-39.63-4.42-18.64,8.3-27.72,29.32-21.59,48.3-1.91-21.71,12.65-42,34.51-46.65Z"/><path class="uuid-ea706ebd-2569-4b31-b562-a85b7e4c231f" d="M148.28,91.82c9.25,1.97,17.34,6.9,23.42,13.67-6.94-12.48-20.1-20.44-34.55-20.44-20.41,0-37.25,15.51-39.37,35.35,7.09-20.62,28.65-33.22,50.5-28.59Z"/><path class="uuid-ea706ebd-2569-4b31-b562-a85b7e4c231f" d="M109.35,66.93c8.64-3.85,18.09-4.61,26.99-2.7-12.95-6.02-28.28-4.72-39.97,3.77-16.51,12-21.02,34.45-11.07,51.74-6.39-20.84,3.63-43.72,24.05-52.81Z"/><path class="uuid-ea706ebd-2569-4b31-b562-a85b7e4c231f" d="M77.28,139.29c0,7.29,5.93,13.22,13.22,13.22s13.22-5.93,13.22-13.22-5.93-13.22-13.22-13.22-13.22,5.93-13.22,13.22Z"/><path class="uuid-ea706ebd-2569-4b31-b562-a85b7e4c231f" d="M15.86,143.73c-6.33-7.03-9.97-15.78-10.91-24.84-1.73,14.18,4.25,28.36,15.94,36.86,16.51,11.99,39.26,9.34,52.64-5.47-7.54,5.29-16.31,7.93-25.08,7.93-11.99,0-23.94-4.88-32.58-14.48Z"/><path class="uuid-ea706ebd-2569-4b31-b562-a85b7e4c231f" d="M147.41,95.94c-19.94-4.23-39.65,7.43-45.85,26.39,11.21-18.69,34.92-26.54,55.33-17.46,8.64,3.85,15.53,10.36,20.07,18.25-4.19-13.65-15.42-24.17-29.55-27.18Z"/><path class="uuid-ea706ebd-2569-4b31-b562-a85b7e4c231f" d="M43.17,148.53c-11.3-3.03-20.74-10.28-26.59-20.41-4.73-8.19-6.47-17.5-5.51-26.55-4.63,13.51-1.73,28.61,7.93,39.35,13.64,15.15,36.38,17.3,52.54,5.65-5.4,2.29-11.14,3.48-16.95,3.48-3.81,0-7.64-.5-11.42-1.51Z"/><path class="uuid-ea706ebd-2569-4b31-b562-a85b7e4c231f" d="M42.28,138.48c-10.42-5.31-18.15-14.37-21.77-25.5-2.92-8.99-2.69-18.46.13-27.12-7.34,12.25-7.65,27.63-.42,40.14,5.29,9.16,13.83,15.71,24.04,18.45,8.82,2.37,17.99,1.63,26.22-2.02-2.77.54-5.57.85-8.36.85-6.82,0-13.59-1.61-19.84-4.8Z"/><path class="uuid-ea706ebd-2569-4b31-b562-a85b7e4c231f" d="M27.51,99.01c-.98-9.29,1.08-18.44,5.53-26.26-9.55,10.44-12.96,25.29-8.52,38.93,3.27,10.06,10.26,18.25,19.68,23.05,8.14,4.15,17.25,5.33,26.06,3.47-21.77-.39-40.41-16.99-42.74-39.19Z"/><path class="uuid-ea706ebd-2569-4b31-b562-a85b7e4c231f" d="M46.78,118.94c-7.36-9.09-10.74-20.51-9.51-32.15.99-9.4,5.05-17.96,11.14-24.72-11.69,8.2-18.22,22.13-16.71,36.5,2.13,20.29,19.34,35.41,39.26,35.46-9.5-2.17-17.95-7.39-24.18-15.08Z"/><path class="uuid-ea706ebd-2569-4b31-b562-a85b7e4c231f" d="M78.29,65.52c6.33-7.03,14.65-11.57,23.56-13.45-14.29-.23-27.76,7.19-34.99,19.71-10.2,17.67-5.19,40.01,10.93,51.77-14.31-16.44-14.46-41.41.49-58.03Z"/><path class="uuid-ea706ebd-2569-4b31-b562-a85b7e4c231f" d="M51.96,110.29c-5.31-10.43-6.24-22.3-2.62-33.43,2.92-8.99,8.67-16.52,16.04-21.86-13.13,5.59-22.42,17.85-23.93,32.22-1.11,10.52,1.95,20.84,8.6,29.06,5.75,7.11,13.61,11.9,22.43,13.78-8.84-4.1-16.02-10.96-20.51-19.78Z"/><path class="uuid-ea706ebd-2569-4b31-b562-a85b7e4c231f" d="M63.22,69.67c4.67-8.09,11.72-14.28,19.91-17.99-13.86,2.84-25.35,12.85-29.78,26.49-3.27,10.06-2.43,20.79,2.37,30.21,4.15,8.15,10.84,14.47,19.08,18.14-17.41-13.11-22.75-37.5-11.57-56.85Z"/><path class="uuid-ea706ebd-2569-4b31-b562-a85b7e4c231f" d="M96.57,124.63h-3.23c0-.32.04-.62.05-.94l-3.16.67c-.07-.31-.09-.62-.15-.92l-2.95,1.31c-.13-.29-.22-.59-.34-.88l-2.61,1.9c-.19-.26-.33-.53-.51-.79l-2.16,2.4c-.24-.21-.44-.45-.67-.66l-1.61,2.79c-.28-.16-.52-.35-.79-.51l-1,3.07c-.3-.1-.58-.23-.88-.33l-.34,3.21c-.31-.03-.62-.1-.93-.14l.34,3.21c-.32.03-.63.02-.94.05l1,3.07c-.3.1-.6.16-.91.26l1.61,2.78c-.28.16-.57.27-.85.42l2.17,2.41c-.23.21-.49.39-.73.59l2.6,1.89c-.19.26-.41.47-.6.73l2.96,1.32c-.13.29-.29.56-.42.84l3.16.67c-.07.31-.16.61-.24.91h3.22c0,.32-.04.62-.05.94l3.16-.67c.07.31.09.62.15.93l2.95-1.31c.13.29.22.59.34.88l2.61-1.9c.19.26.34.53.52.79l2.16-2.4c.24.21.44.45.67.67l1.61-2.79c.27.16.52.35.79.51l1-3.07c.3.1.58.23.88.33l.34-3.21c.32.03.62.11.93.15l-.34-3.21c.32-.03.62-.02.94-.05l-1-3.07c.3-.1.61-.16.91-.25l-1.61-2.79c.27-.16.56-.28.84-.43l-2.16-2.4c.24-.21.49-.39.73-.6l-2.61-1.9c.19-.26.4-.48.59-.73l-2.95-1.31c.13-.29.29-.55.43-.84l-3.16-.67c.07-.31.17-.6.24-.91ZM103.73,139.29c0,7.29-5.93,13.22-13.22,13.22s-13.22-5.93-13.22-13.22,5.93-13.22,13.22-13.22,13.22,5.93,13.22,13.22Z"/><path class="uuid-ea706ebd-2569-4b31-b562-a85b7e4c231f" d="M90.51,229.15C40.6,229.15,0,188.55,0,138.64S40.6,48.13,90.51,48.13s90.51,40.6,90.51,90.51-40.6,90.51-90.51,90.51ZM90.51,52.34c-47.59,0-86.3,38.72-86.3,86.3s38.71,86.3,86.3,86.3,86.3-38.71,86.3-86.3-38.71-86.3-86.3-86.3Z"/></svg>