<?xml version="1.0" encoding="UTF-8"?>
<svg xmlns="http://www.w3.org/2000/svg" id="uuid-7fe5ced4-9ebd-4525-b2a4-ffc8095f4df2" viewBox="0 0 1057.12 283.61"><defs><style>.uuid-2a982268-71ad-4597-b7c8-22d40104914f{fill:#fff6e7;}.uuid-2a982268-71ad-4597-b7c8-22d40104914f,.uuid-aadebd84-e2b4-4d28-9818-fa90e7ed79bf{stroke-width:0px;}.uuid-aadebd84-e2b4-4d28-9818-fa90e7ed79bf{fill:#ff5400;}</style></defs><rect class="uuid-aadebd84-e2b4-4d28-9818-fa90e7ed79bf" x="-10893.33" width="14005.76" height="283.61"/><path class="uuid-2a982268-71ad-4597-b7c8-22d40104914f" d="M323.84,62.32v152.8h-12.89V62.32h12.89Z"/><path class="uuid-2a982268-71ad-4597-b7c8-22d40104914f" d="M366.92,62.32l13.62,102.73h1.84l-2.21-102.73h12.15v152.8h-12.52l-13.62-102.73h-1.84l2.21,102.73h-12.15V62.32h12.52Z"/><path class="uuid-2a982268-71ad-4597-b7c8-22d40104914f" d="M435.4,62.32l13.62,102.73h1.84l-2.21-102.73h12.15v152.8h-12.52l-13.62-102.73h-1.84l2.21,102.73h-12.15V62.32h12.52Z"/><path class="uuid-2a982268-71ad-4597-b7c8-22d40104914f" d="M511.43,61.22c13.81,0,21.17,12.33,21.17,33.14v88.74c0,20.8-7.36,33.14-21.17,33.14s-21.17-12.33-21.17-33.14v-88.74c0-20.8,7.36-33.14,21.17-33.14ZM511.43,205.55c4.79,0,7.36-4.05,7.36-11.05v-111.56c0-7-2.58-11.05-7.36-11.05s-7.36,4.05-7.36,11.05v111.56c0,7,2.58,11.05,7.36,11.05Z"/><path class="uuid-2a982268-71ad-4597-b7c8-22d40104914f" d="M557.64,64.16v-1.84h12.89l7.55,113.4h1.84l7.55-113.4h11.97v1.84l-14.18,150.96h-13.44l-14.18-150.96Z"/><path class="uuid-2a982268-71ad-4597-b7c8-22d40104914f" d="M645.27,62.32l13.62,150.96v1.84h-12.89l-2.58-40.5h-11.78l-2.58,40.5h-11.97v-1.84l13.62-150.96h14.54ZM642.7,163.57l-4.23-63.7h-1.84l-4.23,63.7h10.31Z"/><path class="uuid-2a982268-71ad-4597-b7c8-22d40104914f" d="M713.76,62.32v10.68h-12.89v142.12h-12.89V73h-12.89v-10.68h38.66Z"/><path class="uuid-2a982268-71ad-4597-b7c8-22d40104914f" d="M754.07,62.32v152.8h-12.89V62.32h12.89Z"/><path class="uuid-2a982268-71ad-4597-b7c8-22d40104914f" d="M804.7,61.22c13.81,0,21.17,12.33,21.17,33.14v88.74c0,20.8-7.36,33.14-21.17,33.14s-21.17-12.33-21.17-33.14v-88.74c0-20.8,7.36-33.14,21.17-33.14ZM804.7,205.55c4.79,0,7.36-4.05,7.36-11.05v-111.56c0-7-2.58-11.05-7.36-11.05s-7.36,4.05-7.36,11.05v111.56c0,7,2.58,11.05,7.36,11.05Z"/><path class="uuid-2a982268-71ad-4597-b7c8-22d40104914f" d="M867.84,62.32l13.62,102.73h1.84l-2.21-102.73h12.15v152.8h-12.52l-13.62-102.73h-1.84l2.21,102.73h-12.15V62.32h12.52Z"/><path class="uuid-2a982268-71ad-4597-b7c8-22d40104914f" d="M91.21,229.89c50.29,0,91.21-40.92,91.21-91.21s-40.92-91.21-91.21-91.21S0,88.39,0,138.68s40.92,91.21,91.21,91.21ZM4.24,138.68c0-.22.03-.44.03-.66h16.19c.16.46.34.92.51,1.38l-16.64,1.34c-.02-.69-.1-1.36-.1-2.06ZM178.18,138.68c0,.71-.09,1.4-.11,2.11l-23.91-1.93c.12-.28.24-.56.36-.84h23.62c0,.22.03.44.03.66ZM152.52,200.29l-23.57-25.85c.11-.12.22-.25.33-.37l25.65,23.6c-.81.87-1.57,1.78-2.41,2.62ZM72.2,188.96c-20.43-16.18-48.42-38.34-49.8-62.13-.86-14.8,4.92-26.12,15.84-31.06,3.8-1.72,7.99-2.54,12.28-2.54,9.55,0,19.63,4.09,27.21,11.58l2.66,2.63.89-3.63c2.67-10.83,14.34-21.15,27.14-24.01,13.73-3.06,27.13,2.46,37.73,15.54,25.77,31.8-11.71,68.46-39.08,95.22-6.08,5.94-11.46,11.21-15.49,15.79-2.79-4.14-9.26-9.38-19.38-17.4ZM93.05,211.2c.8-.97,1.67-1.99,2.62-3.04l1.63,17.17c-1.41.1-2.82.19-4.25.22v-14.35ZM86.33,206.63c1.35,1.47,2.24,2.72,2.47,3.66v15.23c-1.43-.04-2.84-.11-4.25-.22l1.78-18.68ZM101.53,224.98l-1.99-20.93c.62-.64,1.26-1.3,1.91-1.95l4.26,22.24c-1.39.24-2.78.47-4.19.64ZM105.08,198.46c.46-.46.97-.95,1.45-1.42l7.42,25.49c-1.35.36-2.69.74-4.06,1.05l-4.81-25.11ZM109.96,193.67s.05-.05.07-.07c.34-.33.69-.68,1.04-1.02l10.82,27.37c-1.28.49-2.56.99-3.87,1.42l-8.06-27.7ZM114.36,189.36c.29-.28.57-.56.86-.85l14.26,28.14c-1.21.59-2.4,1.21-3.63,1.75l-11.49-29.05ZM118.38,185.38c.22-.22.45-.45.67-.67l17.57,28.01c-1.11.69-2.21,1.4-3.35,2.04l-14.88-29.38ZM122.11,181.6c.18-.18.35-.36.53-.54l20.63,27.11c-1.02.76-2,1.56-3.05,2.28l-18.11-28.86ZM125.62,177.98c.14-.15.28-.29.42-.44l23.34,25.6c-.91.82-1.78,1.69-2.73,2.48l-21.04-27.65ZM132.12,170.92c.09-.11.19-.21.28-.32l27.49,21.22c-.7.91-1.38,1.83-2.12,2.71l-25.65-23.61ZM135.2,167.4c.08-.1.17-.2.25-.29l28.83,18.57c-.6.93-1.2,1.85-1.84,2.75l-27.24-21.03ZM138.18,163.82c.08-.1.16-.19.24-.29l29.64,15.75c-.5.94-1.05,1.85-1.59,2.78l-28.3-18.23ZM141.09,160.15c.08-.1.16-.21.24-.31l29.92,12.84c-.41.95-.9,1.85-1.34,2.78l-28.82-15.31ZM143.93,156.33c.09-.12.17-.24.26-.36l29.57,9.9c-.31.95-.69,1.88-1.03,2.82l-28.8-12.36ZM146.69,152.34c.1-.15.19-.29.28-.44l28.72,7.08c-.23.95-.47,1.89-.73,2.83l-28.27-9.47ZM149.34,148.11c.11-.18.22-.36.32-.54l27.39,4.44c-.15.94-.26,1.89-.43,2.82l-27.28-6.73ZM151.86,143.63c.12-.23.25-.45.36-.68l25.63,2.06c-.07.93-.07,1.88-.17,2.8l-25.83-4.19ZM156.17,133.77c.12-.34.25-.69.36-1.03l21.26-1.71c.08.91.09,1.83.14,2.75h-21.76ZM157.73,128.39c.1-.41.19-.82.28-1.23l18.85-3.06c.15.9.29,1.81.42,2.72l-19.54,1.57ZM158.73,122.75c.05-.47.06-.94.1-1.41l16.56-4.08c.23.89.49,1.77.69,2.68l-17.36,2.82ZM158.93,116.94c-.02-.52-.04-1.04-.08-1.56l14.55-4.87c.3.88.66,1.74.94,2.64l-15.4,3.8ZM158.28,111.1c-.11-.55-.19-1.11-.32-1.66l12.91-5.54c.38.86.72,1.74,1.07,2.62l-13.66,4.58ZM156.72,105.35c-.2-.56-.43-1.11-.66-1.66l11.7-6.22c.46.85.83,1.74,1.26,2.6l-12.3,5.28ZM154.24,99.85c-.29-.54-.62-1.08-.94-1.63l10.74-6.92c.54.82,1.03,1.68,1.54,2.53l-11.34,6.02ZM150.95,94.7c-.38-.52-.76-1.05-1.17-1.57l10.02-7.73c.62.8,1.22,1.61,1.82,2.43l-10.66,6.87ZM146.97,89.94c-.45-.5-.89-1.02-1.35-1.49l9.4-8.65c.71.76,1.42,1.52,2.1,2.31l-10.15,7.84ZM142.5,85.55c-.52-.45-1.03-.94-1.55-1.37l8.79-9.64c.79.72,1.61,1.41,2.38,2.16l-9.61,8.85ZM137.49,81.68c-.58-.39-1.16-.82-1.75-1.18l8.22-10.8c.87.67,1.79,1.29,2.64,1.99l-9.11,9.99ZM131.93,78.5c-.64-.3-1.26-.67-1.91-.94l7.69-12.25c.96.61,1.92,1.2,2.85,1.84l-8.63,11.35ZM125.87,76.2c-.68-.19-1.35-.4-2.04-.56l7.19-14.2c1.03.53,2.05,1.09,3.06,1.66l-8.21,13.09ZM119.44,74.94c-.69-.07-1.39-.07-2.08-.1l6.6-16.68c1.1.45,2.18.95,3.25,1.45l-7.77,15.33ZM112.78,74.89c-.65.05-1.31.2-1.96.29l5.73-19.68c1.16.35,2.28.8,3.42,1.2l-7.19,18.19ZM106.14,76.06c-.56.15-1.12.32-1.68.49l4.41-23.03c1.21.25,2.37.62,3.56.92l-6.3,21.62ZM99.8,78.31c-.44.2-.89.36-1.32.57l2.53-26.58c1.24.14,2.45.37,3.67.56l-4.88,25.45ZM93.98,81.4c-.32.2-.62.42-.93.63v-30.22c1.25.03,2.49.11,3.72.19l-2.8,29.4ZM88.81,85.27c-.18.15-.34.32-.52.47l-3.21-33.73c1.24-.09,2.47-.16,3.72-.19v33.44ZM84.41,89.68c-.05.05-.09.11-.14.16l-7.07-36.89c1.22-.2,2.43-.41,3.66-.56l3.55,37.29ZM80.36,92.02l-10.9-37.44c1.18-.31,2.35-.66,3.55-.92l7.35,38.36ZM76.19,92.87l-14.24-35.99c1.13-.41,2.24-.88,3.39-1.25l10.84,37.24ZM72.09,94.02l-17.33-34.19c1.07-.5,2.12-1.03,3.22-1.48l14.11,35.68ZM66.46,92.3c-.17-.07-.34-.14-.51-.21l-18.03-28.73c1-.58,1.99-1.15,3.02-1.69l15.52,30.63ZM59.68,90.07c-.39-.09-.78-.22-1.18-.3l-17-22.34c.92-.64,1.86-1.26,2.8-1.86l15.38,24.51ZM52.57,88.99c-.52-.03-1.03,0-1.54,0l-15.52-17.02c.84-.7,1.72-1.33,2.59-2l14.47,19.02ZM45.62,89.35c-.6.08-1.18.21-1.78.33l-13.82-12.72c.75-.75,1.57-1.42,2.35-2.14l13.24,14.53ZM39.02,91.01c-.63.22-1.27.41-1.88.67l-12.07-9.32c.67-.78,1.38-1.52,2.07-2.28l11.88,10.93ZM33,93.84c-.58.36-1.14.72-1.69,1.11l-10.69-6.88c.58-.81,1.18-1.61,1.79-2.4l10.58,8.17ZM27.88,97.79c-.48.47-.89,1-1.33,1.5l-9.85-5.23c.5-.83.99-1.68,1.52-2.49l9.66,6.23ZM23.93,102.7c-.36.55-.73,1.1-1.06,1.68l-9.57-4.11c.42-.85.79-1.73,1.24-2.56l9.39,4.99ZM21.03,108.21c-.25.6-.54,1.16-.76,1.78l-9.86-3.3c.34-.86.67-1.74,1.04-2.59l9.58,4.11ZM19.18,114.1c-.14.61-.29,1.2-.4,1.82l-10.73-2.65c.27-.88.61-1.73.91-2.6l10.22,3.42ZM18.26,120.16c-.05.59-.08,1.18-.1,1.78l-11.85-1.92c.2-.89.46-1.76.68-2.64l11.27,2.78ZM18.16,126.24c.01.29-.02.56,0,.85.02.28.08.56.1.83l-13.13-1.06c.12-.89.26-1.79.41-2.67l12.61,2.05ZM18.84,132.22c.1.52.27,1.04.39,1.56H4.49c.05-.9.06-1.81.14-2.7l14.22,1.15ZM22.77,143.51c.19.4.38.8.58,1.2l-18.63,3.02c-.09-.91-.09-1.84-.16-2.76l18.21-1.47ZM25.57,148.65c.21.34.39.69.61,1.03l-20.39,5.03c-.17-.92-.28-1.85-.43-2.78l20.21-3.28ZM28.71,153.42c.21.29.39.59.61.88l-21.9,7.33c-.25-.92-.49-1.85-.72-2.78l22.01-5.43ZM32.07,157.84c.2.25.38.5.59.75l-23.04,9.89c-.34-.92-.71-1.83-1.02-2.77l23.47-7.86ZM35.56,161.96c.19.21.37.43.56.65l-23.73,12.61c-.43-.92-.92-1.81-1.32-2.74l24.49-10.51ZM39.13,165.82c.19.19.36.39.55.58l-23.9,15.4c-.52-.91-1.05-1.82-1.54-2.76l24.89-13.22ZM42.76,169.46c.18.18.36.36.54.53l-23.52,18.16c-.62-.89-1.2-1.82-1.79-2.74l24.77-15.96ZM46.43,172.94c.19.17.37.34.56.51l-22.6,20.8c-.72-.87-1.37-1.8-2.06-2.7l24.11-18.61ZM50.15,176.31c.2.17.39.34.59.52l-21.13,23.18c-.83-.83-1.58-1.74-2.37-2.61l22.91-21.08ZM53.95,179.6c.22.18.43.36.65.54l-19.16,25.18c-.93-.78-1.8-1.64-2.7-2.46l21.21-23.26ZM57.85,182.87c.24.2.49.4.73.6l-16.76,26.71c-1.04-.72-2.02-1.5-3.03-2.26l19.05-25.04ZM61.89,186.17c.28.23.56.45.84.68l-14.01,27.64c-1.14-.64-2.23-1.34-3.33-2.03l16.49-26.29ZM66.11,189.56c.34.27.66.53,1,.79l-11.01,27.83c-1.22-.54-2.42-1.14-3.61-1.74l13.62-26.88ZM70.58,193.1c.4.32.8.64,1.2.95l-7.9,27.13c-1.3-.43-2.58-.92-3.85-1.41l10.55-26.67ZM75.37,196.92c.5.4.99.8,1.48,1.2l-4.85,25.32c-1.36-.31-2.71-.67-4.04-1.04l7.42-25.47ZM80.57,201.23c.64.54,1.28,1.09,1.86,1.61l-2.1,22.05c-1.4-.18-2.79-.4-4.18-.64l4.41-23.02Z"/></svg>