<?xml version="1.0" encoding="UTF-8"?>
<svg xmlns="http://www.w3.org/2000/svg" id="uuid-85ddb11c-07d6-4540-baf4-c4b73293fe0c" viewBox="0 0 1160.46 283.61"><defs><style>.uuid-5e1ec5f3-b72c-4881-82ab-17cae9bb93f7{fill:#fff6e7;}.uuid-5e1ec5f3-b72c-4881-82ab-17cae9bb93f7,.uuid-f5b49881-a785-4393-909d-6ecd30aac1c1{stroke-width:0px;}.uuid-f5b49881-a785-4393-909d-6ecd30aac1c1{fill:#ff5400;}</style></defs><rect class="uuid-f5b49881-a785-4393-909d-6ecd30aac1c1" x="-3716.52" width="14005.76" height="283.61"/><path class="uuid-5e1ec5f3-b72c-4881-82ab-17cae9bb93f7" d="M329.55,61.22c12.89,0,19.51,11.05,19.51,27.61v26.88h-11.41c-1.29-5.52-1.47-11.97-1.47-18.41v-14.91c0-6.44-2.39-10.49-6.63-10.49-4.6,0-7.18,4.05-7.18,11.05v111.38c0,7,2.58,11.05,7.18,11.05,4.23,0,6.63-4.05,6.63-10.49v-50.63h12.89v70.88h-6.44l-1.47-9.21h-1.84c-.92,5.52-4.79,10.12-12.33,10.12-11.05,0-18.41-9.94-18.41-25.77v-95.92c0-21.17,7.18-33.14,20.99-33.14Z"/><path class="uuid-5e1ec5f3-b72c-4881-82ab-17cae9bb93f7" d="M399.14,61.22c13.81,0,21.17,12.33,21.17,33.14v88.74c0,20.8-7.36,33.14-21.17,33.14s-21.17-12.33-21.17-33.14v-88.74c0-20.8,7.36-33.14,21.17-33.14ZM399.14,205.55c4.79,0,7.36-4.05,7.36-11.05v-111.56c0-7-2.58-11.05-7.36-11.05s-7.36,4.05-7.36,11.05v111.56c0,7,2.58,11.05,7.36,11.05Z"/><path class="uuid-5e1ec5f3-b72c-4881-82ab-17cae9bb93f7" d="M468.73,205.55c4.23,0,6.44-3.13,6.44-8.28V62.32h12.15v129.05c0,15.46-6.44,24.85-18.96,24.85s-18.96-9.39-18.96-24.85V62.32h12.89v134.94c0,5.15,2.21,8.28,6.44,8.28Z"/><path class="uuid-5e1ec5f3-b72c-4881-82ab-17cae9bb93f7" d="M556.73,101.9v3.31c0,18.41-4.79,30.93-13.81,37v1.84c7.18,4.42,9.21,10.12,9.57,24.12l.74,26.69c.18,8.1.92,14.36,2.95,18.41v1.84h-13.25c-1.47-4.23-1.84-9.21-2.02-16.02l-1.29-37.56c-.37-9.02-3.5-12.89-9.21-12.89v66.46h-12.89V62.32h12.89c14.36,0,26.33,11.05,26.33,39.58ZM531.32,138.54c7.36,0,12.15-6.44,12.15-25.77v-14.54c0-19.33-4.79-25.77-12.15-25.77h-.92v66.09h.92Z"/><path class="uuid-5e1ec5f3-b72c-4881-82ab-17cae9bb93f7" d="M598.51,62.32l14.36,116.9h1.84l14.36-116.9h14.36v152.8h-12.15l.92-96.83h-1.84l-11.78,96.83h-9.57l-11.78-96.83h-1.84l.92,96.83h-12.15V62.32h14.36Z"/><path class="uuid-5e1ec5f3-b72c-4881-82ab-17cae9bb93f7" d="M699.03,62.32l13.62,150.96v1.84h-12.89l-2.58-40.5h-11.78l-2.58,40.5h-11.97v-1.84l13.62-150.96h14.54ZM696.45,163.57l-4.23-63.7h-1.84l-4.23,63.7h10.31Z"/><path class="uuid-5e1ec5f3-b72c-4881-82ab-17cae9bb93f7" d="M752.6,62.32l13.62,102.73h1.84l-2.21-102.73h12.15v152.8h-12.52l-13.62-102.73h-1.84l2.21,102.73h-12.15V62.32h12.52Z"/><path class="uuid-5e1ec5f3-b72c-4881-82ab-17cae9bb93f7" d="M848.15,97.3v82.84c0,24.12-8.65,34.98-26.69,34.98h-12.89V62.32h12.89c18.04,0,26.69,10.86,26.69,34.98ZM824.22,204.99c7,0,11.05-5.34,11.05-14.73v-103.09c0-9.39-4.05-14.73-11.05-14.73h-2.76v132.55h2.76Z"/><path class="uuid-5e1ec5f3-b72c-4881-82ab-17cae9bb93f7" d="M890.49,62.32v152.8h-12.89V62.32h12.89Z"/><path class="uuid-5e1ec5f3-b72c-4881-82ab-17cae9bb93f7" d="M931.36,183.82v13.44c0,5.34,2.39,8.65,6.44,8.65,4.42,0,7.36-3.31,7.36-12.7,0-14.54-6.44-34.24-12.89-51.92l-2.95-8.1c-6.26-16.94-11.05-30.74-11.05-46.58s7.36-25.41,20.07-25.41,18.59,9.39,18.59,21.91v27.06h-10.49c-1.29-5.52-1.47-11.97-1.47-18.41v-11.78c0-5.15-2.39-8.47-6.44-8.47-4.42,0-7.36,3.31-7.36,12.7,0,13.25,4.97,27.61,10.31,42.16l2.95,8.1c6.08,16.57,13.62,38.11,13.62,55.6,0,16.38-7.18,26.14-20.07,26.14s-18.59-9.21-18.59-23.01v-27.8h10.49c1.29,5.52,1.47,11.97,1.47,18.41Z"/><path class="uuid-5e1ec5f3-b72c-4881-82ab-17cae9bb93f7" d="M1018.07,62.32v10.68h-19.51v58.91h17.3v10.68h-17.3v61.86h19.51v10.68h-32.4V62.32h32.4Z"/><path class="uuid-5e1ec5f3-b72c-4881-82ab-17cae9bb93f7" d="M115.55,137.1l-5.85-22.67-22.25-5.43,1.95-21.32-13.88-4.1.02-9.82c-35.72.72-64.54,30-64.54,65.88s29.56,65.89,65.89,65.89,64.68-28.53,65.83-63.71l-6.84-7.02-20.33,2.28Z"/><path class="uuid-5e1ec5f3-b72c-4881-82ab-17cae9bb93f7" d="M122.17,128.03l-6.49-18.49-17.69-8.95.11-16.88-11.93-11.23-.11-9.16c-3.01-.36-6.06-.56-9.16-.56C34.43,62.75,0,97.18,0,139.65s34.43,76.9,76.9,76.9,75.84-33.41,76.85-75l-14.96-15.34-16.62,1.82ZM145.43,141.33c-.89,36.89-31.64,66.9-68.54,66.9S8.31,177.47,8.31,139.65s30.77-68.58,68.58-68.58h1.35l-.02,10.51,14.07,4.15-1.94,21.21,21.56,5.26,5.67,21.97,19.32-2.17,8.56,8.78v.57Z"/><polygon class="uuid-5e1ec5f3-b72c-4881-82ab-17cae9bb93f7" points="130.31 100.56 159.9 116.16 161.97 101.29 162.79 95.38 155.95 96.47 130.31 100.56"/><polygon class="uuid-5e1ec5f3-b72c-4881-82ab-17cae9bb93f7" points="119.38 85.66 127.65 74.47 131.71 68.99 119.25 65.26 119.27 68.91 119.38 85.66"/><polygon class="uuid-5e1ec5f3-b72c-4881-82ab-17cae9bb93f7" points="142.29 85.53 168.17 73.77 154.54 55.19 137.22 81.47 131.25 90.54 142.29 85.53"/></svg>