<?xml version="1.0" encoding="UTF-8"?> <!-- Generator: Adobe Illustrator 28.1.0, SVG Export Plug-In . SVG Version: 6.00 Build 0) --> <svg xmlns="http://www.w3.org/2000/svg" xmlns:xlink="http://www.w3.org/1999/xlink" version="1.1" id="Calque_1" x="0px" y="0px" viewBox="0 0 2351.71 1968.54" style="enable-background:new 0 0 2351.71 1968.54;" xml:space="preserve"> <style type="text/css"> .st0{fill:#010202;} </style> <g> <path class="st0" d="M1774.38,1282.74l-0.54,0.99l1.26,1.26l2.52-1.8l0.63-0.81C1776.44,1282.65,1775.37,1282.74,1774.38,1282.74"></path> <path class="st0" d="M1773.06,1282.88l0.18,0.18l0.63,0.63l0.27-0.9C1773.87,1282.79,1773.33,1282.88,1773.06,1282.88"></path> </g> <path class="st0" d="M1777.86,1287.29l3.41-5.39L1777.86,1287.29z"></path> <g> <path class="st0" d="M1777.6,1283.23l-1.89,2.43l3.86-3.5c-0.36,0.09-0.99,0.18-1.35,0.27L1777.6,1283.23z"></path> <path class="st0" d="M1770.08,1282.48c-2.25-0.27-4.85-0.81-7.19-1.08l4.04,3.77l3.05-2.43L1770.08,1282.48z"></path> <path class="st0" d="M1772.54,1282.83L1772.54,1282.83c-0.36,0-0.81-0.09-1.08-0.18l1.17,0.45v-0.27H1772.54"></path> <path class="st0" d="M1774.14,1282.79l-0.27,0.9l0.54-0.9C1774.32,1282.79,1774.23,1282.79,1774.14,1282.79"></path> <path class="st0" d="M1772.54,1282.83L1772.54,1282.83z"></path> <path class="st0" d="M2076.68,1033.03l-2.61-97.65l-49.77-61.35l-229.43-84.71c-17.25-6.38-127.2,12.85-196.91,42.85 c51.2,36.11,100.52,68.81,147.14,97.47l11.59-44.92c3.86-14.73,18.95-23.72,33.87-19.94c7.19,1.89,13.21,6.47,17.07,12.94 c3.68,6.38,4.76,13.83,2.78,20.93l-15.72,60.82c21.47,12.49,36.74,20.66,45.09,25.15c1.26,0.63,2.43,1.08,4.04,1.17l4.94,0.45 c12.4,1.17,25.6,2.43,40.24,4.13l18.95-74.02c1.8-7.1,6.38-13.12,12.76-16.98c6.29-3.77,13.74-4.85,21.11-2.96 c14.82,3.77,23.72,18.86,20.03,33.69l-17.52,68.09C1996.19,1006.8,2040.66,1018.48,2076.68,1033.03"></path> <path class="st0" d="M1829.14,1306.16c-12.94,2.52-22.91,4.31-30.81,5.75c1.71,14.82,6.74,33.6,14.91,55.25 c2.34,6.02,7.37,10.78,13.47,12.85c5.12,1.8,9.88,1.35,14.01-1.17c1.62-0.99,2.96-2.07,4.13-3.41l73.21-84.71 C1889.51,1294.66,1855.73,1301.04,1829.14,1306.16"></path> <path class="st0" d="M1616.84,1292.87c-2.78,16.71,5.93,34.23,25.96,52.01c7.64,6.74,19.04,6.74,26.59-0.18 c11.95-10.87,26.5-24.25,41.41-38.18c-26.32-4.94-56.32-11.77-91.99-20.93C1617.65,1288.83,1617.11,1291.17,1616.84,1292.87"></path> <path class="st0" d="M1499.91,1252.74c-16.53-4.76-33.06-9.43-49.68-14.01c-7.82,12.58-9.16,26.68-4.22,43.66 c1.53,5.39,5.48,9.7,10.96,11.77c6.11,2.43,12.85,1.8,18.33-1.62l51.74-32.07c-6.74-1.89-13.29-3.77-19.94-5.66L1499.91,1252.74z"></path> <path class="st0" d="M2121.59,1234.8c13.21-10.87,19.85-31.62,19.94-61.62c-40.51-12.58-80.4-19.04-98.28-16.35 c-5.48,18.06-17.07,50.48-37.55,81.12h0.27C2044.07,1245.49,2096.17,1255.82,2121.59,1234.8"></path> <path class="st0" d="M2061.46,1640.97c-22.73,6.56-29.55,27.76-24.52,45.36c4.22,14.73,16.71,27.22,33.96,27.22 c3.41,0,7.01-0.54,10.78-1.62c12.85-3.68,21.92-12.85,25.06-25.06c3.32-13.47-0.99-28.21-10.78-37.82 C2086.79,1640.25,2074.22,1637.2,2061.46,1640.97"></path> <path class="st0" d="M1784.6,1732.69c-22.73,6.56-29.55,27.76-24.52,45.45c4.22,14.64,16.71,27.13,33.96,27.13 c3.41,0,7.01-0.54,10.78-1.53c12.85-3.77,21.92-12.94,24.97-25.15c3.41-13.47-0.9-28.21-10.69-37.82 C1809.93,1732.06,1797.27,1728.91,1784.6,1732.69"></path> <path class="st0" d="M2136.44,1813.57c-22.73,6.56-29.55,27.76-24.52,45.36c4.13,14.73,16.71,27.22,33.96,27.22 c3.41,0,7.1-0.54,10.87-1.62c12.76-3.59,21.83-12.85,24.97-25.06c3.32-13.38-0.9-28.12-10.78-37.82 C2161.86,1812.94,2149.38,1809.89,2136.44,1813.57"></path> <path class="st0" d="M1944.56,1893.66c-12.76,3.68-21.92,12.85-24.97,25.15c-3.32,13.29,0.9,28.12,10.78,37.73 c6.56,6.29,14.91,9.61,23.81,9.61c3.5,0,7.1-0.54,10.6-1.53c12.85-3.68,21.92-12.85,24.97-25.15c3.41-13.38-0.9-28.21-10.78-37.82 C1969.9,1893.04,1957.32,1889.98,1944.56,1893.66"></path> <path class="st0" d="M2244.65,1534.65c-3.32,13.38,0.9,28.12,10.78,37.73c6.56,6.38,14.91,9.61,23.81,9.61 c3.5,0,7.1-0.54,10.69-1.44c12.76-3.68,21.92-12.85,24.97-25.15c3.32-13.38-0.9-28.21-10.78-37.73c-9.16-8.8-21.56-11.86-34.5-8.17 C2256.87,1513.18,2247.71,1522.34,2244.65,1534.65"></path> <path class="st0" d="M2292.6,1684.21c-5.03-17.61-22.46-32.07-44.83-25.6c-12.76,3.59-21.92,12.76-24.97,25.15 c-3.32,13.38,0.9,28.21,10.78,37.73c6.56,6.29,14.91,9.61,23.9,9.61c3.41,0,7.01-0.45,10.6-1.53 C2290.8,1723.11,2297.63,1701.82,2292.6,1684.21"></path> <path class="st0" d="M2339.81,1828.7c-9.07-8.71-21.65-11.77-34.5-8.08c-12.76,3.59-21.83,12.76-24.88,25.06 c-3.41,13.38,0.9,28.21,10.78,37.82c6.47,6.38,14.82,9.61,23.72,9.61c3.5,0,7.1-0.54,10.69-1.53 c12.76-3.68,21.92-12.85,24.97-25.15C2353.91,1853.04,2349.69,1838.22,2339.81,1828.7"></path> <path class="st0" d="M1948.71,1829.97c3.5,0,7.1-0.45,10.6-1.53c12.76-3.68,21.92-12.85,24.97-25.15 c3.32-13.38-0.9-28.12-10.69-37.73c-9.16-8.71-21.65-11.86-34.49-8.08c-12.85,3.59-21.92,12.76-24.97,25.15 c-3.32,13.3,0.9,28.21,10.69,37.73C1931.47,1826.65,1939.73,1829.97,1948.71,1829.97"></path> <path class="st0" d="M2066.22,1544.03c3.5,0,7.1-0.45,10.6-1.53c12.85-3.59,21.92-12.76,24.97-25.06 c3.41-13.38-0.9-28.21-10.69-37.73c-9.07-8.8-21.74-11.86-34.5-8.17c-12.85,3.68-21.92,12.85-24.97,25.15 c-3.32,13.38,0.9,28.21,10.87,37.82C2048.97,1540.8,2057.33,1544.03,2066.22,1544.03"></path> <path class="st0" d="M1906.84,1532.36c-9.16-8.8-21.74-11.77-34.5-8.08c-12.76,3.68-21.83,12.76-24.88,25.06 c-3.41,13.38,0.9,28.21,10.78,37.82c6.47,6.29,14.82,9.61,23.72,9.61c3.5,0,7.1-0.54,10.69-1.53 c12.76-3.68,21.92-12.85,24.97-25.15C1920.95,1556.71,1916.72,1541.89,1906.84,1532.36"></path> <path class="st0" d="M1415.2,865.25h-141.57V356.63h72.4v451.58h69.17V865.25z M1224.13,413.67h-73.48v164.75h64.32v57.04h-64.32 v172.75h73.48v57.04h-145.8V356.63h145.8V413.67z M941.79,870.1c-56.41,0-85.79-36.11-85.79-97.47v-72.85h60.01 c4.31,18.42,4.94,38.54,4.94,59.47v35.48c0,15.9,6.74,25.15,18.95,25.15c12.94,0,21.47-9.88,21.47-34.94 c0-41.05-19.04-96.75-43.48-150.11l-14.73-28.12c-25.15-52.73-50.22-99.35-50.22-158.1c0-59.47,33.06-96.84,88.84-96.84 c55.7,0,85.79,36.74,85.79,94.95v69.26h-60.1c-4.31-18.42-4.85-38.63-4.85-59.47v-29.37c0-15.9-6.83-25.15-19.04-25.15 c-12.85,0-21.47,9.88-21.47,34.94c0,38,15.99,80.31,39.26,126.84l14.1,28.75c25.69,52.73,55.16,117.05,55.16,178.94 C1030.63,832.73,997.48,870.1,941.79,870.1 M2097.02,1105.01c-0.99-0.54-1.98-1.26-2.96-1.8c-1.17-0.18-4.13-1.89-6.74-4.13 c-47.43-26.77-130.08-46.53-243.89-57.58l-4.85-0.36c-8.98-0.99-16.89-3.41-24.61-7.28c-28.3-15-131.96-72.04-283.42-181.55 l-3.32-2.61c-1.89-1.71-2.7-2.78-3.32-3.59l-1.62-2.34c-0.72-0.99-1.26-2.16-1.71-3.23c-0.18-0.18-0.99-1.98-1.53-4.13l-0.9-6.38 l0.09-3.59c0.54-4.31,1.17-6.29,2.07-8.26l1.35-2.87c0.45-0.63,0.81-1.26,1.26-1.89v-7.37l7.55-0.09 c54.8-39.35,234.28-87.14,283.6-68.81l236.61,87.41c4.76,1.8,8.8,4.76,11.95,8.53l60.55,74.65c3.77,4.67,6.02,10.51,6.2,16.62 l3.59,138.07c31.8,21.92,51.92,48.69,59.83,79.86l0.54,3.23c1.98,8.8,3.77,16.44,3.77,25.33c0.36,48.42-13.12,84.26-40.06,106.63 c-10.78,8.98-23.63,15.63-38.18,19.85c-7.46,2.16-15.36,3.59-23.98,4.49c1.98,18.15,7.37,35.84,15.9,51.92 c3.86,7.28,10.87,11.59,18.95,11.77c8.89,0.27,14.64-3.86,18.51-10.6c48.51-85.07,81.75-150.83,93.42-185.32 c13.03-38.09,29.73-155.86,45.9-323.12c2.78-29.82-6.47-59.11-26.05-82.46C2153.52,636,1944.48,460.56,1935.68,453.2 c-2.16-1.8-3.86-3.68-5.39-6.02l-85.97-126.93c-36.47-53.9-96.84-85.88-161.7-85.88h-2.61c-267.88,3.68-736.17,3.59-860.13-35.84 l-7.64-2.34c-33.87-10.15-47.97-14.28-272.19-184.33c-4.04-3.23-7.1-7.28-8.89-11.86L0,288.81 c191.88,101.87,475.66,324.2,663.76,486.88c77.88,67.19,160.35,128.82,237.96,185.32c126.75,92.71,268.33,155.86,420.68,187.93 c60.46,12.67,127.47,31.8,192.24,50.31c92.08,26.23,186.94,53.27,258.89,60.64c2.96-0.18,26.95-4.85,42.94-7.82 c37.82-7.28,86.42-16.53,122.17-19.58c38.54-36.92,53.63-99.44,54.26-102.14c1.53-6.65,5.39-12.49,10.87-16.35 C2022.37,1100.52,2053.72,1097.56,2097.02,1105.01"></path> </g> </svg> 