<?xml version="1.0" encoding="UTF-8"?> <!-- Generator: Adobe Illustrator 28.1.0, SVG Export Plug-In . SVG Version: 6.00 Build 0) --> <svg xmlns="http://www.w3.org/2000/svg" xmlns:xlink="http://www.w3.org/1999/xlink" version="1.1" id="Calque_1" x="0px" y="0px" viewBox="0 0 475 600" style="enable-background:new 0 0 475 600;" xml:space="preserve"> <style type="text/css"> .st0{fill:#010202;} </style> <g> <path class="st0" d="M215.15,365.14c-0.47,0.05-0.95,0.11-1.42,0.16v57.82c0.47-0.08,0.95-0.13,1.42-0.18 c5.9-0.68,9.92-6.24,9.9-20.4v-19.21C225.07,368.9,221.1,364.45,215.15,365.14"></path> <path class="st0" d="M149.84,394.32c-1.32,19.19-2.63,38.37-3.95,57.58c3.16-0.26,6.32-0.53,9.5-0.79 c-1.26-19-2.5-37.98-3.76-56.95C151.03,394.21,150.45,394.24,149.84,394.32"></path> <path class="st0" d="M409.51,350.68c-7.18,0.03-14.37,0.13-21.53,0.34v48.27c6.26-0.18,12.55-0.29,18.82-0.34v16.71 c-6.26,0.05-12.55,0.16-18.82,0.32v50.61c7.16-0.21,14.34-0.29,21.53-0.32v16.71c-14.24,0-28.48,0.42-42.71,1.21V335.2 c14.24-0.79,28.48-1.21,42.71-1.21V350.68z M350.29,485.22c-6.58,0.47-13.16,0.97-19.74,1.58c-4.61-28.77-9.21-57.58-13.82-86.32 c-0.63,0.08-1.21,0.13-1.82,0.18c0.79,29.13,1.55,58.24,2.34,87.38c-6.53,0.63-13.05,1.29-19.55,2V341.05 c6.58-0.71,13.16-1.39,19.74-2.03c4.61,28.74,9.21,57.53,13.82,86.32c0.61-0.08,1.21-0.13,1.82-0.16 c-0.79-29.13-1.58-58.27-2.37-87.4c6.53-0.58,13.05-1.08,19.58-1.55V485.22z M281.39,491.85c-7.08,0.82-14.13,1.63-21.21,2.47 V345.34c7.08-0.82,14.13-1.66,21.21-2.47C281.39,392.55,281.39,442.19,281.39,491.85 M246.41,388.84c0,17.66-5.55,29.87-16,37.63 v1.82c9.18,4.16,11.45,10.61,11.84,25.69c0.18,6.68,0.37,13.34,0.55,20.03c0.32,10.37,1.11,16.26,3.42,20.21v1.79 c-6.76,0.84-13.53,1.66-20.29,2.47c-1.82-4.66-2.53-10.63-2.68-19.05c-0.32-10.29-0.61-20.53-0.92-30.79 c-0.32-8.05-2.66-11.71-8.61-11v62.29c-6.87,0.82-13.76,1.58-20.66,2.34c0-49.66,0-99.35,0-148.99c6.9-0.76,13.79-1.55,20.66-2.34 c18.84-2.24,32.66,8.61,32.69,34.69C246.41,386.68,246.41,387.79,246.41,388.84 M179.46,503.72c-6.9,0.71-13.76,1.39-20.66,2 c-0.76-12.61-1.55-25.24-2.32-37.85c-3.9,0.32-7.79,0.63-11.69,0.97c-0.76,12.74-1.53,25.48-2.29,38.24 c-6.18,0.47-12.34,0.89-18.53,1.24v-1.79c4.42-49.32,8.87-98.67,13.29-148.07c9.58-0.68,19.13-1.5,28.71-2.39 c4.47,48.64,8.97,97.25,13.47,145.85V503.72z M118.3,376.39c-6.71,0.34-13.42,0.61-20.11,0.82V426c5.9-0.18,11.82-0.42,17.74-0.71 V442c-5.92,0.26-11.82,0.53-17.74,0.71v66.77c-7.08,0.21-14.16,0.32-21.21,0.32V360.81c13.76,0,27.53-0.42,41.32-1.13 C118.27,365.23,118.27,370.81,118.3,376.39 M458.64,558.99c-7.55-5.95-9.97-15.84-6-24.21c33.77-70.48,1.66-238.97-8.5-287.02 c-5.4,2.66-11.16,4.82-17.19,6.4c-60.87,15.98-123.48,24-186.12,24c-62.61,0-125.22-8.03-186.12-24 c-7.42-1.95-14.37-4.84-20.79-8.4c-9.69,45.24-43.16,217.57-8.95,289.02c4.03,8.42,1.53,18.37-6.08,24.19 c-7.03,5.4-11.55,12.82-12.45,20.42c-0.03,0.21,0,1.39,1.53,2.92c2.26,2.24,10.34,7.37,34.58,7.03c2.08-0.03,4.13-0.03,6.24-0.03 c20.21,0,42.87,1.39,68.72,2.97c32.42,1.97,69.14,4.24,110.19,4.24h22.21c45.24,0,81.82-2.32,114.09-4.34 c26.66-1.71,49.74-3.16,70.93-2.84c24.53,0.47,32.37-4.74,34.66-7c1.58-1.55,1.61-2.76,1.61-2.89 C470.3,571.75,465.72,564.33,458.64,558.99"></path> <path class="st0" d="M58.89,238.83c119.04,31.29,244.89,31.29,363.9,0c19.26-5.05,34.92-16.95,43-32.69 c6.18-12.03,7.11-24.9,2.58-36.19l-4.84-12.82l-13.24-41.56c-4.95,3.61-11.74,7-20.13,10.21l0.55,0.42l-14.53,4.37 c-0.05,0-0.08,0.03-0.16,0.05c-31.56,9.5-76.3,16.13-125.22,18.84c-16.32,0.92-33.11,1.39-50,1.39 c-67.64,0-133.17-7.58-175.28-20.26l-14.45-4.34l0.53-0.42c-8.42-3.26-15.24-6.66-20.21-10.26L18.3,156.74l-4.92,13.05 c-4.61,11.45-3.68,24.29,2.5,36.35C23.96,221.85,39.65,233.77,58.89,238.83"></path> <path class="st0" d="M445.12,98.18c0-4.16-20.26-16.63-82.35-25.03l52.56,41.06C443.23,105.31,445.12,98.23,445.12,98.18"></path> <path class="st0" d="M66.2,114.18l51.08-40.77C56.43,81.83,36.56,94.1,36.56,98.18C36.56,98.26,38.46,105.28,66.2,114.18"></path> <path class="st0" d="M161.36,95.15c3.58,0,6.45,2.9,6.45,6.45c0,3.58-2.87,6.45-6.45,6.45c-3.55,0-6.42-2.87-6.42-6.45 C154.94,98.04,157.8,95.15,161.36,95.15 M191.44,68.25c3.55,0,6.45,2.89,6.45,6.45c0,3.58-2.89,6.47-6.45,6.47 s-6.45-2.89-6.45-6.47C184.99,71.15,187.89,68.25,191.44,68.25 M204.33,108.05c0,3.58-2.89,6.45-6.45,6.45 c-3.55,0-6.45-2.87-6.45-6.45c0-3.55,2.89-6.45,6.45-6.45C201.44,101.6,204.33,104.49,204.33,108.05 M247.29,26.33 c3.55,0,6.45,2.87,6.45,6.45c0,3.55-2.89,6.45-6.45,6.45c-3.55,0-6.45-2.89-6.45-6.45C240.84,29.2,243.73,26.33,247.29,26.33 M300.97,95.15c3.55,0,6.45,2.9,6.45,6.45c0,3.58-2.89,6.45-6.45,6.45c-3.55,0-6.45-2.87-6.45-6.45 C294.53,98.04,297.42,95.15,300.97,95.15 M335.35,95.15c3.55,0,6.45,2.9,6.45,6.45c0,3.58-2.89,6.45-6.45,6.45 c-3.55,0-6.45-2.87-6.45-6.45C328.9,98.04,331.79,95.15,335.35,95.15 M240.79,135.02c58.45,0,115.04-5.71,155.46-15.5L257.87,11.48 c-11.16-8.71-26.69-8.63-37.71,0.26L85.14,119.47C125.57,129.28,182.25,135.02,240.79,135.02"></path> </g> </svg> 