<?xml version="1.0" encoding="UTF-8"?> <!-- Generator: Adobe Illustrator 28.1.0, SVG Export Plug-In . SVG Version: 6.00 Build 0) --> <svg xmlns="http://www.w3.org/2000/svg" xmlns:xlink="http://www.w3.org/1999/xlink" version="1.1" id="Calque_1" x="0px" y="0px" viewBox="0 0 730.9 533.7" style="enable-background:new 0 0 730.9 533.7;" xml:space="preserve"> <style type="text/css"> .st0{fill:#010202;} </style> <g> <path class="st0" d="M501.2,248.06v-20.98c0-15.7-4.31-19.96-10.81-18.03c-0.52,0.17-1.02,0.32-1.54,0.47v63.16 c0.52-0.15,1.02-0.32,1.54-0.44C496.89,270.29,501.2,263.56,501.2,248.06"></path> <path class="st0" d="M574.57,229.48V208.5c0-15.7-4.31-20.34-10.81-18.91c-0.5,0.12-1.02,0.23-1.54,0.35v63.16 c0.52-0.12,1.05-0.23,1.54-0.35C570.26,251.33,574.57,244.98,574.57,229.48"></path> <path class="st0" d="M277.33,243.69c20.02-1.25,35.69,7.28,35.69,36.59v3.32c0,20.8-9.41,32.22-17.66,37.79v1.98 c8.65,3.2,18.27,11.36,18.24,32.92v4.92c0,29.78-15.91,43.99-35.69,45.28c-7.6,0.5-15.18,0.76-22.75,0.76V244.42 C262.52,244.42,269.93,244.16,277.33,243.69 M328.72,237.25c15.56-2.83,31.15-6.35,46.7-10.31v18.24 c-7.84,2.01-15.7,3.87-23.54,5.65v52.76c6.85-1.52,13.72-3.15,20.6-4.87v18.24c-6.88,1.72-13.75,3.35-20.6,4.89v55.3 c7.84-1.75,15.7-3.61,23.54-5.62v18.27c-15.56,3.93-31.15,7.46-46.7,10.28V237.25z M391.13,222.8c7.63-2.1,15.3-4.25,22.96-6.5 v140.29c0,4.92,2.16,7.25,6.06,6.09c4.14-1.22,6.09-4.75,6.09-9.67V212.72c7.46-2.19,14.92-4.46,22.38-6.73v129.1 c0,21.97-10.2,38.46-28.84,43.99c-18.44,5.39-28.64-5.22-28.64-27.18V222.8z M466.27,200.6c7.52-2.27,15.03-4.55,22.58-6.79 c20.6-6.15,35.69,3.53,35.69,31.99v3.53c0,19.23-6.09,33.59-17.45,43.94v1.92c10.02,2.83,12.56,9.64,12.94,26.02 c0.2,7.25,0.41,14.54,0.61,21.82c0.38,11.25,1.17,17.51,3.7,21.53v1.95c-7.37,2.01-14.77,4.08-22.14,6.23 c-1.95-4.75-2.77-11.16-2.97-20.34c-0.32-11.16-0.64-22.29-0.96-33.45c-0.38-8.74-2.94-12.3-9.41-10.37v68.06 c-7.55,2.24-15.06,4.55-22.58,6.82V200.6z M539.66,179.62c7.52-1.89,15.03-3.7,22.55-5.39c20.6-4.63,35.69,6.88,35.72,35.34v3.53 c0,19.23-6.09,32.86-17.45,42.1v1.95c9.99,3.82,12.53,10.9,12.94,27.3c0.17,7.31,0.41,14.6,0.58,21.88 c0.41,11.3,1.19,17.63,3.73,21.97v1.95c-7.37,1.17-14.77,2.53-22.17,3.99c-1.95-4.89-2.74-11.39-2.94-20.6 c-0.32-11.19-0.64-22.35-0.99-33.53c-0.38-8.71-2.94-12.56-9.41-11.1v68.06c-7.52,1.69-15.03,3.5-22.55,5.42V179.62z M613.02,165.23c15.59-1.92,31.15-3.03,46.7-3.03v18.24c-7.84,0-15.7,0.29-23.54,0.82v52.79c6.88-0.47,13.72-0.76,20.6-0.82v18.27 c-6.88,0.06-13.72,0.32-20.6,0.79v55.33c7.84-0.52,15.7-0.82,23.54-0.82v18.24c-15.56,0-31.12,1.11-46.7,3.06V165.23z M186.25,533.7l544.65-89.85V42.28l-544.65,87.35V533.7z"></path> <path class="st0" d="M289.88,295.87v-17.66c0-14.71-4.52-19.35-10.61-18.94c-0.52,0.03-1.05,0.06-1.57,0.09v57.28 c0.52-0.03,1.05-0.06,1.57-0.09C285.36,316.15,289.88,310.58,289.88,295.87"></path> <path class="st0" d="M290.26,368.64v-16.32c0-15.47-4.52-20.51-10.61-20.1c-0.64,0.06-1.28,0.09-1.95,0.15v58.27 c0.67-0.06,1.31-0.09,1.95-0.15C285.75,390.08,290.26,384.31,290.26,368.64"></path> </g> <polygon class="st0" points="0,491.34 60.31,394 11.74,298.38 63.57,225.34 0,122.72 "></polygon> <polygon class="st0" points="81.39,200.25 132.38,128.44 17,96.3 "></polygon> <polygon class="st0" points="27.87,500.15 128.39,528.12 75.31,423.58 "></polygon> <polygon class="st0" points="44.79,300.83 155.59,519.12 155.59,144.67 "></polygon> <path class="st0" d="M155.6,550.42v-0.03V550.42z"></path> <g> <path class="st0" d="M80.58,388.16"></path> </g> <polygon class="st0" points="561.22,0 53.37,77 156.42,105.7 668.88,23.51 "></polygon> </svg> 