<?xml version="1.0" encoding="UTF-8"?> <!-- Generator: Adobe Illustrator 28.1.0, SVG Export Plug-In . SVG Version: 6.00 Build 0) --> <svg xmlns="http://www.w3.org/2000/svg" xmlns:xlink="http://www.w3.org/1999/xlink" version="1.1" id="Calque_1" x="0px" y="0px" viewBox="0 0 770.8 658.55" style="enable-background:new 0 0 770.8 658.55;" xml:space="preserve"> <style type="text/css"> .st0{fill:#010202;} </style> <g> <path class="st0" d="M209.05,257.15c-1.53,22.32-3.07,44.6-4.6,66.92c3.68-0.09,7.4-0.21,11.08-0.37 c-1.44-22.22-2.92-44.39-4.36-66.61C210.46,257.12,209.75,257.15,209.05,257.15"></path> <path class="st0" d="M397.6,213.07c-4.85,0.64-7.09,4.73-7.09,11.3V345.8c0,6.45,2.3,10.34,7.09,9.64 c4.57-0.49,7.18-4.82,7.12-11.3V222.71C404.69,216.17,402.24,212.52,397.6,213.07"></path> <path class="st0" d="M555.61,200.28c-0.55,0.03-1.11,0.03-1.66,0.06v67.41c0.55,0,1.1-0.03,1.66-0.06 c6.91-0.18,11.57-6.17,11.54-22.78v-22.38C567.16,205.84,562.55,200.01,555.61,200.28"></path> <path class="st0" d="M592.06,231.59c0,20.57-6.48,34.07-18.63,41.84v2.12c10.62,5.8,13.41,13.91,13.78,31.46 c0.21,7.8,0.43,15.59,0.64,23.42c0.43,12.12,1.26,19.09,3.99,24.07c0.03,0.71,0.03,1.41,0,2.09c-7.86,0-15.75,0.12-23.64,0.31 c-2.15-5.53-2.98-12.59-3.16-22.5c-0.34-12-0.71-24.03-1.04-36.01c-0.46-9.42-3.16-13.91-10.07-13.69v72.66 c-8.01,0.34-16.05,0.74-24.1,1.2c0.03-57.92,0.03-115.85,0-173.77c8.04-0.46,16.08-0.86,24.1-1.2 c22.01-0.89,38.06,13.97,38.12,44.26V231.59z M511.06,323.8c-0.03,23.6-10.9,38.34-30.79,40.21 c-19.65,1.84-30.57-11.23-30.57-34.66V191.56c8.17-0.86,16.36-1.66,24.53-2.42v149.7c0.03,5.19,2.21,8.2,6.48,7.74 c4.36-0.4,6.57-3.71,6.51-8.93c0-49.91,0-99.79,0-149.7c7.95-0.71,15.9-1.35,23.85-1.93C511.06,231.92,511.06,277.88,511.06,323.8 M432.17,315.51c-0.03,35.55-13.23,54.82-34.56,57.31c-21.55,2.42-34.56-13.78-34.53-49.42v-70.35c0-35.51,12.95-54.88,34.53-57.37 c21.33-2.52,34.53,13.87,34.56,49.48C432.17,268.61,432.17,292.06,432.17,315.51 M345.3,377.12c-7.18,0.8-14.37,1.6-21.55,2.36 c0.34-32.69,0.68-65.41,1.04-98.1c-0.71,0.06-1.41,0.12-2.09,0.21c-4.33,33.09-8.66,66.24-12.98,99.33 c-4.88,0.46-9.79,0.98-14.67,1.41c-4.33-32.23-8.66-64.52-12.98-96.81c-0.71,0.03-1.41,0.09-2.09,0.18 c0.34,32.63,0.71,65.23,1.04,97.89c-7.18,0.61-14.37,1.2-21.55,1.72V211.54c9.15-0.68,18.29-1.41,27.44-2.24 c4.79,38,9.61,76,14.43,114c0.71-0.06,1.41-0.12,2.12-0.18c4.79-38.92,9.64-77.84,14.46-116.83c9.12-0.98,18.23-1.93,27.38-2.95 V377.12z M243.58,386.39c-8.01,0.49-16.05,0.89-24.07,1.23c-0.92-14.76-1.81-29.53-2.73-44.29c-4.54,0.18-9.06,0.34-13.6,0.43 c-0.89,14.83-1.81,29.62-2.7,44.48c-7.18,0.15-14.4,0.25-21.58,0.25v-2.09c5.16-57.25,10.31-114.49,15.5-171.8 c11.17-0.21,22.32-0.58,33.49-1.14c5.22,56.97,10.47,113.94,15.69,170.82V386.39z M769.11,155.74 c-3.44-27.04-12.16-53.47-26.37-76.74c-12-19.65-27.99-36.9-46.87-50.06c-3.47-2.39-6.97-4.73-10.62-6.85 C654.28,4.07,617.33-2.62,581.69,0.88c-35.64,3.5-69.96,16.85-100.07,36.22c-41.1,26.46-74.74,64.28-96.2,108.17 c-21.46-43.89-55.13-81.71-96.23-108.17C259.08,17.73,224.76,4.38,189.12,0.88c-6.69-0.64-13.41-0.95-20.14-0.89 c-29.13,0.31-58.26,7.46-83.43,22.1C62.01,35.78,42.3,55.76,28.09,79c-14.21,23.27-22.96,49.7-26.4,76.74 c-6.85,54.05,7.58,109.4,33.64,157.28c49.76,91.41,137.18,154.31,217.39,221.13c3.78,3.16,7.58,6.29,11.33,9.45 c42.54,36.04,83.06,74.44,121.37,114.92c38.28-40.49,78.83-78.89,121.37-114.92c83.15-70.42,176.59-134.88,228.68-230.59 C761.53,265.14,775.99,209.79,769.11,155.74"></path> </g> </svg> 