<?xml version="1.0" encoding="UTF-8"?> <!-- Generator: Adobe Illustrator 28.1.0, SVG Export Plug-In . SVG Version: 6.00 Build 0) --> <svg xmlns="http://www.w3.org/2000/svg" xmlns:xlink="http://www.w3.org/1999/xlink" version="1.1" id="Calque_1" x="0px" y="0px" viewBox="0 0 957.92 752.28" style="enable-background:new 0 0 957.92 752.28;" xml:space="preserve"> <style type="text/css"> .st0{fill:#010202;} </style> <g> <path class="st0" d="M271.82,166.08c20.57,32.54,34.56,71.21,37.38,101.92h33.8c3.89-51.25,33.99-116.93,78.03-150.15 C405.97,66.03,364.63,0,319.52,0c-44.54,0-84.7,57.8-100.43,110.72C237.98,122.42,255.93,140.93,271.82,166.08"></path> <path class="st0" d="M577.46,166.08c20.57,32.54,34.56,71.21,37.38,101.92h46.71c3.89-51.4,34.18-117.31,78.41-150.46 C724.83,65.8,683.57,0,638.53,0c-46.71,0-88.77,63.67-102.68,118.49C550.64,130.11,564.73,145.96,577.46,166.08"></path> <path class="st0" d="M173.3,125.38c-53.8,0-101.42,84.43-106.99,142.61h213.82C273.81,215.79,226.07,125.38,173.3,125.38"></path> <path class="st0" d="M585.76,267.99c-6.32-52.2-54.03-142.61-106.8-142.61c-53.84,0-101.42,84.43-107.02,142.61H585.76z"></path> <path class="st0" d="M904.31,267.99c-6.32-52.2-54.03-142.61-106.8-142.61c-53.84,0-101.42,84.43-107.02,142.61H904.31z"></path> <path class="st0" d="M298.78,418.57c-5.98,0-8.84,4.95-8.84,12.99v150.73c0,8.04,2.86,12.99,8.84,12.99c5.72,0,8.8-4.95,8.8-12.99 V431.56C307.59,423.52,304.5,418.57,298.78,418.57"></path> <path class="st0" d="M660.37,616.83c-23.89,0-36.35-15.32-36.35-41.34v-30.9h25.45c1.83,7.81,2.1,16.38,2.1,25.22v15.09 c0,6.71,2.86,10.63,8.04,10.63c5.45,0,9.11-4.15,9.11-14.82c0-17.41-8.08-41.03-18.48-63.67l-6.25-11.93 c-10.63-22.36-21.26-42.14-21.26-67.06c0-25.22,14.02-41.07,37.64-41.07c23.66,0,36.39,15.58,36.39,40.31v29.34H671.3 c-1.83-7.81-2.1-16.38-2.1-25.22v-12.46c0-6.74-2.86-10.63-8.04-10.63c-5.45,0-9.11,4.15-9.11,14.78c0,16.12,6.74,34.06,16.65,53.8 l5.94,12.23c10.93,22.36,23.39,49.61,23.39,75.86C698.05,600.98,684.03,616.83,660.37,616.83 M605.58,423.24h-29.11v70.68h25.72 v24.19h-25.72v96.66H545.8V399.09h59.78V423.24z M522.44,570.08c0,29.11-13.53,46.75-38.18,46.75c-24.46,0-37.95-17.64-37.95-46.75 V399.09h30.4V584.9c0,6.48,2.86,10.36,8.08,10.36c5.41,0,8.04-3.89,8.04-10.36V399.09h29.6V570.08z M425.55,423.24h-31.17v69.88 h27.24v24.19h-27.24v73.27h31.17v24.19h-61.84V399.09h61.84V423.24z M341.65,550.57c0,44.16-16.38,66.26-42.86,66.26 c-26.75,0-42.9-22.1-42.9-66.26v-87.33c0-44.16,16.15-66.26,42.9-66.26c26.48,0,42.86,22.1,42.86,66.26V550.57z M196.83,349.29 H17.04L72.67,735.4c2.93,10.06,11.24,16.88,20.57,16.88h134.3c7.89,0,14.82-5.03,18.63-12.57l19.89-47.63 c0,0,7.01-37.68,53.07-37.68c46.03,0,52.81,37.68,52.81,37.68l20.5,46.06c3.58,8.42,10.93,14.14,19.36,14.14h134.3 c8.8,0,16.5-6.17,19.85-15.28l19.81-44.92c0,0,4.69-37.68,52.39-37.68c46.79,0,52.81,37.68,52.81,37.68l21.26,48.65 c3.89,7.01,10.59,11.54,18.14,11.54h134.3c9.33,0,17.64-6.82,20.57-16.88l55.63-386.11h-211H196.83z"></path> <path class="st0" d="M947.67,296.9H10.21C4.57,296.9,0,301.51,0,307.19v2.97c0,5.64,4.57,10.21,10.21,10.21h937.46 c5.64,0,10.25-4.57,10.25-10.21v-2.97C957.92,301.51,953.31,296.9,947.67,296.9"></path> <path class="st0" d="M917.86,330.54c-1.68,0-3.01,1.33-3.01,3.01c0,1.64,1.33,2.97,3.01,2.97c1.68,0,3.01-1.33,3.01-2.97 C920.87,331.87,919.54,330.54,917.86,330.54"></path> <path class="st0" d="M905.9,325.24c0-1.68-1.33-3.01-3.01-3.01c-1.64,0-2.97,1.33-2.97,3.01c0,1.64,1.33,3.01,2.97,3.01 C904.57,328.25,905.9,326.88,905.9,325.24"></path> <path class="st0" d="M887.15,330.54c-1.68,0-3.01,1.33-3.01,3.01c0,1.64,1.33,2.97,3.01,2.97c1.68,0,3.01-1.33,3.01-2.97 C890.16,331.87,888.82,330.54,887.15,330.54"></path> <path class="st0" d="M902.89,346.02c1.68,0,3.01-1.33,3.01-3.01c0-1.68-1.33-3.01-3.01-3.01c-1.64,0-3.01,1.33-3.01,3.01 C899.88,344.68,901.26,346.02,902.89,346.02"></path> <path class="st0" d="M875.2,325.24c0-1.68-1.33-3.01-3.01-3.01c-1.68,0-3.01,1.33-3.01,3.01c0,1.64,1.33,3.01,3.01,3.01 C873.87,328.25,875.2,326.88,875.2,325.24"></path> <path class="st0" d="M856.45,330.54c-1.68,0-3.01,1.33-3.01,3.01c0,1.64,1.33,2.97,3.01,2.97c1.64,0,3.01-1.33,3.01-2.97 C859.46,331.87,858.09,330.54,856.45,330.54"></path> <path class="st0" d="M872.2,346.02c1.68,0,3.01-1.33,3.01-3.01c0-1.68-1.33-3.01-3.01-3.01c-1.68,0-3.01,1.33-3.01,3.01 C869.19,344.68,870.52,346.02,872.2,346.02"></path> <path class="st0" d="M844.5,325.24c0-1.68-1.33-3.01-3.01-3.01c-1.68,0-3.01,1.33-3.01,3.01c0,1.64,1.33,3.01,3.01,3.01 C843.16,328.25,844.5,326.88,844.5,325.24"></path> <path class="st0" d="M825.74,330.54c-1.68,0-3.01,1.33-3.01,3.01c0,1.64,1.33,2.97,3.01,2.97s3.01-1.33,3.01-2.97 C828.75,331.87,827.42,330.54,825.74,330.54"></path> <path class="st0" d="M841.48,346.02c1.68,0,3.01-1.33,3.01-3.01c0-1.68-1.33-3.01-3.01-3.01c-1.68,0-3.01,1.33-3.01,3.01 C838.47,344.68,839.81,346.02,841.48,346.02"></path> <path class="st0" d="M813.78,325.24c0-1.68-1.33-3.01-3.01-3.01c-1.64,0-2.97,1.33-2.97,3.01c0,1.64,1.33,3.01,2.97,3.01 C812.45,328.25,813.78,326.88,813.78,325.24"></path> <path class="st0" d="M795.03,330.54c-1.64,0-3.01,1.33-3.01,3.01c0,1.64,1.37,2.97,3.01,2.97c1.68,0,3.01-1.33,3.01-2.97 C798.04,331.87,796.7,330.54,795.03,330.54"></path> <path class="st0" d="M810.79,346.02c1.64,0,3.01-1.33,3.01-3.01c0-1.68-1.37-3.01-3.01-3.01c-1.68,0-3.01,1.33-3.01,3.01 C807.78,344.68,809.11,346.02,810.79,346.02"></path> <path class="st0" d="M783.09,325.24c0-1.68-1.33-3.01-3.01-3.01c-1.68,0-3.01,1.33-3.01,3.01c0,1.64,1.33,3.01,3.01,3.01 C781.75,328.25,783.09,326.88,783.09,325.24"></path> <path class="st0" d="M764.33,330.54c-1.68,0-3.01,1.33-3.01,3.01c0,1.64,1.33,2.97,3.01,2.97c1.68,0,3.01-1.33,3.01-2.97 C767.34,331.87,766.01,330.54,764.33,330.54"></path> <path class="st0" d="M780.08,346.02c1.68,0,3.01-1.33,3.01-3.01c0-1.68-1.33-3.01-3.01-3.01c-1.68,0-3.01,1.33-3.01,3.01 C777.07,344.68,778.4,346.02,780.08,346.02"></path> <path class="st0" d="M752.38,325.24c0-1.68-1.33-3.01-3.01-3.01c-1.64,0-2.97,1.33-2.97,3.01c0,1.64,1.33,3.01,2.97,3.01 C751.05,328.25,752.38,326.88,752.38,325.24"></path> <path class="st0" d="M733.63,330.54c-1.68,0-3.01,1.33-3.01,3.01c0,1.64,1.33,2.97,3.01,2.97s3.01-1.33,3.01-2.97 C736.64,331.87,735.3,330.54,733.63,330.54"></path> <path class="st0" d="M749.38,346.02c1.64,0,3.01-1.33,3.01-3.01c0-1.68-1.37-3.01-3.01-3.01c-1.64,0-3.01,1.33-3.01,3.01 C746.37,344.68,747.74,346.02,749.38,346.02"></path> <path class="st0" d="M721.68,325.24c0-1.68-1.33-3.01-3.01-3.01c-1.68,0-3.01,1.33-3.01,3.01c0,1.64,1.33,3.01,3.01,3.01 C720.35,328.25,721.68,326.88,721.68,325.24"></path> <path class="st0" d="M702.93,330.54c-1.68,0-3.01,1.33-3.01,3.01c0,1.64,1.33,2.97,3.01,2.97c1.64,0,3.01-1.33,3.01-2.97 C705.94,331.87,704.57,330.54,702.93,330.54"></path> <path class="st0" d="M718.68,346.02c1.64,0,3.01-1.33,3.01-3.01c0-1.68-1.37-3.01-3.01-3.01c-1.68,0-3.01,1.33-3.01,3.01 C715.67,344.68,717,346.02,718.68,346.02"></path> <path class="st0" d="M690.97,325.24c0-1.68-1.33-3.01-3.01-3.01c-1.68,0-3.01,1.33-3.01,3.01c0,1.64,1.33,3.01,3.01,3.01 C689.63,328.25,690.97,326.88,690.97,325.24"></path> <path class="st0" d="M672.23,330.54c-1.68,0-3.01,1.33-3.01,3.01c0,1.64,1.33,2.97,3.01,2.97c1.64,0,3.01-1.33,3.01-2.97 C675.24,331.87,673.86,330.54,672.23,330.54"></path> <path class="st0" d="M687.97,346.02c1.68,0,3.01-1.33,3.01-3.01c0-1.68-1.33-3.01-3.01-3.01c-1.68,0-3.01,1.33-3.01,3.01 C684.96,344.68,686.29,346.02,687.97,346.02"></path> <path class="st0" d="M660.26,325.24c0-1.68-1.33-3.01-3.01-3.01c-1.64,0-2.97,1.33-2.97,3.01c0,1.64,1.33,3.01,2.97,3.01 C658.93,328.25,660.26,326.88,660.26,325.24"></path> <path class="st0" d="M641.51,330.54c-1.68,0-3.01,1.33-3.01,3.01c0,1.64,1.33,2.97,3.01,2.97c1.68,0,3.01-1.33,3.01-2.97 C644.52,331.87,643.19,330.54,641.51,330.54"></path> <path class="st0" d="M657.25,346.02c1.68,0,3.01-1.33,3.01-3.01c0-1.68-1.33-3.01-3.01-3.01c-1.64,0-2.97,1.33-2.97,3.01 C654.28,344.68,655.61,346.02,657.25,346.02"></path> <path class="st0" d="M629.57,325.24c0-1.68-1.33-3.01-3.01-3.01c-1.68,0-3.01,1.33-3.01,3.01c0,1.64,1.33,3.01,3.01,3.01 C628.24,328.25,629.57,326.88,629.57,325.24"></path> <path class="st0" d="M610.82,330.54c-1.68,0-3.01,1.33-3.01,3.01c0,1.64,1.33,2.97,3.01,2.97c1.64,0,3.01-1.33,3.01-2.97 C613.83,331.87,612.45,330.54,610.82,330.54"></path> <path class="st0" d="M626.55,346.02c1.68,0,3.01-1.33,3.01-3.01c0-1.68-1.33-3.01-3.01-3.01c-1.68,0-3.01,1.33-3.01,3.01 C623.54,344.68,624.88,346.02,626.55,346.02"></path> <path class="st0" d="M598.85,325.24c0-1.68-1.33-3.01-3.01-3.01s-3.01,1.33-3.01,3.01c0,1.64,1.33,3.01,3.01,3.01 S598.85,326.88,598.85,325.24"></path> <path class="st0" d="M580.1,330.54c-1.64,0-3.01,1.33-3.01,3.01c0,1.64,1.37,2.97,3.01,2.97c1.68,0,3.01-1.33,3.01-2.97 C583.11,331.87,581.78,330.54,580.1,330.54"></path> <path class="st0" d="M595.85,346.02c1.68,0,3.01-1.33,3.01-3.01c0-1.68-1.33-3.01-3.01-3.01c-1.68,0-3.01,1.33-3.01,3.01 C592.84,344.68,594.17,346.02,595.85,346.02"></path> <path class="st0" d="M568.15,325.24c0-1.68-1.33-3.01-3.01-3.01c-1.64,0-2.97,1.33-2.97,3.01c0,1.64,1.33,3.01,2.97,3.01 C566.81,328.25,568.15,326.88,568.15,325.24"></path> <path class="st0" d="M549.39,330.54c-1.64,0-3.01,1.33-3.01,3.01c0,1.64,1.37,2.97,3.01,2.97c1.68,0,3.01-1.33,3.01-2.97 C552.4,331.87,551.07,330.54,549.39,330.54"></path> <path class="st0" d="M565.15,346.02c1.64,0,3.01-1.33,3.01-3.01c0-1.68-1.37-3.01-3.01-3.01c-1.68,0-3.01,1.33-3.01,3.01 C562.14,344.68,563.48,346.02,565.15,346.02"></path> <path class="st0" d="M537.45,325.24c0-1.68-1.33-3.01-3.01-3.01s-3.01,1.33-3.01,3.01c0,1.64,1.33,3.01,3.01,3.01 S537.45,326.88,537.45,325.24"></path> <path class="st0" d="M518.7,330.54c-1.68,0-3.01,1.33-3.01,3.01c0,1.64,1.33,2.97,3.01,2.97s3.01-1.33,3.01-2.97 C521.71,331.87,520.38,330.54,518.7,330.54"></path> <path class="st0" d="M534.45,346.02c1.68,0,3.01-1.33,3.01-3.01c0-1.68-1.33-3.01-3.01-3.01c-1.68,0-3.01,1.33-3.01,3.01 C531.44,344.68,532.77,346.02,534.45,346.02"></path> <path class="st0" d="M506.74,325.24c0-1.68-1.33-3.01-3.01-3.01c-1.64,0-2.97,1.33-2.97,3.01c0,1.64,1.33,3.01,2.97,3.01 C505.4,328.25,506.74,326.88,506.74,325.24"></path> <path class="st0" d="M487.99,330.54c-1.68,0-3.01,1.33-3.01,3.01c0,1.64,1.33,2.97,3.01,2.97c1.68,0,3.01-1.33,3.01-2.97 C491,331.87,489.67,330.54,487.99,330.54"></path> <path class="st0" d="M503.73,346.02c1.68,0,3.01-1.33,3.01-3.01c0-1.68-1.33-3.01-3.01-3.01c-1.64,0-3.01,1.33-3.01,3.01 C500.72,344.68,502.09,346.02,503.73,346.02"></path> <path class="st0" d="M476.04,325.24c0-1.68-1.33-3.01-3.01-3.01c-1.68,0-3.01,1.33-3.01,3.01c0,1.64,1.33,3.01,3.01,3.01 C474.71,328.25,476.04,326.88,476.04,325.24"></path> <path class="st0" d="M457.3,330.54c-1.68,0-3.01,1.33-3.01,3.01c0,1.64,1.33,2.97,3.01,2.97c1.64,0,2.97-1.33,2.97-2.97 C460.27,331.87,458.94,330.54,457.3,330.54"></path> <path class="st0" d="M473.04,346.02c1.68,0,3.01-1.33,3.01-3.01c0-1.68-1.33-3.01-3.01-3.01c-1.68,0-3.01,1.33-3.01,3.01 C470.03,344.68,471.36,346.02,473.04,346.02"></path> <path class="st0" d="M445.33,325.24c0-1.68-1.33-3.01-3.01-3.01c-1.68,0-3.01,1.33-3.01,3.01c0,1.64,1.33,3.01,3.01,3.01 C444,328.25,445.33,326.88,445.33,325.24"></path> <path class="st0" d="M426.58,330.54c-1.68,0-3.01,1.33-3.01,3.01c0,1.64,1.33,2.97,3.01,2.97c1.68,0,3.01-1.33,3.01-2.97 C429.59,331.87,428.26,330.54,426.58,330.54"></path> <path class="st0" d="M442.32,346.02c1.68,0,3.01-1.33,3.01-3.01c0-1.68-1.33-3.01-3.01-3.01c-1.64,0-3.01,1.33-3.01,3.01 C439.31,344.68,440.68,346.02,442.32,346.02"></path> <path class="st0" d="M414.62,325.24c0-1.68-1.33-3.01-3.01-3.01c-1.64,0-2.97,1.33-2.97,3.01c0,1.64,1.33,3.01,2.97,3.01 C413.29,328.25,414.62,326.88,414.62,325.24"></path> <path class="st0" d="M395.87,330.54c-1.64,0-2.97,1.33-2.97,3.01c0,1.64,1.33,2.97,2.97,2.97c1.68,0,3.01-1.33,3.01-2.97 C398.88,331.87,397.54,330.54,395.87,330.54"></path> <path class="st0" d="M411.63,346.02c1.64,0,3.01-1.33,3.01-3.01c0-1.68-1.37-3.01-3.01-3.01c-1.64,0-3.01,1.33-3.01,3.01 C408.62,344.68,409.99,346.02,411.63,346.02"></path> <path class="st0" d="M383.92,325.24c0-1.68-1.33-3.01-3.01-3.01c-1.68,0-3.01,1.33-3.01,3.01c0,1.64,1.33,3.01,3.01,3.01 C382.59,328.25,383.92,326.88,383.92,325.24"></path> <path class="st0" d="M365.17,330.54c-1.64,0-3.01,1.33-3.01,3.01c0,1.64,1.37,2.97,3.01,2.97c1.68,0,3.01-1.33,3.01-2.97 C368.18,331.87,366.85,330.54,365.17,330.54"></path> <path class="st0" d="M380.92,346.02c1.68,0,3.01-1.33,3.01-3.01c0-1.68-1.33-3.01-3.01-3.01c-1.68,0-3.01,1.33-3.01,3.01 C377.91,344.68,379.24,346.02,380.92,346.02"></path> <path class="st0" d="M353.22,325.24c0-1.68-1.33-3.01-3.01-3.01c-1.64,0-2.97,1.33-2.97,3.01c0,1.64,1.33,3.01,2.97,3.01 C351.88,328.25,353.22,326.88,353.22,325.24"></path> <path class="st0" d="M334.47,330.54c-1.68,0-3.01,1.33-3.01,3.01c0,1.64,1.33,2.97,3.01,2.97c1.68,0,3.01-1.33,3.01-2.97 C337.48,331.87,336.14,330.54,334.47,330.54"></path> <path class="st0" d="M350.21,346.02c1.68,0,3.01-1.33,3.01-3.01c0-1.68-1.33-3.01-3.01-3.01c-1.64,0-3.01,1.33-3.01,3.01 C347.2,344.68,348.57,346.02,350.21,346.02"></path> <path class="st0" d="M322.52,325.24c0-1.68-1.33-3.01-3.01-3.01c-1.68,0-3.01,1.33-3.01,3.01c0,1.64,1.33,3.01,3.01,3.01 C321.19,328.25,322.52,326.88,322.52,325.24"></path> <path class="st0" d="M303.77,330.54c-1.68,0-3.01,1.33-3.01,3.01c0,1.64,1.33,2.97,3.01,2.97c1.64,0,3.01-1.33,3.01-2.97 C306.78,331.87,305.41,330.54,303.77,330.54"></path> <path class="st0" d="M319.52,346.02c1.68,0,3.01-1.33,3.01-3.01c0-1.68-1.33-3.01-3.01-3.01c-1.68,0-3.01,1.33-3.01,3.01 C316.51,344.68,317.84,346.02,319.52,346.02"></path> <path class="st0" d="M291.82,325.24c0-1.68-1.33-3.01-3.01-3.01c-1.68,0-3.01,1.33-3.01,3.01c0,1.64,1.33,3.01,3.01,3.01 C290.48,328.25,291.82,326.88,291.82,325.24"></path> <path class="st0" d="M273.06,330.54c-1.68,0-3.01,1.33-3.01,3.01c0,1.64,1.33,2.97,3.01,2.97c1.68,0,3.01-1.33,3.01-2.97 C276.07,331.87,274.74,330.54,273.06,330.54"></path> <path class="st0" d="M288.8,346.02c1.68,0,3.01-1.33,3.01-3.01c0-1.68-1.33-3.01-3.01-3.01s-3.01,1.33-3.01,3.01 C285.79,344.68,287.13,346.02,288.8,346.02"></path> <path class="st0" d="M261.1,325.24c0-1.68-1.33-3.01-3.01-3.01c-1.64,0-2.97,1.33-2.97,3.01c0,1.64,1.33,3.01,2.97,3.01 C259.77,328.25,261.1,326.88,261.1,325.24"></path> <path class="st0" d="M242.35,330.54c-1.68,0-3.01,1.33-3.01,3.01c0,1.64,1.33,2.97,3.01,2.97c1.68,0,3.01-1.33,3.01-2.97 C245.36,331.87,244.03,330.54,242.35,330.54"></path> <path class="st0" d="M258.1,346.02c1.68,0,3.01-1.33,3.01-3.01c0-1.68-1.33-3.01-3.01-3.01c-1.64,0-3.01,1.33-3.01,3.01 C255.09,344.68,256.46,346.02,258.1,346.02"></path> <path class="st0" d="M230.41,325.24c0-1.68-1.33-3.01-3.01-3.01c-1.68,0-3.01,1.33-3.01,3.01c0,1.64,1.33,3.01,3.01,3.01 C229.07,328.25,230.41,326.88,230.41,325.24"></path> <path class="st0" d="M211.65,330.54c-1.68,0-3.01,1.33-3.01,3.01c0,1.64,1.33,2.97,3.01,2.97c1.64,0,3.01-1.33,3.01-2.97 C214.66,331.87,213.29,330.54,211.65,330.54"></path> <path class="st0" d="M227.4,346.02c1.68,0,3.01-1.33,3.01-3.01c0-1.68-1.33-3.01-3.01-3.01c-1.68,0-3.01,1.33-3.01,3.01 C224.39,344.68,225.72,346.02,227.4,346.02"></path> <path class="st0" d="M199.69,325.24c0-1.68-1.33-3.01-3.01-3.01c-1.68,0-3.01,1.33-3.01,3.01c0,1.64,1.33,3.01,3.01,3.01 C198.36,328.25,199.69,326.88,199.69,325.24"></path> <path class="st0" d="M180.95,330.54c-1.68,0-3.01,1.33-3.01,3.01c0,1.64,1.33,2.97,3.01,2.97c1.68,0,3.01-1.33,3.01-2.97 C183.96,331.87,182.62,330.54,180.95,330.54"></path> <path class="st0" d="M196.69,346.02c1.68,0,3.01-1.33,3.01-3.01c0-1.68-1.33-3.01-3.01-3.01c-1.68,0-3.01,1.33-3.01,3.01 C193.68,344.68,195.01,346.02,196.69,346.02"></path> <path class="st0" d="M168.98,325.24c0-1.68-1.33-3.01-3.01-3.01c-1.64,0-2.97,1.33-2.97,3.01c0,1.64,1.33,3.01,2.97,3.01 C167.65,328.25,168.98,326.88,168.98,325.24"></path> <path class="st0" d="M150.23,330.54c-1.64,0-2.97,1.33-2.97,3.01c0,1.64,1.33,2.97,2.97,2.97c1.68,0,3.01-1.33,3.01-2.97 C153.24,331.87,151.91,330.54,150.23,330.54"></path> <path class="st0" d="M165.99,346.02c1.64,0,3.01-1.33,3.01-3.01c0-1.68-1.37-3.01-3.01-3.01c-1.68,0-3.01,1.33-3.01,3.01 C162.98,344.68,164.31,346.02,165.99,346.02"></path> <path class="st0" d="M138.29,325.24c0-1.68-1.33-3.01-3.01-3.01c-1.68,0-3.01,1.33-3.01,3.01c0,1.64,1.33,3.01,3.01,3.01 C136.96,328.25,138.29,326.88,138.29,325.24"></path> <path class="st0" d="M119.54,330.54c-1.68,0-3.01,1.33-3.01,3.01c0,1.64,1.33,2.97,3.01,2.97c1.68,0,3.01-1.33,3.01-2.97 C122.55,331.87,121.21,330.54,119.54,330.54"></path> <path class="st0" d="M135.28,346.02c1.68,0,3.01-1.33,3.01-3.01c0-1.68-1.33-3.01-3.01-3.01c-1.68,0-3.01,1.33-3.01,3.01 C132.27,344.68,133.61,346.02,135.28,346.02"></path> <path class="st0" d="M107.58,325.24c0-1.68-1.33-3.01-3.01-3.01c-1.68,0-3.01,1.33-3.01,3.01c0,1.64,1.33,3.01,3.01,3.01 C106.25,328.25,107.58,326.88,107.58,325.24"></path> <path class="st0" d="M88.83,330.54c-1.68,0-3.01,1.33-3.01,3.01c0,1.64,1.33,2.97,3.01,2.97s3.01-1.33,3.01-2.97 C91.84,331.87,90.51,330.54,88.83,330.54"></path> <path class="st0" d="M104.57,346.02c1.68,0,3.01-1.33,3.01-3.01c0-1.68-1.33-3.01-3.01-3.01c-1.64,0-3.01,1.33-3.01,3.01 C101.56,344.68,102.93,346.02,104.57,346.02"></path> <path class="st0" d="M76.89,325.24c0-1.68-1.33-3.01-3.01-3.01s-3.01,1.33-3.01,3.01c0,1.64,1.33,3.01,3.01,3.01 S76.89,326.88,76.89,325.24"></path> <path class="st0" d="M58.13,330.54c-1.68,0-3.01,1.33-3.01,3.01c0,1.64,1.33,2.97,3.01,2.97c1.64,0,3.01-1.33,3.01-2.97 C61.14,331.87,59.77,330.54,58.13,330.54"></path> <path class="st0" d="M73.87,346.02c1.68,0,3.01-1.33,3.01-3.01c0-1.68-1.33-3.01-3.01-3.01c-1.68,0-3.01,1.33-3.01,3.01 C70.86,344.68,72.2,346.02,73.87,346.02"></path> <path class="st0" d="M46.17,325.24c0-1.68-1.33-3.01-3.01-3.01c-1.68,0-3.01,1.33-3.01,3.01c0,1.64,1.33,3.01,3.01,3.01 C44.84,328.25,46.17,326.88,46.17,325.24"></path> <path class="st0" d="M27.42,330.54c-1.68,0-3.01,1.33-3.01,3.01c0,1.64,1.33,2.97,3.01,2.97c1.68,0,3.01-1.33,3.01-2.97 C30.43,331.87,29.1,330.54,27.42,330.54"></path> <path class="st0" d="M43.17,346.02c1.68,0,3.01-1.33,3.01-3.01c0-1.68-1.33-3.01-3.01-3.01c-1.68,0-3.01,1.33-3.01,3.01 C40.16,344.68,41.49,346.02,43.17,346.02"></path> </g> </svg> 