<?xml version="1.0" encoding="UTF-8"?> <!-- Generator: Adobe Illustrator 28.1.0, SVG Export Plug-In . SVG Version: 6.00 Build 0) --> <svg xmlns="http://www.w3.org/2000/svg" xmlns:xlink="http://www.w3.org/1999/xlink" version="1.1" id="Calque_1" x="0px" y="0px" viewBox="0 0 4320.1 2867.1" style="enable-background:new 0 0 4320.1 2867.1;" xml:space="preserve"> <style type="text/css"> .st0{fill:#FFF6E7;} </style> <path class="st0" d="M0,0v2348.4c1030.6,0,885.5,527.3,2161.2,527.3s1130.6-527.3,2161.2-527.3V0H0z"></path> <g> <path d="M2069.9,907.6c0-2.9,0.2-6.4,0.9-9.8c4.4-24.4,31-62.3,54-62.3c6,0,11.7,2.4,16.6,8.4c9.3-15.9,23.9-41.7,25.7-45h22.4 c-27.2,38.3-47.2,76.9-53.6,94.1c-2.6,7.1-4.2,12.8-4.2,16.8c0,4.2,1.7,6.6,5.3,6.6c2.7,0,7.3-1.8,13.3-6.9 c10.6-9.1,21.5-25.2,27.7-39.2c3.1-0.6,5.3,0.7,6.9,2.9c-15,30.3-32.5,53.4-56.1,53.4c-8.4,0-14.6-5.1-14.6-14.8 c0-2.2,0.2-4.6,0.9-7.1c-5.6,9.1-16.2,21.5-27.4,21.9C2074.8,926.7,2069.9,919.2,2069.9,907.6z M2103.6,906.3 c11.9-13.7,28.8-45.2,34.1-55.6c-1.5-3.8-3.8-5.5-6.7-5.5c-14.4,0-42,39.2-42.5,57.4c-0.2,6.6,2,9.8,5.5,9.8 C2096.7,912.5,2100,910.5,2103.6,906.3z"></path> <path d="M2167.1,904.1c0-27,26.5-70.7,51.8-70.7c14.2,0,20.1,7.3,20.1,17.1c0,13.7-11.7,31.9-27.7,40.8c-8,4.4-15,7.3-24.8,8.8 c-0.2,1.6-0.4,3.3-0.4,4.7c0,7.3,3.3,11.9,11.3,11.9c21.7,0,43.4-23.2,53.8-46.7c3.1-0.6,5.3,0.7,6.9,2.9 c-12.9,29.3-38.5,53.8-66.7,53.8C2176.6,926.7,2167.1,917.2,2167.1,904.1z M2205.4,884.8c11.7-10.6,18.8-28.4,18.8-38.3 c0-4.4-1.5-7.1-4.2-7.1c-8.8,0-27.7,30.8-32.1,53.6C2195.4,892.1,2199.8,889.7,2205.4,884.8z"></path> </g> <g> <g> <path d="M1574.7,626.9c-2.5-11.4-5.1-22.8-8-34.3c3.1-0.2,40.8-7.2,43.8-8.1c1.4,11.7,3,23.3,4.8,34.9c1.8,11.5,4,24.7,6.7,39.5 l6.7,36.3c1.9,10.1,3.7,19.9,5.6,29.3c1.8,9.4,3.5,17.6,4.9,24.5c10.1-1.9,20.2-4,30.3-6.4c10-2.4,20.1-5.2,30.2-8.3 c0,2,3.6,21.7,4.2,22.7c-4.8,0.7-10.8,1.7-17.8,2.9c-7.1,1.2-16.7,3-29,5.2c-10.9,2-19.7,3.6-26.4,4.9c-6.6,1.2-11.9,2.2-15.9,2.9 c-4,0.7-7,1.3-9.1,1.8c-2,0.5-3.7,0.9-5.1,1.4c-1.3-11.2-2.9-22.5-4.6-34.1c-1.8-11.5-4-24.7-6.7-39.5l-6.7-36.3 C1579.8,651.4,1577.2,638.3,1574.7,626.9z"></path> </g> <g> <path d="M1684.8,607.7c1.2-12.3,2.6-21.6,4.2-28.1c1.6-6.5,3.5-10.8,5.7-13c2.2-2.2,5.1-3.5,8.7-4.1c2.1-0.3,4.4-0.3,6.7,0.1 c2.3,0.4,4.6,1.1,6.6,2.1c2.1,1,3.9,2.6,5.4,4.5c1.5,2,2.4,4.3,2.9,7c0.2,1.1,0.2,2.3,0.1,3.6c-0.1,1.3-0.5,3.1-1.4,5.3 c-0.9,2.2-2,5.2-3.6,8.9c-1.5,3.7-3.7,8.4-6.6,14.2c-2.9,5.8-6.4,12.7-10.5,21c-4.1,8.2-9.2,18.1-15.1,29.6l-7.1-1.7 C1682.2,636.5,1683.5,620,1684.8,607.7z"></path> </g> <g> <path d="M1940.6,728.7c-4.4,0.1-43,4.1-46.7,4.9c-3.8-8.5-7.7-17.2-11.7-26.1c-4-8.9-8.2-17.7-12.6-26.5c-5.8,0.4-58,5.9-62.7,6.6 c-2.6,9.6-5,19.1-7.1,28.6c-2.1,9.5-3.9,18.8-5.5,27.9c-2.2-0.1-23.7,2.1-26.2,2.7c1.7-4.9,3.9-11.7,6.6-20.3 c2.7-8.7,5.7-18.4,8.9-29.3c3.2-10.9,6.7-22.6,10.4-35.1c3.7-12.5,7.4-25.1,11-37.9c3.7-12.8,7.3-25.3,10.8-37.7 c3.5-12.4,6.7-23.9,9.6-34.6c1.8,0.2,18.8-1.6,20.5-2.1c7.4,14.7,15.2,30.4,23.6,47.2c8.4,16.8,16.8,33.2,25.2,49.4 c8.4,16.1,16.6,31.4,24.5,45.9S1934.3,718.8,1940.6,728.7z M1830.9,603.9c-3.6,11.3-6.8,22.4-9.9,33.4c-3,11-6,22.2-8.8,33.5 l49.4-5.2c-5.1-10.6-10.2-20.9-15.1-31C1841.6,624.5,1836.4,614.3,1830.9,603.9z"></path> </g> <g> <path d="M1975,570.6c-0.3-4.3-0.7-7.5-1.2-9.5c-2.7,0.2-6,0.4-10,0.8c-4,0.4-8.2,0.9-12.7,1.4c-4.5,0.5-9.1,1.1-13.8,1.8 c-4.7,0.7-9,1.4-12.9,2.2c0.3-2-0.8-21.9-1.3-23.9c6.2-0.2,133.8-7,139.4-7.5c-0.3,2,0.8,21.9,1.3,23.9c-3.6-0.3-7.7-0.6-12.3-0.8 c-4.5-0.2-9-0.3-13.5-0.4c-4.4,0-8.7,0-12.6,0c-4,0-7.3,0.1-10,0.3c-0.1,0.9-0.2,2.2-0.2,3.8c0,1.6,0.1,3.5,0.2,5.7l0.8,14.4 l3.7,67.8c0.8,15,1.7,28.3,2.7,40c1,11.6,2.1,23,3.5,34.2c-3.1-0.2-41.4,1.9-44.5,2.4c0.1-11.2,0-22.7-0.2-34.4 c-0.3-11.7-0.8-25-1.6-40l-3.7-67.8C1975.6,579.7,1975.3,574.9,1975,570.6z"></path> </g> <g> <path d="M2101.6,570.5c-0.4-11.7-1.1-23.4-1.9-35.2c8.2,0.1,101.6-0.3,105.1-0.7c-0.7,2.9-0.2,21.6,0.2,23.6 c-5.3-0.3-11-0.6-17.2-1c-6.2-0.3-12.3-0.6-18.2-1c-5.9-0.3-11.2-0.6-15.9-0.7c-4.7-0.1-8.1-0.2-10.1-0.2c-0.7,10-1,19.8-1,29.6 c0,9.8,0,19.6,0.1,29.6c11.8-0.3,22.4-0.6,31.9-1c9.5-0.4,19.4-0.9,29.7-1.6c-0.5,3.1-0.2,20.5,0.2,23.4 c-20.6-1.5-41.2-2.2-61.6-2c0,5.8,0,11.6,0,17.4c-0.1,5.8-0.1,11.6,0,17.4c0.1,11.8,0.4,23.1,1,33.9c10.3-0.1,20.6-0.4,31-1 c10.3-0.6,20.7-1.6,31.2-2.9c-0.4,2-0.2,22,0.2,23.1c-4.9-0.2-10.9-0.2-18.1-0.3c-7.1,0-17,0-29.5,0.1c-11,0.1-20,0.1-26.9,0.2 c-6.7,0-12.1,0.1-16.2,0.1c-4.1,0-7.2,0.1-9.2,0.2c-2.1,0.1-3.8,0.2-5.3,0.4c0.6-11.2,1.1-22.7,1.4-34.4c0.3-11.7,0.4-25,0.3-40.1 l-0.3-36.9C2102.3,595.5,2102,582.2,2101.6,570.5z"></path> </g> <g> <path d="M2250.2,570.8c0.1-11.7,0-23.4-0.3-35.2c3.1,0.5,41.4,1.9,44.5,1.7c-1.2,11.7-2.1,23.4-3,35.1c-0.8,11.7-1.5,25-2.1,40 l-1.4,36.9c-0.4,10.3-0.7,20.3-1,29.9c-0.3,9.6-0.5,17.9-0.5,25c10.3,0.4,20.6,0.5,31,0.4c10.3-0.2,20.8-0.7,31.3-1.5 c-0.4,2-1.2,22-0.9,23.1c-4.9-0.4-10.9-0.7-18-1.1c-7.1-0.4-16.9-0.8-29.4-1.3c-11-0.4-20-0.8-26.9-1c-6.7-0.3-12.1-0.5-16.2-0.6 c-4.1-0.2-7.1-0.2-9.2-0.2c-2.1,0-3.9,0.1-5.3,0.2c1.1-11.2,2.1-22.6,2.9-34.3c0.8-11.7,1.5-25,2-40l1.4-36.9 C2249.8,595.8,2250.1,582.4,2250.2,570.8z"></path> </g> <g> <path d="M2396.1,577.8c0.5-11.7,0.9-23.4,1-35.2c3,0.6,41.3,3.5,44.4,3.4c-1.6,11.7-3.1,23.3-4.3,34.9 c-1.3,11.6-2.4,24.9-3.6,39.9l-2.8,36.8c-1.1,15-2,28.3-2.5,40c-0.5,11.7-0.9,23.1-1,34.4c-3-0.6-41.3-3.5-44.4-3.4 c1.6-11.1,3-22.5,4.2-34.1c1.3-11.6,2.4-24.9,3.6-39.9l2.8-36.8C2394.7,602.8,2395.5,589.5,2396.1,577.8z"></path> </g> <g> <path d="M2492.4,585.8c1-11.6,1.8-23.3,2.5-35.1c8.1,1.1,100.7,12.2,104.4,12.2c-1,2.8-2.9,21.4-2.7,23.5c-5.2-1-10.8-2-17-3.1 c-6.2-1.1-12.1-2.1-17.9-3.2c-5.8-1-11-1.9-15.7-2.7c-4.6-0.7-8-1.2-9.9-1.4c-1.9,9.8-3.4,19.6-4.7,29.3 c-1.2,9.7-2.4,19.5-3.6,29.4c11.7,1.2,22.3,2.2,31.8,2.9c9.5,0.8,19.4,1.5,29.7,2.1c-0.9,3-2.7,20.3-2.7,23.2 c-20.3-4-40.6-7.2-60.9-9.6c-0.7,5.8-1.4,11.5-2.2,17.2c-0.8,5.7-1.5,11.5-2.2,17.2c-1.4,11.7-2.4,23-3.1,33.8 c10.3,1.2,20.5,2.1,30.8,2.8c10.3,0.7,20.7,1,31.3,0.9c-0.6,1.9-2.9,21.8-2.7,22.9c-4.8-0.7-10.8-1.6-17.9-2.5 c-7.1-0.9-16.8-2.1-29.2-3.6c-11-1.3-19.9-2.3-26.7-3.1c-6.7-0.8-12-1.4-16.1-1.9c-4-0.5-7.1-0.8-9.2-0.9 c-2.1-0.2-3.9-0.2-5.3-0.2c2-11.1,3.9-22.4,5.6-33.9c1.7-11.6,3.5-24.8,5.2-39.7l4.3-36.7C2490.1,610.7,2491.4,597.4,2492.4,585.8 z"></path> </g> <g> <path d="M2669.6,676.2l-1.9,11c-2.6,14.8-4.7,28-6.4,39.5c-1.7,11.6-3.1,22.9-4.3,34.1c-3-0.9-40.8-7.5-43.9-7.7 c2.7-10.9,5.2-22.1,7.6-33.6c2.4-11.4,4.9-24.6,7.5-39.4l6.4-36.4c2.6-14.8,4.7-28,6.4-39.5c1.7-11.6,3.1-23.2,4.5-34.9 c3,0.9,6.2,1.8,9.7,2.7c3.5,0.9,7.5,1.7,12,2.5c4.8,0.8,10.3,1.6,16.6,2.2c6.2,0.6,13.9,1.7,23,3.3c6.8,1.2,12.5,2.4,17.3,3.6 c4.7,1.2,8.8,2.5,12.1,3.8c3.4,1.3,6.2,2.8,8.6,4.4c2.4,1.6,4.6,3.4,6.6,5.4c4.7,4.9,8,10.5,10.1,16.8c2.1,6.3,2.4,13.5,1,21.5 c-2.3,13-7.7,23-16.3,29.9c-8.6,6.9-19.8,10.9-33.8,12c5.9,16.7,12.4,33.4,19.6,50.2c7.2,16.8,14.3,33.5,21.5,50 c-4-1.1-44.2-8.2-48.4-8.5l-33.1-92.7L2669.6,676.2z M2720.5,634.5c1.4-7.8,1.7-14.2,0.9-19.2c-0.8-4.9-2.6-8.9-5.5-11.9 c-2.9-3-6.9-5.3-12-6.9c-5.1-1.6-11.4-3.1-18.7-4.4c-4.8,24.2-9.3,48.4-13.6,72.6c1,0.4,2,0.7,3,0.9c1,0.3,1.9,0.5,2.8,0.6 c11.8,2.1,21.3,0.5,28.7-4.7C2713.4,656.3,2718.2,647.3,2720.5,634.5z"></path> </g> </g> <g> <path d="M2426.7,1883.3v-61.1c-10.1,4.6-20.9,9-33.3,13.4C2399.6,1833.9,2414.2,1859.1,2426.7,1883.3z"></path> <polygon points="1085,1963.8 1354,1963.8 1354,1858.7 1218.4,1858.7 1218.4,1540 1337.1,1540 1337.1,1434.9 1218.4,1434.9 1218.4,1130.8 1354,1130.8 1354,1025.7 1085,1025.7 "></polygon> <polygon points="1082.8,962.4 1088.4,1006.5 1355.2,966.9 1348.4,922.8 "></polygon> <path d="M1704.1,1822.5l-3.4-126.6c-2.3-94.9-17-137.9-74.6-170.7V1514c65.6-40.7,100.6-114.2,100.6-224.9v-20.3 c0-163.9-87-243-205.7-243h-130v938.1h130v-407.6c37.3,0,52,24.9,54.3,75.7l5.7,209.8c1.1,53.1,5.6,91.6,17,122.1H1717 c2-5.5,3.8-11.1,6.1-16.4C1710.4,1920.7,1706.2,1884.2,1704.1,1822.5z M1592.2,1372.8c0,89.3-24.9,120.9-62.2,120.9h-9v-412.8h9 c37.3,0,62.2,31.6,62.2,122.1V1372.8z"></path> <path d="M1868.1,1790.2l4-66h73.5l1.8,29.3c40-14,81.7-22.3,122.5-24.3l-64.3-703.5h-180.8l-79.5,880.6 C1775.3,1858.8,1818.4,1819.5,1868.1,1790.2z M1903.8,1199.1h11.3l23.7,418.8h-59.9L1903.8,1199.1z"></path> <path d="M2264.2,1601.6v-576h-133.4v705.3c18.2,1.8,36.9,4.4,53,7C2188.6,1681.1,2219.7,1632.9,2264.2,1601.6z"></path> <path d="M2553.3,1025.7h-126.6v683.7c31.5,4.9,61,17.5,89.9,36.9c-29.3,38.1-53,58.8-89.9,75.8v61.1c10.1,19.4,18.8,38.3,20.7,42.3 c6,12.5,11.3,25.3,15.7,38.3h90.2c136.8,0,210.2-88.2,210.2-293.9v-350.4C2763.5,1112.7,2690.1,1025.7,2553.3,1025.7z M2631.3,1822.5c0,52-20.3,79.1-61,79.1h-13.6v-821.7h13.6c40.7,0,61,28.3,61,80.3V1822.5z"></path> <rect x="2806.9" y="1025.7" width="133.4" height="938.1"></rect> <polygon points="3205.7,1577.3 3194.4,1577.3 3107.3,1025.7 2983,1025.7 2983,1963.8 3106.2,1963.8 3091.5,1412.3 3102.8,1412.3 3189.8,1963.8 3314.2,1963.8 3314.2,1025.7 3191,1025.7 "></polygon> <polygon points="3631.1,1130.8 3631.1,1025.7 3362.1,1025.7 3362.1,1963.8 3631.1,1963.8 3631.1,1858.7 3495.5,1858.7 3495.5,1540 3614.2,1540 3614.2,1434.9 3495.5,1434.9 3495.5,1130.8 "></polygon> <path d="M927.3,1369.1h123.2l-7.6-120.9c0-136.8-56.5-227.2-168.4-227.2c-115.3,0-183.1,93.8-183.1,281.5V1724 c0,165,64.4,252.1,154.9,252.1c61,0,87-37.3,96.1-78h11.3c10,41.1,46.8,70.1,89.1,70.1h0.2v-438.5H910.6v330.3 c0,32.8-12.4,53.1-35,53.1c-23.7,0-37.3-20.3-37.3-55.4v-720.7c0-35,13.6-55.4,37.3-55.4c22.6,0,35,20.3,35,53.1V1256 C910.6,1295.6,919.4,1335.2,927.3,1369.1z"></path> </g> <g> <path d="M2384.2,1868.7c-6.6-14.2-22.4-32.6-45.4-48.4c53-3.5,108.5-36,147.2-66.9c-52.8-29.1-112.9-33.4-162.5-6.9 c10.7-43.6-0.4-93.7-15.1-134.7l-1.8-4.7l-4.4,2.7c-40.1,24.2-74.7,63.2-82.5,110.6c-2.4,15.1-1.9,30.7,3.7,45l2.3,6 c0.6,1.8,1.4,3.5,2.2,5.2c-2,1.8-3.8,3.8-5.4,5.9c-70.6-16.7-156.9-18-254.2,7.2c-157.6,40.8-279.8,213.8-229.9,385.5 c10.3,45.1,8.7,98.5-15.2,122.3c20.5,2.7,40.9-2.4,59.7-12.7c-2.8,28-7.9,40.1-19.3,59.5c17.3-2,37.1-11.4,54.4-23.7 c16.3,45,39.2,70.5,39.2,70.5s6.3-13.9,12.4-33.9c22.9,18,48.9,35.3,78.3,51.7l6.4-25.1c19.2,8.5,34.6,14.1,45.6,17.8 c2.6,5.5,5.1,10.9,7.6,16.3l-11.6,58.8c-30.6-7.7-61.8-15.1-93.9-12.8c-22.4,2-39.1,12.4-41.4,36.5c-2.5,22.2,17.5,36.1,35.6,42.8 c21.6,8.3,43.8,12.2,66.2,16.5c43.7,7.8,87.1,15.2,129.1,29.3c16.3,5.9,43.5,13.5,49,31.1c2.8,9.3,1.4,20.6,1.4,30.8 c-0.1,11.2,0.3,22.7,2.8,33.9l6-0.2c1.6-11.1,2.9-21.9,4.1-32.9c1.1-11.9,2.5-23.4-0.9-35.7c-7.6-24.5-36.5-33.1-57.8-41 c-32.7-11.4-66.7-18.9-100.6-25.3l21.7-110.3c9.6,20.9,18.6,40.5,26.1,58.6c12.7-58.9,11.2-115.1,17.4-163.6 c0.3,0.7,0.9,1.2,1.7,1.2c1,0,1.9-0.8,1.9-1.9s-0.8-1.9-1.9-1.9c-0.6,0-1.2,0.3-1.5,0.8c0.4-2.8,0.8-5.5,1.2-8.2 c0.1,0,0.2,0.1,0.3,0.1c1,0,1.9-0.8,1.9-1.9c0-0.9-0.7-1.7-1.6-1.8c1.3-7.4,2.8-14.6,4.6-21.6c4.5,7.5,9.4,14.7,14.6,21.6 c-0.1,0-0.2-0.1-0.3-0.1c-1,0-1.9,0.8-1.9,1.9s0.8,1.9,1.9,1.9c1,0,1.8-0.8,1.8-1.7c1,1.3,1.9,2.6,2.9,3.8 c-1.6-22.8-2.7-45.7-3.2-68.6c0.2-0.3,0.3-0.6,0.3-1c0-0.4-0.1-0.7-0.3-1c0-0.9,0-1.8,0-2.8c3-8.6,5.7-17,8.2-25.1c0,0,0.1,0,0.1,0 c1,0,1.9-0.8,1.9-1.9c0-0.7-0.4-1.2-0.9-1.6c3-9.8,5.6-19.1,7.9-28.1c0.1,0,0.3,0.1,0.4,0.1c1,0,1.9-0.8,1.9-1.9 c0-0.9-0.6-1.6-1.4-1.8c1.2-4.8,2.3-9.4,3.4-13.9c1.4-1,2.9-2,4.4-3c0.3,0.5,0.9,0.9,1.6,0.9c1,0,1.9-0.8,1.9-1.9 c0-0.4-0.1-0.7-0.3-1c2.1-1.3,4.2-2.6,6.3-3.8c0.3,0.5,0.9,0.8,1.5,0.8c1,0,1.8-0.8,1.9-1.9l-0.1-0.5c0,0,0-0.1-0.1-0.1 c5.2-2.8,10.4-5.3,15.8-7.5c45.3-18.5,73.9-5.6,111.5,20.8c1.1,0.8,2.7-0.3,2.2-1.6c-1.7-5.7-4.2-11.2-7.2-16.4 c-5.4-8.7-12-16.5-20.6-22.7c-35.3-26.4-86-13.4-113.4,17.8c-0.6,0.2-1.1,0.7-1.2,1.4c0,0.1-0.1,0.1-0.1,0.2 c0.6-3.1,1.2-6.1,1.7-9.1c0.1,0,0.2,0.1,0.3,0.1c1,0,1.9-0.8,1.9-1.9c0-0.9-0.6-1.6-1.5-1.8c3.1-18.3,4.8-34.4,5.6-48.3 c3.8-0.6,7.7-1.2,11.5-1.8c-0.1,0.3-0.3,0.6-0.3,0.9c0,1,0.8,1.9,1.9,1.9s1.9-0.8,1.9-1.9c0-0.6-0.2-1-0.6-1.4 c8.5-1.4,16.9-3,25.4-4.7c0,0.1,0,0.1,0,0.2c0,1,0.8,1.9,1.9,1.9s1.9-0.8,1.9-1.9c0-0.3-0.1-0.6-0.3-0.9c8.9-1.8,17.8-3.8,26.7-5.9 c0.2,0.1,0.4,0.1,0.7,0.1c0.5,0,1-0.2,1.4-0.6c8.5-2,17-4.2,25.4-6.5c0.3,0.7,0.9,1.2,1.7,1.2c1,0,1.9-0.8,1.9-1.9 c0-0.1,0-0.2-0.1-0.3c11.8-3.2,23.4-6.7,34.7-10.4c0.2,0.8,0.9,1.4,1.8,1.4c0.2,0,0.4,0,0.5-0.1l0.3-0.1l0-0.3 c0.1-0.6,0.1-1.2,0.1-1.8c2.7-0.9,5.4-1.8,8.1-2.7c-16.1,12.1-32.9,23.7-32.9,23.7s13.4,0.6,32.2-2.5c0.3,0.5,0.9,0.8,1.5,0.8 c0.9,0,1.5-0.6,1.8-1.4c7.7-1.4,16.1-3.3,24.9-6.2c0.1,0.9,0.9,1.7,1.8,1.7c1,0,1.9-0.8,1.9-1.9c0-0.3-0.1-0.7-0.3-0.9 c2.4-0.8,4.8-1.7,7.2-2.7c0.3,0.2,0.6,0.3,1,0.3c0.9,0,1.6-0.7,1.8-1.5c9.3-3.9,18.6-9,27.4-15.3c-6.8,7.8-11.8,13.4-11.8,13.4 c7.2,0,22.2-3,38.8-11.5l0.1,0.1c0.4,0.3,0.8,0.5,1.3,0.5c1,0,1.9-0.8,1.9-1.9c0-0.1,0-0.2-0.1-0.4c2.2-1.2,4.4-2.5,6.6-3.9 c0.3,0.2,0.6,0.3,0.9,0.3c1,0,1.9-0.8,1.9-1.9c0-0.1,0-0.1,0-0.2c2.1-1.4,4.1-3,6.2-4.6c0.2,0.8,0.9,1.5,1.8,1.5 c1,0,1.9-0.8,1.9-1.9c0-0.7-0.4-1.4-1.1-1.7c9.4-7.7,18.3-17.6,25.9-30.1c0,0.1-0.1,0.2-0.1,0.4c0,1,0.8,1.9,1.9,1.9 s1.9-0.8,1.9-1.9c0-1-0.8-1.9-1.9-1.9c-0.4,0-0.8,0.2-1.1,0.4c1.9-3.2,3.7-6.6,5.3-10.1c3.6,10.8,6.5,22,8.7,33.2 c2.1,11.2,3.6,22.6,4.7,34c-10.9-6.5-24.6-7-37-3.5l-0.9,0.1c-0.2,0.1-0.4,0.2-0.6,0.4c-2.6,0.8-5.1,1.7-7.4,2.8 c-20.3,9.3-35.7,28.6-39.7,50.3c-0.2,1,1.2,1.8,1.9,1c6.9-6.5,13.1-12.6,19.7-17.8c11.2-9.2,23.4-15.3,37-19.3 c9.3-2.8,18-4.4,27.6-5.9c2.3,31.4,0.8,63.3-5.6,94c-1.4-0.2-2.7-0.4-4.2-0.7c-29.1-5.4-57.3-1.7-81.7,37.8 c-2.5-6.6-3.7-13.5-3-20.7c1.1-11.4,6.9-22.4,10.8-33.9c0.1-0.3,0-0.6-0.3-0.7c-0.3-0.2-0.7,0-0.8,0.3c-2.8,5.4-5.8,10.6-8.6,16 c-10.1,17.9-9.4,36.6,0.1,54.7c5.7,11.3,13.5,21.2,20.8,30.6c15.5,20.1,32.5,40.4,49.7,59.1l0.7,0.7c0-0.1,0.1,0,0.1,0.1 c-6.9,17.6-23.3,30.4-42,33.9c-11.5,2.2-23.5,1.3-35-1c-0.6-0.1-1.3,0.2-1.5,0.8c-0.2,0.7,0.1,1.4,0.8,1.7c5.8,2,11.8,3.6,17.9,4.5 c18.8,3.1,39.3-1.6,53.7-14.5c4.9-4.3,9.1-9.3,12.5-15c2.7-4.5,5.9-10.3,2.9-15.6c-0.5-1-1.4-2-2.1-2.8 c-17.4-20.6-41.5-48.7-59.2-69.8c24.3,3.4,49.8-13,49.8-13l-3.6,0.5l-21.8,2.9c7.6-9.1,6.6-23.7,1.3-35c7.1-1.5,14.2-2.5,20.8-3.2 c10.3-1.1,19.2-1.6,24.5-2.2c4.3-0.5,8.5-2.1,12.3-4.3c11.8-6.6,20.5-18.3,20.5-18.3s-6.6,7.8-24.7,7.9 c5.8-32.6,6.8-68.3,2.8-102.9c0.8-10.5,2.3-38.1-2-66.6c15.1,7.4,31.5,12,48.3,13.2c-21.9-21.5-40.8-45.9-56-72.5 C2421.5,1920.3,2407.6,1893.6,2384.2,1868.7z M1928.9,2474.2c8,0.7,16.6,1.5,24.1,4c-8,0.3-16.2-0.6-24.2-0.4 c-4.8,0.1-10.6,0.2-16.5,0.7c-14.5,1.3-29.8,5.3-32.9,19.6c-0.7,3.8-0.4,7.8,0.4,11.7c0.1,0.3-0.4,0.5-0.5,0.2 c-1.7-4.7-2.3-8.8-2.1-12.4C1878.9,2476.9,1909.7,2472.4,1928.9,2474.2z M2343.5,2211.1c-0.2-2.3,1.5-4.3,3.8-4.5 c2.3-0.2,4.3,1.5,4.5,3.8c0.2,2.3-1.5,4.4-3.8,4.5C2345.7,2215.2,2343.7,2213.5,2343.5,2211.1z M2343.2,2035.3c2.5-2.9,5-5.9,7.4-9 c5.9-7.4,11.3-15.1,16-23.4c6.8-11.6,12.5-23.5,19-35.5c0.2-0.3,0.7-0.2,0.7,0.2c-0.5,16.9-7.6,34.6-18.8,48.5 c-6.7,8.3-14.8,15.3-23.8,20C2343.3,2036.5,2342.7,2035.8,2343.2,2035.3z M2339.3,1828.4c0,0.1,0,0.2,0,0.2c0,1,0.8,1.9,1.9,1.9 c0.3,0,0.5-0.1,0.7-0.2c2.5,1.9,4.9,3.8,7.1,5.7c-0.2,0.3-0.4,0.7-0.4,1.1c0,1,0.8,1.9,1.9,1.9c0.5,0,1-0.2,1.3-0.6 c11.1,9.9,19.2,19.8,24.1,28c0.1,0.1,0.1,0.2,0.2,0.3c-4.5-1.8-12.3-2.1-23.8-3.7c0-0.1,0.1-0.2,0.1-0.4c0-0.1,0-0.2-0.1-0.3 c-0.1-0.9-0.9-1.6-1.8-1.6c-0.9,0-1.6,0.6-1.8,1.4c0,0.1-0.1,0.2-0.1,0.3c-1.2-0.2-2.5-0.4-3.8-0.6c-12.9-2.2-29.5-6.2-50.4-14.9 c-0.3-0.4-0.8-0.7-1.4-0.7c-0.1,0-0.1,0-0.2,0c-2.4-1-4.8-2.1-7.3-3.2c0-0.1,0-0.1,0-0.2c0-1-0.8-1.9-1.9-1.9c-0.5,0-1,0.2-1.3,0.6 c-2.9-1.3-5.8-2.7-8.8-4.2c1-0.6,2-1.3,3-2.1c2.1-1.6,4-3.5,5.8-5.6c0.3,0.4,0.8,0.6,1.4,0.6c1,0,1.9-0.8,1.9-1.9 c0-0.7-0.4-1.3-1-1.7c3-4.2,4.9-8.8,5.9-13.3c3.4,1.4,7,2.6,10.6,3.5c0,0.1-0.1,0.2-0.1,0.4c0,1,0.8,1.9,1.9,1.9 c0.9,0,1.5-0.6,1.8-1.4c0.2,0,0.4,0.1,0.6,0.2c6.1,1.2,12.3,1.9,18.5,2.2c3.7,2.3,7.4,4.6,11,7.1l2.9-0.4 C2338.1,1827.6,2338.7,1828,2339.3,1828.4z M2273.5,1777.3c-8.8-2.8-17.8-1.7-24.8,3.4c-5.2-2-10.8-2.8-16.5-2.1 C2244.3,1767.3,2261.9,1768.2,2273.5,1777.3z M2278.4,1781.9c2,2.4,3.7,5.2,4.9,8.3c-0.9,0.2-1.6,0.9-1.6,1.8c0,1,0.8,1.9,1.9,1.9 c0.3,0,0.6-0.1,0.8-0.2c0.6,2.3,1,4.7,1.1,7.3c0.1,6-1.2,11.3-3.6,15.9c0,0,0,0,0,0c-1.4,2.6-3.1,4.9-5.1,6.9 c0.3-4.5-0.5-9.1-1.7-13.3c-3.5-12.4-12.4-23.4-23.7-28.7C2259.1,1776.9,2269,1777,2278.4,1781.9z M2452.3,1746.9 c5.9,2.2,11.8,4.6,17.5,7.4c-48.9,30.9-121.3,68.2-178.5,49.4c-0.1-3.3-0.7-6.6-1.7-9.7c3.8-0.3,7.7-0.7,11.5-1.2l0,0 c0.3,0.7,1,1.1,1.7,1.1c0.9,0,1.6-0.6,1.8-1.5c6.7-0.8,13.4-1.7,20-2.8c8-1.2,16-2.6,24-4.1c0,0,0,0.1,0,0.1c0,1,0.8,1.9,1.9,1.9 s1.9-0.8,1.9-1.9c0-0.3-0.1-0.5-0.2-0.8c3.8-0.7,7.7-1.5,11.5-2.2c0,0,0,0,0,0l0,0l0,0c-22.1,1.8-44.5,3-66.7,2.7 c5.8-2.4,11.8-4.6,17.8-6.7c1.3-0.4,2.5-0.8,3.8-1.3c9.8-3.2,19.8-6.2,29.9-8.7c0,0,0,0,0,0c-21.8,3-43.3,7.1-64.2,14.2 c0,0,0,0,0,0C2328.7,1735.2,2391.8,1724.4,2452.3,1746.9z M2229,1764.1c-0.6-14-0.9-28.2,1.5-42c6.7-36,30.1-66.4,57.1-90.1 c4.8-4.1,9.8-8.2,14.8-11.9c13.2,38.4,24.4,91.8,10.6,132.6c-10,6.4-19.5,14.2-28.3,23.4c-0.3-0.2-0.7-0.4-1.1-0.4 c-1,0-1.9,0.8-1.9,1.9c0,0.5,0.2,0.9,0.5,1.3c-0.2,0.3-0.5,0.5-0.7,0.8c-2.1-2.3-4.4-4.4-7-6.2c0.7-0.3,1.2-0.9,1.2-1.7 c0-1-0.8-1.9-1.9-1.9s-1.9,0.8-1.9,1.9c0,0.1,0,0.1,0,0.1c-2.5-1.4-5.1-2.5-8-3.4c0-0.1,0-0.1,0-0.2c0.2,0,0.3,0.1,0.5,0.1 c1,0,1.9-0.8,1.9-1.9c0-1-0.8-1.9-1.9-1.9c-0.1,0-0.3,0.1-0.4,0.1c0.1-3.6,0.3-7.2,0.6-10.8c0.9-0.1,1.7-0.9,1.7-1.8 c0-0.6-0.3-1.2-0.8-1.5c-0.2-0.1-0.3-0.2-0.5-0.2c0.3-2.8,0.6-5.5,1-8.2c0.2-0.3,0.4-0.7,0.4-1.1c0-0.2-0.1-0.5-0.1-0.7 c0.2-1.6,0.5-3.3,0.8-4.9c1.5-8.1,3.4-16.3,6.1-24.2c0.2,0.1,0.5,0.2,0.7,0.2c1,0,1.9-0.8,1.9-1.9c0-0.8-0.5-1.4-1.2-1.7l-0.2-0.1 c1.6-4.3,3.4-8.4,5.6-12.5c0,0,0,0,0,0c0,0,0,0,0,0c0,0-0.2,0.3-0.5,0.7c-14.1,21-21.1,46-24.8,71c-1.3,0-2.7,0-4.1,0.1 c-7.9,0.6-14.7,3.4-20.2,7.5C2229.7,1771.1,2229.4,1767.4,2229,1764.1z M2228.6,1782.4c0.5-0.6,1-1.2,1.6-1.8 c12.2-0.6,23.9,4.6,31.7,14.1c5.9,7.3,11.1,16.7,12.2,26.3c-0.1,0-0.2-0.1-0.4-0.1c-1,0-1.9,0.8-1.9,1.9c0,1,0.8,1.9,1.9,1.9 c0.2,0,0.4-0.1,0.6-0.1c0,0.5,0,1,0,1.5c-10.8,8.9-27.4,10.3-40.3,0.4C2220.8,1816.4,2218,1795.7,2228.6,1782.4z M2221.4,1784.2 c-5,7.6-7.3,16.8-6.2,26c-26.5,3.5-52.5,11.3-76.1,23.9c-8.4,4.5-16.5,9.4-23.9,15.2c1.1-0.7,2.3-1.3,3.4-1.9 c0,0.2-0.1,0.3-0.1,0.5c0,1,0.8,1.9,1.9,1.9s1.9-0.8,1.9-1.9c0-0.9-0.6-1.6-1.4-1.8c2.7-1.5,5.4-2.8,8.2-4.1 c-0.3,0.3-0.5,0.7-0.5,1.2c0,1,0.8,1.9,1.9,1.9s1.9-0.8,1.9-1.9c0-1-0.8-1.9-1.9-1.9c2.5-1.2,5-2.3,7.6-3.3 c0.3,0.7,0.9,1.2,1.7,1.2c1,0,1.9-0.8,1.9-1.9c0-0.3-0.1-0.5-0.1-0.7c8.3-3.2,16.8-5.9,25.4-8c0,0,0,0.1,0,0.1c0,1,0.8,1.9,1.9,1.9 s1.9-0.8,1.9-1.9c0-0.3-0.1-0.6-0.3-0.9c8.3-1.9,16.7-3.3,25.2-4.2c0.3,0.6,0.9,1,1.7,1c0.9,0,1.6-0.6,1.8-1.4 c5.2-0.5,10.4-0.8,15.6-0.9c0,0.1-0.1,0.3-0.1,0.4c0,1,0.8,1.9,1.9,1.9c1,0,1.9-0.8,1.9-1.9c0-0.2-0.1-0.3-0.1-0.5 c0.2,0,0.4,0,0.6,0c2.1,4.2,5,8.2,8.9,11.7c1.6,1.6,3.4,2.9,5.2,4c-1.6,1.6-3.2,3.3-4.8,4.8c-0.1-0.9-0.9-1.6-1.8-1.6 c-1,0-1.9,0.8-1.9,1.9c0,0.9,0.7,1.7,1.6,1.8c-13.2,12.9-26.1,23.7-38.5,33c-0.5,0.1-0.9,0.4-1.1,0.8c-9.4,7-18.6,13.2-27.5,18.7 c-0.6,0-1.1,0.4-1.4,0.9c-26.2,16.1-50.5,27.3-73.4,40c-0.3-0.6-0.9-1-1.6-1c-1,0-1.9,0.8-1.9,1.9c0,0.3,0.1,0.6,0.3,0.9 c-2.1,1.2-4.3,2.4-6.4,3.7c-0.3-0.3-0.8-0.6-1.3-0.6c-1,0-1.9,0.8-1.9,1.9c0,0.2,0.1,0.4,0.1,0.5c-2.1,1.3-4.2,2.6-6.3,3.9 c-0.3-0.7-1-1.2-1.7-1.2c-1,0-1.9,0.8-1.9,1.9c0,0.5,0.2,0.9,0.5,1.3c-2.1,1.4-4.1,2.7-6.2,4.2c-0.2-0.8-0.9-1.4-1.8-1.4 c-1,0-1.9,0.8-1.9,1.9c0,0.6,0.4,1.2,0.9,1.5c-2.5,1.8-5,3.7-7.5,5.6c-0.3-0.3-0.8-0.5-1.3-0.5c-1,0-1.9,0.8-1.9,1.9 c0,0.3,0.1,0.6,0.3,0.9c-2,1.6-3.9,3.2-5.9,4.9c-0.1-1-0.9-1.8-1.9-1.8c-1,0-1.9,0.8-1.9,1.9c0,0.9,0.7,1.7,1.6,1.8 c-7,6.3-14,13.3-20.8,21.2c-2.2,2.6-4.2,5.1-6,7.5c-0.1-1-0.9-1.7-1.9-1.7c-1,0-1.9,0.8-1.9,1.9c0,1,0.8,1.9,1.9,1.9 c0.2,0,0.3-0.1,0.4-0.1c-1.9,2.7-3.6,5.3-5,7.8c-4.3,5.2-8.6,10.5-12.7,15.9c0-1-0.9-1.8-1.9-1.8c-1,0-1.9,0.8-1.9,1.9 c0,1,0.8,1.9,1.9,1.9c0.2,0,0.3-0.1,0.5-0.1c-7.9,10.6-15.5,21.8-22.6,33.5c-1.8,3-3.6,6-5.4,9c-0.3-0.2-0.6-0.3-1-0.3 c-1,0-1.9,0.8-1.9,1.9c0,0.7,0.4,1.3,1,1.6c-3,5.3-6,10.7-8.9,16.1c0,0-0.1,0-0.1,0c-1,0-1.9,0.8-1.9,1.9c0,0.4,0.2,0.8,0.4,1.1 c-5.6,10.8-11,22-16.2,33.6c-1.7,3.7-3.3,7.4-4.9,11.2c-3.7,8.7-7.3,17.6-10.9,26.7c6.6-29.9,13.9-59.5,23.6-88.6 c19.3-58.5,48.7-113.3,93.4-156.6c-3.9,2.6-8.3,5.8-12.1,8.6c-6,4.8-13.3,10.8-18.8,16.2c-57.2,55.1-83.7,138.4-95.1,217.3 c0.4-4.1,0.8-8.2,1.3-12.3c6.4-62,15.4-124.3,39-182.4c-31.3,43.4-42.7,97.6-48.3,149.9c-2.2,20.5-3.3,41.5-3.5,62.4 C1848.2,1895.6,2048.2,1759.7,2221.4,1784.2z M1890.8,2302.4c-2.7-5.2-4.7-10.5-5.8-15.8c-1.9-8.3-1.8-16.5,0.2-24.2 c4.4-17.4,18.5-32,41.4-38.8c2.7,8.2,5.5,16.5,8.4,24.7c-8.3-4.4-17.5-5.6-25.9,0.5c-3,2.1-5.4,4.9-7.2,7.8 c-3.7,5.9-5.6,12.4-6.2,18.9c-0.1,1,0.5,1.9,1.5,2.1c1,0.2,2.1-0.4,2.3-1.5c2.1-10.2,9.4-23.2,20.6-23.1 c10.8,0.6,18.6,11.5,24.2,20.3c0.1,0.1,0.2,0.2,0.3,0.3c5.8,14.9,11.9,29.7,18.1,44.4c-4.2-1.4-8-4.2-10.3-7.9 c-0.7-1.1-1.3-2.3-2.5-2.8c-0.4,4,1.8,8,4.8,10.7c3,2.7,6.8,4.4,10.5,6.1l0-0.1c5.5,12.6,11,25.2,16.6,37.5 C1933.3,2350.1,1903.5,2326.8,1890.8,2302.4z M2202.4,2057.2c-7.5,1.6-15.3,1.8-23,2.1c-1.3,0-1.7-1.9-0.4-2.4 c27.2-11.3,53.7-24.2,78.2-40.6c24.9-16.2,47.8-33.9,72.6-51.1c0.6-0.5,1.7,0.3,1.3,1C2306.9,2012.4,2253.1,2048,2202.4,2057.2z"></path> <path d="M2425.5,2200.5c0.7-2.6,1.4-5.2,2.1-7.9c-4.5,3.2-9.5,6.4-14.1,8.2c-0.1,0.2-0.1,0.3-0.1,0.3l0.8,2.1 c24.6,60,43.2,127.1,27.6,191.5c-8.9,36.1-22,70.3-35.4,105.2c-1.9,5.5-3.8,11.2-4.9,16.9c-1.2,8.9-3.5,16.5-8.2,24.4 c-20.1,33.2-57.1,39.1-93.1,34.8c-54.5-4.7-111.2-17.3-156.8-48.1c-9-6.1-17.6-12.8-25.6-20.4c-10.6-10.1-20.2-21.4-28.3-33.6 c-2.2-3-6.5-0.1-4.7,3.1c0.2,0.3,0.3,0.5,0.5,0.8c14.1,21.9,32.7,40.8,54,55.8c-0.6,0.3-1,0.9-1,1.6c0,1,0.8,1.9,1.9,1.9 c1,0,1.7-0.7,1.8-1.7c2.3,1.6,4.7,3.1,7.1,4.6c14.5,9.1,29.9,16.4,45.7,22.5c0,0,0,0,0,0c0,1,0.8,1.9,1.9,1.9 c0.6,0,1.1-0.3,1.4-0.7c12.3,4.5,24.8,8.2,37.6,11.3c-2.8,13.7-4.1,27.8-3.3,41.7c0.4,7.2,1.3,14.3,2.6,21.3 c-0.8,0.2-1.4,0.9-1.4,1.8c0,1,0.8,1.9,1.9,1.9c0.1,0,0.1,0,0.2,0c1.7,7.9,4.1,15.7,7.4,23.3l6-2.5c-2.3-7.1-3.7-15-4.5-22.6 c-2.2-20.7,0.3-41.7,6.8-61.3c19.5,3.9,39.3,6.5,59,8.3c35.1,3.9,73.9-7.8,92.9-39.7c4.2-6.9,7.5-14.4,9.1-22.6 c0.5-3.3,1.3-7.1,2.2-10.4c5.5-17.5,13.4-34.2,19.7-51.7c10.2-28.4,20.5-57.3,24.9-87.3c6.1-45.5-2.7-91.9-17.7-134.8 C2436.9,2227,2431.4,2213.6,2425.5,2200.5z"></path> <circle cx="2158.9" cy="2103.7" r="1.9"></circle> <circle cx="2139.7" cy="2103.7" r="1.9"></circle> <path d="M2147.7,2109.6c0,1,0.8,1.9,1.9,1.9s1.9-0.8,1.9-1.9c0-1-0.8-1.9-1.9-1.9S2147.7,2108.6,2147.7,2109.6z"></path> <path d="M2139.7,2116.3c-1,0-1.9,0.8-1.9,1.9c0,1,0.8,1.9,1.9,1.9c1,0,1.9-0.8,1.9-1.9C2141.6,2117.1,2140.7,2116.3,2139.7,2116.3z "></path> <path d="M2139.7,2196.7c1,0,1.9-0.8,1.9-1.9s-0.8-1.9-1.9-1.9c-1,0-1.9,0.8-1.9,1.9S2138.7,2196.7,2139.7,2196.7z"></path> <path d="M2139.7,2207.8c1,0,1.9-0.8,1.9-1.9c0-1-0.8-1.9-1.9-1.9c-1,0-1.9,0.8-1.9,1.9C2137.8,2206.9,2138.7,2207.8,2139.7,2207.8z "></path> <path d="M2149.6,2202.6c1,0,1.9-0.8,1.9-1.9c0-0.8-0.5-1.5-1.2-1.7l0,0l-0.3-0.1c-0.1,0-0.2-0.1-0.4-0.1c-1,0-1.9,0.8-1.9,1.9 c0,0.3,0.1,0.5,0.2,0.8C2148.1,2202.1,2148.8,2202.6,2149.6,2202.6z"></path> <path d="M2130.4,2184.4c-0.1,0-0.3,0-0.4,0.1l-0.1-0.1l-0.3,0.2c-0.7,0.3-1.1,1-1.1,1.7c0,0.3,0.1,0.5,0.2,0.8 c0.3,0.7,0.9,1.2,1.7,1.2c0.9,0,1.6-0.7,1.8-1.5l0-0.1l0,0c0-0.1,0-0.2,0-0.2C2132.3,2185.3,2131.4,2184.4,2130.4,2184.4z"></path> <circle cx="2120.6" cy="2103.7" r="1.9"></circle> <path d="M2130.4,2107.7c-1,0-1.9,0.8-1.9,1.9c0,1,0.8,1.9,1.9,1.9s1.9-0.8,1.9-1.9C2132.3,2108.6,2131.4,2107.7,2130.4,2107.7z"></path> <path d="M2120.6,2116.3c-1,0-1.9,0.8-1.9,1.9c0,1,0.8,1.9,1.9,1.9s1.9-0.8,1.9-1.9C2122.4,2117.1,2121.6,2116.3,2120.6,2116.3z"></path> <circle cx="2130.4" cy="2124.1" r="1.9"></circle> <circle cx="2120.6" cy="2129.3" r="1.9"></circle> <path d="M2130.4,2133.3c-1,0-1.9,0.8-1.9,1.9c0,1,0.8,1.9,1.9,1.9s1.9-0.8,1.9-1.9C2132.3,2134.1,2131.4,2133.3,2130.4,2133.3z"></path> <path d="M2120.6,2141.8c-1,0-1.9,0.8-1.9,1.9c0,1,0.8,1.9,1.9,1.9s1.9-0.8,1.9-1.9C2122.4,2142.7,2121.6,2141.8,2120.6,2141.8z"></path> <path d="M2120.6,2182.2c1,0,1.9-0.8,1.9-1.9c0-1-0.8-1.9-1.9-1.9s-1.9,0.8-1.9,1.9C2118.7,2181.4,2119.5,2182.2,2120.6,2182.2z"></path> <path d="M2120.6,2196.7c1,0,1.9-0.8,1.9-1.9s-0.8-1.9-1.9-1.9s-1.9,0.8-1.9,1.9S2119.5,2196.7,2120.6,2196.7z"></path> <path d="M2130.4,2202.6c1,0,1.9-0.8,1.9-1.9s-0.8-1.9-1.9-1.9s-1.9,0.8-1.9,1.9S2129.3,2202.6,2130.4,2202.6z"></path> <path d="M2120.6,2207.8c1,0,1.9-0.8,1.9-1.9c0-1-0.8-1.9-1.9-1.9s-1.9,0.8-1.9,1.9C2118.7,2206.9,2119.5,2207.8,2120.6,2207.8z"></path> <path d="M2130.4,2213.7c1,0,1.9-0.8,1.9-1.9c0-1-0.8-1.9-1.9-1.9s-1.9,0.8-1.9,1.9C2128.5,2212.8,2129.3,2213.7,2130.4,2213.7z"></path> <path d="M2120.6,2222.2c1,0,1.9-0.8,1.9-1.9c0-1-0.8-1.9-1.9-1.9s-1.9,0.8-1.9,1.9C2118.7,2221.4,2119.5,2222.2,2120.6,2222.2z"></path> <path d="M2120.6,2247.8c1,0,1.9-0.8,1.9-1.9s-0.8-1.9-1.9-1.9s-1.9,0.8-1.9,1.9S2119.5,2247.8,2120.6,2247.8z"></path> <path d="M2120.4,2258.9c1,0,1.9-0.8,1.9-1.9c0-1-0.8-1.9-1.9-1.9s-1.9,0.8-1.9,1.9C2118.5,2258,2119.4,2258.9,2120.4,2258.9z"></path> <path d="M2111.2,2188.1c1,0,1.9-0.8,1.9-1.9s-0.8-1.9-1.9-1.9s-1.9,0.8-1.9,1.9S2110.2,2188.1,2111.2,2188.1z"></path> <path d="M2111.2,2202.6c1,0,1.9-0.8,1.9-1.9s-0.8-1.9-1.9-1.9s-1.9,0.8-1.9,1.9S2110.2,2202.6,2111.2,2202.6z"></path> <path d="M2101.4,2207.8c1,0,1.9-0.8,1.9-1.9c0-1-0.8-1.9-1.9-1.9c-1,0-1.9,0.8-1.9,1.9C2099.5,2206.9,2100.4,2207.8,2101.4,2207.8z "></path> <path d="M2111.2,2213.7c1,0,1.9-0.8,1.9-1.9c0-1-0.8-1.9-1.9-1.9s-1.9,0.8-1.9,1.9C2109.3,2212.8,2110.2,2213.7,2111.2,2213.7z"></path> <path d="M2101.4,2222.2c1,0,1.9-0.8,1.9-1.9c0-1-0.8-1.9-1.9-1.9c-1,0-1.9,0.8-1.9,1.9C2099.5,2221.4,2100.4,2222.2,2101.4,2222.2z "></path> <path d="M2111.2,2228.1c1,0,1.9-0.8,1.9-1.9c0-1-0.8-1.9-1.9-1.9s-1.9,0.8-1.9,1.9C2109.3,2227.3,2110.2,2228.1,2111.2,2228.1z"></path> <path d="M2101.4,2233.3c1,0,1.9-0.8,1.9-1.9s-0.8-1.9-1.9-1.9c-1,0-1.9,0.8-1.9,1.9S2100.4,2233.3,2101.4,2233.3z"></path> <path d="M2111.2,2239.2c1,0,1.9-0.8,1.9-1.9s-0.8-1.9-1.9-1.9s-1.9,0.8-1.9,1.9S2110.2,2239.2,2111.2,2239.2z"></path> <path d="M2101.4,2247.8c1,0,1.9-0.8,1.9-1.9s-0.8-1.9-1.9-1.9c-1,0-1.9,0.8-1.9,1.9S2100.4,2247.8,2101.4,2247.8z"></path> <path d="M2111.2,2253.7c1,0,1.9-0.8,1.9-1.9s-0.8-1.9-1.9-1.9s-1.9,0.8-1.9,1.9S2110.2,2253.7,2111.2,2253.7z"></path> <path d="M2101.4,2258.8c1,0,1.9-0.8,1.9-1.9s-0.8-1.9-1.9-1.9c-1,0-1.9,0.8-1.9,1.9S2100.4,2258.8,2101.4,2258.8z"></path> <path d="M2111.2,2264.7c1,0,1.9-0.8,1.9-1.9s-0.8-1.9-1.9-1.9s-1.9,0.8-1.9,1.9S2110.2,2264.7,2111.2,2264.7z"></path> <path d="M2101.4,2273.3c1,0,1.9-0.8,1.9-1.9s-0.8-1.9-1.9-1.9c-1,0-1.9,0.8-1.9,1.9S2100.4,2273.3,2101.4,2273.3z"></path> <path d="M2111.2,2279.2c1,0,1.9-0.8,1.9-1.9s-0.8-1.9-1.9-1.9s-1.9,0.8-1.9,1.9S2110.2,2279.2,2111.2,2279.2z"></path> <path d="M2101.4,2284.4c1,0,1.9-0.8,1.9-1.9c0-1-0.8-1.9-1.9-1.9c-1,0-1.9,0.8-1.9,1.9C2099.5,2283.5,2100.4,2284.4,2101.4,2284.4z "></path> <path d="M2111.2,2290.3c1,0,1.9-0.8,1.9-1.9c0-1-0.8-1.9-1.9-1.9s-1.9,0.8-1.9,1.9C2109.3,2289.4,2110.2,2290.3,2111.2,2290.3z"></path> <path d="M2101.4,2298.8c1,0,1.9-0.8,1.9-1.9c0-1-0.8-1.9-1.9-1.9c-1,0-1.9,0.8-1.9,1.9C2099.5,2298,2100.4,2298.8,2101.4,2298.8z"></path> <path d="M2111.2,2304.7c1,0,1.9-0.8,1.9-1.9c0-1-0.8-1.9-1.9-1.9s-1.9,0.8-1.9,1.9C2109.3,2303.9,2110.2,2304.7,2111.2,2304.7z"></path> <path d="M2101.4,2309.9c1,0,1.9-0.8,1.9-1.9s-0.8-1.9-1.9-1.9c-1,0-1.9,0.8-1.9,1.9S2100.4,2309.9,2101.4,2309.9z"></path> <path d="M2111.2,2315.8c1,0,1.9-0.8,1.9-1.9s-0.8-1.9-1.9-1.9s-1.9,0.8-1.9,1.9S2110.2,2315.8,2111.2,2315.8z"></path> <path d="M2101.4,2324.4c1,0,1.9-0.8,1.9-1.9s-0.8-1.9-1.9-1.9c-1,0-1.9,0.8-1.9,1.9S2100.4,2324.4,2101.4,2324.4z"></path> <path d="M2111.2,2330.3c1,0,1.9-0.8,1.9-1.9s-0.8-1.9-1.9-1.9s-1.9,0.8-1.9,1.9S2110.2,2330.3,2111.2,2330.3z"></path> <path d="M2101.4,2335.5c1,0,1.9-0.8,1.9-1.9s-0.8-1.9-1.9-1.9c-1,0-1.9,0.8-1.9,1.9S2100.4,2335.5,2101.4,2335.5z"></path> <path d="M2111.2,2341.4c1,0,1.9-0.8,1.9-1.9s-0.8-1.9-1.9-1.9s-1.9,0.8-1.9,1.9S2110.2,2341.4,2111.2,2341.4z"></path> <path d="M2101.4,2349.9c1,0,1.9-0.8,1.9-1.9s-0.8-1.9-1.9-1.9c-1,0-1.9,0.8-1.9,1.9S2100.4,2349.9,2101.4,2349.9z"></path> <path d="M2111.2,2355.8c1,0,1.9-0.8,1.9-1.9s-0.8-1.9-1.9-1.9s-1.9,0.8-1.9,1.9S2110.2,2355.8,2111.2,2355.8z"></path> <path d="M2101.4,2361c1,0,1.9-0.8,1.9-1.9c0-1-0.8-1.9-1.9-1.9c-1,0-1.9,0.8-1.9,1.9C2099.5,2360.2,2100.4,2361,2101.4,2361z"></path> <path d="M2111.4,2363.2c-1,0-1.9,0.8-1.9,1.9s0.8,1.9,1.9,1.9c1,0,1.9-0.8,1.9-1.9S2112.4,2363.2,2111.4,2363.2z"></path> <path d="M2101.4,2375.5c1,0,1.9-0.8,1.9-1.9c0-1-0.8-1.9-1.9-1.9c-1,0-1.9,0.8-1.9,1.9C2099.5,2374.6,2100.4,2375.5,2101.4,2375.5z "></path> <path d="M2111.3,2376.4c-1,0-1.9,0.8-1.9,1.9c0,1,0.8,1.9,1.9,1.9s1.9-0.8,1.9-1.9C2113.1,2377.3,2112.3,2376.4,2111.3,2376.4z"></path> <path d="M2101.4,2386.5c1,0,1.9-0.8,1.9-1.9s-0.8-1.9-1.9-1.9c-1,0-1.9,0.8-1.9,1.9S2100.4,2386.5,2101.4,2386.5z"></path> <path d="M2101.4,2401c1,0,1.9-0.8,1.9-1.9s-0.8-1.9-1.9-1.9c-1,0-1.9,0.8-1.9,1.9S2100.4,2401,2101.4,2401z"></path> <path d="M2101.4,2412.1c1,0,1.9-0.8,1.9-1.9s-0.8-1.9-1.9-1.9c-1,0-1.9,0.8-1.9,1.9S2100.4,2412.1,2101.4,2412.1z"></path> <path d="M2092.1,2239.2c1,0,1.9-0.8,1.9-1.9s-0.8-1.9-1.9-1.9s-1.9,0.8-1.9,1.9S2091,2239.2,2092.1,2239.2z"></path> <path d="M2092.1,2253.7c1,0,1.9-0.8,1.9-1.9s-0.8-1.9-1.9-1.9s-1.9,0.8-1.9,1.9S2091,2253.7,2092.1,2253.7z"></path> <path d="M2092.1,2264.7c1,0,1.9-0.8,1.9-1.9s-0.8-1.9-1.9-1.9s-1.9,0.8-1.9,1.9S2091,2264.7,2092.1,2264.7z"></path> <path d="M2092.1,2279.2c1,0,1.9-0.8,1.9-1.9s-0.8-1.9-1.9-1.9s-1.9,0.8-1.9,1.9S2091,2279.2,2092.1,2279.2z"></path> <path d="M2092.1,2290.3c1,0,1.9-0.8,1.9-1.9c0-1-0.8-1.9-1.9-1.9s-1.9,0.8-1.9,1.9C2090.2,2289.4,2091,2290.3,2092.1,2290.3z"></path> <path d="M2092.1,2304.7c1,0,1.9-0.8,1.9-1.9c0-1-0.8-1.9-1.9-1.9s-1.9,0.8-1.9,1.9C2090.2,2303.9,2091,2304.7,2092.1,2304.7z"></path> <path d="M2092.1,2315.8c1,0,1.9-0.8,1.9-1.9s-0.8-1.9-1.9-1.9s-1.9,0.8-1.9,1.9S2091,2315.8,2092.1,2315.8z"></path> <path d="M2092.1,2330.3c1,0,1.9-0.8,1.9-1.9s-0.8-1.9-1.9-1.9s-1.9,0.8-1.9,1.9S2091,2330.3,2092.1,2330.3z"></path> <path d="M2082.2,2335.5c1,0,1.9-0.8,1.9-1.9s-0.8-1.9-1.9-1.9s-1.9,0.8-1.9,1.9S2081.2,2335.5,2082.2,2335.5z"></path> <path d="M2092.1,2341.4c1,0,1.9-0.8,1.9-1.9s-0.8-1.9-1.9-1.9s-1.9,0.8-1.9,1.9S2091,2341.4,2092.1,2341.4z"></path> <path d="M2082.2,2349.9c1,0,1.9-0.8,1.9-1.9s-0.8-1.9-1.9-1.9s-1.9,0.8-1.9,1.9S2081.2,2349.9,2082.2,2349.9z"></path> <path d="M2092.1,2355.8c1,0,1.9-0.8,1.9-1.9s-0.8-1.9-1.9-1.9s-1.9,0.8-1.9,1.9S2091,2355.8,2092.1,2355.8z"></path> <path d="M2082.2,2361c1,0,1.9-0.8,1.9-1.9c0-1-0.8-1.9-1.9-1.9s-1.9,0.8-1.9,1.9C2080.4,2360.2,2081.2,2361,2082.2,2361z"></path> <path d="M2092.1,2366.9c1,0,1.9-0.8,1.9-1.9c0-1-0.8-1.9-1.9-1.9s-1.9,0.8-1.9,1.9C2090.2,2366.1,2091,2366.9,2092.1,2366.9z"></path> <path d="M2082.2,2375.5c1,0,1.9-0.8,1.9-1.9c0-1-0.8-1.9-1.9-1.9s-1.9,0.8-1.9,1.9C2080.4,2374.6,2081.2,2375.5,2082.2,2375.5z"></path> <path d="M2092.1,2381.4c1,0,1.9-0.8,1.9-1.9c0-1-0.8-1.9-1.9-1.9s-1.9,0.8-1.9,1.9C2090.2,2380.5,2091,2381.4,2092.1,2381.4z"></path> <path d="M2082.2,2386.5c1,0,1.9-0.8,1.9-1.9s-0.8-1.9-1.9-1.9s-1.9,0.8-1.9,1.9S2081.2,2386.5,2082.2,2386.5z"></path> <path d="M2092.1,2392.5c1,0,1.9-0.8,1.9-1.9s-0.8-1.9-1.9-1.9s-1.9,0.8-1.9,1.9S2091,2392.5,2092.1,2392.5z"></path> <path d="M2082.2,2401c1,0,1.9-0.8,1.9-1.9s-0.8-1.9-1.9-1.9s-1.9,0.8-1.9,1.9S2081.2,2401,2082.2,2401z"></path> <path d="M2092.1,2406.9c1,0,1.9-0.8,1.9-1.9s-0.8-1.9-1.9-1.9s-1.9,0.8-1.9,1.9S2091,2406.9,2092.1,2406.9z"></path> <path d="M2082.2,2412.1c1,0,1.9-0.8,1.9-1.9s-0.8-1.9-1.9-1.9s-1.9,0.8-1.9,1.9S2081.2,2412.1,2082.2,2412.1z"></path> <path d="M2092.1,2418c1,0,1.9-0.8,1.9-1.9s-0.8-1.9-1.9-1.9s-1.9,0.8-1.9,1.9S2091,2418,2092.1,2418z"></path> <path d="M2101.6,2423c-1,0-1.9,0.8-1.9,1.9s0.8,1.9,1.9,1.9s1.9-0.8,1.9-1.9S2102.7,2423,2101.6,2423z"></path> <path d="M2098.7,2437.1c0,1,0.8,1.9,1.9,1.9s1.9-0.8,1.9-1.9c0-1-0.8-1.9-1.9-1.9S2098.7,2436.1,2098.7,2437.1z"></path> <path d="M2082.8,2425.6c1,0,1.9-0.8,1.9-1.9s-0.8-1.9-1.9-1.9s-1.9,0.8-1.9,1.9S2081.7,2425.6,2082.8,2425.6z"></path> <path d="M2092.1,2432.4c1,0,1.9-0.8,1.9-1.9s-0.8-1.9-1.9-1.9s-1.9,0.8-1.9,1.9S2091,2432.4,2092.1,2432.4z"></path> <path d="M2072.9,2312.1c-1,0-1.9,0.8-1.9,1.9s0.8,1.9,1.9,1.9c1,0,1.9-0.8,1.9-1.9S2073.9,2312.1,2072.9,2312.1z"></path> <path d="M2072.9,2326.5c-1,0-1.9,0.8-1.9,1.9s0.8,1.9,1.9,1.9c1,0,1.9-0.8,1.9-1.9S2073.9,2326.5,2072.9,2326.5z"></path> <path d="M2072.9,2337.6c-1,0-1.9,0.8-1.9,1.9s0.8,1.9,1.9,1.9c1,0,1.9-0.8,1.9-1.9S2073.9,2337.6,2072.9,2337.6z"></path> <path d="M2063.1,2346.2c-1,0-1.9,0.8-1.9,1.9s0.8,1.9,1.9,1.9c1,0,1.9-0.8,1.9-1.9S2064.1,2346.2,2063.1,2346.2z"></path> <path d="M2072.9,2352.1c-1,0-1.9,0.8-1.9,1.9s0.8,1.9,1.9,1.9c1,0,1.9-0.8,1.9-1.9S2073.9,2352.1,2072.9,2352.1z"></path> <path d="M2063.1,2357.3c-1,0-1.9,0.8-1.9,1.9c0,1,0.8,1.9,1.9,1.9c1,0,1.9-0.8,1.9-1.9C2065,2358.1,2064.1,2357.3,2063.1,2357.3z"></path> <path d="M2072.9,2363.2c-1,0-1.9,0.8-1.9,1.9c0,1,0.8,1.9,1.9,1.9c1,0,1.9-0.8,1.9-1.9C2074.8,2364,2073.9,2363.2,2072.9,2363.2z"></path> <path d="M2063.1,2371.7c-1,0-1.9,0.8-1.9,1.9c0,1,0.8,1.9,1.9,1.9c1,0,1.9-0.8,1.9-1.9C2065,2372.5,2064.1,2371.7,2063.1,2371.7z"></path> <path d="M2072.9,2377.6c-1,0-1.9,0.8-1.9,1.9c0,1,0.8,1.9,1.9,1.9c1,0,1.9-0.8,1.9-1.9C2074.8,2378.4,2073.9,2377.6,2072.9,2377.6z "></path> <path d="M2063.1,2382.8c-1,0-1.9,0.8-1.9,1.9s0.8,1.9,1.9,1.9c1,0,1.9-0.8,1.9-1.9S2064.1,2382.8,2063.1,2382.8z"></path> <path d="M2072.9,2388.7c-1,0-1.9,0.8-1.9,1.9s0.8,1.9,1.9,1.9c1,0,1.9-0.8,1.9-1.9S2073.9,2388.7,2072.9,2388.7z"></path> <path d="M2072.9,2403.1c-1,0-1.9,0.8-1.9,1.9s0.8,1.9,1.9,1.9c1,0,1.9-0.8,1.9-1.9S2073.9,2403.1,2072.9,2403.1z"></path> <path d="M2216.3,2576c-1,0-1.9,0.8-1.9,1.9s0.8,1.9,1.9,1.9c1,0,1.9-0.8,1.9-1.9S2217.4,2576,2216.3,2576z"></path> <path d="M2229.1,2573.8c-1,0-1.9,0.8-1.9,1.9s0.8,1.9,1.9,1.9s1.9-0.8,1.9-1.9S2230.1,2573.8,2229.1,2573.8z"></path> <path d="M2226.2,2585.7c1,0,1.9-0.8,1.9-1.9c0-1-0.8-1.9-1.9-1.9s-1.9,0.8-1.9,1.9C2224.3,2584.8,2225.1,2585.7,2226.2,2585.7z"></path> <path d="M2216.3,2587.1c-1,0-1.9,0.8-1.9,1.9c0,1,0.8,1.9,1.9,1.9c1,0,1.9-0.8,1.9-1.9C2218.2,2588,2217.4,2587.1,2216.3,2587.1z"></path> <path d="M2226.2,2596.8c1,0,1.9-0.8,1.9-1.9c0-1-0.8-1.9-1.9-1.9s-1.9,0.8-1.9,1.9C2224.3,2595.9,2225.1,2596.8,2226.2,2596.8z"></path> <path d="M2216.3,2601.6c-1,0-1.9,0.8-1.9,1.9s0.8,1.9,1.9,1.9c1,0,1.9-0.8,1.9-1.9S2217.4,2601.6,2216.3,2601.6z"></path> <path d="M2226.2,2611.2c1,0,1.9-0.8,1.9-1.9s-0.8-1.9-1.9-1.9s-1.9,0.8-1.9,1.9S2225.1,2611.2,2226.2,2611.2z"></path> <path d="M2216.3,2612.7c-1,0-1.9,0.8-1.9,1.9s0.8,1.9,1.9,1.9c1,0,1.9-0.8,1.9-1.9S2217.4,2612.7,2216.3,2612.7z"></path> <path d="M2226.3,2643.9c-1,0-1.9,0.8-1.9,1.9s0.8,1.9,1.9,1.9s1.9-0.8,1.9-1.9S2227.3,2643.9,2226.3,2643.9z"></path> <path d="M2235.5,2652.7c-1,0-1.9,0.8-1.9,1.9s0.8,1.9,1.9,1.9c1,0,1.9-0.8,1.9-1.9S2236.5,2652.7,2235.5,2652.7z"></path> <path d="M2226.2,2622.3c1,0,1.9-0.8,1.9-1.9s-0.8-1.9-1.9-1.9s-1.9,0.8-1.9,1.9S2225.1,2622.3,2226.2,2622.3z"></path> <path d="M2216.3,2627.1c-1,0-1.9,0.8-1.9,1.9s0.8,1.9,1.9,1.9c1,0,1.9-0.8,1.9-1.9S2217.4,2627.1,2216.3,2627.1z"></path> <path d="M2226.2,2636.8c1,0,1.9-0.8,1.9-1.9s-0.8-1.9-1.9-1.9s-1.9,0.8-1.9,1.9S2225.1,2636.8,2226.2,2636.8z"></path> <path d="M2207,2567.5c-1,0-1.9,0.8-1.9,1.9s0.8,1.9,1.9,1.9s1.9-0.8,1.9-1.9S2208,2567.5,2207,2567.5z"></path> <path d="M2197.2,2576c-1,0-1.9,0.8-1.9,1.9s0.8,1.9,1.9,1.9s1.9-0.8,1.9-1.9S2198.2,2576,2197.2,2576z"></path> <path d="M2207,2581.9c-1,0-1.9,0.8-1.9,1.9c0,1,0.8,1.9,1.9,1.9s1.9-0.8,1.9-1.9C2208.9,2582.8,2208,2581.9,2207,2581.9z"></path> <path d="M2197.2,2587.1c-1,0-1.9,0.8-1.9,1.9l0.3,0.9l0.1,0.1c0.4,0.5,0.9,0.8,1.5,0.8c1,0,1.9-0.8,1.9-1.9 C2199.1,2588,2198.2,2587.1,2197.2,2587.1z"></path> <path d="M2207,2593c-1,0-1.9,0.8-1.9,1.9c0,1,0.8,1.9,1.9,1.9s1.9-0.8,1.9-1.9C2208.9,2593.9,2208,2593,2207,2593z"></path> <path d="M2207,2607.5c-1,0-1.9,0.8-1.9,1.9s0.8,1.9,1.9,1.9s1.9-0.8,1.9-1.9S2208,2607.5,2207,2607.5z"></path> <path d="M2178,2561.6c-1,0-1.9,0.8-1.9,1.9s0.8,1.9,1.9,1.9c1,0,1.9-0.8,1.9-1.9S2179.1,2561.6,2178,2561.6z"></path> <path d="M2187.8,2567.5c-1,0-1.9,0.8-1.9,1.9s0.8,1.9,1.9,1.9s1.9-0.8,1.9-1.9S2188.9,2567.5,2187.8,2567.5z"></path> <path d="M2158.9,2550.5c-1,0-1.9,0.8-1.9,1.9s0.8,1.9,1.9,1.9s1.9-0.8,1.9-1.9S2159.9,2550.5,2158.9,2550.5z"></path> <path d="M2168.7,2556.4c-1,0-1.9,0.8-1.9,1.9s0.8,1.9,1.9,1.9s1.9-0.8,1.9-1.9S2169.7,2556.4,2168.7,2556.4z"></path> <path d="M2147.7,2543.8c0,1,0.8,1.9,1.9,1.9s1.9-0.8,1.9-1.9s-0.8-1.9-1.9-1.9S2147.7,2542.8,2147.7,2543.8z"></path> <circle cx="2407.9" cy="2027.1" r="1.9"></circle> <path d="M2398.6,2034.9c1,0,1.9-0.8,1.9-1.9c0-1-0.8-1.9-1.9-1.9c-1,0-1.9,0.8-1.9,1.9C2396.7,2034,2397.5,2034.9,2398.6,2034.9z"></path> <path d="M2388.7,2043.4c1,0,1.9-0.8,1.9-1.9c0-1-0.8-1.9-1.9-1.9s-1.9,0.8-1.9,1.9C2386.9,2042.6,2387.7,2043.4,2388.7,2043.4z"></path> <path d="M2398.6,2049.3c0.2,0,0.5,0,0.7-0.1l1-0.9l0.1-0.2c0.1-0.1,0.1-0.4,0.1-0.6c0-1-0.8-1.9-1.9-1.9c-1,0-1.9,0.8-1.9,1.9 S2397.5,2049.3,2398.6,2049.3z"></path> <circle cx="2388.7" cy="2052.6" r="1.9"></circle> <path d="M2381.3,2058.5c0-1-0.8-1.9-1.9-1.9s-1.9,0.8-1.9,1.9c0,1,0.8,1.9,1.9,1.9S2381.3,2059.6,2381.3,2058.5z"></path> <path d="M2371.5,2067.1c0-1-0.8-1.9-1.9-1.9s-1.9,0.8-1.9,1.9c0,1,0.8,1.9,1.9,1.9S2371.5,2068.1,2371.5,2067.1z"></path> <circle cx="2360.3" cy="2073" r="1.9"></circle> <circle cx="2350.4" cy="2078.2" r="1.9"></circle> <circle cx="2340.9" cy="2084.1" r="1.9"></circle> <circle cx="2312.1" cy="2078.2" r="1.9"></circle> <path d="M2304.7,2084.1c0-1-0.8-1.9-1.9-1.9s-1.9,0.8-1.9,1.9c0,1,0.8,1.9,1.9,1.9S2304.7,2085.1,2304.7,2084.1z"></path> <path d="M2294.9,2092.8c0-1-0.8-1.9-1.9-1.9c-1,0-1.9,0.8-1.9,1.9c0,1,0.8,1.9,1.9,1.9C2294.1,2094.7,2294.9,2093.8,2294.9,2092.8z "></path> <path d="M2233.6,2092.6c0,1,0.8,1.9,1.9,1.9s1.9-0.8,1.9-1.9c0-1-0.8-1.9-1.9-1.9S2233.6,2091.6,2233.6,2092.6z"></path> <path d="M2178.1,2105.6c1,0,1.9-0.8,1.9-1.9c0-1-0.8-1.9-1.9-1.9c-1,0-1.9,0.8-1.9,1.9C2176.2,2104.8,2177.1,2105.6,2178.1,2105.6z "></path> <path d="M2149.6,2096.6c-0.3,0-0.5,0.1-0.7,0.2c-0.7,0.3-1.2,0.9-1.2,1.7c0,1,0.8,1.9,1.9,1.9c0.3,0,0.5-0.1,0.7-0.2 c0.7-0.3,1.2-0.9,1.2-1.7C2151.5,2097.5,2150.6,2096.6,2149.6,2096.6z"></path> <path d="M2216.4,2105.1c1,0,1.9-0.8,1.9-1.9c0-1-0.8-1.9-1.9-1.9c-1,0-1.9,0.8-1.9,1.9C2214.5,2104.2,2215.3,2105.1,2216.4,2105.1z "></path> <path d="M2264.5,2100.4c1,0,1.9-0.8,1.9-1.9c0-1-0.8-1.9-1.9-1.9c-1,0-1.9,0.8-1.9,1.9C2262.7,2099.5,2263.5,2100.4,2264.5,2100.4z "></path> <path d="M2283.6,2082.2c-1,0-1.9,0.8-1.9,1.9c0,1,0.8,1.9,1.9,1.9s1.9-0.8,1.9-1.9C2285.5,2083,2284.7,2082.2,2283.6,2082.2z"></path> <path d="M2273.8,2094.5c1,0,1.9-0.8,1.9-1.9c0-1-0.8-1.9-1.9-1.9s-1.9,0.8-1.9,1.9C2271.9,2093.7,2272.8,2094.5,2273.8,2094.5z"></path> <path d="M2254.6,2094.5c1,0,1.9-0.8,1.9-1.9c0-1-0.8-1.9-1.9-1.9c-1,0-1.9,0.8-1.9,1.9C2252.8,2093.7,2253.6,2094.5,2254.6,2094.5z "></path> <path d="M2245.3,2100.4c1,0,1.9-0.8,1.9-1.9c0-1.2-1.1-2.1-2.3-1.8l-0.2,0.1c-0.1,0.1-0.3,0.2-0.4,0.3c-0.1,0.1-0.3,0.2-0.4,0.3 l-0.1,0.1c-0.3,0.3-0.4,0.7-0.4,1.1C2243.4,2099.6,2244.3,2100.4,2245.3,2100.4z"></path> <circle cx="2245.3" cy="2073" r="1.9"></circle> <circle cx="2235.5" cy="2078.2" r="1.9"></circle> <path d="M2226.2,2082.2c-1,0-1.9,0.8-1.9,1.9c0,1,0.8,1.9,1.9,1.9s1.9-0.8,1.9-1.9C2228,2083,2227.2,2082.2,2226.2,2082.2z"></path> <path d="M2218.2,2092.6c0-1-0.8-1.9-1.9-1.9c-1,0-1.9,0.8-1.9,1.9c0,1,0.8,1.9,1.9,1.9C2217.4,2094.5,2218.2,2093.7,2218.2,2092.6z "></path> <path d="M2226.2,2096.7c-1,0-1.9,0.8-1.9,1.9c0,0.9,0.6,1.6,1.5,1.8l0.2,0l0.1-0.1c0.5-0.2,0.9-0.4,1.4-0.5l0.1-0.1l0.1-0.1 c0.2-0.3,0.4-0.7,0.4-1.1C2228,2097.5,2227.2,2096.7,2226.2,2096.7z"></path> <path d="M2207,2082.2c-1,0-1.9,0.8-1.9,1.9c0,1,0.8,1.9,1.9,1.9s1.9-0.8,1.9-1.9C2208.9,2083,2208,2082.2,2207,2082.2z"></path> <path d="M2197.2,2090.8c-1,0-1.9,0.8-1.9,1.9c0,1,0.8,1.9,1.9,1.9s1.9-0.8,1.9-1.9C2199.1,2091.6,2198.2,2090.8,2197.2,2090.8z"></path> <circle cx="2207" cy="2098.5" r="1.9"></circle> <circle cx="2197.2" cy="2103.7" r="1.9"></circle> <path d="M2179.9,2092.6c0-1-0.8-1.9-1.9-1.9c-1,0-1.9,0.8-1.9,1.9c0,1,0.8,1.9,1.9,1.9C2179.1,2094.5,2179.9,2093.7,2179.9,2092.6z "></path> <circle cx="2187.8" cy="2098.5" r="1.9"></circle> <circle cx="2168.7" cy="2098.5" r="1.9"></circle> <path d="M1929,2269.5c-1,0-1.9,0.8-1.9,1.9s0.8,1.9,1.9,1.9s1.9-0.8,1.9-1.9S1930,2269.5,1929,2269.5z"></path> <path d="M1938.8,2275.4c-1,0-1.9,0.8-1.9,1.9s0.8,1.9,1.9,1.9s1.9-0.8,1.9-1.9S1939.9,2275.4,1938.8,2275.4z"></path> <path d="M1929,2280.6c-1,0-1.9,0.8-1.9,1.9c0,1,0.8,1.9,1.9,1.9s1.9-0.8,1.9-1.9C1930.9,2281.5,1930,2280.6,1929,2280.6z"></path> <path d="M1938.8,2286.5c-1,0-1.9,0.8-1.9,1.9c0,1,0.8,1.9,1.9,1.9s1.9-0.8,1.9-1.9C1940.7,2287.4,1939.9,2286.5,1938.8,2286.5z"></path> <path d="M1938.8,2301c-1,0-1.9,0.8-1.9,1.9c0,1,0.8,1.9,1.9,1.9s1.9-0.8,1.9-1.9C1940.7,2301.8,1939.9,2301,1938.8,2301z"></path> <path d="M1928.9,2294.9c-1,0-1.9,0.8-1.9,1.9c0,1,0.8,1.9,1.9,1.9c1,0,1.9-0.8,1.9-1.9C1930.8,2295.7,1929.9,2294.9,1928.9,2294.9z "></path> <path d="M1950,2297c0-0.7-0.4-1.3-1-1.6l0-0.1l-0.1,0c0,0,0,0,0,0l-0.1,0c-0.1,0-0.3-0.1-0.6-0.1c-0.3,0-0.5,0.1-0.7,0.1 c-0.7,0.3-1.2,1-1.2,1.7c0,1,0.8,1.9,1.9,1.9c0,0,0,0,0,0c0.2,0,0.4-0.1,0.6-0.1c0.1-0.1,0.2-0.1,0.3-0.2c0.1,0,0.1-0.1,0.2-0.1 l0.1-0.1c0,0,0,0,0,0l0.1-0.1l0-0.1C1949.8,2297.8,1950,2297.4,1950,2297z"></path> <path d="M1919.7,2261c-1,0-1.9,0.8-1.9,1.9s0.8,1.9,1.9,1.9s1.9-0.8,1.9-1.9S1920.7,2261,1919.7,2261z"></path> <path d="M1909.8,2269.5c-1,0-1.9,0.8-1.9,1.9s0.8,1.9,1.9,1.9s1.9-0.8,1.9-1.9S1910.9,2269.5,1909.8,2269.5z"></path> <path d="M1919.7,2275.4c-1,0-1.9,0.8-1.9,1.9s0.8,1.9,1.9,1.9s1.9-0.8,1.9-1.9S1920.7,2275.4,1919.7,2275.4z"></path> <path d="M1909.8,2280.6c-1,0-1.9,0.8-1.9,1.9c0,1,0.8,1.9,1.9,1.9s1.9-0.8,1.9-1.9C1911.7,2281.5,1910.9,2280.6,1909.8,2280.6z"></path> <path d="M1919.7,2286.5c-0.8,0-1.5,0.5-1.7,1.2c-0.1,0.2-0.2,0.5-0.2,0.8c0,1,0.8,1.9,1.9,1.9c0.8,0,1.5-0.5,1.7-1.2 c0.1-0.2,0.2-0.5,0.2-0.7C1921.5,2287.4,1920.7,2286.5,1919.7,2286.5z"></path> <path d="M2368.7,1864.4c0.3,0.2,0.6,0.3,0.9,0.3c0,0,0.1,0,0.1,0c1-0.1,1.8-0.9,1.8-1.9c0-1-0.8-1.9-1.9-1.9s-1.9,0.8-1.9,1.9 C2367.7,1863.5,2368.1,1864.1,2368.7,1864.4z"></path> <circle cx="2350.4" cy="1848.3" r="1.9"></circle> <path d="M2360.3,1856.1c1,0,1.9-0.8,1.9-1.9c0-1-0.8-1.9-1.9-1.9c-1,0-1.9,0.8-1.9,1.9C2358.4,1855.2,2359.2,1856.1,2360.3,1856.1z "></path> <path d="M2331.3,1835.3c-1,0-1.9,0.8-1.9,1.9c0,1,0.8,1.9,1.9,1.9s1.9-0.8,1.9-1.9C2333.1,1836.2,2332.3,1835.3,2331.3,1835.3z"></path> <circle cx="2341.1" cy="1843.1" r="1.9"></circle> <circle cx="2331.3" cy="1848.3" r="1.9"></circle> <path d="M2341.1,1856.1c1,0,1.9-0.8,1.9-1.9c0-1-0.8-1.9-1.9-1.9s-1.9,0.8-1.9,1.9C2339.2,1855.2,2340.1,1856.1,2341.1,1856.1z"></path> <circle cx="2312.1" cy="1822.8" r="1.9"></circle> <path d="M2321.9,1826.8c-1,0-1.9,0.8-1.9,1.9c0,0.3,0.1,0.6,0.2,0.9c0.3,0.6,0.9,1,1.6,1c0.9,0,1.6-0.6,1.8-1.5 c0-0.1,0.1-0.3,0.1-0.4C2323.8,1827.6,2323,1826.8,2321.9,1826.8z"></path> <path d="M2312.1,1835.3c-1,0-1.9,0.8-1.9,1.9c0,1,0.8,1.9,1.9,1.9s1.9-0.8,1.9-1.9C2314,1836.2,2313.2,1835.3,2312.1,1835.3z"></path> <circle cx="2321.9" cy="1843.1" r="1.9"></circle> <circle cx="2312.1" cy="1848.3" r="1.9"></circle> <path d="M2321.9,1852.3c-1,0-1.9,0.8-1.9,1.9c0,1,0.8,1.9,1.9,1.9s1.9-0.8,1.9-1.9C2323.8,1853.2,2323,1852.3,2321.9,1852.3z"></path> <circle cx="2293" cy="1822.8" r="1.9"></circle> <path d="M2302.8,1826.8c-1,0-1.9,0.8-1.9,1.9c0,1,0.8,1.9,1.9,1.9s1.9-0.8,1.9-1.9C2304.7,1827.6,2303.8,1826.8,2302.8,1826.8z"></path> <path d="M2293,1835.3c-1,0-1.9,0.8-1.9,1.9c0,1,0.8,1.9,1.9,1.9s1.9-0.8,1.9-1.9C2294.8,1836.2,2294,1835.3,2293,1835.3z"></path> <circle cx="2302.8" cy="1843.1" r="1.9"></circle> <circle cx="2312.1" cy="1720.6" r="1.9"></circle> <path d="M2312.1,1733.2c-1,0-1.9,0.8-1.9,1.9c0,1,0.8,1.9,1.9,1.9s1.9-0.8,1.9-1.9C2314,1734,2313.2,1733.2,2312.1,1733.2z"></path> <circle cx="2312.1" cy="1746.1" r="1.9"></circle> <circle cx="2302.8" cy="1741" r="1.9"></circle> <circle cx="2293" cy="1746.1" r="1.9"></circle> <path d="M2302.8,1750.2c-1,0-1.9,0.8-1.9,1.9c0,1,0.8,1.9,1.9,1.9s1.9-0.8,1.9-1.9C2304.7,1751,2303.8,1750.2,2302.8,1750.2z"></path> <path d="M2293,1762.5c1,0,1.9-0.8,1.9-1.9c0-1-0.8-1.9-1.9-1.9s-1.9,0.8-1.9,1.9C2291.1,1761.6,2291.9,1762.5,2293,1762.5z"></path> <path d="M2283.6,1702.8c1,0,1.9-0.8,1.9-1.9c0-1-0.8-1.9-1.9-1.9s-1.9,0.8-1.9,1.9C2281.7,1702,2282.6,1702.8,2283.6,1702.8z"></path> <path d="M2283.7,1691.6c1,0,1.9-0.8,1.9-1.9c0-1-0.8-1.9-1.9-1.9c-1,0-1.9,0.8-1.9,1.9C2281.8,1690.8,2282.7,1691.6,2283.7,1691.6z "></path> <path d="M2293.2,1685.7c1,0,1.9-0.8,1.9-1.9c0-1-0.8-1.9-1.9-1.9s-1.9,0.8-1.9,1.9C2291.3,1684.9,2292.1,1685.7,2293.2,1685.7z"></path> <path d="M2293,1696.8c1,0,1.9-0.8,1.9-1.9c0-1-0.8-1.9-1.9-1.9c-1,0-1.9,0.8-1.9,1.9C2291.2,1695.9,2292,1696.8,2293,1696.8z"></path> <path d="M2293,1711.4c1,0,1.9-0.8,1.9-1.9c0-1-0.8-1.9-1.9-1.9c-1,0-1.9,0.8-1.9,1.9C2291.2,1710.6,2292,1711.4,2293,1711.4z"></path> <path d="M2302.5,1728.4c1,0,1.9-0.8,1.9-1.9c0-1-0.8-1.9-1.9-1.9s-1.9,0.8-1.9,1.9C2300.7,1727.6,2301.5,1728.4,2302.5,1728.4z"></path> <path d="M2312,1711.3c1,0,1.9-0.8,1.9-1.9c0-1-0.8-1.9-1.9-1.9s-1.9,0.8-1.9,1.9C2310.1,1710.5,2311,1711.3,2312,1711.3z"></path> <circle cx="2283.6" cy="1715.4" r="1.9"></circle> <path d="M2273.8,1718.7C2273.8,1718.7,2273.8,1718.7,2273.8,1718.7c-1,0-1.9,0.9-1.9,1.9c0,0.7,0.4,1.3,1,1.6 c0.3,0.2,0.6,0.3,0.9,0.3c1,0,1.9-0.8,1.9-1.9S2274.8,1718.7,2273.8,1718.7z"></path> <path d="M2283.6,1728.4c1,0,1.9-0.8,1.9-1.9c0-1-0.8-1.9-1.9-1.9s-1.9,0.8-1.9,1.9C2281.7,1727.5,2282.6,1728.4,2283.6,1728.4z"></path> <path d="M2273.8,1733.2c-1,0-1.9,0.8-1.9,1.9c0,1,0.8,1.9,1.9,1.9s1.9-0.8,1.9-1.9C2275.7,1734,2274.8,1733.2,2273.8,1733.2z"></path> <circle cx="2283.6" cy="1741" r="1.9"></circle> <circle cx="2273.8" cy="1746.1" r="1.9"></circle> <path d="M2283.6,1753.9c1,0,1.9-0.8,1.9-1.9c0-1-0.8-1.9-1.9-1.9s-1.9,0.8-1.9,1.9C2281.7,1753.1,2282.6,1753.9,2283.6,1753.9z"></path> <path d="M2273.8,1758.7c-1,0-1.9,0.8-1.9,1.9c0,1,0.8,1.9,1.9,1.9s1.9-0.8,1.9-1.9C2275.7,1759.6,2274.8,1758.7,2273.8,1758.7z"></path> <circle cx="2283.6" cy="1766.5" r="1.9"></circle> <circle cx="2273.8" cy="1797.2" r="1.9"></circle> <circle cx="2254.7" cy="1811.5" r="1.9"></circle> <circle cx="2264.1" cy="1804" r="1.9"></circle> <path d="M2283.6,1805c1,0,1.9-0.8,1.9-1.9c0-1-0.8-1.9-1.9-1.9s-1.9,0.8-1.9,1.9C2281.7,1804.2,2282.6,1805,2283.6,1805z"></path> <circle cx="2264.5" cy="1817.6" r="1.9"></circle> <circle cx="2254.6" cy="1822.8" r="1.9"></circle> <path d="M2264.5,1826.8c-1,0-1.9,0.8-1.9,1.9c0,1,0.8,1.9,1.9,1.9s1.9-0.8,1.9-1.9C2266.3,1827.6,2265.5,1826.8,2264.5,1826.8z"></path> <circle cx="2245.3" cy="1817.6" r="1.9"></circle> <circle cx="2235.5" cy="1822.8" r="1.9"></circle> <circle cx="2235.6" cy="1811.5" r="1.9"></circle> <path d="M2245.3,1830.5c1,0,1.9-0.8,1.9-1.9c0-1-0.8-1.9-1.9-1.9s-1.9,0.8-1.9,1.9C2243.4,1829.7,2244.3,1830.5,2245.3,1830.5z"></path> <path d="M2401.8,1788.4c1,0,1.9-0.8,1.9-1.9c0-1-0.8-1.9-1.9-1.9c-1,0-1.9,0.8-1.9,1.9C2399.9,1787.6,2400.8,1788.4,2401.8,1788.4z "></path> <path d="M2416.9,1779.7c1,0,1.9-0.8,1.9-1.9c0-1-0.8-1.9-1.9-1.9s-1.9,0.8-1.9,1.9C2415,1778.8,2415.9,1779.7,2416.9,1779.7z"></path> <path d="M2369.6,1788c1,0,1.9-0.8,1.9-1.9c0-1-0.8-1.9-1.9-1.9s-1.9,0.8-1.9,1.9C2367.7,1787.2,2368.5,1788,2369.6,1788z"></path> <path d="M2379.6,1794.2c1,0,1.9-0.8,1.9-1.9c0-1-0.8-1.9-1.9-1.9s-1.9,0.8-1.9,1.9C2377.7,1793.4,2378.6,1794.2,2379.6,1794.2z"></path> <path d="M2388.9,1788.1c1,0,1.9-0.8,1.9-1.9c0-1-0.8-1.9-1.9-1.9s-1.9,0.8-1.9,1.9C2387,1787.3,2387.8,1788.1,2388.9,1788.1z"></path> <circle cx="2360.3" cy="1792" r="1.9"></circle> <circle cx="2366" cy="1800.4" r="1.9"></circle> <circle cx="2350.4" cy="1797.2" r="1.9"></circle> <circle cx="2341.1" cy="1792" r="1.9"></circle> <circle cx="2331.3" cy="1797.2" r="1.9"></circle> <path d="M2341.1,1801.2c-1,0-1.9,0.8-1.9,1.9c0,1,0.8,1.9,1.9,1.9s1.9-0.8,1.9-1.9C2343,1802.1,2342.1,1801.2,2341.1,1801.2z"></path> <circle cx="2321.9" cy="1792" r="1.9"></circle> <circle cx="2312.1" cy="1797.2" r="1.9"></circle> <path d="M2321.9,1801.2c-1,0-1.9,0.8-1.9,1.9c0,1,0.8,1.9,1.9,1.9s1.9-0.8,1.9-1.9C2323.8,1802.1,2323,1801.2,2321.9,1801.2z"></path> <path d="M2302.8,1801.2c-1,0-1.9,0.8-1.9,1.9c0,1,0.8,1.9,1.9,1.9s1.9-0.8,1.9-1.9C2304.7,1802.1,2303.8,1801.2,2302.8,1801.2z"></path> <circle cx="2216.3" cy="1848.3" r="1.9"></circle> <circle cx="2207" cy="1843.1" r="1.9"></circle> <circle cx="2197.2" cy="1848.3" r="1.9"></circle> <path d="M2207,1856.1c1,0,1.9-0.8,1.9-1.9c0-1-0.8-1.9-1.9-1.9s-1.9,0.8-1.9,1.9C2205.1,1855.2,2206,1856.1,2207,1856.1z"></path> <path d="M2197.2,1864.6c1,0,1.9-0.8,1.9-1.9c0-1-0.8-1.9-1.9-1.9s-1.9,0.8-1.9,1.9C2195.3,1863.8,2196.1,1864.6,2197.2,1864.6z"></path> <path d="M2187.8,1856.1c1,0,1.9-0.8,1.9-1.9c0-1-0.8-1.9-1.9-1.9s-1.9,0.8-1.9,1.9C2186,1855.2,2186.8,1856.1,2187.8,1856.1z"></path> <path d="M2178.1,1846.7c-1,0-1.9,0.8-1.9,1.9c0,1,0.8,1.9,1.9,1.9s1.9-0.8,1.9-1.9C2180,1847.5,2179.1,1846.7,2178.1,1846.7z"></path> <path d="M2178,1864.6c1,0,1.9-0.8,1.9-1.9c0-1-0.8-1.9-1.9-1.9c-1,0-1.9,0.8-1.9,1.9C2176.1,1863.8,2177,1864.6,2178,1864.6z"></path> <circle cx="2187.8" cy="1868.7" r="1.9"></circle> <circle cx="2178" cy="1873.8" r="1.9"></circle> <circle cx="2168.7" cy="1868.7" r="1.9"></circle> <circle cx="2158.9" cy="1873.8" r="1.9"></circle> <path d="M2168.7,1881.6c1,0,1.9-0.8,1.9-1.9c0-1-0.8-1.9-1.9-1.9s-1.9,0.8-1.9,1.9C2166.8,1880.8,2167.7,1881.6,2168.7,1881.6z"></path> <path d="M2158.9,1890.2c1,0,1.9-0.8,1.9-1.9c0-1-0.8-1.9-1.9-1.9s-1.9,0.8-1.9,1.9C2157,1889.3,2157.8,1890.2,2158.9,1890.2z"></path> <circle cx="2149.5" cy="1868.7" r="1.9"></circle> <circle cx="2158.9" cy="1862.6" r="1.9"></circle> <circle cx="2120.7" cy="1863.1" r="1.9"></circle> <circle cx="2101.1" cy="1862.5" r="1.9"></circle> <circle cx="2139.7" cy="1873.8" r="1.9"></circle> <path d="M2149.5,1881.6c1,0,1.9-0.8,1.9-1.9c0-1-0.8-1.9-1.9-1.9s-1.9,0.8-1.9,1.9C2147.7,1880.8,2148.5,1881.6,2149.5,1881.6z"></path> <path d="M2139.7,1890.2c1,0,1.9-0.8,1.9-1.9c0-1-0.8-1.9-1.9-1.9c-1,0-1.9,0.8-1.9,1.9C2137.8,1889.3,2138.7,1890.2,2139.7,1890.2z "></path> <circle cx="2149.5" cy="1894.2" r="1.9"></circle> <circle cx="2139.7" cy="1899.4" r="1.9"></circle> <path d="M2130.4,1881.6c1,0,1.9-0.8,1.9-1.9c0-1-0.8-1.9-1.9-1.9s-1.9,0.8-1.9,1.9C2128.5,1880.8,2129.3,1881.6,2130.4,1881.6z"></path> <path d="M2120.6,1890.2c1,0,1.9-0.8,1.9-1.9c0-1-0.8-1.9-1.9-1.9s-1.9,0.8-1.9,1.9C2118.7,1889.3,2119.5,1890.2,2120.6,1890.2z"></path> <circle cx="2130.4" cy="1894.2" r="1.9"></circle> <circle cx="2120.6" cy="1899.4" r="1.9"></circle> <path d="M2130.4,1907.2c1,0,1.9-0.8,1.9-1.9c0-1-0.8-1.9-1.9-1.9s-1.9,0.8-1.9,1.9C2128.5,1906.3,2129.3,1907.2,2130.4,1907.2z"></path> <path d="M2120.6,1915.7c1,0,1.9-0.8,1.9-1.9c0-1-0.8-1.9-1.9-1.9s-1.9,0.8-1.9,1.9C2118.7,1914.9,2119.5,1915.7,2120.6,1915.7z"></path> <circle cx="2111.2" cy="1894.2" r="1.9"></circle> <circle cx="2101.4" cy="1899.4" r="1.9"></circle> <path d="M2111.2,1907.2c1,0,1.9-0.8,1.9-1.9c0-1-0.8-1.9-1.9-1.9s-1.9,0.8-1.9,1.9C2109.3,1906.3,2110.2,1907.2,2111.2,1907.2z"></path> <path d="M2101.4,1912c-1,0-1.9,0.8-1.9,1.9c0,1,0.8,1.9,1.9,1.9c1,0,1.9-0.8,1.9-1.9C2103.3,1912.8,2102.4,1912,2101.4,1912z"></path> <circle cx="2111.2" cy="1919.7" r="1.9"></circle> <circle cx="2101.4" cy="1924.9" r="1.9"></circle> <path d="M2092.1,1907.2c1,0,1.9-0.8,1.9-1.9c0-1-0.8-1.9-1.9-1.9s-1.9,0.8-1.9,1.9C2090.2,1906.3,2091,1907.2,2092.1,1907.2z"></path> <path d="M2082.2,1915.7c1,0,1.9-0.8,1.9-1.9c0-1-0.8-1.9-1.9-1.9s-1.9,0.8-1.9,1.9C2080.4,1914.9,2081.2,1915.7,2082.2,1915.7z"></path> <circle cx="2092.1" cy="1919.7" r="1.9"></circle> <circle cx="2082.2" cy="1924.9" r="1.9"></circle> <path d="M2092.1,1932.7c1,0,1.9-0.8,1.9-1.9c0-1-0.8-1.9-1.9-1.9s-1.9,0.8-1.9,1.9C2090.2,1931.9,2091,1932.7,2092.1,1932.7z"></path> <circle cx="2072.9" cy="1919.7" r="1.9"></circle> <circle cx="2063.1" cy="1924.9" r="1.9"></circle> <path d="M2072.9,1932.7c1,0,1.9-0.8,1.9-1.9c0-1-0.8-1.9-1.9-1.9c-1,0-1.9,0.8-1.9,1.9C2071,1931.9,2071.9,1932.7,2072.9,1932.7z"></path> <path d="M2063.1,1941.3c1,0,1.9-0.8,1.9-1.9c0-1-0.8-1.9-1.9-1.9c-1,0-1.9,0.8-1.9,1.9C2061.2,1940.4,2062.1,1941.3,2063.1,1941.3z "></path> <circle cx="2053.8" cy="1945.3" r="1.9"></circle> <circle cx="2043.8" cy="1939.3" r="1.9"></circle> <circle cx="2053.5" cy="1930.6" r="1.9"></circle> <circle cx="2043.9" cy="1950.5" r="1.9"></circle> <path d="M2034.6,1958.3c1,0,1.9-0.8,1.9-1.9c0-1-0.8-1.9-1.9-1.9c-1,0-1.9,0.8-1.9,1.9C2032.7,1957.4,2033.6,1958.3,2034.6,1958.3z "></path> <path d="M2024.8,1963c-1,0-1.9,0.8-1.9,1.9c0,1,0.8,1.9,1.9,1.9s1.9-0.8,1.9-1.9C2026.7,1963.9,2025.8,1963,2024.8,1963z"></path> <circle cx="2024.8" cy="1976" r="1.9"></circle> <path d="M2015.4,1980c-1,0-1.9,0.8-1.9,1.9c0,1,0.8,1.9,1.9,1.9c1,0,1.9-0.8,1.9-1.9C2017.3,1980.9,2016.5,1980,2015.4,1980z"></path> <path d="M2005.6,1988.6c-1,0-1.9,0.8-1.9,1.9c0,1,0.8,1.9,1.9,1.9s1.9-0.8,1.9-1.9C2007.5,1989.4,2006.7,1988.6,2005.6,1988.6z"></path> <path d="M1996.3,2005.6c-1,0-1.9,0.8-1.9,1.9c0,1,0.8,1.9,1.9,1.9c1,0,1.9-0.8,1.9-1.9C1998.2,2006.4,1997.3,2005.6,1996.3,2005.6z "></path> <circle cx="1986.2" cy="2015.8" r="1.9"></circle> <circle cx="1977.1" cy="2033.1" r="1.9"></circle> <circle cx="1967.2" cy="2052.6" r="1.9"></circle> <path d="M2214.6,1837.9C2214.6,1837.9,2214.6,1837.9,2214.6,1837.9l0.2,0.5l0.1,0c0.3,0.5,0.9,0.8,1.5,0.8c1,0,1.9-0.8,1.9-1.9 c0-0.1,0-0.2-0.1-0.2l0.1,0l-0.2-0.5l-0.2-0.5l-0.1,0c-0.4-0.4-0.9-0.6-1.4-0.6c-1,0-1.9,0.8-1.9,1.9c0,0,0,0.1,0,0.1l-0.1,0 L2214.6,1837.9z"></path> <path d="M2207,1830.5c1,0,1.9-0.8,1.9-1.9c0-1-0.8-1.9-1.9-1.9s-1.9,0.8-1.9,1.9C2205.1,1829.7,2206,1830.5,2207,1830.5z"></path> <path d="M2197.2,1839.1c1,0,1.9-0.8,1.9-1.9c0-1-0.8-1.9-1.9-1.9s-1.9,0.8-1.9,1.9C2195.3,1838.3,2196.1,1839.1,2197.2,1839.1z"></path> <path d="M2187.8,1830.5c1,0,1.9-0.8,1.9-1.9c0-1-0.8-1.9-1.9-1.9s-1.9,0.8-1.9,1.9C2186,1829.7,2186.8,1830.5,2187.8,1830.5z"></path> <path d="M2178,1839.1c1,0,1.9-0.8,1.9-1.9c0-1-0.8-1.9-1.9-1.9c-1,0-1.9,0.8-1.9,1.9C2176.1,1838.3,2177,1839.1,2178,1839.1z"></path> <circle cx="2187.8" cy="1843.1" r="1.9"></circle> <path d="M2158.9,1839.1c1,0,1.9-0.8,1.9-1.9c0-1-0.8-1.9-1.9-1.9s-1.9,0.8-1.9,1.9C2157,1838.3,2157.8,1839.1,2158.9,1839.1z"></path> <circle cx="2168.7" cy="1843.1" r="1.9"></circle> <circle cx="2158.9" cy="1848.3" r="1.9"></circle> <circle cx="2149.5" cy="1843.1" r="1.9"></circle> <circle cx="2139.7" cy="1848.3" r="1.9"></circle> <path d="M2149.5,1856.1c1,0,1.9-0.8,1.9-1.9c0-1-0.8-1.9-1.9-1.9s-1.9,0.8-1.9,1.9C2147.7,1855.2,2148.5,1856.1,2149.5,1856.1z"></path> <path d="M2130.4,1856.1c1,0,1.9-0.8,1.9-1.9c0-1-0.8-1.9-1.9-1.9s-1.9,0.8-1.9,1.9C2128.5,1855.2,2129.3,1856.1,2130.4,1856.1z"></path> <path d="M2111.2,1856.1c1,0,1.9-0.8,1.9-1.9c0-1-0.8-1.9-1.9-1.9s-1.9,0.8-1.9,1.9C2109.3,1855.2,2110.2,1856.1,2111.2,1856.1z"></path> <path d="M2216.3,2233.3c1,0,1.9-0.8,1.9-1.9s-0.8-1.9-1.9-1.9c-1,0-1.9,0.8-1.9,1.9S2215.3,2233.3,2216.3,2233.3z"></path> <path d="M2228,2237.3c0-1-0.8-1.9-1.9-1.9s-1.9,0.8-1.9,1.9s0.8,1.9,1.9,1.9S2228,2238.4,2228,2237.3z"></path> <path d="M2207,2224.4c-1,0-1.9,0.8-1.9,1.9c0,1,0.8,1.9,1.9,1.9s1.9-0.8,1.9-1.9C2208.9,2225.2,2208,2224.4,2207,2224.4z"></path> <path d="M2197.2,2233.3c1,0,1.9-0.8,1.9-1.9s-0.8-1.9-1.9-1.9s-1.9,0.8-1.9,1.9S2196.1,2233.3,2197.2,2233.3z"></path> <path d="M2187.8,2224.4c-1,0-1.9,0.8-1.9,1.9c0,1,0.8,1.9,1.9,1.9s1.9-0.8,1.9-1.9C2189.7,2225.2,2188.9,2224.4,2187.8,2224.4z"></path> <path d="M2168.7,2228.1c1,0,1.9-0.8,1.9-1.9c0-1-0.8-1.9-1.9-1.9s-1.9,0.8-1.9,1.9C2166.8,2227.3,2167.7,2228.1,2168.7,2228.1z"></path> <path d="M2255.2,2178.8c-1,0-1.9,0.8-1.9,1.9c0,1,0.8,1.9,1.9,1.9s1.9-0.8,1.9-1.9C2257.1,2179.6,2256.2,2178.8,2255.2,2178.8z"></path> <path d="M2245.3,2188.1c1,0,1.9-0.8,1.9-1.9s-0.8-1.9-1.9-1.9s-1.9,0.8-1.9,1.9S2244.3,2188.1,2245.3,2188.1z"></path> <path d="M2235.5,2182.2c1,0,1.9-0.8,1.9-1.9s-0.8-1.9-1.9-1.9s-1.9,0.8-1.9,1.9S2234.5,2182.2,2235.5,2182.2z"></path> <path d="M2235.5,2196.7c1,0,1.9-0.8,1.9-1.9s-0.8-1.9-1.9-1.9s-1.9,0.8-1.9,1.9S2234.5,2196.7,2235.5,2196.7z"></path> <path d="M2245.3,2202.6c1,0,1.9-0.8,1.9-1.9s-0.8-1.9-1.9-1.9s-1.9,0.8-1.9,1.9S2244.3,2202.6,2245.3,2202.6z"></path> <path d="M2235.5,2207.8c1,0,1.9-0.8,1.9-1.9c0-1-0.8-1.9-1.9-1.9s-1.9,0.8-1.9,1.9C2233.6,2206.9,2234.5,2207.8,2235.5,2207.8z"></path> <path d="M2218.2,2194.8c0-1-0.8-1.9-1.9-1.9c-1,0-1.9,0.8-1.9,1.9s0.8,1.9,1.9,1.9C2217.4,2196.7,2218.2,2195.8,2218.2,2194.8z"></path> <path d="M2228,2200.7c0-1-0.8-1.9-1.9-1.9s-1.9,0.8-1.9,1.9s0.8,1.9,1.9,1.9S2228,2201.7,2228,2200.7z"></path> <path d="M2216.3,2247.8c1,0,1.9-0.8,1.9-1.9s-0.8-1.9-1.9-1.9c-1,0-1.9,0.8-1.9,1.9S2215.3,2247.8,2216.3,2247.8z"></path> <path d="M2197.2,2247.8c1,0,1.9-0.8,1.9-1.9s-0.8-1.9-1.9-1.9s-1.9,0.8-1.9,1.9S2196.1,2247.8,2197.2,2247.8z"></path> <path d="M2178,2247.8c1,0,1.9-0.8,1.9-1.9s-0.8-1.9-1.9-1.9c-1,0-1.9,0.8-1.9,1.9S2177,2247.8,2178,2247.8z"></path> <path d="M2187.8,2253.7c1,0,1.9-0.8,1.9-1.9s-0.8-1.9-1.9-1.9s-1.9,0.8-1.9,1.9S2186.8,2253.7,2187.8,2253.7z"></path> <path d="M2157.3,2246.9c0.4,0.6,0.9,0.9,1.6,0.9c0.8,0,1.5-0.5,1.7-1.2c0.1-0.2,0.2-0.5,0.2-0.8c0-0.3-0.1-0.5-0.2-0.7l0-0.2 l-0.1,0c-0.3-0.6-0.9-1-1.6-1c-1,0-1.9,0.8-1.9,1.9c0,0.2,0.1,0.3,0.1,0.4l-0.1,0.1L2157.3,2246.9z"></path> <path d="M2168.7,2249.9c-1,0-1.9,0.8-1.9,1.9s0.8,1.9,1.9,1.9s1.9-0.8,1.9-1.9S2169.7,2249.9,2168.7,2249.9z"></path> <path d="M2158.9,2258.8c1,0,1.9-0.8,1.9-1.9s-0.8-1.9-1.9-1.9s-1.9,0.8-1.9,1.9S2157.8,2258.8,2158.9,2258.8z"></path> <path d="M2147.7,2251.8c0,1,0.8,1.9,1.9,1.9s1.9-0.8,1.9-1.9s-0.8-1.9-1.9-1.9S2147.7,2250.7,2147.7,2251.8z"></path> <path d="M2178.1,2229.5c-1,0-1.9,0.8-1.9,1.9s0.8,1.9,1.9,1.9c1,0,1.9-0.8,1.9-1.9S2179.2,2229.5,2178.1,2229.5z"></path> <path d="M2168.4,2240.1c1,0,1.9-0.8,1.9-1.9s-0.8-1.9-1.9-1.9s-1.9,0.8-1.9,1.9S2167.4,2240.1,2168.4,2240.1z"></path> <path d="M2189.6,2237.2c0-1-0.8-1.9-1.9-1.9s-1.9,0.8-1.9,1.9s0.8,1.9,1.9,1.9S2189.6,2238.3,2189.6,2237.2z"></path> <path d="M2180,2257.1c0-1-0.8-1.9-1.9-1.9c-1,0-1.9,0.8-1.9,1.9s0.8,1.9,1.9,1.9C2179.2,2259,2180,2258.1,2180,2257.1z"></path> <path d="M2205.3,2237.4c0,1,0.8,1.9,1.9,1.9s1.9-0.8,1.9-1.9s-0.8-1.9-1.9-1.9S2205.3,2236.4,2205.3,2237.4z"></path> <path d="M2137.8,2257c0,1,0.8,1.9,1.9,1.9c1,0,1.9-0.8,1.9-1.9s-0.8-1.9-1.9-1.9C2138.7,2255.1,2137.8,2255.9,2137.8,2257z"></path> <path d="M2427.1,2273.3c1,0,1.9-0.8,1.9-1.9s-0.8-1.9-1.9-1.9s-1.9,0.8-1.9,1.9S2426,2273.3,2427.1,2273.3z"></path> <path d="M2427.1,2284.4c1,0,1.9-0.8,1.9-1.9c0-1-0.8-1.9-1.9-1.9s-1.9,0.8-1.9,1.9C2425.2,2283.5,2426,2284.4,2427.1,2284.4z"></path> <path d="M2427.1,2298.8c1,0,1.9-0.8,1.9-1.9c0-1-0.8-1.9-1.9-1.9s-1.9,0.8-1.9,1.9C2425.2,2298,2426,2298.8,2427.1,2298.8z"></path> <path d="M2427.1,2309.9c1,0,1.9-0.8,1.9-1.9s-0.8-1.9-1.9-1.9s-1.9,0.8-1.9,1.9S2426,2309.9,2427.1,2309.9z"></path> <path d="M2438.9,2313.9c0-1-0.8-1.9-1.9-1.9c0,0,0,0-0.1,0l0,0l0,0c-0.4,0-0.8,0.2-1.1,0.4c0,0,0,0,0,0c-0.1,0-0.1,0.1-0.2,0.2 c-0.4,0.3-0.6,0.8-0.6,1.3c0,1,0.8,1.8,1.8,1.9l0.6,0l0-0.2C2438.2,2315.4,2438.9,2314.7,2438.9,2313.9z"></path> <path d="M2427.1,2324.4c1,0,1.9-0.8,1.9-1.9s-0.8-1.9-1.9-1.9s-1.9,0.8-1.9,1.9S2426,2324.4,2427.1,2324.4z"></path> <path d="M2436.9,2330.3c1,0,1.9-0.8,1.9-1.9s-0.8-1.9-1.9-1.9c-1,0-1.9,0.8-1.9,1.9S2435.8,2330.3,2436.9,2330.3z"></path> <path d="M2427.1,2335.5c1,0,1.9-0.8,1.9-1.9s-0.8-1.9-1.9-1.9s-1.9,0.8-1.9,1.9S2426,2335.5,2427.1,2335.5z"></path> <path d="M2436.9,2341.4c1,0,1.9-0.8,1.9-1.9s-0.8-1.9-1.9-1.9c-1,0-1.9,0.8-1.9,1.9S2435.8,2341.4,2436.9,2341.4z"></path> <path d="M2437,2352.2c-1,0-1.9,0.8-1.9,1.9c0,1,0.8,1.9,1.9,1.9c1,0,1.9-0.8,1.9-1.9C2438.9,2353,2438,2352.2,2437,2352.2z"></path> <path d="M2427.1,2349.9c1,0,1.9-0.8,1.9-1.9s-0.8-1.9-1.9-1.9s-1.9,0.8-1.9,1.9S2426,2349.9,2427.1,2349.9z"></path> <path d="M2427.1,2361c1,0,1.9-0.8,1.9-1.9c0-1-0.8-1.9-1.9-1.9s-1.9,0.8-1.9,1.9C2425.2,2360.2,2426,2361,2427.1,2361z"></path> <path d="M2433.2,2366.7c0,1,0.8,1.9,1.9,1.9c1,0,1.9-0.8,1.9-1.9s-0.8-1.9-1.9-1.9C2434.1,2364.9,2433.2,2365.7,2433.2,2366.7z"></path> <path d="M2427.1,2375.5c1,0,1.9-0.8,1.9-1.9c0-1-0.8-1.9-1.9-1.9s-1.9,0.8-1.9,1.9C2425.2,2374.6,2426,2375.5,2427.1,2375.5z"></path> <path d="M2427.1,2386.5c1,0,1.9-0.8,1.9-1.9s-0.8-1.9-1.9-1.9s-1.9,0.8-1.9,1.9S2426,2386.5,2427.1,2386.5z"></path> <path d="M2427.2,2397.4c-1,0-1.9,0.8-1.9,1.9s0.8,1.9,1.9,1.9c1,0,1.9-0.8,1.9-1.9S2428.2,2397.4,2427.2,2397.4z"></path> <path d="M2407.9,2229.5c-1,0-1.9,0.8-1.9,1.9s0.8,1.9,1.9,1.9s1.9-0.8,1.9-1.9S2408.9,2229.5,2407.9,2229.5z"></path> <path d="M2417.7,2235.4c-1,0-1.9,0.8-1.9,1.9s0.8,1.9,1.9,1.9c1,0,1.9-0.8,1.9-1.9S2418.7,2235.4,2417.7,2235.4z"></path> <path d="M2407.9,2244c-1,0-1.9,0.8-1.9,1.9s0.8,1.9,1.9,1.9s1.9-0.8,1.9-1.9S2408.9,2244,2407.9,2244z"></path> <path d="M2417.7,2249.9c-1,0-1.9,0.8-1.9,1.9s0.8,1.9,1.9,1.9s1.9-0.8,1.9-1.9S2418.8,2249.9,2417.7,2249.9z"></path> <path d="M2407.9,2255.1c-1,0-1.9,0.8-1.9,1.9s0.8,1.9,1.9,1.9s1.9-0.8,1.9-1.9S2408.9,2255.1,2407.9,2255.1z"></path> <path d="M2417.7,2261c-1,0-1.9,0.8-1.9,1.9s0.8,1.9,1.9,1.9s1.9-0.8,1.9-1.9S2418.8,2261,2417.7,2261z"></path> <path d="M2407.9,2269.5c-1,0-1.9,0.8-1.9,1.9s0.8,1.9,1.9,1.9s1.9-0.8,1.9-1.9S2408.9,2269.5,2407.9,2269.5z"></path> <path d="M2417.7,2275.4c-1,0-1.9,0.8-1.9,1.9s0.8,1.9,1.9,1.9s1.9-0.8,1.9-1.9S2418.8,2275.4,2417.7,2275.4z"></path> <path d="M2407.9,2280.6c-1,0-1.9,0.8-1.9,1.9c0,1,0.8,1.9,1.9,1.9s1.9-0.8,1.9-1.9C2409.8,2281.5,2408.9,2280.6,2407.9,2280.6z"></path> <path d="M2417.7,2286.5c-1,0-1.9,0.8-1.9,1.9c0,1,0.8,1.9,1.9,1.9s1.9-0.8,1.9-1.9C2419.6,2287.4,2418.8,2286.5,2417.7,2286.5z"></path> <path d="M2407.9,2295.1c-1,0-1.9,0.8-1.9,1.9c0,1,0.8,1.9,1.9,1.9s1.9-0.8,1.9-1.9C2409.8,2295.9,2408.9,2295.1,2407.9,2295.1z"></path> <path d="M2417.7,2301c-1,0-1.9,0.8-1.9,1.9c0,1,0.8,1.9,1.9,1.9s1.9-0.8,1.9-1.9C2419.6,2301.8,2418.8,2301,2417.7,2301z"></path> <path d="M2417.7,2312.1c-1,0-1.9,0.8-1.9,1.9s0.8,1.9,1.9,1.9s1.9-0.8,1.9-1.9S2418.8,2312.1,2417.7,2312.1z"></path> <path d="M2417.7,2326.5c-1,0-1.9,0.8-1.9,1.9s0.8,1.9,1.9,1.9s1.9-0.8,1.9-1.9S2418.8,2326.5,2417.7,2326.5z"></path> <path d="M2417.7,2337.6c-1,0-1.9,0.8-1.9,1.9s0.8,1.9,1.9,1.9s1.9-0.8,1.9-1.9S2418.8,2337.6,2417.7,2337.6z"></path> <path d="M2407.9,2349.9c1,0,1.9-0.8,1.9-1.9s-0.8-1.9-1.9-1.9s-1.9,0.8-1.9,1.9S2406.9,2349.9,2407.9,2349.9z"></path> <path d="M2417.7,2352.1c-1,0-1.9,0.8-1.9,1.9s0.8,1.9,1.9,1.9s1.9-0.8,1.9-1.9S2418.8,2352.1,2417.7,2352.1z"></path> <path d="M2407.9,2361c1,0,1.9-0.8,1.9-1.9c0-1-0.8-1.9-1.9-1.9s-1.9,0.8-1.9,1.9C2406,2360.2,2406.9,2361,2407.9,2361z"></path> <path d="M2417.7,2363.2c-1,0-1.9,0.8-1.9,1.9c0,1,0.8,1.9,1.9,1.9s1.9-0.8,1.9-1.9C2419.6,2364,2418.8,2363.2,2417.7,2363.2z"></path> <path d="M2407.9,2375.5c1,0,1.9-0.8,1.9-1.9c0-1-0.8-1.9-1.9-1.9s-1.9,0.8-1.9,1.9C2406,2374.6,2406.9,2375.5,2407.9,2375.5z"></path> <path d="M2417.7,2377.6c-1,0-1.9,0.8-1.9,1.9c0,1,0.8,1.9,1.9,1.9s1.9-0.8,1.9-1.9C2419.6,2378.4,2418.8,2377.6,2417.7,2377.6z"></path> <path d="M2407.9,2386.5c1,0,1.9-0.8,1.9-1.9s-0.8-1.9-1.9-1.9s-1.9,0.8-1.9,1.9S2406.9,2386.5,2407.9,2386.5z"></path> <path d="M2417.7,2388.7c-1,0-1.9,0.8-1.9,1.9s0.8,1.9,1.9,1.9s1.9-0.8,1.9-1.9S2418.8,2388.7,2417.7,2388.7z"></path> <path d="M2407.9,2401c1,0,1.9-0.8,1.9-1.9s-0.8-1.9-1.9-1.9s-1.9,0.8-1.9,1.9S2406.9,2401,2407.9,2401z"></path> <path d="M2417.7,2403.1c-1,0-1.9,0.8-1.9,1.9s0.8,1.9,1.9,1.9s1.9-0.8,1.9-1.9S2418.8,2403.1,2417.7,2403.1z"></path> <path d="M2407.9,2412.1c1,0,1.9-0.8,1.9-1.9s-0.8-1.9-1.9-1.9s-1.9,0.8-1.9,1.9S2406.9,2412.1,2407.9,2412.1z"></path> <path d="M2417.7,2414.2c-1,0-1.9,0.8-1.9,1.9s0.8,1.9,1.9,1.9s1.9-0.8,1.9-1.9S2418.8,2414.2,2417.7,2414.2z"></path> <path d="M2417.7,2428.8c-1,0-1.9,0.8-1.9,1.9c0,1,0.8,1.9,1.9,1.9s1.9-0.8,1.9-1.9C2419.6,2429.7,2418.8,2428.8,2417.7,2428.8z"></path> <path d="M2407.9,2426.5c1,0,1.9-0.8,1.9-1.9s-0.8-1.9-1.9-1.9s-1.9,0.8-1.9,1.9S2406.9,2426.5,2407.9,2426.5z"></path> <path d="M2407.9,2437.6c1,0,1.9-0.8,1.9-1.9c0-1-0.8-1.9-1.9-1.9s-1.9,0.8-1.9,1.9C2406,2436.8,2406.9,2437.6,2407.9,2437.6z"></path> <path d="M2407.9,2452.1c1,0,1.9-0.8,1.9-1.9c0-1-0.8-1.9-1.9-1.9s-1.9,0.8-1.9,1.9C2406,2451.2,2406.9,2452.1,2407.9,2452.1z"></path> <path d="M2407.6,2463.1c1,0,1.9-0.8,1.9-1.9c0-1-0.8-1.9-1.9-1.9s-1.9,0.8-1.9,1.9C2405.8,2462.2,2406.6,2463.1,2407.6,2463.1z"></path> <path d="M2398.6,2235.4c-1,0-1.9,0.8-1.9,1.9s0.8,1.9,1.9,1.9c1,0,1.9-0.8,1.9-1.9S2399.6,2235.4,2398.6,2235.4z"></path> <path d="M2388.7,2244c-1,0-1.9,0.8-1.9,1.9s0.8,1.9,1.9,1.9s1.9-0.8,1.9-1.9S2389.8,2244,2388.7,2244z"></path> <path d="M2398.6,2249.9c-1,0-1.9,0.8-1.9,1.9s0.8,1.9,1.9,1.9c1,0,1.9-0.8,1.9-1.9S2399.6,2249.9,2398.6,2249.9z"></path> <path d="M2388.7,2255.1c-1,0-1.9,0.8-1.9,1.9s0.8,1.9,1.9,1.9s1.9-0.8,1.9-1.9S2389.8,2255.1,2388.7,2255.1z"></path> <path d="M2398.6,2261c-1,0-1.9,0.8-1.9,1.9s0.8,1.9,1.9,1.9c1,0,1.9-0.8,1.9-1.9S2399.6,2261,2398.6,2261z"></path> <path d="M2388.7,2269.5c-1,0-1.9,0.8-1.9,1.9s0.8,1.9,1.9,1.9s1.9-0.8,1.9-1.9S2389.8,2269.5,2388.7,2269.5z"></path> <path d="M2398.6,2275.4c-1,0-1.9,0.8-1.9,1.9s0.8,1.9,1.9,1.9c1,0,1.9-0.8,1.9-1.9S2399.6,2275.4,2398.6,2275.4z"></path> <path d="M2398.6,2286.5c-1,0-1.9,0.8-1.9,1.9c0,1,0.8,1.9,1.9,1.9c1,0,1.9-0.8,1.9-1.9C2400.4,2287.4,2399.6,2286.5,2398.6,2286.5z "></path> <path d="M2398.6,2355.8c1,0,1.9-0.8,1.9-1.9s-0.8-1.9-1.9-1.9c-1,0-1.9,0.8-1.9,1.9S2397.5,2355.8,2398.6,2355.8z"></path> <path d="M2388.7,2361c1,0,1.9-0.8,1.9-1.9c0-1-0.8-1.9-1.9-1.9s-1.9,0.8-1.9,1.9C2386.9,2360.2,2387.7,2361,2388.7,2361z"></path> <path d="M2398.6,2366.9c1,0,1.9-0.8,1.9-1.9c0-1-0.8-1.9-1.9-1.9c-1,0-1.9,0.8-1.9,1.9C2396.7,2366.1,2397.5,2366.9,2398.6,2366.9z "></path> <path d="M2388.7,2375.5c1,0,1.9-0.8,1.9-1.9c0-1-0.8-1.9-1.9-1.9s-1.9,0.8-1.9,1.9C2386.9,2374.6,2387.7,2375.5,2388.7,2375.5z"></path> <path d="M2398.6,2381.4c1,0,1.9-0.8,1.9-1.9c0-1-0.8-1.9-1.9-1.9c-1,0-1.9,0.8-1.9,1.9C2396.7,2380.5,2397.5,2381.4,2398.6,2381.4z "></path> <path d="M2388.7,2386.5c1,0,1.9-0.8,1.9-1.9s-0.8-1.9-1.9-1.9s-1.9,0.8-1.9,1.9S2387.7,2386.5,2388.7,2386.5z"></path> <path d="M2398.6,2392.5c1,0,1.9-0.8,1.9-1.9s-0.8-1.9-1.9-1.9c-1,0-1.9,0.8-1.9,1.9S2397.5,2392.5,2398.6,2392.5z"></path> <path d="M2388.7,2401c1,0,1.9-0.8,1.9-1.9s-0.8-1.9-1.9-1.9s-1.9,0.8-1.9,1.9S2387.7,2401,2388.7,2401z"></path> <path d="M2398.6,2406.9c1,0,1.9-0.8,1.9-1.9s-0.8-1.9-1.9-1.9c-1,0-1.9,0.8-1.9,1.9S2397.5,2406.9,2398.6,2406.9z"></path> <path d="M2388.7,2412.1c1,0,1.9-0.8,1.9-1.9s-0.8-1.9-1.9-1.9s-1.9,0.8-1.9,1.9S2387.7,2412.1,2388.7,2412.1z"></path> <path d="M2398.6,2418c1,0,1.9-0.8,1.9-1.9s-0.8-1.9-1.9-1.9c-1,0-1.9,0.8-1.9,1.9S2397.5,2418,2398.6,2418z"></path> <path d="M2388.7,2426.5c1,0,1.9-0.8,1.9-1.9s-0.8-1.9-1.9-1.9s-1.9,0.8-1.9,1.9S2387.7,2426.5,2388.7,2426.5z"></path> <path d="M2398.6,2432.4c1,0,1.9-0.8,1.9-1.9s-0.8-1.9-1.9-1.9c-1,0-1.9,0.8-1.9,1.9S2397.5,2432.4,2398.6,2432.4z"></path> <path d="M2388.7,2437.6c1,0,1.9-0.8,1.9-1.9c0-1-0.8-1.9-1.9-1.9s-1.9,0.8-1.9,1.9C2386.9,2436.8,2387.7,2437.6,2388.7,2437.6z"></path> <path d="M2398.6,2443.5c1,0,1.9-0.8,1.9-1.9c0-1-0.8-1.9-1.9-1.9c-1,0-1.9,0.8-1.9,1.9C2396.7,2442.7,2397.5,2443.5,2398.6,2443.5z "></path> <path d="M2388.7,2452.1c1,0,1.9-0.8,1.9-1.9c0-1-0.8-1.9-1.9-1.9s-1.9,0.8-1.9,1.9C2386.9,2451.2,2387.7,2452.1,2388.7,2452.1z"></path> <path d="M2398.6,2458c1,0,1.9-0.8,1.9-1.9c0-1-0.8-1.9-1.9-1.9c-1,0-1.9,0.8-1.9,1.9C2396.7,2457.1,2397.5,2458,2398.6,2458z"></path> <path d="M2388.7,2463.2c1,0,1.9-0.8,1.9-1.9s-0.8-1.9-1.9-1.9s-1.9,0.8-1.9,1.9S2387.7,2463.2,2388.7,2463.2z"></path> <path d="M2398.6,2469.1c1,0,1.9-0.8,1.9-1.9s-0.8-1.9-1.9-1.9c-1,0-1.9,0.8-1.9,1.9S2397.5,2469.1,2398.6,2469.1z"></path> <path d="M2388.7,2477.6c1,0,1.9-0.8,1.9-1.9s-0.8-1.9-1.9-1.9s-1.9,0.8-1.9,1.9S2387.7,2477.6,2388.7,2477.6z"></path> <path d="M2398.6,2483.5c1,0,1.9-0.8,1.9-1.9s-0.8-1.9-1.9-1.9c-1,0-1.9,0.8-1.9,1.9S2397.5,2483.5,2398.6,2483.5z"></path> <path d="M2388.7,2488.7c1,0,1.9-0.8,1.9-1.9s-0.8-1.9-1.9-1.9s-1.9,0.8-1.9,1.9S2387.7,2488.7,2388.7,2488.7z"></path> <path d="M2388.7,2502.9c1,0,1.9-0.8,1.9-1.9s-0.8-1.9-1.9-1.9s-1.9,0.8-1.9,1.9S2387.7,2502.9,2388.7,2502.9z"></path> <path d="M2367.7,2245.9c0,1,0.8,1.9,1.9,1.9s1.9-0.8,1.9-1.9s-0.8-1.9-1.9-1.9S2367.7,2244.8,2367.7,2245.9z"></path> <path d="M2379.4,2249.9c-1,0-1.9,0.8-1.9,1.9s0.8,1.9,1.9,1.9s1.9-0.8,1.9-1.9S2380.4,2249.9,2379.4,2249.9z"></path> <path d="M2379.4,2261c-1,0-1.9,0.8-1.9,1.9s0.8,1.9,1.9,1.9s1.9-0.8,1.9-1.9S2380.4,2261,2379.4,2261z"></path> <path d="M2379.4,2366.9c1,0,1.9-0.8,1.9-1.9c0-1-0.8-1.9-1.9-1.9s-1.9,0.8-1.9,1.9C2377.5,2366.1,2378.4,2366.9,2379.4,2366.9z"></path> <path d="M2369.6,2375.5c1,0,1.9-0.8,1.9-1.9c0-1-0.8-1.9-1.9-1.9s-1.9,0.8-1.9,1.9C2367.7,2374.6,2368.5,2375.5,2369.6,2375.5z"></path> <path d="M2379.4,2381.4c1,0,1.9-0.8,1.9-1.9c0-1-0.8-1.9-1.9-1.9s-1.9,0.8-1.9,1.9C2377.5,2380.5,2378.4,2381.4,2379.4,2381.4z"></path> <path d="M2369.6,2386.5c1,0,1.9-0.8,1.9-1.9s-0.8-1.9-1.9-1.9s-1.9,0.8-1.9,1.9S2368.5,2386.5,2369.6,2386.5z"></path> <path d="M2379.4,2392.5c1,0,1.9-0.8,1.9-1.9s-0.8-1.9-1.9-1.9s-1.9,0.8-1.9,1.9S2378.4,2392.5,2379.4,2392.5z"></path> <path d="M2379.4,2432.4c1,0,1.9-0.8,1.9-1.9s-0.8-1.9-1.9-1.9s-1.9,0.8-1.9,1.9S2378.4,2432.4,2379.4,2432.4z"></path> <path d="M2368,2435.5c0,1,0.8,1.9,1.9,1.9c1,0,1.9-0.8,1.9-1.9s-0.8-1.9-1.9-1.9C2368.8,2433.6,2368,2434.4,2368,2435.5z"></path> <path d="M2379.4,2443.5c1,0,1.9-0.8,1.9-1.9c0-1-0.8-1.9-1.9-1.9s-1.9,0.8-1.9,1.9C2377.5,2442.7,2378.4,2443.5,2379.4,2443.5z"></path> <path d="M2379.4,2458c1,0,1.9-0.8,1.9-1.9c0-1-0.8-1.9-1.9-1.9s-1.9,0.8-1.9,1.9C2377.5,2457.1,2378.4,2458,2379.4,2458z"></path> <path d="M2379.4,2469.1c1,0,1.9-0.8,1.9-1.9s-0.8-1.9-1.9-1.9s-1.9,0.8-1.9,1.9S2378.4,2469.1,2379.4,2469.1z"></path> <path d="M2379.9,2478.3c-1,0-1.9,0.8-1.9,1.9c0,1,0.8,1.9,1.9,1.9s1.9-0.8,1.9-1.9C2381.8,2479.2,2380.9,2478.3,2379.9,2478.3z"></path> <path d="M2379.4,2490.9c-1,0-1.9,0.8-1.9,1.9s0.8,1.9,1.9,1.9s1.9-0.8,1.9-1.9S2380.4,2490.9,2379.4,2490.9z"></path> <path d="M2362.1,2365c0-1-0.8-1.9-1.9-1.9c-1,0-1.9,0.8-1.9,1.9c0,1,0.8,1.9,1.9,1.9C2361.3,2366.9,2362.1,2366.1,2362.1,2365z"></path> <path d="M2388.7,2514.3c1,0,1.9-0.8,1.9-1.9c0-1-0.8-1.9-1.9-1.9s-1.9,0.8-1.9,1.9C2386.9,2513.4,2387.7,2514.3,2388.7,2514.3z"></path> <path d="M2360.4,2530.9c-1,0-1.9,0.8-1.9,1.9s0.8,1.9,1.9,1.9s1.9-0.8,1.9-1.9S2361.5,2530.9,2360.4,2530.9z"></path> <path d="M2361.9,2543.9c0-1-0.8-1.9-1.9-1.9s-1.9,0.8-1.9,1.9c0,1,0.8,1.9,1.9,1.9S2361.9,2544.9,2361.9,2543.9z"></path> <path d="M2379.3,2542c-1,0-1.9,0.8-1.9,1.9c0,1,0.8,1.9,1.9,1.9s1.9-0.8,1.9-1.9C2381.1,2542.8,2380.3,2542,2379.3,2542z"></path> <path d="M2388.8,2525c-1,0-1.9,0.8-1.9,1.9s0.8,1.9,1.9,1.9s1.9-0.8,1.9-1.9S2389.8,2525,2388.8,2525z"></path> <path d="M2379.4,2505.3c-1,0-1.9,0.8-1.9,1.9s0.8,1.9,1.9,1.9s1.9-0.8,1.9-1.9S2380.4,2505.3,2379.4,2505.3z"></path> <path d="M2369.6,2510.5c-1,0-1.9,0.8-1.9,1.9c0,1,0.8,1.9,1.9,1.9s1.9-0.8,1.9-1.9C2371.5,2511.3,2370.6,2510.5,2369.6,2510.5z"></path> <path d="M2379.4,2516.4c-1,0-1.9,0.8-1.9,1.9c0,1,0.8,1.9,1.9,1.9s1.9-0.8,1.9-1.9C2381.3,2517.2,2380.4,2516.4,2379.4,2516.4z"></path> <path d="M2369.6,2524.9c-1,0-1.9,0.8-1.9,1.9c0,1,0.8,1.9,1.9,1.9s1.9-0.8,1.9-1.9C2371.5,2525.8,2370.6,2524.9,2369.6,2524.9z"></path> <path d="M2379.4,2530.9c-1,0-1.9,0.8-1.9,1.9c0,1,0.8,1.9,1.9,1.9s1.9-0.8,1.9-1.9C2381.3,2531.7,2380.4,2530.9,2379.4,2530.9z"></path> <path d="M2369.6,2536c-1,0-1.9,0.8-1.9,1.9s0.8,1.9,1.9,1.9s1.9-0.8,1.9-1.9S2370.6,2536,2369.6,2536z"></path> <path d="M2369.6,2549.2c-1,0-1.9,0.8-1.9,1.9c0,1,0.8,1.9,1.9,1.9s1.9-0.8,1.9-1.9C2371.5,2550.1,2370.6,2549.2,2369.6,2549.2z"></path> <path d="M2360.1,2558.7c1,0,1.9-0.8,1.9-1.9s-0.8-1.9-1.9-1.9s-1.9,0.8-1.9,1.9S2359,2558.7,2360.1,2558.7z"></path> <path d="M2273.8,2171.1c1,0,1.9-0.8,1.9-1.9c0-1-0.8-1.9-1.9-1.9s-1.9,0.8-1.9,1.9C2271.9,2170.3,2272.8,2171.1,2273.8,2171.1z"></path> <path d="M2273.8,2182.2c1,0,1.9-0.8,1.9-1.9c0-1-0.8-1.9-1.9-1.9s-1.9,0.8-1.9,1.9C2271.9,2181.4,2272.8,2182.2,2273.8,2182.2z"></path> <path d="M2273.8,2196.7c1,0,1.9-0.8,1.9-1.9s-0.8-1.9-1.9-1.9s-1.9,0.8-1.9,1.9S2272.8,2196.7,2273.8,2196.7z"></path> <path d="M2283.7,2198.9c-1,0-1.9,0.8-1.9,1.9c0,1,0.8,1.9,1.9,1.9s1.9-0.8,1.9-1.9C2285.6,2199.7,2284.7,2198.9,2283.7,2198.9z"></path> <path d="M2283.8,2184.3c-1,0-1.9,0.8-1.9,1.9c0,1,0.8,1.9,1.9,1.9c1,0,1.9-0.8,1.9-1.9C2285.7,2185.1,2284.8,2184.3,2283.8,2184.3z "></path> <path d="M2273.8,2222.4c1,0,1.9-0.8,1.9-1.9c0-1-0.8-1.9-1.9-1.9s-1.9,0.8-1.9,1.9C2271.9,2221.6,2272.8,2222.4,2273.8,2222.4z"></path> <path d="M2272.5,2207.2L2272.5,2207.2l0.3,0.3c0,0,0,0,0,0l0.6,0.4l0-0.1c0.1,0,0.3,0.1,0.4,0.1c1,0,1.9-0.8,1.9-1.9 c0-0.7-0.4-1.4-1.1-1.7l0-0.1l-0.8-0.1c0,0,0,0,0,0l-0.3,0l0,0.1c-0.9,0.2-1.5,0.9-1.5,1.8 C2271.9,2206.4,2272.1,2206.8,2272.5,2207.2z"></path> <circle cx="2254.6" cy="2154.8" r="1.9"></circle> <circle cx="2245.7" cy="2160.4" r="1.9"></circle> <circle cx="2245.3" cy="2149.6" r="1.9"></circle> <path d="M2264.5,2162.6c1,0,1.9-0.8,1.9-1.9c0-1-0.8-1.9-1.9-1.9s-1.9,0.8-1.9,1.9C2262.6,2161.7,2263.4,2162.6,2264.5,2162.6z"></path> <circle cx="2264.5" cy="2175.2" r="1.9"></circle> <circle cx="2254.5" cy="2169.3" r="1.9"></circle> <path d="M2264.5,2188.1c1,0,1.9-0.8,1.9-1.9s-0.8-1.9-1.9-1.9s-1.9,0.8-1.9,1.9S2263.4,2188.1,2264.5,2188.1z"></path> <path d="M2254.8,2192.9l-0.2,0c0,0,0,0,0,0l-0.2,0l0,0.1c-0.9,0.1-1.6,0.9-1.6,1.8c0,0.2,0.1,0.4,0.1,0.6l0,0l0.2,0.3l0.4,0.7 l0.1-0.1c0.3,0.2,0.7,0.3,1,0.3c1,0,1.9-0.8,1.9-1.9c0-0.7-0.4-1.3-1-1.6l0.1-0.1L2254.8,2192.9z"></path> <path d="M2264.5,2202.6c1,0,1.9-0.8,1.9-1.9s-0.8-1.9-1.9-1.9s-1.9,0.8-1.9,1.9S2263.4,2202.6,2264.5,2202.6z"></path> <path d="M2254.6,2207.8c1,0,1.9-0.8,1.9-1.9c0-1-0.8-1.9-1.9-1.9c-1,0-1.9,0.8-1.9,1.9C2252.8,2206.9,2253.6,2207.8,2254.6,2207.8z "></path> <path d="M2264.5,2213.7c1,0,1.9-0.8,1.9-1.9c0-1-0.8-1.9-1.9-1.9s-1.9,0.8-1.9,1.9C2262.6,2212.8,2263.4,2213.7,2264.5,2213.7z"></path> <path d="M2264.5,2228.1c1,0,1.9-0.8,1.9-1.9c0-1-0.8-1.9-1.9-1.9s-1.9,0.8-1.9,1.9C2262.6,2227.3,2263.4,2228.1,2264.5,2228.1z"></path> <path d="M2245.3,2213.7c1,0,1.9-0.8,1.9-1.9c0-1-0.8-1.9-1.9-1.9s-1.9,0.8-1.9,1.9C2243.4,2212.8,2244.3,2213.7,2245.3,2213.7z"></path> <path d="M2254.7,2233.4c1,0,1.9-0.8,1.9-1.9c0-1-0.8-1.9-1.9-1.9s-1.9,0.8-1.9,1.9C2252.8,2232.6,2253.6,2233.4,2254.7,2233.4z"></path> <path d="M2254.7,2218.4c-1,0-1.9,0.8-1.9,1.9s0.8,1.9,1.9,1.9s1.9-0.8,1.9-1.9S2255.7,2218.4,2254.7,2218.4z"></path> <circle cx="2417.7" cy="2124.1" r="1.9"></circle> <circle cx="2407.9" cy="2129.3" r="1.9"></circle> <path d="M2417.7,2137c1,0,1.8-0.8,1.9-1.8l0-0.2c0-1-0.9-1.8-1.9-1.8c-1,0-1.9,0.8-1.9,1.9C2415.8,2136.2,2416.7,2137,2417.7,2137z "></path> <path d="M2407.9,2145.6c1,0,1.9-0.8,1.9-1.9c0-1-0.8-1.9-1.9-1.9s-1.9,0.8-1.9,1.9C2406,2144.7,2406.9,2145.6,2407.9,2145.6z"></path> <circle cx="2407.9" cy="2154.8" r="1.9"></circle> <circle cx="2417.7" cy="2160.6" r="1.9"></circle> <circle cx="2417.7" cy="2149.6" r="1.9"></circle> <path d="M2407,2170.9l1.4,0.1l0.1,0c0.7-0.3,1.2-1,1.2-1.8c0-1-0.8-1.9-1.9-1.9s-1.9,0.8-1.9,1.9 C2406,2169.9,2406.4,2170.6,2407,2170.9z"></path> <path d="M2398.6,2137c1,0,1.9-0.8,1.9-1.9c0-1-0.8-1.9-1.9-1.9c-1,0-1.9,0.8-1.9,1.9C2396.7,2136.2,2397.5,2137,2398.6,2137z"></path> <path d="M2388.7,2145.6c1,0,1.9-0.8,1.9-1.9c0-1-0.8-1.9-1.9-1.9s-1.9,0.8-1.9,1.9C2386.9,2144.7,2387.7,2145.6,2388.7,2145.6z"></path> <circle cx="2398.6" cy="2149.6" r="1.9"></circle> <circle cx="2388.7" cy="2154.8" r="1.9"></circle> <path d="M2398.6,2162.6c1,0,1.9-0.8,1.9-1.9c0-1-0.8-1.9-1.9-1.9c-1,0-1.9,0.8-1.9,1.9C2396.7,2161.7,2397.5,2162.6,2398.6,2162.6z "></path> <path d="M2388.5,2170.2c1,0,1.9-0.8,1.9-1.9c0-1-0.8-1.9-1.9-1.9c-1,0-1.9,0.8-1.9,1.9C2386.6,2169.4,2387.4,2170.2,2388.5,2170.2z "></path> <path d="M2380.6,2133.7l-0.2-0.2l-0.2,0c-0.3-0.2-0.6-0.3-1-0.3c-1,0-1.9,0.8-1.9,1.9c0,1,0.8,1.9,1.9,1.9c0.3,0,0.5-0.1,0.7-0.2 c0.7-0.3,1.3-0.9,1.3-1.8C2381.3,2134.6,2381,2134.1,2380.6,2133.7z"></path> <path d="M2369.6,2145.6c1,0,1.9-0.8,1.9-1.9c0-1-0.8-1.9-1.9-1.9s-1.9,0.8-1.9,1.9C2367.7,2144.7,2368.5,2145.6,2369.6,2145.6z"></path> <circle cx="2379.4" cy="2149.6" r="1.9"></circle> <circle cx="2369.6" cy="2154.8" r="1.9"></circle> <path d="M2379.4,2158.8c-1,0-1.9,0.8-1.9,1.9c0,1,0.8,1.9,1.9,1.9s1.9-0.8,1.9-1.9C2381.3,2159.7,2380.4,2158.8,2379.4,2158.8z"></path> <path d="M2369.6,2171.1c1,0,1.9-0.8,1.9-1.9c0-1-0.8-1.9-1.9-1.9s-1.9,0.8-1.9,1.9C2367.7,2170.3,2368.5,2171.1,2369.6,2171.1z"></path> <circle cx="2360.3" cy="2149.6" r="1.9"></circle> <circle cx="2350.4" cy="2154.8" r="1.9"></circle> <path d="M2360.3,2162.6c1,0,1.9-0.8,1.9-1.9c0-1-0.8-1.9-1.9-1.9c-1,0-1.9,0.8-1.9,1.9C2358.4,2161.7,2359.2,2162.6,2360.3,2162.6z "></path> <path d="M2350.4,2171.1c1,0,1.9-0.8,1.9-1.9c0-1-0.8-1.9-1.9-1.9s-1.9,0.8-1.9,1.9C2348.6,2170.3,2349.4,2171.1,2350.4,2171.1z"></path> <circle cx="2360.3" cy="2175.2" r="1.9"></circle> <path d="M2350.4,2182.2c1,0,1.9-0.8,1.9-1.9c0-1-0.8-1.9-1.9-1.9s-1.9,0.8-1.9,1.9C2348.6,2181.4,2349.4,2182.2,2350.4,2182.2z"></path> <circle cx="2341.1" cy="2175.2" r="1.9"></circle> <path d="M2341.1,2184.4c-1,0-1.9,0.8-1.9,1.9s0.8,1.9,1.9,1.9s1.9-0.8,1.9-1.9S2342.1,2184.4,2341.1,2184.4z"></path> <path d="M2120.1,2232c10.7-5.1,21.2-8.5,31.4-10.5c2.8-0.5,5.6-1,8.3-1.3c12.4-1.6,24.4-1.1,35.8,0.6c0.2,0.8,0.9,1.4,1.8,1.4 c0.7,0,1.2-0.4,1.5-0.9c20.8,3.7,39.9,11.6,56.6,19.8c-3.5-4.9-7.2-9.3-11-13.2c0.2,0.1,0.5,0.1,0.7,0.1c1,0,1.9-0.8,1.9-1.9 c0-1-0.8-1.9-1.9-1.9s-1.9,0.8-1.9,1.9c0,0.2,0.1,0.5,0.1,0.7c-2.1-2.1-4.2-4-6.4-5.8c0.1-0.2,0.2-0.5,0.2-0.8c0-1-0.8-1.9-1.9-1.9 c-0.4,0-0.8,0.2-1.1,0.4C2195.9,2189.5,2147.4,2202.1,2120.1,2232z"></path> <path d="M2206.2,2409.9c0.6-1.1,1.4-2.3,1.9-3.9c3.1-8.9-23.8-1.9-9.2,15.2c1.6,1.7,3.5,4.4,6,5.1c4,0,2.1-6.6,1.8-8.9 c-0.2-0.9-0.4-1.7-0.6-2.5c29,29,55.5,42.8,83.9,48.1c3.9,2.9,8.1,6.3,12.8,11c15.1,15.1,36.7,30.6,53.2,30.6 c2.9,0,5.7-0.5,8.2-1.5c8.7-3.6,13.1-12.8,13.1-27.4c0-23.4-7.6-34.6-15.7-43.2c-0.1-0.7-0.2-1.4-0.2-2.1 c16.6-5.3,25.3-20.6,22-26.6c-4-7.2-29.8-6.2-45.2,1.9C2307,2390.4,2291.9,2412.4,2206.2,2409.9z M2348.3,2426.7l-0.4,2.4 c-0.6,4-2.5,6.6-4.8,6.7l-25.5,0.6c0,0,0,0-0.1,0c-1.4,0-2.9-1.1-3.9-3l-2.1-3.7c-7.9-0.2-40-0.9-45.5-2.3c-6-1.5-10.1-4.8-14-9.4 c23.7,2.5,44.9,4,64.7,4c14.5,0,28.2-0.8,41.5-2.5C2355.6,2423,2352.1,2425.3,2348.3,2426.7z M2369.7,2475.7 c0,11.3-2.9,18.2-8.5,20.5c-10.7,4.4-32.6-6.8-53.2-27.4c-8.1-8.1-14.4-12.4-20.6-16.6c-5.4-3.7-10.5-7.2-16.5-13 c-1.3-1.2-1-2.7-0.9-3.3c0.2-0.6,0.8-2,2.5-2.3c0.4-0.1,0.9-0.2,1.4-0.3c9.6,0.7,24,1.1,34.6,1.4l0.7,1.2c2,3.5,5,5.6,8.4,5.6h0.1 l0.1,0l7.2-0.2l0.1,0c6.5,4.7,11.8,10.2,17.1,16.2c0.5,0.6,1,1.1,1.5,1.7c0.1,0.2,0.4,0,0.4-0.2c-0.9-6.6-4.4-13.2-9.4-17.9 l8.7-0.2c3.6-0.1,6.6-2.5,8.4-6.5c1.6,0.8,3.1,1.9,4.4,3.2C2364.2,2446.2,2369.7,2456,2369.7,2475.7z"></path> <path d="M2178.5,2387.8c0.5-0.4,0.7-1.1,0.5-1.8c-0.3-1-1.2-1.5-2.2-1.3c-5,1.4-9.3,3.7-13.4,7c-5.2,4.2-7.9,9.9-5.1,16.8 c3.8,9.5,8.8,17,14.4,25.3c0.9,1.4,3.2,0.4,2.8-1.2c-1.9-9-6.3-18.2-9.2-26.6c-0.4-1.5-0.9-2.8-0.5-4.1 C2168.5,2396.6,2174.2,2392.4,2178.5,2387.8z"></path> </g> </svg> 