<?xml version="1.0" encoding="UTF-8"?> <svg xmlns="http://www.w3.org/2000/svg" id="uuid-a52151f3-7ac6-49e0-8aca-b70dd3a72383" viewBox="0 0 130.66 83.88"><defs><style>.uuid-65ee5ec4-fed5-4ca2-86c2-92065129fc70{fill:#7c7429;}.uuid-65ee5ec4-fed5-4ca2-86c2-92065129fc70,.uuid-2f1ddeeb-4a3a-40d9-8804-9a1673943602{stroke-width:0px;}.uuid-2f1ddeeb-4a3a-40d9-8804-9a1673943602{fill:#fff8f1;}</style></defs><path class="uuid-65ee5ec4-fed5-4ca2-86c2-92065129fc70" d="M130.66,42.31C130.66,9.48,95.57.06,65.46,0h0s-.08,0-.13,0-.08,0-.13,0h0C35.09.06,0,9.48,0,42.31s42.63,41.5,65.2,41.56h0s.09,0,.13,0,.09,0,.13,0h0c22.57-.07,65.2-8.77,65.2-41.57Z"></path><path class="uuid-2f1ddeeb-4a3a-40d9-8804-9a1673943602" d="M29.44,25.9c2.91.01,4.45,2.61,4.43,7l-.06,18.69c-.02,4.38-1.58,6.97-4.48,6.96-2.91,0-4.45-2.61-4.43-7l.06-18.69c.02-4.38,1.58-6.97,4.48-6.96ZM29.33,56.3c1.01,0,1.55-.85,1.56-2.32l.08-23.5c0-1.47-.53-2.33-1.54-2.33-1.01,0-1.55.85-1.56,2.32l-.08,23.5c0,1.47.54,2.33,1.54,2.33Z"></path><path class="uuid-2f1ddeeb-4a3a-40d9-8804-9a1673943602" d="M38.55,26.16l-.1,29.93h3.88s0,2.26,0,2.26l-6.59-.02.11-32.18h2.71Z"></path><path class="uuid-2f1ddeeb-4a3a-40d9-8804-9a1673943602" d="M46.65,26.19l-.11,32.18h-2.71s.11-32.19.11-32.19h2.71Z"></path><path class="uuid-2f1ddeeb-4a3a-40d9-8804-9a1673943602" d="M48.16,26.59v-.39s2.71,0,2.71,0l1.51,23.89h.39s1.67-23.88,1.67-23.88h2.52s0,.4,0,.4l-3.1,31.78h-2.83s-2.88-31.81-2.88-31.81Z"></path><path class="uuid-2f1ddeeb-4a3a-40d9-8804-9a1673943602" d="M65.3,26.26v2.25s-4.12-.01-4.12-.01l-.04,12.41h3.64s0,2.26,0,2.26h-3.64s-.04,13.01-.04,13.01h4.11s0,2.26,0,2.26l-6.82-.02.11-32.18,6.82.02Z"></path><path class="uuid-2f1ddeeb-4a3a-40d9-8804-9a1673943602" d="M68.84,51.86v2.83c-.01,1.12.49,1.82,1.34,1.83.93,0,1.55-.69,1.56-2.67.01-3.06-1.33-7.22-2.68-10.94l-.62-1.71c-1.31-3.57-2.3-6.48-2.29-9.82.01-3.29,1.57-5.34,4.25-5.34,2.67,0,3.91,1.99,3.9,4.63l-.02,5.7h-2.21c-.27-1.17-.3-2.53-.3-3.89v-2.48c.01-1.09-.49-1.79-1.34-1.79-.93,0-1.55.69-1.56,2.67,0,2.79,1.03,5.82,2.14,8.89l.61,1.71c1.27,3.49,2.84,8.04,2.83,11.72-.01,3.45-1.53,5.5-4.25,5.49-2.71,0-3.91-1.95-3.9-4.86l.02-5.85h2.21c.27,1.17.3,2.53.3,3.89Z"></path><path class="uuid-2f1ddeeb-4a3a-40d9-8804-9a1673943602" d="M82.55,39.03l1.66,12.89h.23s-.23-12.88-.23-12.88h1.52s-.07,19.17-.07,19.17h-1.57s-1.66-12.89-1.66-12.89h-.23l.23,12.88h-1.52s.07-19.17.07-19.17h1.57Z"></path><path class="uuid-2f1ddeeb-4a3a-40d9-8804-9a1673943602" d="M92.08,39.06v.23s-2,10.41-2,10.41l-.03,8.52h-1.62s.03-8.52.03-8.52l-1.93-10.42v-.23s1.5,0,1.5,0l1.2,7.39h.23s1.25-7.38,1.25-7.38h1.36Z"></path><path class="uuid-2f1ddeeb-4a3a-40d9-8804-9a1673943602" d="M95.05,38.93c1.73,0,2.65,1.56,2.64,4.17l-.04,11.13c0,2.61-.94,4.15-2.67,4.15s-2.65-1.56-2.64-4.17l.04-11.13c0-2.61.94-4.15,2.67-4.15ZM94.98,57.03c.6,0,.92-.5.93-1.38l.05-13.99c0-.88-.32-1.39-.92-1.39-.6,0-.93.5-.93,1.38l-.05,13.99c0,.88.32,1.39.92,1.39Z"></path><path class="uuid-2f1ddeeb-4a3a-40d9-8804-9a1673943602" d="M100.42,39.09l1.66,12.89h.23s-.23-12.88-.23-12.88h1.52s-.07,19.17-.07,19.17h-1.57s-1.66-12.89-1.66-12.89h-.23s.23,12.88.23,12.88h-1.52s.07-19.17.07-19.17h1.57Z"></path><path class="uuid-2f1ddeeb-4a3a-40d9-8804-9a1673943602" d="M106.14,54.35v1.69c0,.67.29,1.09.8,1.09.55,0,.92-.41.93-1.59,0-1.82-.79-4.3-1.59-6.52l-.37-1.02c-.78-2.13-1.37-3.86-1.37-5.85,0-1.96.94-3.18,2.53-3.18,1.59,0,2.33,1.19,2.32,2.75v3.39s-1.33,0-1.33,0c-.16-.69-.18-1.5-.18-2.31v-1.48c0-.65-.29-1.06-.8-1.07-.55,0-.93.41-.93,1.59,0,1.66.61,3.46,1.27,5.29l.37,1.02c.75,2.08,1.69,4.78,1.68,6.98,0,2.05-.91,3.28-2.53,3.27-1.62,0-2.33-1.16-2.32-2.89v-3.49s1.33,0,1.33,0c.16.69.18,1.5.18,2.31Z"></path><path class="uuid-2f1ddeeb-4a3a-40d9-8804-9a1673943602" d="M83.46,33.98c.73-.93,1.75-3.04,2.06-3.73-.11-.24-.27-.35-.46-.34-.94.04-2.62,2.68-2.6,3.87,0,.43.16.64.39.63.18,0,.39-.15.61-.43M81.26,34.16c0-.19,0-.42.03-.65.22-1.61,1.84-4.16,3.34-4.22.39-.02.77.12,1.11.5.56-1.06,1.44-2.79,1.55-3.01l1.46-.06c-1.66,2.58-2.86,5.16-3.22,6.3-.15.47-.24.84-.23,1.11.01.27.13.43.36.41.18,0,.47-.14.85-.49.66-.63,1.33-1.7,1.69-2.64.2-.04.35.03.46.17-.89,2.02-1.96,3.58-3.51,3.65-.55.03-.97-.29-1-.92,0-.14,0-.3.04-.47-.34.61-.99,1.45-1.72,1.51-.84.06-1.19-.42-1.22-1.18"></path><path class="uuid-2f1ddeeb-4a3a-40d9-8804-9a1673943602" d="M90.04,32.28c.73-.72,1.14-1.91,1.11-2.55-.01-.28-.12-.46-.29-.45-.57.03-1.72,2.09-1.94,3.59.49-.08.76-.25,1.12-.59M87.6,33.66c-.08-1.76,1.52-4.69,3.17-4.77.93-.04,1.33.42,1.36,1.06.04.89-.67,2.11-1.69,2.75-.51.31-.95.52-1.59.64,0,.11-.01.21,0,.31.02.48.25.76.77.74,1.42-.06,2.77-1.64,3.38-3.2.2-.04.35.03.46.17-.76,1.95-2.35,3.62-4.2,3.7-.96.04-1.61-.55-1.65-1.4"></path></svg> 