<?xml version="1.0" encoding="UTF-8"?> <svg xmlns="http://www.w3.org/2000/svg" id="uuid-ccc091b1-951e-46ef-a3d2-2ba5cae86e09" viewBox="0 0 130.66 83.88"><defs><style>.uuid-054b3f51-ae19-44b2-89ea-647d51245f99{fill:#faa625;}.uuid-054b3f51-ae19-44b2-89ea-647d51245f99,.uuid-bd8039ce-e54e-4029-98ac-f146dfa8cc40{stroke-width:0px;}.uuid-bd8039ce-e54e-4029-98ac-f146dfa8cc40{fill:#fff9ee;}</style></defs><path class="uuid-054b3f51-ae19-44b2-89ea-647d51245f99" d="M130.66,42.31C130.66,9.48,95.57.06,65.46,0h0s-.08,0-.13,0-.08,0-.13,0h0C35.09.06,0,9.48,0,42.31s42.63,41.5,65.2,41.56h0s.09,0,.13,0,.09,0,.13,0h0c22.57-.07,65.2-8.77,65.2-41.57Z"></path><path class="uuid-bd8039ce-e54e-4029-98ac-f146dfa8cc40" d="M39.99,26.59c2.84,0,4.35,2.55,4.34,6.83l-.04,18.25c-.01,4.28-1.53,6.81-4.37,6.8-2.84,0-4.35-2.55-4.34-6.83l.04-18.25c.01-4.28,1.53-6.81,4.37-6.8ZM39.92,56.27c.98,0,1.52-.83,1.52-2.27l.06-22.94c0-1.44-.52-2.27-1.51-2.27-.98,0-1.52.83-1.52,2.27l-.06,22.94c0,1.44.52,2.27,1.51,2.28Z"></path><path class="uuid-bd8039ce-e54e-4029-98ac-f146dfa8cc40" d="M54.28,34.99v.68c-.01,3.79-1,6.36-2.86,7.6v.38c1.47.91,1.89,2.09,1.96,4.96l.14,5.49c.03,1.67.18,2.95.6,3.79v.38s-2.73,0-2.73,0c-.3-.87-.37-1.89-.41-3.29l-.25-7.72c-.07-1.85-.71-2.65-1.89-2.65l-.03,13.67h-2.65s.08-31.43.08-31.43h2.65c2.95.01,5.41,2.29,5.39,8.16ZM49.04,42.51c1.51,0,2.5-1.32,2.51-5.29v-2.99c.02-3.97-.96-5.3-2.48-5.31h-.19s-.03,13.59-.03,13.59h.19Z"></path><path class="uuid-bd8039ce-e54e-4029-98ac-f146dfa8cc40" d="M60.92,26.87l2.72,31.05v.38s-2.65,0-2.65,0l-.51-8.33h-2.42s-.55,8.32-.55,8.32h-2.46s0-.38,0-.38l2.88-31.04h2.99ZM60.34,47.69l-.84-13.1h-.38s-.9,13.1-.9,13.1h2.12Z"></path><path class="uuid-bd8039ce-e54e-4029-98ac-f146dfa8cc40" d="M67.77,26.89l2.75,21.13h.38s-.4-21.12-.4-21.12h2.5s-.08,31.43-.08,31.43h-2.57s-2.75-21.14-2.75-21.14h-.38s.4,21.12.4,21.12h-2.5s.08-31.43.08-31.43h2.57Z"></path><path class="uuid-bd8039ce-e54e-4029-98ac-f146dfa8cc40" d="M79.21,26.69c2.65,0,4.01,2.28,4,5.69v5.53s-2.36,0-2.36,0c-.26-1.14-.3-2.46-.29-3.79v-3.07c.01-1.33-.48-2.16-1.35-2.16-.95,0-1.48.83-1.48,2.27l-.06,22.9c0,1.44.52,2.27,1.47,2.28.87,0,1.37-.83,1.37-2.15l.03-10.41h2.65s-.04,14.58-.04,14.58h-1.33s-.3-1.9-.3-1.9h-.38c-.19,1.13-.99,2.08-2.54,2.08-2.27,0-3.78-2.05-3.77-5.31l.05-19.72c.01-4.35,1.49-6.81,4.33-6.8Z"></path><path class="uuid-bd8039ce-e54e-4029-98ac-f146dfa8cc40" d="M91.88,26.95v2.2s-4.02,0-4.02,0l-.03,12.11h3.56s0,2.2,0,2.2h-3.56s-.03,12.71-.03,12.71h4.01s0,2.21,0,2.21l-6.66-.02.08-31.42,6.66.02Z"></path></svg> 