<?xml version="1.0" encoding="UTF-8"?> <svg xmlns="http://www.w3.org/2000/svg" id="uuid-bcfa8833-3396-45aa-8590-4fbfac02af97" viewBox="0 0 130.66 83.88"><defs><style>.uuid-8efc27fc-d42a-40c0-b75e-02673ae8401c{fill:#20964c;}.uuid-8efc27fc-d42a-40c0-b75e-02673ae8401c,.uuid-810586a2-d114-4102-ac6c-6e1262e3130f{stroke-width:0px;}.uuid-810586a2-d114-4102-ac6c-6e1262e3130f{fill:#fff9ee;}</style></defs><path class="uuid-8efc27fc-d42a-40c0-b75e-02673ae8401c" d="M130.66,42.31C130.66,9.48,95.57.06,65.46,0h0s-.08,0-.13,0-.08,0-.13,0h0C35.09.06,0,9.48,0,42.31s42.63,41.5,65.2,41.56h0s.09,0,.13,0,.09,0,.13,0h0c22.57-.07,65.2-8.77,65.2-41.57Z"></path><path class="uuid-810586a2-d114-4102-ac6c-6e1262e3130f" d="M33,35.46v.68c-.02,6.55-2.33,8.63-5.4,8.62l-.03,13.48h-2.65s.08-31.43.08-31.43h2.46c3.18.01,5.56,2.1,5.54,8.65ZM27.79,42.68c1.4,0,2.46-1.21,2.47-4.92v-3.94c.02-3.71-1.04-4.92-2.44-4.93h-.19l-.03,13.78h.19Z"></path><path class="uuid-810586a2-d114-4102-ac6c-6e1262e3130f" d="M41.08,26.85v2.2s-4.02,0-4.02,0l-.03,12.11h3.56s0,2.21,0,2.21h-3.56s-.03,12.71-.03,12.71h4.01s0,2.21,0,2.21l-6.66-.02.08-31.42,6.66.02Z"></path><path class="uuid-810586a2-d114-4102-ac6c-6e1262e3130f" d="M50.67,35.01v.68c-.01,3.79-1,6.36-2.86,7.6v.38c1.47.91,1.89,2.09,1.96,4.96l.14,5.49c.03,1.67.18,2.95.6,3.79v.38s-2.73,0-2.73,0c-.3-.87-.37-1.89-.41-3.29l-.25-7.72c-.07-1.86-.71-2.65-1.89-2.65l-.03,13.67h-2.65s.08-31.43.08-31.43h2.65c2.95.01,5.41,2.29,5.39,8.16ZM45.43,42.53c1.51,0,2.5-1.32,2.51-5.29v-2.99c.02-3.98-.96-5.3-2.48-5.31h-.19l-.03,13.59h.19Z"></path><path class="uuid-810586a2-d114-4102-ac6c-6e1262e3130f" d="M54.23,51.87v2.76c0,1.1.48,1.78,1.31,1.78.91,0,1.52-.68,1.52-2.61,0-2.99-1.31-7.04-2.62-10.68l-.6-1.67c-1.28-3.49-2.26-6.33-2.25-9.58,0-3.22,1.53-5.22,4.14-5.21,2.61,0,3.82,1.94,3.81,4.51v5.57s-2.17,0-2.17,0c-.26-1.14-.3-2.46-.29-3.79v-2.42c0-1.06-.48-1.74-1.32-1.74-.91,0-1.52.68-1.52,2.61,0,2.73,1.01,5.68,2.1,8.67l.6,1.67c1.24,3.41,2.78,7.84,2.77,11.44,0,3.37-1.49,5.37-4.14,5.37-2.65,0-3.82-1.9-3.81-4.74v-5.72s2.17,0,2.17,0c.26,1.14.3,2.46.29,3.79Z"></path><path class="uuid-810586a2-d114-4102-ac6c-6e1262e3130f" d="M63.94,26.9l-.08,31.42h-2.65s.08-31.43.08-31.43h2.65Z"></path><path class="uuid-810586a2-d114-4102-ac6c-6e1262e3130f" d="M68.71,26.92l-.07,29.23h3.79s0,2.21,0,2.21l-6.44-.02.08-31.42h2.65Z"></path><path class="uuid-810586a2-d114-4102-ac6c-6e1262e3130f" d="M76.62,26.93l-.07,29.23h3.79s0,2.21,0,2.21l-6.44-.02.08-31.42h2.65Z"></path><path class="uuid-810586a2-d114-4102-ac6c-6e1262e3130f" d="M87.03,26.96l2.72,31.05v.38s-2.65,0-2.65,0l-.51-8.33h-2.42s-.55,8.32-.55,8.32h-2.46s0-.38,0-.38l2.88-31.04h2.99ZM86.45,47.78l-.84-13.1h-.38s-.9,13.1-.9,13.1h2.12Z"></path><path class="uuid-810586a2-d114-4102-ac6c-6e1262e3130f" d="M99.42,34.18l-.04,17.04c-.01,4.96-1.8,7.19-5.51,7.18h-2.65s.08-31.43.08-31.43h2.65c3.71.02,5.48,2.25,5.47,7.21ZM94.45,56.32c1.44,0,2.27-1.09,2.28-3.02l.05-21.2c0-1.93-.83-3.03-2.26-3.03h-.57s-.07,27.26-.07,27.26h.57Z"></path><path class="uuid-810586a2-d114-4102-ac6c-6e1262e3130f" d="M108,27.01v2.2s-4.02,0-4.02,0l-.03,12.11h3.56s0,2.21,0,2.21h-3.56s-.03,12.71-.03,12.71h4.01s0,2.21,0,2.21l-6.66-.02.08-31.42,6.66.02Z"></path></svg> 