<?xml version="1.0" encoding="UTF-8"?> <svg xmlns="http://www.w3.org/2000/svg" id="uuid-571fb16c-9977-42d3-8f4c-89cb36abd30b" viewBox="0 0 130.66 83.88"><defs><style>.uuid-d25084c2-11bf-4e1c-b2e4-51bd5921c60c{fill:#fff9ee;}.uuid-d25084c2-11bf-4e1c-b2e4-51bd5921c60c,.uuid-a99ee201-7370-47f1-8b3b-ed79e93dcd18{stroke-width:0px;}.uuid-a99ee201-7370-47f1-8b3b-ed79e93dcd18{fill:#e6262f;}</style></defs><path class="uuid-a99ee201-7370-47f1-8b3b-ed79e93dcd18" d="M130.66,42.31C130.66,9.48,95.57.06,65.46,0h0s-.08,0-.13,0-.08,0-.13,0h0C35.09.06,0,9.48,0,42.31s42.63,41.5,65.2,41.56h0s.09,0,.13,0,.09,0,.13,0h0c22.57-.07,65.2-8.77,65.2-41.57Z"></path><path class="uuid-d25084c2-11bf-4e1c-b2e4-51bd5921c60c" d="M47.9,35.46v.68c-.02,6.55-2.33,8.63-5.4,8.62l-.03,13.48h-2.65s.08-31.43.08-31.43h2.46c3.18.01,5.56,2.1,5.54,8.65ZM42.69,42.68c1.4,0,2.46-1.21,2.47-4.92v-3.94c.02-3.71-1.04-4.92-2.44-4.93h-.19l-.03,13.78h.19Z"></path><path class="uuid-d25084c2-11bf-4e1c-b2e4-51bd5921c60c" d="M51.97,26.84l-.08,31.42h-2.65s.08-31.43.08-31.43h2.65Z"></path><path class="uuid-d25084c2-11bf-4e1c-b2e4-51bd5921c60c" d="M57.04,26.85l2.89,24.05h.38s3.01-24.03,3.01-24.03h2.95s-.08,31.43-.08,31.43h-2.5s.24-19.92.24-19.92h-.38s-2.47,19.91-2.47,19.91h-1.97s-2.37-19.92-2.37-19.92h-.38s.14,19.91.14,19.91h-2.5s.08-31.43.08-31.43h2.95Z"></path><path class="uuid-d25084c2-11bf-4e1c-b2e4-51bd5921c60c" d="M75.05,26.89v2.2s-4.02,0-4.02,0l-.03,12.11h3.56s0,2.2,0,2.2h-3.56s-.03,12.71-.03,12.71h4.01s0,2.21,0,2.21l-6.66-.02.08-31.42,6.66.02Z"></path><path class="uuid-d25084c2-11bf-4e1c-b2e4-51bd5921c60c" d="M79.18,26.9l2.75,21.13h.38s-.4-21.12-.4-21.12h2.5s-.08,31.43-.08,31.43h-2.57s-2.75-21.14-2.75-21.14h-.38s.4,21.12.4,21.12h-2.5s.08-31.43.08-31.43h2.57Z"></path><path class="uuid-d25084c2-11bf-4e1c-b2e4-51bd5921c60c" d="M93.83,26.94v2.2s-2.66,0-2.66,0l-.07,29.23h-2.65s.07-29.23.07-29.23h-2.65s0-2.2,0-2.2l7.95.02Z"></path></svg> 