<svg class="brxe-icon" id="brxe-iucbws" xmlns="http://www.w3.org/2000/svg" xmlns:xlink="http://www.w3.org/1999/xlink" version="1.1" x="0px" y="0px" viewBox="0 0 1552.76 1552.74" style="enable-background:new 0 0 1552.76 1552.74;" xml:space="preserve"> <style type="text/css"> .st0{fill:#000202;} </style> <g> <path class="st0" d="M776.38,1552.74C348.29,1552.74,0,1204.47,0,776.38S348.29,0,776.38,0s776.38,348.29,776.38,776.38 S1204.47,1552.74,776.38,1552.74z M776.38,130.78c-355.98,0-645.61,289.62-645.61,645.61s289.62,645.58,645.61,645.58 s645.61-289.6,645.61-645.58S1132.36,130.78,776.38,130.78z"></path> </g> <g> <path class="st0" d="M776.38,1225.03c-180.66,0-338.41-115.71-392.53-287.94c-10.83-34.46,8.33-71.16,42.76-81.99 c34.53-10.86,71.16,8.33,81.99,42.76c36.93,117.47,144.54,196.39,267.78,196.39c115.76,0,218.18-69.5,260.91-177.06 c13.33-33.54,51.34-49.99,84.9-36.63c33.56,13.33,49.96,51.34,36.63,84.9C1096.2,1123.14,946.08,1225.03,776.38,1225.03z"></path> </g> <g> <circle class="st0" cx="533.5" cy="585.83" r="101.04"></circle> </g> <g> <path class="st0" d="M1076.42,702.48c-36.12,0-65.39-29.27-65.39-65.39c0-20.48-16.65-37.16-37.14-37.16s-37.16,16.68-37.16,37.16 c0,36.12-29.27,65.39-65.39,65.39s-65.39-29.27-65.39-65.39c0-92.59,75.35-167.94,167.94-167.94s167.91,75.35,167.91,167.94 C1141.8,673.21,1112.53,702.48,1076.42,702.48z"></path> </g> </svg>