<?xml version="1.0" encoding="UTF-8"?>
<svg xmlns="http://www.w3.org/2000/svg" id="uuid-27362444-959b-4fe9-a6c5-71d19be357a7" viewBox="0 0 441.22 4.13"><defs><style>.uuid-87ebddf3-77c7-46f8-b7df-cec50e627869{fill:none;stroke:#000;stroke-miterlimit:10;stroke-width:.35px;}</style></defs><g id="uuid-a2fd6420-dfe8-44f3-9c3b-ea75224c356b"><g id="uuid-bbef3e28-a964-45d7-a48b-8908ffcae225"><path class="uuid-87ebddf3-77c7-46f8-b7df-cec50e627869" d="M441.22.19c-3.05,0-5.77,1.38-7.57,3.56-1.81-2.17-4.53-3.56-7.57-3.56s-5.81,1.41-7.62,3.61c-1.81-2.2-4.55-3.61-7.62-3.61s-5.82,1.41-7.62,3.62c-1.81-2.21-4.55-3.62-7.62-3.62s-5.77,1.38-7.57,3.56c-1.81-2.17-4.53-3.56-7.57-3.56s-5.81,1.41-7.62,3.61c-1.81-2.2-4.55-3.61-7.62-3.61s-5.79,1.39-7.59,3.58c-1.81-2.19-4.54-3.58-7.59-3.58s-5.77,1.38-7.57,3.56c-1.81-2.17-4.53-3.56-7.57-3.56s-5.81,1.41-7.62,3.61c-1.81-2.2-4.55-3.61-7.62-3.61s-5.82,1.41-7.62,3.62c-1.81-2.21-4.55-3.62-7.62-3.62s-5.77,1.38-7.57,3.56c-1.81-2.17-4.53-3.56-7.57-3.56s-5.81,1.41-7.62,3.61c-1.81-2.2-4.55-3.61-7.62-3.61s-5.86,1.44-7.67,3.67c-1.8-2.24-4.57-3.67-7.67-3.67s-5.77,1.38-7.57,3.56c-1.81-2.17-4.53-3.56-7.57-3.56s-5.81,1.41-7.62,3.61c-1.81-2.2-4.55-3.61-7.62-3.61s-5.82,1.41-7.62,3.62c-1.81-2.21-4.55-3.62-7.62-3.62s-5.77,1.38-7.57,3.56c-1.81-2.17-4.53-3.56-7.57-3.56s-5.81,1.41-7.62,3.61c-1.81-2.2-4.55-3.61-7.62-3.61s-5.86,1.44-7.67,3.67c-1.8-2.24-4.57-3.67-7.67-3.67s-5.77,1.38-7.57,3.56c-1.81-2.17-4.53-3.56-7.57-3.56s-5.81,1.41-7.62,3.61c-1.81-2.2-4.55-3.61-7.62-3.61s-5.82,1.41-7.62,3.62c-1.81-2.21-4.55-3.62-7.62-3.62s-5.77,1.38-7.57,3.56c-1.81-2.17-4.53-3.56-7.57-3.56s-5.81,1.41-7.62,3.61c-1.81-2.2-4.55-3.61-7.62-3.61s-5.86,1.44-7.67,3.67c-1.8-2.24-4.57-3.67-7.67-3.67s-5.77,1.38-7.57,3.56c-1.81-2.17-4.53-3.56-7.57-3.56s-5.81,1.41-7.62,3.61c-1.81-2.2-4.55-3.61-7.62-3.61s-5.82,1.41-7.62,3.62c-1.81-2.21-4.55-3.62-7.62-3.62s-5.77,1.38-7.57,3.56C21,1.56,18.28.17,15.23.17s-5.81,1.41-7.62,3.61C5.81,1.59,3.07.17,0,.17"/></g></g></svg>