<?xml version="1.0" encoding="UTF-8"?> <!-- Generator: Adobe Illustrator 28.1.0, SVG Export Plug-In . SVG Version: 6.00 Build 0) --> <svg xmlns="http://www.w3.org/2000/svg" xmlns:xlink="http://www.w3.org/1999/xlink" version="1.1" id="Calque_1" x="0px" y="0px" viewBox="0 0 1160.7 799.5" style="enable-background:new 0 0 1160.7 799.5;" xml:space="preserve"> <g> <path d="M579.2,1.5C443.8,1.7,1.8,31.4,1.8,401.8c0,307.1,371.3,391.3,572.3,393.3l0,0.2l5.9-0.1l-0.1-5.7l1.7,5.7l5.7,0v0 C788.4,793,1159,708.6,1159,401.8C1159,31.4,717,1.7,580.9,1.5 M581.5,783.7l-0.6,0l-1.6,0c-195.8-0.6-566-81.2-566-381.9 c0-136.7,61.9-239.9,183.9-306.9c122.8-67.4,275.6-81.8,382.6-82l1.8,0c106.6,0.2,259.4,14.6,382.2,82 c122,66.9,183.9,170.2,183.9,306.9C1147.5,702.5,777.2,783.1,581.5,783.7z"></path> <path d="M334.3,622.7c0-0.6-0.1-1.1-0.2-1.7c-0.1-0.6,0-1.2-0.1-1.9c-0.1-0.5-0.3-1.1-0.4-1.7c-0.3-0.5-0.4-1.1-0.6-1.6 c-0.3-0.5-0.6-1-0.8-1.6c-0.2-0.6-0.4-1.1-0.6-1.6c-0.2-0.6-0.6-1-0.9-1.5c-0.4-0.5-0.5-1-0.9-1.5c-0.3-0.5-0.8-0.8-1.3-1.2 c-0.3-0.5-0.6-1-1.1-1.4c-0.4-0.4-1-0.8-1.4-1.1c-0.5-0.3-0.9-0.7-1.4-1.1c-0.4-0.3-1.1-0.4-1.6-0.7c-0.5-0.2-1.1-0.5-1.6-0.7 c-0.5-0.3-1-0.5-1.6-0.7c-0.8-0.3-0.8-0.1-1.7-0.3c-0.9-0.3-0.8-0.5-1.6-0.8l-1.6-0.5c-0.9-0.3-0.9-0.2-1.7-0.4 c-0.9-0.3-0.8-0.3-1.6-0.6c-0.8-0.3-0.9-0.1-1.7-0.4c-0.6-0.2-1.4,0.1-1.4,0.8c-0.1,0.5,0.1,1-0.1,1.6c0,0.5-0.2,1-0.4,1.5 c-0.1,0.6,0.1,1.3-0.1,1.8c-0.1,0.6-0.6,1.1-0.7,1.6c-0.2,0.5-0.3,1-0.5,1.7c-0.3,0.8-0.3,0.8-0.6,1.6c-0.3,0.8-0.1,0.9-0.3,1.6 c-0.3,0.9-0.4,0.8-0.7,1.7c-0.3,0.8-0.1,0.8-0.4,1.6c-0.3,0.9-0.5,0.8-0.8,1.6c-0.3,0.9-0.2,0.9-0.5,1.7c-0.3,0.9,0,0.9-0.3,1.7 c-0.3,0.8-0.3,0.8-0.6,1.6c-0.3,0.9-0.5,0.9-0.8,1.6l-0.5,1.6c-0.3,0.8-0.2,0.8-0.5,1.7c-0.3,0.9-0.3,0.8-0.6,1.7l-0.5,1.6 c-0.3,0.8,0,0.9-0.3,1.7c-0.3,0.9-0.4,0.9-0.6,1.7l-0.5,1.6c-0.3,0.9-0.4,0.8-0.7,1.6l-0.6,1.7c-0.3,0.9-0.1,0.9-0.3,1.7 c-0.3,0.9-0.5,0.8-0.8,1.6l-0.5,1.6c-0.2,0.5-0.4,1.1-0.6,1.6c-0.2,0.6-0.3,1.1-0.4,1.6c-0.3,0.6-0.6,1-0.8,1.5 c-0.2,0.5-0.3,1.1-0.5,1.6c-0.3,0.5-0.6,1-0.9,1.3c-0.4,0.5,0.1,1.6,0.8,1.7c0.5,0.1,1.1,0.1,1.7,0.3c0.5,0.1,1.1,0.3,1.6,0.4 c0.6,0.2,1.1,0.5,1.5,0.6c0.5,0.3,1.1,0.3,1.6,0.5c0.5,0.3,0.9,0.7,1.4,0.9c0.5,0.2,1.1,0.4,1.6,0.6c0.4,0.3,0.9,0.6,1.4,0.8 c0.6,0.2,1,0.2,1.7,0.4l1.6,0.5c0.5,0.1,1.1,0.1,1.7,0.2c0.6,0,1.1,0.1,1.7,0.1c0.6,0.1,1.2,0.1,1.8,0.1c0.5-0.1,1.1-0.4,1.7-0.5 c0.5-0.1,1.1-0.4,1.7-0.5c0.4-0.2,1.1-0.1,1.7-0.3c0.5-0.4,0.9-0.7,1.4-1.1c0.4-0.2,0.9-0.7,1.3-1c0.5-0.4,0.9-0.7,1.3-1.1 c0.4-0.4,0.9-0.8,1.3-1.2c0.4-0.4,0.8-0.8,1.2-1.2c0.4-0.4,1-0.7,1.4-1.1c0.3-0.5,0.4-1.2,0.8-1.6c0.3-0.6,0.8-0.9,1.1-1.4 c0.3-0.5,0.6-1,0.9-1.5c0.2-0.5,0.4-1,0.7-1.5c0.3-0.6,0.4-1.1,0.6-1.6c0.2-0.5,0.7-1,1-1.5l0.6-1.7c0.2-0.5,0.6-1,0.7-1.6l0.5-1.6 c0.2-0.5,0.4-1.2,0.6-1.7c0.2-0.5,0.2-1.1,0.4-1.7c0.1-0.5,0.1-1.1,0.3-1.7c0.2-0.6,0.3-1.1,0.3-1.7c0.1-0.6,0-1.2,0-1.8 c0.1-0.5,0.4-1.2,0.5-1.7c0-0.6-0.3-1.2-0.2-1.7C334.2,623.9,334.3,623.3,334.3,622.7z M325.6,625.1c-0.1,0.5-0.3,1-0.5,1.7 c-0.1,0.5,0.1,1.1,0.1,1.7c-0.2,0.5-0.5,1.1-0.5,1.6c-0.2,0.5-0.3,1-0.5,1.7c-0.2,0.5-0.5,1-0.7,1.6c-0.2,0.5-0.1,1.1-0.2,1.6 c-0.2,0.7-0.4,1-0.7,1.6c-0.2,0.5-0.5,1-0.7,1.6c-0.2,0.5-0.5,1-0.6,1.5c-0.3,0.6-0.4,1.1-0.6,1.6c-0.3,0.6-0.6,1-0.9,1.5 c-0.3,0.5-0.5,1-0.8,1.4c-0.3,0.5-0.7,0.9-1.1,1.3c-0.4,0.5-0.5,1.1-0.8,1.6c-0.4,0.4-0.9,0.7-1.3,1.1c-0.4,0.4-0.7,0.9-1.2,1.2 c-0.4,0.4-1,0.5-1.4,0.8c-0.5,0.3-1.1,0.3-1.7,0.5c-0.6,0.2-1,0.3-1.6,0.3c-0.5,0.1-1.1,0-1.7,0c-0.5-0.1-1.1,0-1.6-0.2 c-0.6-0.2-1.1-0.4-1.5-0.6c-0.5-0.2-1-0.5-1.4-0.8c-0.4-0.3-0.5-0.8-0.4-1.2c0.3-0.9,0.3-0.8,0.6-1.6l2.1-6.4 c0.2-0.7,0.2-0.7,0.4-1.5l0.5-1.6c0.3-0.8,0.1-0.9,0.3-1.7c0.2-0.7,0.4-0.7,0.7-1.4c0.3-0.9,0.3-0.8,0.6-1.6 c0.3-0.9,0.1-0.9,0.3-1.7c0.3-0.8,0.2-0.8,0.4-1.5c0.3-0.9,0.5-0.8,0.7-1.6c0.3-0.9,0.1-0.9,0.4-1.7c0.3-0.8,0.5-0.7,0.7-1.6 l0.5-1.5c0.3-0.9,0.1-0.9,0.3-1.7c0.3-0.8,0.2-0.8,0.5-1.7c0.2-0.7,0.5-0.6,0.8-1.4c0.3-0.9,0.2-0.9,0.5-1.7 c0.3-0.8,0.3-0.8,0.6-1.6c0.3-0.8,0.2-0.8,0.4-1.5l0.5-1.6c0.3-0.8,0.1-0.8,0.4-1.7c0.2-0.5,0.7-0.6,1.2-0.5 c0.6,0.2,0.7-0.1,1.2,0.1c0.5,0.1,0.9,0.5,1.5,0.9c0.4,0.3,1,0.3,1.4,0.7c0.5,0.4,0.8,0.8,1.3,1.3c0.4,0.3,0.7,0.9,1,1.3 c0.3,0.5,0.5,1,0.7,1.6c0.2,0.5,0.5,1,0.8,1.6c0.1,0.5,0.3,1,0.3,1.6c0.1,0.5,0.2,1,0.3,1.7c0,0.5,0.1,1.1,0,1.7 c0,0.5,0.3,1.1,0.2,1.7C325.8,623.9,325.7,624.5,325.6,625.1z"></path> <path d="M376.7,621.4c0.1-0.5,0.4-0.9,0.5-1.3c0.2-0.5-0.1-1.2-0.7-1.4c-0.9-0.2-1-0.2-1.8-0.3l-1.9-0.4c-0.8-0.2-0.8-0.1-1.8-0.3 c-0.9-0.2-1,0-1.8-0.2c-0.9-0.2-0.9-0.5-1.8-0.7l-1.7-0.4c-0.5-0.1-1.1,0.3-1.2,0.9c-0.1,0.4-0.3,0.9-0.4,1.4 c-0.1,0.5-0.1,1.2-0.3,1.8c-0.1,0.6-0.6,1.1-0.8,1.7c-0.3,0.6-0.3,1.1-0.6,1.8l-0.8,1.5c-0.4,0.8-0.1,1-0.5,1.8 c-0.4,0.7-0.6,0.6-1,1.3c-0.4,0.8-0.3,0.8-0.6,1.5c-0.4,0.8-0.5,0.8-0.9,1.5c-0.4,0.8-0.2,1-0.5,1.6c-0.5,0.7-0.5,0.7-0.9,1.5 c-0.4,0.7-0.3,0.9-0.7,1.5c-0.4,0.8-0.5,0.7-0.9,1.4c-0.5,0.8-0.5,0.8-0.9,1.6c-0.4,0.8-0.1,0.8-0.5,1.7c-0.4,0.8-0.4,0.8-0.8,1.4 c-0.4,0.8-0.7,0.8-1.1,1.5c-0.3,0.8-0.3,0.8-0.6,1.5c-0.4,0.8-0.3,0.9-0.7,1.6c-0.5,0.8-0.5,0.7-0.9,1.5c-0.4,0.8-0.4,0.8-0.8,1.6 c-0.3,0.7-0.1,0.8-0.5,1.6c-0.4,0.7-0.4,0.7-0.8,1.5c-0.4,0.8-0.5,0.7-0.8,1.4c-0.4,0.8-0.5,0.8-0.9,1.6c-0.3,0.8-0.3,0.8-0.7,1.5 c-0.4,0.8-0.2,0.9-0.6,1.6c-0.3,0.5-0.7,1-0.9,1.5c-0.3,0.5-0.5,1-0.8,1.4c-0.4,0.6-0.7,1-0.9,1.5c-0.3,0.5-0.6,1.1-1,1.5 c-0.3,0.5-0.8,0.9-1.1,1.3c-0.4,0.5-0.1,1.4,0.7,1.6c0.9,0.2,0.8,0.4,1.6,0.6l1.7,0.4c0.9,0.2,0.9,0,1.7,0.2l1.7,0.4 c0.8,0.2,0.8,0.4,1.6,0.6c0.6,0.1,1.2-0.4,1.2-1c0.1-0.3,0.3-0.8,0.5-1.4c0.1-0.5,0.2-1,0.3-1.7c0.2-0.5,0.5-1,0.7-1.7 c0.2-0.5,0.3-1.1,0.6-1.7c0.2-0.5,0.5-0.9,0.7-1.6c0.4-0.7,0.2-0.7,0.5-1.4c0.4-0.7,0.4-0.6,0.7-1.3c0.2-0.4,0.6-0.5,1-0.4 c0.7,0.2,0.8-0.1,1.7,0.1l1.5,0.4c0.9,0.2,0.8,0.5,1.5,0.6c0.8,0.2,0.9,0,1.7,0.2c0.7,0.2,0.8,0.1,1.6,0.3c0.7,0.2,0.8,0,1.6,0.2 l1.6,0.4c0.5,0.1,0.9,0.7,0.8,1.2c0,0.8-0.3,0.8-0.4,1.5c0,0.7,0.3,0.8,0.3,1.6c0,0.6-0.3,1.2-0.3,1.8c-0.1,0.6-0.1,1.2-0.1,1.7 c-0.1,0.7,0,1.3-0.1,1.8c0,0.7-0.1,1.3-0.2,1.7c-0.2,0.7-0.5,1.1-0.6,1.4c-0.3,0.5,0.2,1.2,0.8,1.4c0.9,0.2,0.8,0.3,1.6,0.5 l3.4,0.8c0.8,0.2,0.8,0.1,1.7,0.3l1.7,0.4c0.7,0.2,1.5-0.5,1.4-1.2c-0.2-0.5-0.4-1.1-0.5-1.7c0-0.6,0.2-1.2,0.1-1.8 c0-0.5-0.4-1.1-0.4-1.7c-0.1-0.6,0.1-1.2,0-1.8c0.1-0.6,0-1.2,0.1-1.8c0-0.9-0.2-0.8-0.2-1.7c0-0.9,0-0.9,0-1.8s0-0.9,0-1.6 c0-0.9,0.2-0.9,0.2-1.7c-0.1-0.9-0.2-1-0.2-1.7c0-0.9,0.1-0.8,0.1-1.7c0.1-0.9,0.1-0.9,0.1-1.8c0-0.9,0.1-0.9,0.1-1.7 c0-0.9-0.3-0.9-0.3-1.7c0-0.9,0-0.9,0.1-1.8c0-0.9,0.3-0.8,0.3-1.7c0-0.9-0.4-0.9-0.4-1.7c0-0.9,0.2-0.9,0.2-1.7c0-0.8,0-0.8,0-1.6 c-0.1-0.9,0.2-0.9,0.2-1.7c-0.1-0.9-0.4-0.9-0.4-1.8c0-0.9,0.1-0.8,0.1-1.7c0-0.8,0.1-0.9,0.1-1.7c0-0.9,0-0.9,0-1.8 c0.1-0.8-0.2-0.8-0.2-1.7c0-0.9,0.1-0.8,0.1-1.7c0-0.9-0.1-0.8-0.1-1.7c0.1-0.7,0.3-1.3,0.2-1.9c0.1-0.6-0.1-1.2-0.1-1.8 c0.1-0.6,0.2-1.3,0.3-1.8C376.6,622.5,376.6,621.9,376.7,621.4z M368.2,641.4c-0.1,0.9-0.1,0.9-0.1,1.7c0,0.9,0.1,0.9,0.1,1.8 c-0.1,0.8-0.1,0.8-0.1,1.7c0,0.8,0.1,0.8,0.1,1.7c-0.1,0.9-0.3,0.8-0.3,1.7c0,0.9,0.3,0.9,0.3,1.7c-0.1,0.7-0.8,1.3-1.5,1.1 l-1.8-0.4c-0.9-0.2-0.9-0.3-1.9-0.5c-0.9-0.2-0.9-0.4-1.8-0.6c-0.9-0.2-0.9-0.3-1.9-0.5c-0.7-0.2-0.8-0.6-0.6-1.2 c0.3-0.8,0.3-0.9,0.7-1.6c0.3-0.8,0.5-0.7,0.7-1.6c0.4-0.7,0.4-0.8,0.6-1.5c0.4-0.8,0.4-0.8,0.7-1.6c0.4-0.8,0.4-0.8,0.8-1.6 c0.4-0.8,0.2-0.8,0.6-1.6c0.3-0.8,0.5-0.7,0.9-1.5c0.3-0.8,0.4-0.7,0.9-1.5c0.3-0.8,0.2-0.9,0.5-1.6c0.4-0.8,0.3-0.8,0.6-1.6 c0.4-0.8,0.6-0.8,0.9-1.5c0.3-0.5,0.7-0.8,1.1-0.6c0.5,0.1,0.6,0.6,0.6,1.1c0,0.9,0,0.9,0,1.8c0,0.9,0.1,0.9,0.1,1.7 c0,0.8,0.1,0.8,0.1,1.7c-0.1,0.8-0.4,0.9-0.3,1.8C368.1,640.6,368.2,640.6,368.2,641.4z"></path> <path d="M436,629.9c-0.7-0.2-0.8,0.1-1.5-0.1c-0.7-0.1-0.6-0.3-1.4-0.4l-1.5-0.2c-0.7-0.1-0.8-0.1-1.4-0.2c-0.7-0.1-0.8,0-1.5-0.1 c-0.6-0.1-1.4,0.4-1.3,1c0,0.3,0.2,0.9,0.3,1.4c0,0.5-0.1,1-0.1,1.5c-0.1,0.4-0.2,0.9-0.2,1.4c-0.1,0.5,0.2,0.9,0.1,1.5l-0.2,1.3 c-0.1,0.5-0.1,1-0.2,1.4c-0.1,0.7-0.1,0.8-0.2,1.4c-0.1,0.7-0.2,0.7-0.3,1.4c-0.1,0.7-0.3,0.7-0.4,1.3c-0.1,0.7,0,0.7-0.1,1.5 l-0.2,1.3c-0.1,0.7,0,0.7-0.2,1.4c-0.1,0.7-0.3,0.6-0.4,1.3c-0.1,0.7,0,0.8-0.1,1.5c-0.1,0.7-0.2,0.7-0.4,1.4 c-0.1,0.6,0,0.6-0.1,1.3c-0.1,0.7,0,0.7-0.1,1.4c-0.1,0.6-0.2,0.6-0.3,1.3c-0.1,0.7-0.4,0.7-0.5,1.4c-0.1,0.6,0.1,0.6,0,1.3 c-0.1,0.5-0.6,0.9-1.1,0.9c-0.3,0-1-0.2-1.1-0.7l-0.3-1.3c-0.2-0.6-0.1-0.7-0.3-1.3c-0.2-0.7-0.1-0.7-0.3-1.4 c-0.1-0.7-0.1-0.7-0.3-1.3c-0.2-0.7,0-0.7-0.3-1.4c0-0.6-0.2-0.6-0.4-1.2l-0.3-1.3c-0.1-0.7-0.1-0.7-0.3-1.3 c-0.2-0.7-0.2-0.7-0.3-1.3c-0.2-0.7-0.1-0.7-0.3-1.4c-0.2-0.7-0.3-0.7-0.3-1.3c-0.2-0.7-0.4-0.7-0.6-1.3c-0.2-0.7,0.1-0.7-0.1-1.3 c-0.2-0.7-0.3-0.6-0.4-1.3c-0.2-0.7-0.3-0.6-0.5-1.3c-0.2-0.6,0.1-0.7-0.1-1.3c-0.2-0.7-0.4-0.7-0.6-1.3c-0.2-0.7-0.1-0.6-0.3-1.4 c-0.2-0.6,0-0.7-0.1-1.3c-0.1-0.6-0.4-0.6-0.6-1.3c-0.1-0.7,0-0.7-0.2-1.4c-0.2-0.6-0.1-0.7-0.3-1.3c-0.2-0.7-0.1-0.7-0.3-1.4 c-0.1-0.4-0.5-0.7-1-0.8c-0.7-0.1-0.7,0-1.3-0.1c-0.7-0.1-0.6-0.3-1.4-0.4c-0.7-0.1-0.7,0-1.3-0.1c-0.7-0.1-0.8,0.1-1.5,0 c-0.7-0.1-0.6-0.3-1.3-0.4c-0.7-0.1-1.5,0.5-1.4,1.2c0,0.5,0.3,0.9,0.3,1.4c-0.1,0.5,0,1,0,1.5c-0.1,0.4,0,0.9-0.1,1.4 c0,0.5-0.1,0.9-0.2,1.4c-0.1,0.3-0.3,0.8-0.4,1.3c-0.1,0.5,0.1,1,0,1.5c-0.1,0.6-0.2,0.6-0.4,1.3c-0.1,0.7-0.2,0.7-0.4,1.3 c-0.1,0.6,0.2,0.7,0.1,1.3c-0.1,0.7-0.2,0.7-0.3,1.3c-0.1,0.7-0.2,0.7-0.3,1.4c-0.1,0.7-0.2,0.7-0.3,1.3c-0.1,0.7,0.1,0.7,0,1.4 c-0.1,0.6,0,0.6-0.1,1.3c-0.1,0.8-0.2,0.7-0.3,1.4c-0.1,0.6,0,0.6-0.1,1.3c-0.1,0.6-0.4,0.6-0.5,1.2c-0.1,0.7,0.1,0.7,0,1.3 c-0.1,0.7-0.3,0.7-0.4,1.4l-0.4,2.7c-0.1,0.6,0,0.6-0.1,1.4l-0.2,1.4c-0.1,0.6,0,0.6-0.1,1.3l-0.2,1.3c-0.1,0.7-0.3,0.6-0.4,1.4 l-0.2,1.3c-0.1,0.7,0,0.7-0.1,1.3l-0.2,1.4c-0.1,0.8-0.3,0.7-0.4,1.3c-0.1,0.7,0.1,0.7,0,1.4c-0.1,0.6,0,0.6-0.1,1.3l-0.2,1.4 c-0.1,0.4-0.2,0.9-0.3,1.3c-0.1,0.5-0.2,0.9-0.4,1.3c-0.1,0.5,0,1.1-0.1,1.5c-0.1,0.5-0.5,0.9-0.6,1.4c-0.1,0.5-0.2,1-0.3,1.4 c-0.1,0.5-0.4,0.9-0.5,1.3c-0.3,0.6,0,1.3,0.8,1.4c0.6,0.1,0.6,0.2,1.3,0.4c0.8,0.1,0.8,0.1,1.5,0.2c0.7,0.1,0.8,0.1,1.4,0.2 c0.8,0.1,0.7,0.3,1.5,0.4l1.5,0.2c0.7,0.1,1.1-0.6,1-1.2c0-0.4,0.1-0.8,0.1-1.5c-0.1-0.4-0.1-0.9-0.2-1.4c0.1-0.4,0.4-0.9,0.4-1.4 c0-0.5-0.1-0.9,0-1.5c0.1-0.3,0.2-0.8,0.3-1.4c0-0.4-0.1-0.9,0-1.3c0.1-0.8,0.3-0.8,0.4-1.4c0.1-0.7,0-0.7,0.1-1.3 c0.1-0.7,0.2-0.7,0.4-1.3l0.2-1.3c0.1-0.7,0-0.7,0.1-1.3c0.1-0.7,0.2-0.7,0.4-1.3l0.2-1.3c0.1-0.6-0.1-0.6,0-1.3 c0.1-0.7,0.2-0.7,0.3-1.3c0.1-0.7,0.2-0.7,0.4-1.3c0.1-0.6-0.1-0.6,0-1.3c0.1-0.7,0.3-0.6,0.4-1.4c0.1-0.6,0.2-0.6,0.3-1.3 c0.1-0.7,0-0.7,0.1-1.3l0.2-1.4c0.1-0.6,0-0.6,0.1-1.3c0.1-0.6,0.2-0.6,0.3-1.3c0.1-0.5,0.5-0.8,0.9-0.8c0.5,0.1,0.9,0.3,1,0.7 l0.4,1.3c0.2,0.7,0.2,0.7,0.3,1.4c0.2,0.6,0.2,0.6,0.3,1.3c0.2,0.7,0.2,0.7,0.3,1.4c0.2,0.7,0.1,0.6,0.2,1.4 c0.2,0.7,0.4,0.6,0.5,1.3c0.2,0.6,0.1,0.7,0.1,1.3c0.2,0.7,0.3,0.7,0.5,1.3c0.2,0.7,0.1,0.7,0.3,1.4c0.2,0.7,0.2,0.7,0.3,1.3 c0.2,0.7,0.1,0.8,0.3,1.4c0.2,0.7,0.4,0.6,0.5,1.3c0.2,0.7,0.2,0.7,0.4,1.2c0.2,0.7,0.2,0.7,0.4,1.5c0.2,0.7,0,0.6,0.1,1.3 c0.2,0.7,0.2,0.7,0.3,1.4c0.1,0.7,0.3,0.7,0.4,1.3c0.2,0.7,0,0.7,0.3,1.4c0.1,0.4,0.4,0.8,0.4,1.2c0.1,0.4,0,0.8,0,1.3 c0,0.5,0.1,0.9,0.3,1.3c0,0.4,0.1,0.9,0.1,1.3c-0.1,0.5-0.1,0.8-0.1,1.2c0.1,0.5-0.1,0.9-0.2,1.3c0.1,0.5,0,0.8-0.1,1.2 c-0.1,0.5,0.4,1.2,0.9,1.3c0.7,0.1,0.8,0,1.5,0.1l1.4,0.2c0.8,0.1,0.7,0.3,1.5,0.4c0.8,0.1,0.8,0,1.5,0.1c0.7,0.1,0.7,0.2,1.5,0.3 c0.6,0.1,1.1-0.5,1-1.1c0-0.5,0.2-1,0.2-1.4c-0.1-0.4,0-0.9,0-1.4c0.1-0.5-0.1-1,0-1.5c0-0.5,0.1-0.8,0.2-1.4 c-0.1-0.4,0.2-0.8,0.3-1.3c0-0.4,0.1-0.9,0.1-1.3c0.1-0.8,0.3-0.8,0.4-1.4c0.1-0.7,0-0.7,0.1-1.3l0.2-1.4c0.1-0.6-0.1-0.6,0-1.4 c0.1-0.7,0.2-0.7,0.3-1.4l0.4-2.6c0.1-0.7,0.3-0.6,0.4-1.4c0.1-0.7-0.1-0.7,0-1.3c0.1-0.7,0.2-0.7,0.3-1.3c0.1-0.7,0-0.7,0.1-1.4 c0.1-0.7,0.3-0.7,0.4-1.3c0.1-0.7,0-0.7,0.2-1.4c0.1-0.6,0.2-0.6,0.3-1.3c0.1-0.7,0-0.7,0.1-1.3l0.2-1.4c0.1-0.7,0-0.7,0.1-1.3 c0.1-0.7,0.2-0.7,0.3-1.3c0.1-0.7,0.2-0.7,0.3-1.4c0.1-0.7,0-0.7,0.1-1.3c0.1-0.7,0.2-0.7,0.4-1.3l0.2-1.3c0.1-0.7-0.2-0.8-0.1-1.5 c0.1-0.6,0.4-0.6,0.5-1.2l0.4-2.7c0.1-0.7,0.1-0.8,0.2-1.4c0.1-0.5,0.3-0.9,0.4-1.4c0.1-0.5,0-1,0.1-1.3c0.1-0.5,0.2-0.9,0.3-1.4 c0.1-0.5,0.2-0.9,0.2-1.4c0.1-0.5,0.5-0.9,0.7-1.3c0.2-0.5,0.2-0.9,0.5-1.3C437.1,630.8,436.6,630,436,629.9z"></path> <path d="M479.7,671.6c0-0.4-0.2-0.9-0.3-1.4c0-0.4,0-0.9-0.2-1.3c-0.2-0.5-0.4-0.9-0.6-1.3c-0.1-0.5-0.4-0.9-0.6-1.3 c-0.1-0.4-0.2-0.9-0.4-1.3c-0.2-0.4-0.7-0.6-0.9-1.1c-0.2-0.3-0.5-0.7-0.8-1.1c-0.2-0.3-0.5-0.7-0.9-1.1c-0.2-0.3-0.5-0.8-0.7-1.1 c-0.4-0.3-0.9-0.4-1.2-0.7c-0.4-0.3-0.5-1-0.9-1.1c-0.4-0.3-0.7-0.6-1.1-0.9c-0.5-0.3-0.7-0.7-1-0.9c-0.4-0.3-0.8-0.5-1.2-0.8 c-0.5-0.3-0.8-0.4-1.2-0.7c-0.4-0.3-0.7-0.6-1.1-0.8c-0.3-0.3-0.7-0.8-1-0.9c-0.4-0.3-0.7-0.6-1.1-0.8c-0.3-0.3-0.7-0.8-0.9-1.1 c-0.4-0.3-0.6-0.7-0.9-1c-0.2-0.4-0.5-0.7-0.8-1.2c-0.2-0.4-0.6-0.7-0.7-1.1c-0.2-0.5-0.1-1-0.3-1.3c0-0.5,0.1-1,0.2-1.4 c0-0.3,0.1-0.8,0.3-1.2c0.1-0.3,0.1-0.8,0.3-1.2c0.2-0.3,0.6-0.6,0.9-0.9c0.3-0.2,0.5-0.6,0.9-0.8c0.4-0.3,0.8-0.3,1.2-0.5 c0.4-0.1,0.7-0.4,1.2-0.5c0.4-0.1,0.8-0.1,1.3-0.1c0.4,0,0.9-0.1,1.4-0.1c0.5,0.1,0.9,0.1,1.4,0.3c0.5,0.1,0.9,0.2,1.3,0.4 c0.4,0.1,0.8,0.6,1.1,0.7c0.5,0.3,1.1,0.3,1.4,0.4c0.4,0.4,0.6,0.8,0.9,1.2c0.4,0.3,0.9,0.4,1.2,0.8c0.4,0.3,0.4,0.9,0.8,1.3 c0.2,0.3,0.8,0.5,1.2,0.3c0.3-0.1,0.4-0.5,0.5-1c0.1-0.7,0.1-0.7,0.2-1.4c0.1-0.6,0.4-0.6,0.5-1.3c0.1-0.7-0.3-0.7-0.2-1.4 c0.1-0.8,0.4-0.7,0.5-1.3c0.1-0.7-0.3-0.7-0.2-1.5c0.1-0.6,0.4-0.6,0.5-1.3c0.1-0.7-0.6-1.1-1.3-1.1c-0.3,0-0.7-0.3-1-0.3 c-0.5-0.1-0.8,0-1.3-0.1c-0.4-0.1-0.9-0.1-1.3-0.3c-0.4-0.2-0.7-0.4-1.2-0.5c-0.4-0.1-0.7-0.3-1.2-0.4c-0.5-0.1-0.9-0.2-1.4-0.4 c-0.3-0.1-0.8-0.2-1.3-0.2c-0.3-0.2-0.8-0.2-1.3-0.3c-0.5-0.1-0.9,0.1-1.3,0.1c-0.5-0.1-0.9-0.3-1.4-0.2c-0.4,0-0.8,0.2-1.3,0.2 c-0.5,0.1-0.9,0.3-1.4,0.5c-0.4,0-1,0-1.4,0.1c-0.4,0.1-0.7,0.5-1.1,0.7c-0.5,0.2-0.9,0.2-1.4,0.4c-0.4,0.2-0.6,0.6-1.1,0.9 c-0.3,0.4-0.6,0.7-0.9,0.9c-0.5,0.4-0.6,0.7-0.9,1.1c-0.3,0.3-0.8,0.5-1.1,0.9c-0.3,0.4-0.4,0.8-0.5,1.3c-0.2,0.4-0.6,0.7-0.7,1.2 s-0.2,0.9-0.4,1.3c-0.1,0.5-0.2,1-0.4,1.4c0,0.4,0,0.9,0,1.3c-0.1,0.5,0,1-0.1,1.4c-0.1,0.5-0.2,0.9-0.2,1.4c0,0.5,0.1,1,0.2,1.4 c0.1,0.5,0.1,0.9,0.3,1.3c0,0.5,0.3,0.9,0.5,1.3c0.2,0.5,0.3,0.9,0.5,1.3c0.1,0.4,0.3,0.9,0.5,1.3c0.2,0.4,0.8,0.6,1.1,0.9 c0.2,0.4,0.5,0.8,0.8,1.1c0.2,0.3,0.5,0.7,0.8,1.1c0.4,0.3,0.7,0.6,1,0.9c0.3,0.3,0.5,0.8,0.9,1.2c0.3,0.3,0.8,0.4,1.2,0.7 c0.3,0.3,0.8,0.6,1.2,0.9c0.3,0.2,0.7,0.6,1,0.7c0.4,0.4,0.6,0.8,0.9,1.1c0.4,0.3,0.7,0.6,1.1,0.9c0.3,0.3,0.9,0.4,1.2,0.7 c0.4,0.4,0.7,0.7,1.1,1c0.3,0.3,0.6,0.6,0.9,0.9c0.3,0.3,0.5,0.8,0.8,1.1c0.4,0.5,0.6,0.8,0.8,1.1c0.2,0.4,0.5,0.8,0.8,1.1 c0.2,0.4,0.5,0.8,0.6,1.3c0.1,0.4,0.3,0.8,0.4,1.3c0,0.4,0.2,0.9,0.3,1.4c0,0.4-0.3,0.9-0.4,1.4c-0.1,0.5-0.2,0.9-0.2,1.3 c-0.2,0.5-0.2,0.9-0.4,1.3c-0.3,0.5-0.4,0.9-0.8,1.2c-0.2,0.3-0.4,0.8-0.8,1.2c-0.4,0.2-0.8,0.4-1.2,0.6c-0.4,0.2-0.8,0.6-1.2,0.7 c-0.5,0.2-0.9,0.3-1.4,0.3c-0.5,0.2-0.9,0.1-1.4,0.1c-0.5,0.1-1-0.1-1.4-0.2l-1.3-0.1c-0.5-0.1-1-0.1-1.4-0.3 c-0.4-0.2-0.8-0.5-1.2-0.6c-0.3-0.2-0.8-0.4-1.2-0.7c-0.5-0.2-0.7-0.5-1-0.9c-0.4-0.2-0.7-0.6-0.9-0.9c-0.4-0.3-0.7-0.6-1-0.9 c-0.3-0.4-0.7-0.7-0.9-1c-0.2-0.4-0.4-0.9-0.6-1.2c-0.2-0.4-0.8-0.7-0.9-1.1c-0.2-0.4-0.6-0.8-1-0.6c-0.4,0-0.7,0.4-0.8,0.9 l-0.1,1.4c-0.1,0.7-0.1,0.7-0.2,1.4c-0.1,0.6-0.1,0.6-0.2,1.3c-0.1,0.7,0.2,0.7,0.1,1.3c-0.1,0.7-0.3,0.7-0.3,1.3 c-0.1,0.8,0.1,0.8,0.1,1.4c0,0.3-0.2,0.6,0.1,0.8c0.3,0.3,0.7,0.6,1,0.9c0.3,0.3,0.8,0.6,1.1,0.9c0.4,0.3,0.6,0.5,1.1,0.9 c0.4,0.3,0.6,0.7,0.9,1c0.5,0.2,0.9,0.4,1.2,0.7c0.4,0.1,0.7,0.4,1.2,0.6c0.5,0.1,0.9,0.3,1.3,0.4c0.5,0.1,0.9,0.3,1.4,0.4 c0.4,0.1,0.9,0.1,1.4,0.2c0.4,0,0.9-0.1,1.4-0.1c0.5,0.1,0.9,0.2,1.4,0.1c0.4,0,0.9,0.3,1.3,0.3c0.5,0,0.9-0.3,1.4-0.3 c0.4,0,0.8,0,1.3-0.1c0.4-0.1,0.9,0,1.3-0.2c0.5-0.2,0.9-0.2,1.4-0.3c0.4-0.2,0.7-0.6,1.1-0.7c0.4-0.2,0.8-0.4,1.2-0.6 c0.4-0.2,0.8-0.5,1.1-0.7c0.4-0.2,0.8-0.6,1.1-0.9c0.3-0.2,0.6-0.6,1-0.9c0.3-0.2,0.7-0.6,1-0.9c0.3-0.4,0.4-0.8,0.6-1.2 c0.2-0.3,0.5-0.7,0.7-1.2c0.2-0.3,0.6-0.7,0.7-1.2c0.2-0.3,0.4-0.7,0.6-1.2c0.1-0.3,0.1-0.8,0.2-1.3c0.1-0.5,0.2-0.8,0.2-1.3 c0.1-0.5,0.4-0.9,0.5-1.3l0.1-1.4c0.1-0.5-0.1-0.9-0.2-1.3C479.5,672.6,479.8,672.1,479.7,671.6z"></path> <path d="M551.6,687.7c-0.5,0.1-1,0.2-1.7,0.2c-0.6,0.1-1.1,0.2-1.7,0.2c-0.5,0-1.1-0.2-1.8-0.2c-0.5,0-1,0-1.7,0.1 c-0.4,0-1-0.1-1.7-0.1c-0.6,0-1.2-0.1-1.9-0.3c-0.5,0-1.2,0.2-1.9,0.1c-0.7-0.1-1.2-0.1-1.9-0.3c-0.7-0.1-1.3-0.1-1.9-0.1 c-0.4,0-0.5-0.7-0.5-1.2c0-0.8-0.2-0.8-0.2-1.7c0-0.8,0.1-0.8,0.1-1.6c0-0.9-0.2-0.9-0.2-1.7c0-0.8,0.2-0.8,0.2-1.7 c0-0.8,0.1-0.8,0.1-1.7c0-0.8,0-0.8,0-1.7c0-0.9,0.1-0.9,0.1-1.7l0.1-3.4c0-0.8,0.1-0.8,0.1-1.7l0.1-1.7c0-0.9,0-0.9,0-1.7l0.1-1.7 c0-0.8,0-0.8,0-1.7c0-0.8,0.3-0.8,0.3-1.7l0.1-1.7c0-0.9-0.1-0.9-0.1-1.7c0-0.9-0.1-0.9-0.1-1.7c0-0.8,0.2-0.8,0.2-1.7 c0-0.8,0.2-0.8,0.2-1.7c0-0.8-0.2-0.8-0.2-1.7c0-0.9,0.2-0.9,0.2-1.7c0-0.5,0-1.2,0.1-1.7c0-0.5,0.2-1.1,0.2-1.6 c0.1-0.7,0.1-1.2,0.3-1.7c0-0.7,0.2-1.2,0.3-1.7c0.1-0.5,0.1-1.1,0.2-1.6c0.2-0.7-0.2-1.4-0.8-1.4l-1.7-0.1c-0.8,0-0.8-0.1-1.6-0.1 c-0.8,0-0.8,0.3-1.7,0.3c-0.8,0-0.7-0.4-1.6-0.5c-0.8,0-0.8,0.3-1.7,0.3c-0.5,0-1.1,0.4-0.9,1.1c0.1,0.5,0.4,0.9,0.5,1.6 c0.1,0.5-0.1,1-0.1,1.7c0.1,0.5,0,1,0,1.7c0,0.5,0.2,1,0.2,1.6l-0.1,3.5c0,0.8,0.1,0.8,0.1,1.7c0,0.8-0.3,0.8-0.3,1.7 c0,0.8-0.2,0.8-0.2,1.8c0,0.8,0.1,0.8,0.1,1.7c0,0.8-0.2,0.8-0.2,1.6c0,0.9,0.1,0.9,0.1,1.9c0,0.8,0,0.8,0,1.7l-0.1,1.7 c0,0.8,0.2,0.8,0.1,1.8c0,0.9-0.3,0.9-0.3,1.7c0,0.8,0.2,0.8,0.2,1.7l-0.1,1.7c0,0.9-0.4,0.9-0.5,1.8l-0.1,1.7 c0,0.8,0.4,0.8,0.3,1.7c0,1-0.2,1-0.2,1.9c0,0.8-0.2,0.8-0.2,1.6c0,0.9,0,0.9,0,1.7c0,1,0,1-0.1,1.8c0,0.9-0.2,0.9-0.2,1.7 c0,0.6,0.1,1.2,0.1,1.7c0,0.5,0.1,1.1,0.1,1.7c0,0.6,0,1.2-0.1,1.6c-0.1,0.5-0.5,1.1-0.6,1.6c-0.2,0.5,0,1.2-0.1,1.7 c-0.2,0.7,0.2,1.2,0.9,1.1c0.5-0.1,1.1-0.3,1.8-0.3c0.6-0.1,1.1,0.1,1.8,0.1c0.5,0,1.1,0,1.7,0c0.5,0,1,0.4,1.6,0.5 c0.5,0,1.2-0.2,1.7-0.1c0.5,0.1,1.1,0,1.7,0.1c0.5,0.1,1.1,0.2,1.7,0.3c0.4,0,1,0.2,1.6,0.3c0.5,0,1.1,0.4,1.7,0.4 c0.5,0.1,1.1,0.1,1.7,0.1c0.4,0,1-0.2,1.6-0.2c0.5,0,1,0.1,1.6,0.1c0.5,0,1.1,0,1.5,0c0.6-0.1,1.1,0.1,1.7,0.1 c0.5-0.1,1-0.6,1.4-0.7c0.4-0.1,0.9-0.2,0.9-0.6c0.2-0.9,0-1,0.1-1.9c0.2-1,0.2-1,0.3-1.9c0.2-1,0.2-1,0.3-1.9 C552.7,687.9,552.3,687.5,551.6,687.7z"></path> <path d="M597.5,643.9c-0.1-0.8-0.2-0.8-0.3-1.4c-0.1-0.8-0.3-0.8-0.5-1.5c-0.1-0.5-0.3-1-0.8-1c-0.9,0-0.9,0.1-1.7,0.1l-1.7,0 c-0.8,0-0.8,0.3-1.8,0.3c-0.8,0-0.8-0.3-1.7-0.3c-0.8,0-0.8,0.1-1.7,0.1l-1.8,0c-0.8,0-0.8-0.1-1.7-0.1c-0.8,0-0.8,0.1-1.7,0.1 c-1,0-1-0.1-1.9-0.1c-0.8,0-0.8,0.3-1.7,0.3l-1.7,0c-1,0-1-0.2-1.8-0.2c-0.9,0-0.9-0.1-1.7-0.2c-0.8,0-0.8,0.1-1.8,0.1 c-0.7,0-1,0.7-0.9,1.3c0.2,0.5,0.3,1,0.4,1.7c0.1,0.5,0,1,0.1,1.6c0,0.6-0.1,1.2-0.1,1.7c0.1,0.6,0.2,1.2,0.2,1.7 c0.1,0.6-0.1,1-0.2,1.7c0,0.8,0.4,0.8,0.4,1.7l0,1.7c0,0.9-0.3,0.9-0.3,1.9c0,0.8,0.1,0.8,0.1,1.7c0,0.9-0.1,0.9-0.2,1.7 c0,0.9,0.1,0.9,0.1,1.8c0,0.9-0.3,0.9-0.3,1.7c0,0.9,0.1,0.9,0.1,1.7c0,0.8-0.1,0.8-0.2,1.8c0,0.8,0.1,0.8,0.1,1.7l0,1.7 c0,0.8,0.1,0.8,0.1,1.8c0,0.8-0.1,0.8-0.1,1.7c0,0.8,0.3,0.8,0.3,1.7l0,1.9c0,0.8-0.3,0.8-0.3,1.7l0,1.7c0,0.9,0.1,0.9,0.1,1.7 c0,1,0.2,1,0.2,1.8c0,0.9-0.2,0.9-0.2,1.7c0,0.8,0.1,0.8,0.1,1.7c0,0.6-0.1,1.1-0.2,1.7c0,0.4,0.3,1,0.3,1.6 c-0.1,0.5-0.2,1-0.2,1.6c-0.1,0.6-0.2,1.1-0.3,1.7c-0.1,0.5-0.1,1.1-0.3,1.6c-0.1,0.7,0.3,1.5,1.1,1.5c0.6-0.1,1.2-0.4,1.7-0.5 c0.5,0,1.2-0.2,1.7-0.2c0.6,0,1.1,0.3,1.7,0.4l1.7,0c0.6,0.1,1.1,0.1,1.6,0.3c0.5,0,1.1-0.2,1.7-0.1c0.5,0,1.1,0.2,1.7,0.2 c0.6,0.1,1.2,0.3,1.7,0.3c0.5,0.1,1,0.1,1.7,0.2c0.5,0,1.1-0.3,1.7-0.2l3.2,0c0.5,0,1,0.1,1.5,0c0.6,0,1-0.1,1.5-0.1 c0.6-0.1,1-0.3,1.5-0.4c0.5-0.1,1-0.4,1-0.8c0.2-1,0-1,0.2-1.9c0.1-1-0.1-1,0-1.9c0.2-0.8,0.4-0.8,0.5-1.8c0.1-0.8-0.7-1.3-1.4-1.2 c-0.5,0.2-1,0.3-1.6,0.4c-0.6,0.1-1.2,0.1-1.7,0.2c-0.5,0-1.2-0.2-1.7,0c-0.5,0-1,0.1-1.7,0.1l-1.6,0c-0.7,0-1.2,0.1-1.9,0.1 c-0.6,0-1.2-0.2-1.9-0.2c-0.5-0.1-1.2-0.2-1.9-0.2c-0.5-0.1-1.2-0.3-1.8-0.4c-0.5-0.1-0.8-0.4-0.8-0.9c0-0.9-0.3-0.9-0.3-1.9 c0-0.8,0.3-0.8,0.4-1.8c0-0.8-0.1-0.8-0.1-1.8c0-0.8-0.1-0.8-0.1-1.8c0-0.9,0.1-0.9,0.2-1.8c0-0.9,0.1-0.9,0.1-1.8 c0-0.9-0.3-0.9-0.3-1.9c0-0.8,0.1-0.8,0.1-1.8c0-0.8,0.1-0.8,0.1-1.8c0-0.6,0.5-1.2,1-1.2c0.9,0,0.9,0.1,1.7,0.1 c0.8,0,0.8,0.3,1.6,0.4c0.6,0,1.2-0.3,1.7-0.3c0.5,0,1,0.4,1.5,0.4c0.6,0,1,0.1,1.5,0.2c0.6,0.1,1,0.1,1.6,0.3 c0.5,0.1,1,0.1,1.5,0.2c0.6,0.1,1.4-0.2,1.5-0.9c0.2-0.8,0-0.8,0.2-1.7c0.1-0.9,0.3-0.8,0.6-1.6c0.1-0.9-0.1-1,0.1-1.9 c0.2-0.8,0-0.8,0.2-1.7c0.2-0.8-0.3-1.2-1.1-1c-0.5,0.1-1.1,0.1-1.7,0.1c-0.5,0.1-1,0.2-1.5,0.2c-0.5,0.1-1-0.1-1.6,0 c-0.5,0-1,0.4-1.5,0.4c-0.6,0.1-1.1-0.1-1.5-0.1c-0.8,0-0.8,0.2-1.5,0.2c-0.8,0-0.8-0.2-1.5-0.2c-0.8,0-0.8,0.1-1.6,0.1 c-0.5,0-0.9-0.6-0.9-1.2l0-1.7c0-0.8,0.1-0.8,0.1-1.6c0-0.9-0.3-0.9-0.3-1.7c0-0.8,0.3-0.8,0.3-1.6c0-0.9-0.4-0.9-0.4-1.7 c0-0.8,0.5-0.8,0.5-1.6c0-0.8-0.1-0.8-0.1-1.7c0-0.8-0.3-0.8-0.3-1.7c0-0.5,0.6-1.3,1.2-1.3c0.9,0,0.9,0.3,1.6,0.3 c0.8,0,0.8,0.1,1.7,0.1c0.8,0,0.8,0.1,1.6,0.2c0.9,0,0.9-0.2,1.7-0.3c0.8,0,0.8-0.1,1.6-0.1c0.6,0,1.2,0.3,1.9,0.3 c0.5,0.1,1.2,0.1,1.9,0.2c0.6,0.1,1.4-0.2,1.9,0c0.7,0.1,1.2,0.4,1.8,0.6c0.8,0.1,1.2-0.4,1.2-1.2c-0.2-0.8,0.1-0.8,0-1.6 C597.8,644.6,597.7,644.6,597.5,643.9z"></path> <path d="M667,672.1c0-0.8,0-0.8,0-1.5c0-0.8-0.2-0.7-0.2-1.6l-0.1-1.5c0-0.8,0-0.8,0-1.5c0-0.8,0-0.8,0-1.6c0-0.8-0.1-0.8-0.2-1.5 c0-0.8,0-0.8,0-1.5l-0.1-1.6c0-0.8,0.1-0.8,0.1-1.5c0-0.8-0.2-0.8-0.2-1.6c0-0.8,0.1-0.8,0.1-1.5c0-0.8-0.3-0.7-0.4-1.5 c0-0.8,0-0.8,0-1.7c0-0.8-0.1-0.8-0.2-1.5c0-0.8,0.1-0.8,0.1-1.5c0-0.8-0.2-0.8-0.2-1.6c0-0.5,0-1,0-1.4l-0.1-1.3 c0-0.5,0.2-1,0.1-1.5c0-0.5,0-1,0.1-1.4c0-0.5-0.2-1-0.1-1.4c0-0.5,0.3-1,0.3-1.3c0.2-0.7-0.4-1.2-1.1-1.2l-1.6,0.1 c-0.8,0-0.8-0.2-1.6-0.1c-0.9,0-0.9,0.3-1.7,0.4c-0.8,0-0.8,0-1.7,0c-0.8,0-0.8-0.1-1.6-0.1c-0.7,0-1,0.7-0.8,1.3 c0.2,0.5,0,1,0.1,1.5c0.2,0.4,0.3,0.9,0.4,1.4c0,0.4,0.1,0.9,0.2,1.4c0,0.5,0.3,0.9,0.4,1.4c0,0.3-0.2,0.8-0.1,1.3 c0,0.5,0.1,1,0.1,1.4c0,0.8,0.2,0.8,0.2,1.5l0.1,1.5c0,0.8-0.2,0.8-0.1,1.5c0,0.8,0.1,0.8,0.1,1.4c0,0.8,0,0.8,0,1.5 c0,0.8,0.2,0.7,0.3,1.5c0,0.8-0.2,0.8-0.1,1.5l0.2,4.4c0,0.8-0.1,0.8-0.1,1.5c0,0.8,0.4,0.8,0.4,1.6c0,0.8-0.3,0.8-0.3,1.4 c0,0.8,0.2,0.7,0.3,1.5c0,0.8-0.2,0.8-0.1,1.5c0,0.8,0.2,0.7,0.3,1.5c0,0.8,0.2,0.8,0.2,1.5l0.1,1.4c0,0.8-0.1,0.8-0.1,1.5 c0,0.5,0,1,0,1.5c-0.1,0.5-0.2,1-0.2,1.5c-0.1,0.5,0.1,1-0.1,1.5c-0.2,0.5-0.4,0.9-0.6,1.3c-0.2,0.5-0.4,1-0.7,1.4 c-0.3,0.5-0.5,0.8-0.9,1.1c-0.3,0.4-0.5,0.9-0.8,1.2c-0.4,0.4-0.9,0.6-1.3,0.8c-0.5,0.2-0.8,0.6-1.3,0.7c-0.5,0.2-1,0.3-1.5,0.3 c-0.5,0-1-0.2-1.5-0.3c-0.4-0.1-0.9-0.2-1.3-0.4c-0.5-0.2-1-0.2-1.3-0.5c-0.4-0.3-0.8-0.6-1.2-0.9c-0.4-0.3-0.6-0.7-0.9-1.1 c-0.3-0.3-0.8-0.3-1.2-0.2c-0.3,0.1-0.7,0.5-0.7,1c0,0.8,0.2,0.8,0.2,1.7c0,0.8,0.1,0.8,0.2,1.6l0.2,3.4c0,0.3,0.1,0.5,0.5,0.7 c0.4,0.1,0.7,0.6,1.1,0.8c0.4,0.2,0.9,0.4,1.3,0.5c0.5,0.1,1,0,1.5,0.2c0.5,0,0.8,0.2,1.5,0.3c0.4,0.1,0.8,0.3,1.4,0.3 c0.5,0,1,0,1.5,0c0.5,0,1-0.1,1.5-0.2c0.5-0.2,0.9-0.5,1.5-0.6c0.5-0.2,1-0.2,1.4-0.4c0.5-0.1,0.9-0.4,1.3-0.6 c0.5-0.2,0.9-0.4,1.4-0.6c0.5-0.3,0.9-0.5,1.4-0.8c0.3-0.3,0.6-0.8,1-1.1c0.3-0.4,0.7-0.8,1-1.2c0.4-0.4,0.7-0.7,1.1-1.2 c0.3-0.4,0.6-0.8,0.8-1.2c0.3-0.4,0.4-0.9,0.6-1.4c0.3-0.5,0.2-0.9,0.4-1.4c0.2-0.5,0.5-1,0.6-1.5s0.4-1,0.5-1.5c0-0.5,0-1,0-1.5 c0.1-0.5,0.2-1,0.1-1.5c0-0.5,0.2-1,0.3-1.5c0-0.5-0.1-1-0.2-1.5L667,672.1z"></path> <path d="M718.3,672c0-0.5,0.1-1,0.1-1.5c0-0.5,0-1,0-1.5l-0.2-1.5c-0.1-0.8-0.2-0.7-0.3-1.5l-0.2-1.6c-0.1-0.8,0.1-0.8,0-1.5 l-0.2-1.6c-0.1-0.8-0.2-0.7-0.3-1.5l-0.1-1.5c-0.1-0.8-0.2-0.7-0.3-1.5c-0.1-0.8,0.1-0.8,0.1-1.6c-0.1-0.8,0-0.8-0.1-1.6 c-0.1-0.8-0.3-0.7-0.4-1.5l-0.2-1.5c-0.1-0.8,0.1-0.8,0-1.6c-0.1-0.8,0-0.8-0.1-1.5l-0.1-1.5c-0.1-0.8-0.1-0.7-0.2-1.5 c-0.1-0.8,0.1-0.8,0-1.7l-0.1-1.3c-0.1-0.5-0.2-1-0.3-1.4c0-0.5,0-1,0-1.5c0-0.5,0-1,0.1-1.5c0.1-0.5,0.1-1,0.1-1.3 c0-0.6,0.2-1,0.2-1.5c0.1-0.6-0.5-1.3-1.2-1.2c-0.8,0.1-0.8,0.3-1.6,0.4l-1.7,0.2c-0.8,0.1-0.8-0.1-1.6-0.1 c-0.9,0.1-0.9,0.3-1.6,0.4c-0.8,0.1-0.8-0.1-1.7,0c-0.6,0.1-1,0.7-0.8,1.3c0.2,0.4,0.2,0.9,0.4,1.4c0,0.3,0.2,0.8,0.2,1.3 c0.2,0.5,0.3,0.9,0.3,1.4c0.1,0.5,0.3,0.9,0.3,1.4l0.1,1.4c0.1,0.4,0.1,0.9,0.1,1.3l0.1,1.5c0.1,0.8,0.1,0.8,0.2,1.6 c0.1,0.6,0,0.6,0.1,1.4c0.1,0.8,0.1,0.7,0.2,1.5l0.1,1.4c0.1,0.8,0,0.8,0.1,1.5c0.1,0.8,0.2,0.7,0.3,1.5c0.1,0.7,0,0.7,0.1,1.4 c0.1,0.8,0,0.8,0.1,1.5c0.1,0.8-0.1,0.8,0,1.4c0.1,0.8,0.3,0.7,0.4,1.5c0.1,0.8-0.2,0.8-0.1,1.5l0.1,1.4c0.1,0.8,0.2,0.7,0.3,1.5 l0.1,1.4c0.1,0.8,0.2,0.7,0.3,1.5l0.2,1.6c0,0.5-0.2,1.1-0.1,1.5c0.1,0.6,0.3,1,0.4,1.6c0,0.5-0.1,1-0.1,1.5c0.1,0.5,0.1,1,0.1,1.6 c-0.1,0.5-0.3,1-0.3,1.5c0,0.5-0.2,1-0.3,1.5c0,0.6-0.2,1.1-0.4,1.6c-0.2,0.5-0.4,1-0.6,1.4c-0.4,0.4-0.7,0.8-1.1,1.1 c-0.3,0.3-0.8,0.6-1.2,0.8c-0.5,0.3-0.9,0.4-1.5,0.5c-0.5,0.1-1,0-1.5-0.1c-0.6-0.1-1.1-0.2-1.5-0.5c-0.5-0.2-0.8-0.6-1.2-1.1 c-0.3-0.3-0.6-0.8-0.9-1.2c-0.3-0.5-0.4-0.9-0.6-1.5c-0.3-0.5-0.4-0.9-0.6-1.5c-0.2-0.5-0.4-0.9-0.5-1.5c-0.2-0.5-0.4-0.9-0.4-1.5 c-0.2-0.5-0.2-1-0.3-1.5c-0.1-0.6-0.2-1-0.2-1.6c-0.1-0.5,0.1-1,0.1-1.5c-0.2-0.5-0.4-1-0.4-1.5c-0.1-0.8,0.1-0.8,0-1.5 c-0.1-0.8-0.2-0.7-0.3-1.5c-0.1-0.8,0.1-0.8,0-1.5c-0.1-0.8-0.1-0.7-0.2-1.4c-0.1-0.8-0.1-0.8-0.2-1.5c-0.1-0.8-0.2-0.7-0.3-1.5 c-0.1-0.6,0.1-0.6,0.1-1.4c-0.1-0.8,0-0.8-0.1-1.5c-0.1-0.8-0.1-0.8-0.2-1.4l-0.1-1.5c-0.1-0.8,0-0.8-0.1-1.5 c-0.1-0.7-0.2-0.7-0.3-1.4c-0.1-0.8,0.1-0.8,0-1.5l-0.1-1.4c-0.1-0.8-0.2-0.7-0.3-1.6c-0.1-0.8,0-0.8-0.1-1.5 c0-0.4-0.2-0.9-0.2-1.3c-0.1-0.5,0-1,0-1.4c0-0.5,0-1,0-1.5c0-0.5-0.1-1-0.1-1.4c0-0.5,0-1,0.1-1.4c0-0.5,0.3-0.9,0.3-1.4 c0.2-0.6-0.6-1-1.3-1c-0.8,0.1-0.8-0.1-1.6-0.1c-0.9,0.1-0.9,0-1.7,0.1c-0.8,0.1-0.7,0.2-1.6,0.3l-1.6,0.2c-0.8,0.1-0.8,0-1.7,0.1 c-0.6,0.1-1,0.8-0.7,1.4c0.1,0.4,0.3,0.9,0.4,1.3c0.1,0.4,0.1,0.9,0.1,1.4c0.1,0.5,0.2,1,0.2,1.4c0.2,0.5,0.2,0.9,0.3,1.4 c0.1,0.4,0.1,0.8,0.2,1.4c0,0.4,0.2,0.9,0.3,1.3c0.1,0.9,0.2,0.9,0.3,1.6l0.1,1.5c0.1,0.8-0.1,0.8,0,1.5c0.1,0.8,0.2,0.7,0.3,1.5 c0.1,0.8,0,0.8,0.1,1.6l0.1,1.5c0.1,0.8,0,0.8,0.1,1.5c0.1,0.8,0.2,0.7,0.3,1.6c0.1,0.8-0.1,0.8,0,1.6c0.1,0.8,0.2,0.7,0.3,1.5 c0.1,0.8-0.2,0.8-0.1,1.5c0.1,0.8,0.3,0.7,0.3,1.5c0.1,0.8,0.1,0.7,0.2,1.5c0.1,0.8-0.2,0.8-0.1,1.6c0.1,0.8,0.2,0.8,0.3,1.6 c0.1,0.8,0.2,0.7,0.3,1.5c0.1,0.5-0.2,1.1-0.1,1.5c0.1,0.5,0.4,1,0.4,1.5c0.2,0.5,0,1,0.1,1.5c0.1,0.5,0.3,1,0.4,1.5 c0.2,0.5,0.3,1,0.4,1.5c0.2,0.5,0.2,1,0.4,1.5c0.1,0.5,0.4,0.9,0.6,1.3c0.1,0.5,0.3,1.1,0.5,1.5c0.2,0.4,0.4,0.9,0.6,1.3 c0.2,0.5,0.3,1,0.6,1.4c0.3,0.5,0.8,0.7,1.1,1.1c0.3,0.3,0.6,0.8,0.9,1.2c0.4,0.3,0.8,0.7,1.2,0.9c0.4,0.3,0.6,0.9,1,1.1 c0.4,0.2,0.9,0.5,1.5,0.7c0.4,0.2,0.9,0.2,1.4,0.3c0.5,0.2,1,0.4,1.5,0.4c0.5,0.1,1,0,1.5,0.1c0.5,0,1,0.3,1.6,0.3 c0.5,0,0.9-0.4,1.5-0.4c0.5,0,1,0.1,1.5-0.1c0.5,0,1-0.2,1.5-0.3c0.5-0.1,0.9-0.4,1.4-0.5c0.5-0.3,1-0.3,1.5-0.4 c0.5-0.3,0.9-0.5,1.3-0.8c0.5-0.3,0.7-0.6,1.1-1.1c0.4-0.3,0.8-0.6,1.1-0.9c0.2-0.4,0.5-0.9,0.8-1.3c0.2-0.5,0.4-1,0.6-1.4 c0.2-0.5,0.5-1,0.7-1.3c0.2-0.5,0.6-1,0.7-1.4c0.2-0.5,0.1-1.1,0.3-1.5c0.2-0.5,0.1-1,0.1-1.6c0.2-0.4,0.3-0.9,0.3-1.4 c0-0.5,0.2-1,0.3-1.5c0-0.5-0.1-1-0.1-1.5L718.3,672z"></path> <path d="M771.8,678.6c-0.4-0.4-0.7-0.7-1.1-1.1c-0.3-0.4-0.6-0.7-0.8-1.2c-0.3-0.4-0.4-1-0.6-1.4c-0.3-0.4-0.6-0.8-0.9-1.3 c-0.2-0.4-0.3-0.9-0.5-1.3c-0.3-0.4-0.6-0.9-0.8-1.4c-0.2-0.5-0.7-0.7-0.9-1.2c-0.2-0.5-0.4-0.9-0.6-1.4c-0.3-0.4-0.5-0.9-0.7-1.4 c-0.3-0.4-0.5-0.8-0.8-1.3c-0.3-0.4-0.4-0.9-0.7-1.4c-0.3-0.4-0.5-0.9-0.7-1.2c-0.3-0.4-0.8-0.8-1.1-1.1c-0.2-0.5-0.6-0.9-0.8-1.2 c-0.3-0.4-0.6-1-0.9-1.3c-0.3-0.3-0.8-0.6-1.2-0.9c-0.5-0.5-0.4-1.4,0.2-1.8c0.3-0.3,0.9-0.4,1.2-0.7c0.4-0.3,0.9-0.6,1.3-0.9 c0.3-0.3,0.7-0.7,1.1-1c0.3-0.5,0.4-1,0.6-1.4c0.3-0.5,0.7-0.8,1-1.2c0.2-0.4,0.6-0.8,0.8-1.3c0.2-0.4,0.3-1,0.4-1.4 c0.3-0.5,0.3-1,0.5-1.5c0-0.5,0.1-1,0.1-1.4c0.1-0.5,0-1.1,0-1.5c0.1-0.5,0.3-1,0.2-1.5c0-0.6-0.1-1-0.2-1.5 c-0.1-0.5-0.4-1-0.5-1.5c-0.1-0.5-0.2-0.9-0.4-1.4c-0.2-0.5-0.2-1-0.4-1.5c-0.2-0.5-0.5-0.9-0.6-1.4c-0.3-0.4-0.7-0.7-0.9-1.2 c-0.3-0.4-0.7-0.7-1-1.1c-0.4-0.3-0.7-0.6-1.1-1c-0.4-0.4-0.7-0.8-1.1-1c-0.4-0.3-0.9-0.4-1.3-0.8c-0.4-0.2-0.9-0.3-1.5-0.5 c-0.4-0.1-0.8-0.4-1.4-0.6c-0.4-0.2-0.8-0.4-1.3-0.6c-0.4-0.1-1.1,0-1.6-0.2c-0.4,0-0.9,0.1-1.4,0.1c-0.5-0.1-1-0.3-1.5-0.3 c-0.5-0.1-1,0.2-1.5,0.1c-0.5,0.1-1,0-1.5,0.1c-0.5,0.1-1-0.1-1.5-0.1c-0.8,0.1-0.7,0.2-1.4,0.3c-0.8,0.1-0.7,0.2-1.5,0.3 c-0.7,0.1-0.7,0-1.5,0.1c-0.7,0.1-0.6,0.3-1.4,0.5c-0.7,0.1-0.8-0.2-1.4-0.1c-0.8,0.2-0.7,0.3-1.4,0.4c-0.8,0.1-0.8,0.1-1.5,0.2 c-0.7,0.1-0.9,0.8-0.6,1.4c0.1,0.4,0.4,0.7,0.5,1.3c0.1,0.4-0.1,0.9,0.1,1.4c0.1,0.5,0.3,0.9,0.4,1.4c0.1,0.5,0.3,0.9,0.4,1.4 c0.1,0.3,0.4,0.8,0.5,1.3c0.1,0.4-0.1,0.9,0,1.3l0.2,1.5c0.1,0.9,0.1,0.9,0.2,1.6c0.1,0.8,0.2,0.7,0.3,1.5l0.5,3 c0.1,0.8,0.3,0.7,0.4,1.5c0.1,0.8,0,0.8,0.1,1.5c0.1,0.8,0.3,0.7,0.4,1.5c0.1,0.8-0.2,0.8,0,1.5c0.1,0.8,0.3,0.7,0.4,1.5 c0.1,0.8,0.2,0.7,0.3,1.5c0.1,0.8-0.2,0.8,0,1.5c0.1,0.8,0.2,0.7,0.3,1.5c0.1,0.8,0.3,0.7,0.4,1.5c0.1,0.7-0.1,0.8,0,1.5 c0.1,0.8,0.3,0.7,0.4,1.5c0.1,0.8,0,0.8,0.1,1.5c0.1,0.8,0.3,0.8,0.4,1.5c0.1,0.7,0,0.8,0.1,1.5l0.5,3.1c0.1,0.7,0.2,0.7,0.4,1.5 c0.1,0.8-0.1,0.8,0,1.5c0.1,0.8,0.2,0.7,0.3,1.5c0.1,0.5,0.3,0.9,0.4,1.4c-0.1,0.5,0.2,0.9,0.3,1.3c0,0.6,0.1,1,0.2,1.4 c-0.1,0.6,0,1,0,1.4c0.1,0.6,0,1.1,0,1.5c0,0.6-0.2,1-0.3,1.4c-0.1,0.7,0.5,1.3,1.2,1.2c0.8-0.1,0.8-0.3,1.7-0.4 c0.8-0.1,0.8,0,1.6-0.1l1.6-0.3c0.8-0.1,0.8-0.3,1.6-0.5c0.9-0.1,0.9-0.1,1.6-0.2c0.6-0.1,1.2-0.7,0.9-1.4 c-0.1-0.3-0.6-0.7-0.7-1.2c-0.1-0.3-0.1-1-0.3-1.4c-0.2-0.4-0.3-0.8-0.4-1.3c-0.1-0.4-0.2-0.9-0.3-1.4c-0.2-0.3-0.3-0.8-0.3-1.3 c-0.1-0.5,0.1-1,0-1.5c-0.1-0.8-0.2-0.7-0.3-1.5c-0.1-0.7,0-0.7-0.2-1.4c-0.1-0.7-0.3-0.7-0.4-1.3c-0.1-0.8-0.2-0.7-0.3-1.5 c-0.1-0.7,0.2-0.7,0.1-1.5c-0.1-0.7-0.3-0.7-0.4-1.4l-0.2-1.5c-0.1-0.6,0-0.6-0.1-1.4c-0.1-0.7-0.3-0.7-0.4-1.4 c-0.1-0.8,0.7-1.4,1.5-1.2c0.4,0.2,0.9,0.6,1.2,0.9c0.5,0.3,0.9,0.6,1.2,0.9c0.5,0.3,0.8,0.7,1.2,1.1c0.3,0.3,0.6,0.7,0.9,1.2 c0.2,0.5,0.4,0.9,0.6,1.4c0.3,0.4,0.7,0.8,0.9,1.2c0.3,0.6,0.2,1.2,0.5,1.6c0.1,0.5,0.6,0.9,0.8,1.3c0.1,0.4,0.2,1,0.3,1.6 c0.2,0.5,0.4,0.9,0.5,1.4c0.2,0.5,0.4,1,0.5,1.5c0.2,0.5,0.5,1,0.6,1.4c0.3,0.4,0.5,0.8,0.8,1.3c0.3,0.6,0.6,0.9,0.8,1.3 c0.2,0.5,0.4,1,0.8,1.3c0.3,0.4,0.6,0.8,0.9,1.2c0.3,0.2,0.6,0.5,0.9,0.7c0.3,0.2,0.7,0.4,1.2,0.3c0.6-0.1,0.7,0,1.4-0.1 c0.7-0.1,0.7-0.3,1.5-0.4c0.7-0.1,0.8,0,1.5-0.2c0.8-0.1,0.8,0,1.5-0.1c0.8-0.1,0.7-0.3,1.5-0.4c0.9-0.1,1.2-1,0.7-1.6 C772.4,679.5,772.2,679.1,771.8,678.6z M757.2,646c-0.1,0.5-0.1,1-0.2,1.5c-0.1,0.4-0.4,0.9-0.6,1.3c-0.2,0.4-0.2,0.9-0.6,1.3 c-0.3,0.4-0.7,0.6-1.1,0.9c-0.4,0.3-0.7,0.6-1.2,0.9c-0.3,0.3-0.7,0.6-1.2,0.7c-0.5,0.2-0.9,0.4-1.4,0.5c-0.5,0.1-0.9,0.4-1.4,0.4 l-1,0.2c-0.5,0.1-0.9-0.4-1-1c-0.1-0.8-0.3-0.7-0.4-1.4l-0.2-1.5c-0.1-0.8,0.1-0.8,0-1.5c-0.1-0.8-0.1-0.8-0.2-1.5 c-0.1-0.6-0.2-0.6-0.3-1.3l-0.2-1.4c-0.1-0.8-0.1-0.8-0.2-1.5c-0.1-0.8-0.3-0.7-0.4-1.4c-0.1-0.8,0-0.8-0.1-1.5 c-0.1-0.6-0.2-0.6-0.3-1.3c-0.1-0.8,0-0.8-0.1-1.5c-0.1-0.5,0.3-1.1,0.7-1.2l1-0.2c0.5-0.1,0.9-0.3,1.4-0.2c0.5,0,1-0.1,1.5,0 c0.5,0,0.9,0.1,1.4,0.3c0.5,0.1,1,0.3,1.3,0.6c0.4,0.2,1,0.4,1.3,0.6c0.4,0.4,0.8,0.6,1.1,1.1c0.2,0.4,0.6,0.6,0.9,1 c0.2,0.5,0.4,0.8,0.5,1.3c0.2,0.5,0.4,0.9,0.4,1.4c0.1,0.5,0.4,0.9,0.5,1.4c0.1,0.5-0.1,1.1,0,1.4 C757.3,645.2,757.2,645.6,757.2,646z"></path> <path d="M827,667.2c-0.3-0.5-0.4-1.2-0.7-1.7c-0.2-0.5-0.9-0.8-1.1-1.3c-0.3-0.6-0.5-1.1-0.8-1.6c-0.2-0.5-0.5-1.1-0.7-1.6 c-0.4-0.8-0.6-0.6-0.9-1.4c-0.4-0.8-0.4-0.8-0.8-1.6c-0.4-0.8-0.4-0.8-0.7-1.5c-0.4-0.8-0.2-0.9-0.6-1.6c-0.5-0.8-0.6-0.8-0.9-1.5 c-0.4-0.8-0.3-0.8-0.7-1.5c-0.3-0.8-0.3-0.8-0.7-1.6c-0.4-0.8-0.3-0.9-0.6-1.6c-0.4-0.8-0.7-0.7-1-1.4c-0.4-0.8-0.4-0.8-0.7-1.6 c-0.4-0.8-0.1-0.8-0.5-1.7c-0.4-0.8-0.7-0.6-1.1-1.4c-0.4-0.8-0.2-0.9-0.6-1.6c-0.3-0.7-0.3-0.7-0.7-1.5c-0.5-0.8-0.2-0.9-0.6-1.6 c-0.5-0.8-0.7-0.6-1.1-1.4c-0.4-0.8-0.2-0.8-0.6-1.6c-0.4-0.7-0.3-0.9-0.6-1.6c-0.4-0.8-0.4-0.8-0.8-1.6c-0.3-0.8-0.5-0.7-0.9-1.4 s-0.2-0.8-0.6-1.6c-0.4-0.8-0.4-0.7-0.8-1.4c-0.2-0.7-0.3-1.3-0.6-1.8c-0.2-0.5-0.6-1-0.8-1.6c-0.2-0.6-0.4-1.3-0.5-1.7 c-0.2-0.7-0.5-1.2-0.6-1.8c-0.1-0.5-0.1-1-0.2-1.4c-0.1-0.6-0.7-1.1-1.2-0.9c-0.9,0.2-0.9,0.3-1.7,0.5l-1.9,0.4 c-0.8,0.2-0.8,0.2-1.7,0.5c-0.9,0.2-0.9,0.4-1.7,0.6c-0.9,0.2-1-0.1-1.9,0.2l-1.7,0.4c-0.5,0.1-0.9,0.8-0.7,1.3 c0.1,0.4,0.1,0.9,0.3,1.4c0.1,0.5,0.5,1.1,0.5,1.7c0.1,0.6-0.1,1.2,0,1.8c0,0.6,0.3,1.1,0.2,1.9l0,1.7c0,0.9,0.3,0.9,0.3,1.8 c0,0.8-0.3,0.8-0.3,1.6c0,0.9,0.1,0.8,0.1,1.7c0,0.9-0.1,0.9-0.2,1.7c0,0.9,0.3,0.9,0.2,1.7c-0.1,0.9-0.2,0.9-0.2,1.7 c0,0.8,0.1,0.9,0.1,1.7c0,0.9-0.2,0.9-0.2,1.7c-0.1,0.9-0.1,0.9-0.1,1.8c0,0.9,0.2,0.8,0.3,1.7c0,0.9,0,0.9-0.1,1.6 c0,0.9-0.3,1-0.3,1.8c0,0.8,0.1,0.8,0.1,1.7c0,0.9,0.1,0.9,0.1,1.7c-0.1,0.9-0.2,0.8-0.2,1.7c0,0.9,0,0.9,0,1.8 c0,0.8,0.3,0.8,0.2,1.6c0,0.8,0,0.8,0,1.7c0,0.9-0.1,0.9-0.1,1.7c0,0.9-0.1,0.9-0.1,1.8c0.1,0.8,0.1,0.8,0,1.6 c0,0.9,0.2,0.9,0.2,1.7c-0.1,0.6-0.2,1.2-0.2,1.8c-0.1,0.6,0,1.1-0.1,1.7c-0.1,0.7-0.2,1.2-0.2,1.8c-0.1,0.6-0.1,1.2-0.2,1.8 c0,0.6-0.3,1.1-0.4,1.6c-0.1,0.7,0.6,1.3,1.3,1.1c0.9-0.2,0.9,0,1.7-0.2l1.7-0.4c0.9-0.2,0.8-0.4,1.6-0.6l1.7-0.4 c0.8-0.2,0.9,0,1.7-0.2c0.6-0.1,0.9-0.9,0.7-1.4c-0.1-0.3-0.1-0.8-0.2-1.5c-0.1-0.5-0.3-1-0.4-1.7c-0.1-0.6,0-1.1-0.1-1.8 c-0.1-0.6-0.2-1.1-0.2-1.8c0-0.5,0-1.1,0-1.8c0-0.8-0.2-0.7-0.1-1.5c0-0.8,0.1-0.7,0.1-1.5c0-0.4,0.3-0.7,0.7-0.8 c0.7-0.2,0.7-0.4,1.6-0.6l1.5-0.3c0.9-0.2,0.9,0.1,1.7-0.1c0.8-0.2,0.8-0.4,1.6-0.6c0.7-0.2,0.7-0.2,1.6-0.4 c0.7-0.2,0.7-0.3,1.5-0.5l1.6-0.4c0.5-0.1,1.1,0.2,1.3,0.7c0.3,0.7,0.1,0.8,0.3,1.5c0.4,0.6,0.6,0.6,0.9,1.3 c0.3,0.5,0.3,1.2,0.5,1.7c0.2,0.6,0.5,1.1,0.6,1.6c0.2,0.7,0.5,1.1,0.7,1.7c0.3,0.6,0.5,1.2,0.6,1.6c0.1,0.7,0,1.2,0.1,1.5 c0,0.6,0.7,1,1.3,0.9c0.9-0.2,0.9-0.1,1.7-0.2l3.4-0.8c0.8-0.2,0.8-0.2,1.7-0.4l1.7-0.4c0.7-0.2,1.1-1.1,0.7-1.7 C827.8,668,827.3,667.7,827,667.2z M809.3,653.1l-1.8,0.4c-0.9,0.2-1,0.1-1.9,0.4c-0.9,0.2-1,0.1-1.8,0.3c-0.9,0.2-1,0.1-1.9,0.4 c-0.7,0.2-1-0.2-1-0.8c-0.1-0.9-0.1-0.9-0.1-1.7c0-0.8,0.1-0.9,0-1.8c0-0.8,0-0.9-0.1-1.6c0-0.9,0-0.9-0.1-1.7c0-0.9,0-0.9,0-1.8 c0-0.9-0.2-0.8-0.2-1.7c-0.1-0.8,0.2-0.9,0.1-1.7c-0.1-0.9,0.1-0.8,0.1-1.7c-0.1-0.8-0.2-0.9-0.2-1.7c0-0.9-0.1-0.9-0.2-1.7 c0-0.9,0.2-1,0.2-1.8c0-0.6,0.3-1,0.7-1.1c0.5-0.1,0.8,0.2,1,0.7c0.4,0.8,0.4,0.8,0.8,1.6c0.4,0.8,0.4,0.7,0.8,1.5 c0.4,0.7,0.4,0.7,0.8,1.5c0.3,0.8,0.1,1,0.5,1.7c0.2,0.7,0.4,0.7,0.8,1.5c0.3,0.8,0.3,0.9,0.6,1.6c0.4,0.8,0.5,0.8,0.8,1.6 c0.2,0.8,0.2,0.8,0.6,1.6c0.4,0.7,0.4,0.7,0.8,1.4c0.3,0.8,0.1,0.9,0.4,1.7s0.6,0.7,1,1.4C810.4,652.1,810,653,809.3,653.1z"></path> <polygon points="287.6,213 280.5,192 311.8,181.4 307.8,169.7 276.5,180.3 273.4,170.9 307,159.5 302.9,147.4 251.2,164.9 269.5,219.1 "></polygon> <path d="M342.8,187l24.4-5.5l5.4,8.3l20-4.5l-36.6-50.5l-22.8,5.1l-11.6,61.4l20-4.5L342.8,187z M347.5,151.5l0.2,0l12.5,19.4 l-15.6,3.5L347.5,151.5z"></path> <path d="M446.9,178.2c17.4-2.3,19.3-12.9,18.4-19.6c-1-8-5.6-12.4-11.7-13l0-0.2c3.9-2,6.2-7,5.5-12.4c-0.7-5.5-4.2-13.7-18-11.9 l-47.1,6.1l7.4,56.9L446.9,178.2z M445.1,159.9c0.5,3.7-1.9,6.2-5.9,6.8l-20.4,2.6l-1.5-11.6l20.4-2.6 C441.6,154.6,444.6,156.2,445.1,159.9z M433.4,134.5c4.1-0.5,6.1,1.5,6.4,4c0.3,2.6-1.1,5.1-5.2,5.6l-18.9,2.4l-1.2-9.6 L433.4,134.5z"></path> <path d="M501.1,173.4l-1-19.1l17.5-0.9c4.8-0.3,7.9,1.2,8.3,10.2c0.1,2.6,0.4,6,1.6,8.4l20.9-1.1c-2.6-2.8-3.1-6.4-4.5-17.6 c-0.8-6.1-3.8-8.9-7.4-9.9l0-0.2c5.1-1.6,8.9-5.9,8.5-13.5c-0.5-9.5-6-15.7-20-15l-45.9,2.4l3,57.3L501.1,173.4z M517.1,128 c4.7-0.2,7.3,2,7.5,5.8c0.2,3.9-2.2,6.5-6.8,6.7l-18.4,1l-0.7-12.5L517.1,128z"></path> <rect x="562.4" y="113.7" transform="matrix(1 -6.541551e-03 6.541551e-03 1 -0.919 3.7444)" width="19.1" height="57.4"></rect> <path d="M633.5,173.9c2.9,0.1,5.6,0.1,8.4-0.1c2.7-0.2,5.5-0.5,8.2-1l11.4,10.8l8.8-8.9l-7.9-7.6c5.6-4.4,9.2-11.4,9.7-21.9 c1-23.7-15.8-31.1-36-31.9c-20.2-0.8-37.6,5.1-38.5,28.8C596.5,165.7,613.3,173,633.5,173.9z M635.5,125.9 c10.3,0.4,16.8,6.3,16.4,18.3c-0.2,4.2-1.1,7.6-2.8,10.1l-6.3-6l-8.7,9l3.8,3.6c-1.4,0.1-2.5,0.1-3.8,0.1 c-10.2-0.4-16.8-6.2-16.3-18.3C618.2,130.8,625.3,125.5,635.5,125.9z"></path> <path d="M715.7,180.2c20.2,2.3,32.7-2.4,34.6-18.2l4.3-36.9l-19-2.2l-3.9,33.8c-1.1,9.3-5.7,11.7-14.4,10.7 c-8.7-1-12.7-4.5-11.6-13.7l3.9-33.8l-19-2.2l-4.3,36.9C684.4,170.3,695.5,177.9,715.7,180.2z"></path> <polygon points="822.6,184.5 785.1,176.7 787.2,166.5 822.3,173.8 824.7,162.2 789.6,154.9 791.7,144.8 829.2,152.5 831.7,140.4 775.5,128.8 763.9,184.9 820.1,196.6 "></polygon> <polygon points="822.7,122 802.4,117.8 793,127.3 808.7,130.6 "></polygon> <polygon points="926.2,167.9 923.6,154.7 904.4,147 911.3,161.9 "></polygon> <path d="M885.8,207.6l23.3,9.3l-0.3,9.9l19,7.6l-1.5-62.4l-21.7-8.7l-44.5,44l19,7.6L885.8,207.6z M909.9,181l0.2,0.1l-0.7,23.1 l-14.9-6L909.9,181z"></path> <path d="M187.3,348.9c-3.5,8.2-5,15-4.8,20.3c0.4,8,5,12.2,13.2,11.9c19.8-1,38.5-30.1,37.5-49.6c-0.6-13.1-9.6-21.2-24.5-20.5 c-35.2,1.7-74.8,32-73.4,62.8c1.3,27.4,40,35.4,41.1,59.5c0.7,14.7-11.1,23-20.4,23.5c-8.5,0.4-14.4-3.2-14.8-11.4 c-0.2-4.4,0.5-9.2,2.8-14.6l-18.5,0.9c-1.1,3.8-1.6,7.5-1.4,10.9c0.6,13.6,11.8,23.1,30.6,22.2c20.7-1,38.4-18.6,37.5-37.1 c-1.2-25.7-34.6-35.6-35.6-57.4c-1-21.3,28.5-47,51.6-48.1c10-0.5,15.9,2.7,16.3,11.7c0.6,13.3-11.9,36.5-23.2,37.1 c-0.2-0.3-0.4-0.8-0.4-1.8c-0.2-3.4,2.3-10.8,8.5-22.2L187.3,348.9z"></path> <path d="M327.5,350.7c0.2,4.1,2.8,7.2,8.5,7c9-0.4,14.7-9.1,14.4-15.6c-0.2-4.1-2.7-7.3-8.4-7C333,335.5,327.2,344.2,327.5,350.7z"></path> <path d="M459.2,426.9c-3.9,4-8.1,6.1-11.4,6.3c-3.9,0.2-6.7-2.5-7-8.4c-0.1-1.1,0-2.5,0.1-3.8c1.5-14.2,14.8-41.3,28.2-65.2 l15.1-0.7l3.1-6.7L473,349c5.2-9,10.2-17.2,14.5-23.9l-21,1c-4.2,8.3-8.4,16.2-12.3,23.8l-14.9,0.7l-3,6.7l14.4-0.7 c-8.8,17-16.1,32.4-20.5,46c-8.3,16.2-20.9,32.1-30.9,32.6c-2.1,0.1-3-1.5-3.3-4.1c-0.5-10.7,9.5-38.2,21.5-57.7 c1.5-2.5,2.1-4.5,2-6.3c-0.2-4.1-4.1-6.2-8.8-6c-3.8,0.2-8,1.7-11.6,4.7c-13.8,11.2-32.2,38.2-41,53.1 c6.8-16.3,15.3-36.5,24.9-55.7l-17.5,0.8c-7.5,16.1-13.5,30.8-18.1,43.2c-6.6,12.6-15.7,25-25.2,30c-2.4,1.3-4.3,1.9-5.8,1.9 c-3.3,0.2-4.7-2.1-4.9-5.5c-0.1-1.5,0-3,0.4-4.8c3.8-19.6,18.2-46.2,28.5-63.6l-20.2,1c-5,7.3-13.4,25.3-19.1,41.6 c-8.4,16.6-21.4,33.3-31.7,33.7c-2.1,0.1-3.2-1.5-3.3-4.3c-0.5-10.7,11.5-38.5,21.8-56.6c0.9-1.7,6.5-11.8,7.4-13.3l-20,1 c-0.9,1.5-3.3,6.6-3.9,7.9c-4.7-5.2-9.9-7.1-15.3-6.8c-20.7,1-42.9,36.2-45.8,58.4c-0.4,2.8-0.6,5.5-0.5,7.7 c0.5,10.8,6.1,17.8,16.1,17.3c10.3-0.5,19.6-12.3,24.5-20.9c-0.5,2.3-0.8,4.5-0.7,6.4c0.4,8.8,6.5,13,14.2,12.6 c12.5-0.6,22.6-8.5,31.4-20.5c-0.1,1.4-0.1,2.8-0.1,4c0.5,9.8,6.6,14.6,14.8,14.2c11-0.5,20.7-7.1,29.2-17.3 c-0.2,0.6-0.4,1.3-0.6,1.9c-0.7,2-2.1,7.3-3.4,14.1l15.9-0.8c6-15.4,28.4-51.8,40.6-60.3c-6.4,11-11.2,26.8-12.6,39 c-0.3,1.7-0.2,3.3-0.1,4.6c0.5,10,6.3,15,14.5,14.6c12.8-0.6,23.2-9,32.2-21.6c-0.1,1.2,0,2.3,0,3.4c0.5,11.5,7.4,16.6,16.2,16.1 c6.7-0.3,14.6-4,21.7-10.7c9.6-9.3,17.9-23.5,25-40c-1.6-1.9-3.6-3-6.4-2.3C477.4,402.5,468.1,418.1,459.2,426.9z M240.2,433.9 c-3.1,3.9-6,5.9-8.4,6c-3.1,0.1-5.2-2.7-5.3-8.6c-0.3-16.4,22.8-52.8,35.7-53.4c2.6-0.1,4.8,1.2,6.3,4.6 C264.1,392,250.2,421.1,240.2,433.9z"></path> <polygon points="554.4,385.2 500.5,387.8 493,403.1 546.9,400.5 "></polygon> <path d="M572,442.6l17.3,3.9c17-18.6,34.6-41.7,51.1-64.4c8.7-0.6,17.2-0.5,24.7,0.6c-3.1,11.3-4.9,23.7-4.2,38.3 c0.2,3.4,0.5,7,1,10.6l22.9-1.1c-1.8-6.7-2.8-13-3.1-19.4c-1.9-39.2,22-73,22.3-103.6c0.3-18.4-16.1-26.7-35.4-25.7 c-29.2,1.4-65.6,23.5-63.7,63.2c0.1,1.8,0.3,3.6,0.8,5.4l19.9-0.5c-0.8-2.4-1.2-4.9-1.3-7.5c0-0.8-0.1-1.8,0-2.6 c1.4-31.6,27.5-49.9,45.9-50.8c6.6-0.3,12.2,1.7,15.4,6.2c-9.3,15.7-27.9,44.4-49.8,73.8c-2,0.1-3.8,0-5.7,0.1 c-13.6,0.6-27.1,2.9-37.9,6.8l0.2,17.4c9-3.9,20.5-7.2,32.2-9.3C607.2,406.3,588.8,427.5,572,442.6z M687,315.9 c-3.3,20.2-12.2,36.9-18.7,56.1c-5.6-1.2-12.1-2-18.8-2.5C663.8,349.4,676.6,330.4,687,315.9z"></path> <path d="M1065.6,361.7c-7,17.9-24.7,43.1-35.2,43.6c-0.7,0-1.5-0.1-2.2-0.4c-1.8-0.6-3-3.5-3.1-6.8c-0.6-13.1,10.9-39,25.4-50.2 c2.2-1.7,3.3-5.9,3.1-10c-0.3-5.2-2.6-10.4-7.4-10.2c-0.8,0-1.8,0.3-2.8,0.6c-7.7,3.2-12.7,6.2-20.9,6.6c-2.3,0.1-4.8,0.1-7.7-0.3 c-0.8-7.2-3.7-11.6-7.1-11.5c-2.3,0.1-5,2.4-7.2,7.4c-1.3,2.9-1.9,5-1.8,6.7c0.1,2.8,2.3,4.2,6.7,5.8c-2,14.5-7,24.9-9.7,31 c-8.4,16.7-21.5,33.6-31.8,34.1c-3.3,0.2-4.4-2.3-4.5-5.7c-0.7-13.6,19-51.7,28.9-68.4l-18.5,0.9c-4.6,6.6-12.1,22.1-17.6,37.3 c-7.9,16.6-19.7,37.2-28.9,37.7c-3.3,0.2-4.7-2.1-4.9-5.5c-0.7-13.6,19-51.7,28.9-68.4l-18.5,0.9c-5.2,7.6-14.2,25.9-19.8,42.9 c-5.1,8.8-12.1,15.7-21.2,16.1c6.3-11.8,10.1-25.3,9.6-36.3c-0.6-12.8-7-22-21.5-21.3c-22.6,1.1-40,26.8-44.1,49.6 c-8.2,14.5-19.4,27.5-28.5,27.9c-2.1,0.1-3-1.5-3.3-4.1c-0.5-10.7,9.5-38.2,21.5-57.7c1.5-2.5,2.1-4.5,2-6.3 c-0.2-4.1-4.1-6.2-8.8-6c-3.8,0.2-8,1.7-11.6,4.7c-13.7,11.2-33.2,38.2-42,53.1l-2.4,4.1c4-16,13.3-34,21.9-47.5 c1.5-2.5,2.2-4.7,2.2-6.3c-0.2-4.1-4.1-6.2-9-6c-3.6,0.2-8,1.7-11.6,4.7c-13.8,11.2-32.2,38.2-41,53.1 c6.8-16.3,15.3-36.5,25.1-55.7l-17.5,0.8c-14,29.6-23,55-26.9,69.5c-0.7,2-2.1,7.3-3.4,14.1l15.9-0.8c6-15.4,28.4-51.8,40.6-60.3 c-6.2,10.5-10.2,27.8-11.6,41.8c-0.4,3-0.4,5.4-0.3,7.4c0.3,7.2,2.9,9.6,5.7,9.4c3.3-0.2,6.9-3.5,8.1-6.1 c8.4-17.3,28.3-46.9,39.1-54.4c-6.4,11-11.2,26.8-12.6,39c-0.2,1.7-0.2,3.3-0.1,4.6c0.5,10,6.3,15,14.5,14.6 c13.4-0.6,24.2-9.7,33.4-23.3c1.3,12.6,8.3,22.4,22.9,21.7c10.8-0.5,21.1-8.7,28.9-19.8c1-0.1,2.1,0.1,3.3,0 c6.7-0.3,13-3.3,18.5-8.1c-0.6,3.4-1,6.7-0.9,9.3c0.5,9.8,5,14.7,13.2,14.3c10.2-0.5,19.6-8.3,27.9-20.1c-0.1,1.3-0.2,2.6-0.2,3.8 c0.5,9.8,6.1,14.7,14.3,14.3c17.7-1.4,30.8-17.2,41.7-38.8c8.5-14.6,12.6-33.1,13.4-34.8c2.7,0.5,5.8,1,9.9,0.8 c2.3-0.1,5.1-0.4,8.2-1.1c-12.5,12.9-23.9,38.8-23.1,55.5c0.5,9.5,4.9,16,15.5,15.5c1.1-0.1,2.1-0.1,3.3-0.3 c16.5-2.6,34.1-26.1,44.1-50.4C1070.2,362.1,1068.3,361,1065.6,361.7z M885.2,382.1l-1.3,3.4c-0.8-0.3-1.8-0.4-2.8-0.4 c-6.6,0.3-13.7,7.9-13.4,14.4c0.1,2.5,1.4,4.5,3.9,6.2c-5.2,5.5-10.9,9.2-16.9,9.5c-4.9,0.2-7.3-4.7-7.6-11.3 c-0.9-19.3,15.5-57.6,32.4-58.4c6.4-0.3,9.6,4.3,10,12.5C889.6,364.8,888.2,373.8,885.2,382.1z"></path> <path d="M587.3,490.6c16.2-8.8,25.3-10.1,31.5-3.6c5.5,5.8,19.7,40.3-53.5,90.9c-21.6-29.6-19.2-70.5-5.7-81.1 c9.3-7.3,24.8,5.8,24.8,5.8c-18.8-26.4-38.6-21.1-42.5,13.6c-2.7,23.9,7.5,46.8,21.7,62.9c-8.4,5.7-17.8,11.6-28.6,17.7 c11.6-3.9,22.2-8.6,32.1-13.7c5.4,5.4,11.3,9.9,17.2,13c-6.1-4-11.2-8.8-15.5-13.9c59.6-31.5,86.5-81.2,63.3-103 C611.4,459.7,587.3,490.6,587.3,490.6z"></path> </g> </svg> 