<?xml version="1.0" encoding="UTF-8"?> <svg xmlns="http://www.w3.org/2000/svg" id="uuid-49457840-f65f-42b3-9bbb-42591ddf85cd" viewBox="0 0 130.66 83.88"><defs><style>.uuid-81b08370-b650-42d7-8d71-ebafc98e6348{fill:#f8d1be;}.uuid-81b08370-b650-42d7-8d71-ebafc98e6348,.uuid-350a61e9-b356-4d61-8437-38d5da509c5a{stroke-width:0px;}.uuid-350a61e9-b356-4d61-8437-38d5da509c5a{fill:#c98d6c;}</style></defs><path class="uuid-81b08370-b650-42d7-8d71-ebafc98e6348" d="M130.66,42.31C130.66,9.48,95.57.06,65.46,0h0s-.08,0-.13,0-.08,0-.13,0h0C35.09.06,0,9.48,0,42.31s42.63,41.5,65.2,41.56h0s.09,0,.13,0,.09,0,.13,0h0c22.57-.07,65.2-8.77,65.2-41.57Z"></path><path class="uuid-350a61e9-b356-4d61-8437-38d5da509c5a" d="M37.75,27.18v-.38h2.65s1.49,23.33,1.49,23.33h.38s1.61-23.32,1.61-23.32h2.46s0,.38,0,.38l-2.99,31.04h-2.76s-2.84-31.06-2.84-31.06Z"></path><path class="uuid-350a61e9-b356-4d61-8437-38d5da509c5a" d="M52.96,26.84l2.72,31.05v.38s-2.65,0-2.65,0l-.51-8.33h-2.42s-.55,8.32-.55,8.32h-2.46s0-.38,0-.38l2.88-31.04h2.99ZM52.38,47.66l-.84-13.1h-.38s-.9,13.09-.9,13.09h2.12Z"></path><path class="uuid-350a61e9-b356-4d61-8437-38d5da509c5a" d="M59.81,26.86l2.75,21.13h.38s-.4-21.12-.4-21.12h2.5s-.08,31.43-.08,31.43h-2.57s-2.75-21.14-2.75-21.14h-.38s.4,21.12.4,21.12h-2.5s.08-31.43.08-31.43h2.57Z"></path><path class="uuid-350a61e9-b356-4d61-8437-38d5da509c5a" d="M69.8,26.88l-.08,31.42h-2.65s.08-31.43.08-31.43h2.65Z"></path><path class="uuid-350a61e9-b356-4d61-8437-38d5da509c5a" d="M74.57,26.9l-.07,29.23h3.79s0,2.21,0,2.21l-6.44-.02.08-31.42h2.65Z"></path><path class="uuid-350a61e9-b356-4d61-8437-38d5da509c5a" d="M82.48,26.92l-.07,29.23h3.79s0,2.21,0,2.21l-6.44-.02.08-31.42h2.65Z"></path><path class="uuid-350a61e9-b356-4d61-8437-38d5da509c5a" d="M94.41,26.95v2.2s-4.02,0-4.02,0l-.03,12.11h3.56s0,2.2,0,2.2h-3.56s-.03,12.71-.03,12.71h4.01s0,2.21,0,2.21l-6.66-.02.08-31.42,6.66.02Z"></path></svg> 