<?xml version="1.0" encoding="UTF-8"?> <!-- Generator: Adobe Illustrator 28.2.0, SVG Export Plug-In . SVG Version: 6.00 Build 0) --> <svg xmlns="http://www.w3.org/2000/svg" xmlns:xlink="http://www.w3.org/1999/xlink" version="1.1" id="Layer_1" x="0px" y="0px" viewBox="0 0 1541.6 1540.5" style="enable-background:new 0 0 1541.6 1540.5;" xml:space="preserve"> <style type="text/css"> .st0{fill-rule:evenodd;clip-rule:evenodd;fill:#FEC830;} .st1{fill-rule:evenodd;clip-rule:evenodd;fill:#F53D03;} </style> <circle class="st0" cx="770.2" cy="770.2" r="770.2"></circle> <path class="st1" d="M657.4,441.7c-13.6-36.4-28.7-31-39.2-31.4c-10.5-0.4-22.4-2.3-34.3-2.8c-12-0.5-31.6,3.3-48.7,20.6 c-17.1,17.3-65.1,59-68.4,147.2c-3.3,88.2,57.7,175.9,66.3,188.2c8.5,12.3,116.6,203.6,296.1,282.2 c179.6,78.6,180.6,54.7,213.5,52.9c33-1.7,107.7-39.4,124.2-80.7c16.5-41.3,17.8-77.2,13.6-84.8c-4.2-7.6-16-12.6-33.6-22.2 c-17.6-9.6-104.1-56.3-120.3-62.9c-16.2-6.6-28-10-40.7,7.5c-12.6,17.5-48.5,56.6-59.4,68.1c-10.9,11.6-21.4,12.7-39.1,3 c-17.6-9.6-74.6-30.7-140.9-94.4c-51.5-49.5-85.3-109.6-95.1-127.9c-9.8-18.3-0.1-27.7,9.2-36.3c8.4-7.7,18.7-20.3,28.1-30.4 c9.3-10.1,12.6-17.5,19-29.2c6.4-11.7,3.8-22.3-0.3-31.5C703.6,567.8,671,478.2,657.4,441.7z"></path> </svg> 