<?xml version="1.0" encoding="UTF-8"?> <svg xmlns="http://www.w3.org/2000/svg" id="uuid-2b7960e1-6053-4b26-8677-b5cb31b403c0" viewBox="0 0 130.64 83.88"><defs><style>.uuid-ce7a31af-c3ee-4f1a-b056-bd7676de97dc{fill:#f8c233;}.uuid-ce7a31af-c3ee-4f1a-b056-bd7676de97dc,.uuid-0da08bc9-b291-4880-8e3c-0481c490b2d2{stroke-width:0px;}.uuid-0da08bc9-b291-4880-8e3c-0481c490b2d2{fill:#fff9ee;}</style></defs><path class="uuid-ce7a31af-c3ee-4f1a-b056-bd7676de97dc" d="M130.64,42.31C130.64,9.48,95.56.06,65.44,0h0s-.08,0-.13,0-.08,0-.13,0h0C35.07.06-.02,9.48-.02,42.31s42.63,41.5,65.2,41.56h0s.09,0,.13,0,.09,0,.13,0h0c22.57-.07,65.2-8.77,65.2-41.57Z"></path><path class="uuid-0da08bc9-b291-4880-8e3c-0481c490b2d2" d="M40.27,34.62v.61c-.01,3.94-1.49,5.94-2.67,6.88v.38c1.25.8,2.72,2.66,2.71,6.78v1.1c-.02,5.87-2.41,7.87-5.59,7.86h-2.54s.08-31.43.08-31.43h2.46c3.18.01,5.56,1.91,5.55,7.82ZM35.1,56.15c1.4,0,2.46-1.32,2.47-5.29v-2.12c.02-3.97-1.04-5.3-2.44-5.31h-.26l-.03,12.72h.26ZM35.06,41.35c1.4,0,2.46-1.21,2.47-4.92v-2.61c.02-3.71-1.04-4.92-2.44-4.93h-.19l-.03,12.46h.19Z"></path><path class="uuid-0da08bc9-b291-4880-8e3c-0481c490b2d2" d="M48.5,26.85v2.2s-4.02,0-4.02,0l-.03,12.11h3.56s0,2.2,0,2.2h-3.56s-.03,12.71-.03,12.71h4.01s0,2.21,0,2.21l-6.66-.02.08-31.42,6.66.02Z"></path><path class="uuid-0da08bc9-b291-4880-8e3c-0481c490b2d2" d="M55.2,26.86l2.72,31.05v.38s-2.65,0-2.65,0l-.51-8.33h-2.42s-.55,8.32-.55,8.32h-2.46s0-.38,0-.38l2.88-31.04h2.99ZM54.62,47.68l-.84-13.1h-.38s-.9,13.1-.9,13.1h2.12Z"></path><path class="uuid-0da08bc9-b291-4880-8e3c-0481c490b2d2" d="M63.3,56.34c.87,0,1.33-.64,1.33-1.7l.07-27.75h2.5s-.07,26.54-.07,26.54c0,3.18-1.34,5.11-3.91,5.1-2.58,0-3.89-1.94-3.89-5.12l.07-26.54h2.65s-.07,27.76-.07,27.76c0,1.06.45,1.7,1.32,1.71Z"></path><path class="uuid-0da08bc9-b291-4880-8e3c-0481c490b2d2" d="M69.24,26.9l6.44.02v2.23s-3.79,0-3.79,0l-.03,12.08h3.41s0,2.2,0,2.2h-3.41s-.04,14.91-.04,14.91h-2.65s.08-31.43.08-31.43Z"></path><path class="uuid-0da08bc9-b291-4880-8e3c-0481c490b2d2" d="M81.28,26.7c2.84,0,4.35,2.55,4.34,6.83l-.04,18.25c-.01,4.28-1.53,6.81-4.37,6.8-2.84,0-4.35-2.55-4.34-6.83l.04-18.25c.01-4.28,1.53-6.81,4.37-6.8ZM81.2,56.38c.98,0,1.52-.83,1.52-2.27l.06-22.94c0-1.44-.52-2.27-1.51-2.27-.98,0-1.52.83-1.52,2.27l-.06,22.94c0,1.44.52,2.27,1.51,2.28Z"></path><path class="uuid-0da08bc9-b291-4880-8e3c-0481c490b2d2" d="M95.56,35.1v.68c-.01,3.79-1,6.36-2.86,7.6v.38c1.47.91,1.89,2.09,1.96,4.96l.14,5.49c.03,1.67.18,2.95.6,3.79v.38s-2.73,0-2.73,0c-.3-.87-.37-1.89-.41-3.29l-.25-7.72c-.07-1.85-.71-2.65-1.89-2.65l-.03,13.67h-2.65s.08-31.43.08-31.43h2.65c2.95.01,5.41,2.29,5.39,8.16ZM90.32,42.62c1.51,0,2.5-1.32,2.51-5.29v-2.99c.02-3.97-.96-5.3-2.48-5.31h-.19s-.03,13.59-.03,13.59h.19Z"></path><path class="uuid-0da08bc9-b291-4880-8e3c-0481c490b2d2" d="M104.36,26.99v2.2s-2.66,0-2.66,0l-.07,29.23h-2.65s.07-29.23.07-29.23h-2.65s0-2.2,0-2.2l7.95.02Z"></path></svg> 