<?xml version="1.0" encoding="UTF-8"?> <svg xmlns="http://www.w3.org/2000/svg" id="uuid-78393484-d47f-4af1-b8b5-bd1e197e7b60" viewBox="0 0 130.65 83.88"><defs><style>.uuid-a9d8e721-8323-4fb2-a217-4a2a7b0334ab{fill:#d96827;}.uuid-a9d8e721-8323-4fb2-a217-4a2a7b0334ab,.uuid-9b227f0e-b546-4c50-81d2-735d58d0ec3a{stroke-width:0px;}.uuid-9b227f0e-b546-4c50-81d2-735d58d0ec3a{fill:#fff9ee;}</style></defs><path class="uuid-a9d8e721-8323-4fb2-a217-4a2a7b0334ab" d="M130.65,42.31C130.65,9.48,95.57.06,65.45,0h0s-.08,0-.13,0-.08,0-.13,0h0C35.08.06,0,9.48,0,42.31s42.63,41.5,65.2,41.56h0s.09,0,.13,0,.09,0,.13,0h0c22.57-.07,65.2-8.77,65.2-41.57Z"></path><path class="uuid-9b227f0e-b546-4c50-81d2-735d58d0ec3a" d="M29.35,26.81l2.75,21.13h.38s-.4-21.12-.4-21.12h2.5s-.08,31.43-.08,31.43h-2.57s-2.75-21.14-2.75-21.14h-.38s.4,21.12.4,21.12h-2.5s.08-31.43.08-31.43h2.57Z"></path><path class="uuid-9b227f0e-b546-4c50-81d2-735d58d0ec3a" d="M40.81,26.61c2.84,0,4.35,2.55,4.34,6.83l-.04,18.25c-.01,4.28-1.53,6.81-4.37,6.8s-4.35-2.55-4.34-6.83l.04-18.25c.01-4.28,1.53-6.81,4.37-6.8ZM40.74,56.29c.98,0,1.52-.83,1.52-2.27l.06-22.94c0-1.44-.52-2.27-1.51-2.28-.98,0-1.52.83-1.52,2.27l-.06,22.94c0,1.44.52,2.27,1.51,2.28Z"></path><path class="uuid-9b227f0e-b546-4c50-81d2-735d58d0ec3a" d="M49.71,26.86l-.08,31.42h-2.65s.08-31.43.08-31.43h2.65Z"></path><path class="uuid-9b227f0e-b546-4c50-81d2-735d58d0ec3a" d="M59.4,26.89v.38s-1.78,14.99-1.78,14.99v.38s1.74,15.3,1.74,15.3v.38s-2.39,0-2.39,0l-1.52-13.03h-.38s-1.55,13.02-1.55,13.02h-2.23s0-.38,0-.38l1.82-15.29v-.38s-1.7-15-1.7-15v-.38s2.39,0,2.39,0l1.48,12.72h.38s1.51-12.72,1.51-12.72h2.23Z"></path><path class="uuid-9b227f0e-b546-4c50-81d2-735d58d0ec3a" d="M75.41,26.93l2.89,24.05h.38s3.01-24.03,3.01-24.03h2.95s-.08,31.43-.08,31.43h-2.5s.24-19.92.24-19.92h-.38s-2.47,19.91-2.47,19.91h-1.97s-2.37-19.92-2.37-19.92h-.38s.14,19.91.14,19.91h-2.5s.08-31.43.08-31.43h2.95Z"></path><path class="uuid-9b227f0e-b546-4c50-81d2-735d58d0ec3a" d="M89.41,26.96l-.08,31.42h-2.65s.08-31.43.08-31.43h2.65Z"></path><path class="uuid-9b227f0e-b546-4c50-81d2-735d58d0ec3a" d="M98.19,26.98v2.2s-4.02,0-4.02,0l-.03,12.11h3.56s0,2.2,0,2.2h-3.56s-.03,12.71-.03,12.71h4.01s0,2.21,0,2.21l-6.66-.02.08-31.42,6.66.02Z"></path><path class="uuid-9b227f0e-b546-4c50-81d2-735d58d0ec3a" d="M102.39,26.99l-.07,29.23h3.79s0,2.21,0,2.21l-6.44-.02.08-31.42h2.65Z"></path><path class="uuid-9b227f0e-b546-4c50-81d2-735d58d0ec3a" d="M66.41,39.45c-.01-.44-.24-.64-.52-.64-.25,0-.54.19-.76.54-.23.38-.31.84-.29,1.34.01.36.07.74.16,1.12.9-.57,1.43-1.66,1.41-2.36M65.53,45.38c-.39-.49-.74-1.12-1.01-1.78-.12-.3-.24-.6-.34-.9-.5.45-.76.85-.87,1.31-.05.2-.07.38-.06.54.02.74.56,1.14,1.27,1.13.31-.01.67-.11,1.02-.29M62.03,44.65c-.02-.83.55-1.78,1.99-2.48-.11-.43-.18-.84-.19-1.23-.02-.75.17-1.4.66-1.92.42-.44,1.05-.68,1.61-.7.7-.02,1.32.31,1.34,1.06.02.88-.82,2.13-2.32,2.86.11.34.23.68.37.99.26.64.58,1.14.92,1.52.49-.48.65-1.1.63-1.64,0-.22-.04-.43-.1-.61l1.33-.04c-.08.86-.77,2.08-1.53,2.68.27.3.67.66,1.01.86l-1.51.09c-.13-.1-.25-.2-.35-.3-.64.37-1.24.54-1.78.56-1.22.04-2.05-.74-2.08-1.69"></path></svg> 