<?xml version="1.0" encoding="UTF-8"?> <!-- Generator: Adobe Illustrator 28.1.0, SVG Export Plug-In . SVG Version: 6.00 Build 0) --> <svg xmlns="http://www.w3.org/2000/svg" xmlns:xlink="http://www.w3.org/1999/xlink" version="1.1" id="Calque_1" x="0px" y="0px" viewBox="0 0 2715.7 1082.5" style="enable-background:new 0 0 2715.7 1082.5;" xml:space="preserve"> <g> <path d="M344.3,230.6c1.9-1.1,3.2-2.7,3.9-5c0.5-4.5-1.2-7.8-5.2-9.9c-4-2.1-7.7-2.4-11.1-0.7c-7.3,3.7-13.6,8.9-19.1,15.3 c-5.5,6.5-11.2,13.1-17.3,19.9c-6.9,8.2-14.2,16.7-21.9,25.6c-7.7,8.9-15.4,17.7-23.1,26.4c-7.7,8.7-15.2,17.2-22.5,25.7 c-7.3,8.4-14,15.8-20.1,22.1c1.3-5.5,2.7-11.7,4.1-18.7c1.4-7,2.9-14.4,4.5-22.1c0.7-2.3,1.5-5.5,2.5-9.6c0.4-1.8,0.8-3.5,1.1-5.3 c1.2-2.6,1.8-5.4,1.8-8.4c-0.3-0.1-0.5-0.3-0.8-0.5c0-2.9-0.4-5.5-1.3-7.7c-1.1-2.8-3.5-4.5-7.1-5.1c-5-0.5-8.4,1.6-10.5,6.3 c-2.1,4.6-3.8,9.2-5.2,13.8c-0.9,2.8-1.8,5.4-2.7,8c-6.4,5.8-13.1,11.4-20,16.7c-10.4,8.1-21.2,15.7-32.1,22.8 c-4.7,2.6-9.3,5.6-13.9,8.9c-4.6,3.3-10.1,4.8-16.3,4.4c-2.6-3.8-3.7-9.5-3.5-17.1c0.2-7.6,0.5-15.2,0.7-22.8 c0.2-7.6-0.3-14.1-1.7-19.6c-1.4-5.5-5.4-8.1-12-8c-4.9,0-8.3,1.7-10.2,5.2c-1.9,3.5-4.2,5.8-6.8,6.9l0.6-0.7 c1-4.1,1.6-8.3,1.9-12.5c0.3-4.3-0.3-8.1-1.7-11.6c-1.4-3.4-3.5-6.2-6.4-8.1c-2.8-2-6.5-2.6-10.8-1.7c-2.2,0.2-5.1,1.7-8.6,4.4 c-3.5,2.8-6.4,5.1-8.4,7.1c-4.9,5.3-9.2,11.8-13,19.5c-3.8,7.7-7.5,16.1-11.2,25.4c-3.7,9.2-7.1,18.1-10.4,26.6 c-3.3,8.5-5,17.3-5.1,26.2c-0.2,7.6,1.5,13.3,5.2,16.9c3.7,3.7,9,4.8,16,3.3c6.6-1.5,12.9-5.8,18.9-13c6.1-7.2,10.9-13.2,14.5-18 c4.8-6.2,9.3-12.4,13.5-18.5c4.2-6.1,8.4-11.9,12.9-17.2c-0.7,7.6-0.4,14.9,0.9,21.7c1.3,6.8,3.5,12.5,6.8,17.1 c3.3,4.6,7.6,7.7,12.9,9.3c5.3,1.6,11.6,0.9,18.9-2c4.8-1.7,9.4-4.3,14.1-7.6c4.6-3.3,9.2-6.5,13.9-9.5 c8.8-6.6,17.5-13.4,26.3-20.7c1.9-1.6,3.7-3.1,5.5-4.7c-1.4,5.5-2.6,11.3-3.8,17.6c-0.9,5-1.9,10.4-2.9,16.3 c-1.1,5.9-0.9,11.2,0.4,16c1.2,3.5,3.2,6.5,6.2,9.2c2.9,2.7,5.7,4.3,8.4,5c5,0.5,9.6-0.8,14-3.9c4.4-3.1,8-6.3,10.9-9.6 c3.2-3.8,6.3-7.6,9.1-11.1c2.8-3.6,5.4-7.1,7.8-10.4c17.7-22,34.5-43.3,50.3-63.9c15.8-20.5,33.1-41,51.9-61.3 C340.1,232.8,342.4,231.7,344.3,230.6z M64.7,318.9c-5.6,7.6-11.2,15.7-17,24.2c-5.7,8.5-12.1,15.6-19.3,21.1 c3.6-15.5,8.2-30,14-43.7c5.8-13.6,12.8-26.2,21.2-37.6c1.3-0.6,2-0.4,2.1,0.5c1,7,0.7,13.2-1.1,18.5 C62.8,307.2,62.8,312.8,64.7,318.9z"></path> <path d="M638.6,250.7c-1.9-0.7-4-0.9-6.4-0.4c-2.4,0.4-4.7,1-6.9,1.6c-2.2,0.6-3.9,1.2-5.2,1.8c-3,1.6-6.3,3.8-9.8,6.5 c-3.6,2.8-6.6,4.9-9.2,6.5c-13.4,10.1-26,19.3-37.7,27.7c-11.8,8.4-24.2,16.9-37.3,25.6c-6.3,4.1-12.9,8.5-19.6,13.1 c-6.7,4.6-14.6,7.1-23.4,7.4c0-15.2,2.8-28,8.4-38.5c5.6-10.5,11.5-20.7,17.8-30.6c0.1,0.9,0,1.3-0.2,1.4c-0.2,0-0.3,0.3-0.3,0.7 c-0.3,2.2-0.3,5.1-0.3,8.4c0.1,3.3,1.7,5.1,4.8,5.3c5.4,0.9,9.8-0.6,13-4.5c3.2-3.8,5.8-7.6,7.7-11.4c1.9-3.7,3.7-8.4,5.5-14.2 c1.7-5.7,1.9-11.2,0.6-16.4c-0.7-3.1-2.4-5.8-5.1-8.3c-2.7-2.4-5.4-4-8.1-4.7c-6.8-1.2-12.5,0.5-17,5.1c-4.5,4.6-8.3,9.1-11.5,13.4 c-4.4,5.3-8.3,10.5-11.7,15.7c-2.1,0.4-4.2,1-6.2,1.9c-3.9,1.2-7.4,3.1-10.5,5.6c-3.1,2.5-5.8,4.3-7.9,5.4 c-13.6,7.9-26.2,15.1-37.9,21.7c-11.7,6.6-23.9,13.6-36.6,20.9c-5.9,3.6-12.3,7.2-19.1,10.7c-6.8,3.5-14.7,5.2-23.6,5.1 c-0.5-0.8-1-2.4-1.4-4.6c-0.4-2.2-0.2-3.8,0.6-4.7c2.6,4.2,6.6,6.3,11.9,6.3c3.9-6.1,8.1-11.7,12.6-16.8 c4.5-5.1,8.9-10.5,13.3-16.2c2-2.8,4-5.7,6-8.5c2-2.8,3.9-5.9,5.9-9.2c2.3-4.6,5.1-9.8,8.4-15.4c3.3-5.6,4.5-11.5,3.5-17.7 c-0.4-4.9-2-8.4-4.6-10.6c-2.7-2.2-5.6-3.4-9-3.6c-3.4-0.1-6.9,0.4-10.6,1.6c-3.7,1.2-7,2.8-9.9,4.9c-4.6,3.5-9.8,8.8-15.7,15.7 c-5.9,7-11.2,14.7-16.1,23.1c-4.8,8.4-9,17-12.5,25.8c-3.5,8.8-5.1,16.7-5,23.8c0.3,19.6,9.6,29,27.8,28.4 c7.5-0.6,14.2-2.7,20.2-6.1c5.9-3.4,11.9-6.7,17.9-9.9c15.3-8.9,29.7-17.4,43.3-25.5c13.6-8.1,27.1-16.5,40.6-25.2 c0.6-0.5,1.1-0.9,1.7-1.3c-2.4,5.7-4.7,11.6-7,17.8c-1.8,5.1-3.6,11-5.5,17.9c-1.9,6.9-2.1,13.6-0.6,20.1c1.3,4.4,3.7,8.4,7.4,12.1 c3.7,3.7,8,5.8,12.9,6.2c9,1,17.6-1.1,25.9-6.2c8.2-5.2,15.3-9.8,21.2-13.9c7.2-4.6,13.6-9.1,19.2-13.4c5.7-4.3,12-9.2,19.1-14.7 c4.6-3.5,10.3-7.6,17-12.2c6.7-4.6,14.1-9.9,22-15.9c1.7-1.5,4.2-3.6,7.5-6.3c3.3-2.7,7.1-5.4,11.4-8c0.8-0.5,2.3-1.4,4.4-2.7 c2.1-1.3,4.1-2.7,6-4.2c1.9-1.5,3.5-3,5-4.4c1.4-1.5,2.1-2.9,2-4.2C641.5,252.9,640.4,251.5,638.6,250.7z M352.1,298.2 c2.8-6,6-11.6,9.6-16.9c3.1-5.6,6.6-10.9,10.6-16c4-5,8.3-9.5,12.9-13.5c0.4-0.5,0.7-0.3,0.7,0.6c-4.3,12.4-10.2,23.6-17.8,33.6 c-7.6,10-15,20.2-22.1,30.7C347.2,310.4,349.3,304.2,352.1,298.2z"></path> <path d="M1803.7,259.3c5,0.9,9.7-1.1,14.2-5.9c4.5-4.8,7.9-9.2,10.2-12.9c2.7-5.1,4.8-10.9,6.2-17.2c1.5-6.4,1.5-11.9,0.2-16.8 c-1.8-5.2-5.6-7.5-11.3-7c-5.8,0.5-9.4,4.8-10.9,13c2.6,4.7,3,8.9,1.1,12.6c-1.9,3.7-4.3,7.5-7,11.3c-1.2,1.9-3,4.2-5.4,6.8 c-2.5,2.7-3.5,5.6-3.3,8.6C1798,255.4,1800,257.9,1803.7,259.3z"></path> <path d="M1869.3,345.4c5.2-0.3,9.1-4.7,8.8-9.8c-0.3-5.1-4.7-9.1-9.8-8.8c-231.2,12.3-613,68.2-884.4,129.7 c2.9-10.5,5.6-20.8,8.1-30.9c6.3-25.5,12.2-50.8,17.9-75.8c5.6-25,11.2-50,16.6-75c1-8.6,2.7-15.6,4.9-21.2c3.5-0.3,8-1.1,13.5-2.5 c5.4-1.4,11.1-2.6,17.1-3.8c5.9-1.2,11.6-2,17.2-2.5c5.5-0.5,10.2,0,13.9,1.5c0.1,0,0.3,0.1,0.4,0.1c-0.4,7.9-1,16.6-1.5,26 c-0.1,4-0.3,8.4-0.5,13.1c-0.3,4.7-0.1,9,0.5,13c0.6,4,1.7,7.2,3.5,9.7c1.8,2.5,4.7,3.6,8.6,3.3c5.4,0,9.5-2.7,12.4-8.1 c2.9-5.4,5.2-10.4,7.1-15c5.3-11.2,9.9-21.1,13.8-29.9c3.9-8.8,8.1-18.3,12.6-28.5c2.2-5.1,4.4-10,6.4-14.6c2-4.6,4.7-8.7,8-12.1 c1.1,7.5,1.8,15.7,2.1,24.6c0.3,8.9,1.1,17.1,2.5,24.5c1.3,7.5,3.6,13.7,7,18.8c3.3,5.1,8.3,7.3,15,6.7c6.2-0.5,11.5-3.2,16-8.1 c4.5-4.8,8.3-9.2,11.6-13c3.6-4.8,7.1-9.3,10.5-13.6c3.4-4.3,7.5-7.8,12.1-10.4c4.6,1.8,8.8,4.3,12.7,7.3c3.8,3,9.3,4.4,16.4,4.3 c4,0.1,8.3-0.7,12.8-2.4c4.5-1.7,8.7-3.4,12.6-5.1c8.6-3.8,16-7.5,22.1-10.9c0.2-0.1,0.4-0.2,0.6-0.3c-2.3,7.3-4.5,14.6-6.4,21.9 c-1.7,6-3.2,12.2-4.4,18.8c-1.2,6.6-1.3,13.2-0.3,19.8c1.6,7.5,4.7,13,9.5,16.6c4.8,3.6,10.4,4,16.8,1.2c6.1-1.9,11.8-5.8,17-11.8 c5.3-6,9.9-12.3,13.8-18.9c5.5-8.9,9.6-18.1,12.3-27.5c2.7-9.4,5-19,6.9-29c10.5-2.7,21.7-5.8,33.7-9.2c11.9-3.5,23.6-6.2,35.1-8 c1.7-0.4,3.7-0.7,5.9-1c-1,2.1-1.7,4.2-2.1,6c-0.7,2.3-1.4,4.7-2.1,7.2c-0.7,2.5-1.3,5.1-2,7.9c-0.7,2.3-1.6,5.6-2.8,9.9 c-1.2,4.3-2.1,8.6-2.9,13c-0.7,4.3-0.9,8.5-0.6,12.7c0.4,4.2,1.7,7.3,4.2,9.3c2.9,2.4,5.8,3.4,8.6,2.9c2.9-0.5,5.6-1.7,8.4-3.7 c2.7-2,5.3-4.4,7.8-7c2.4-2.7,4.5-5,6.1-6.9c8.1-9.6,15.4-18.9,22-28c6.6-9,13.7-18.1,21.4-27.3c1.6-1.9,3.1-3.7,4.6-5.4 c1.4-1.7,3-2.8,4.7-3.4c-0.9,4.6-1.9,9.5-3.1,15c-1.1,5.5-1.6,10.7-1.6,15.9c0,5.1,0.6,9.9,1.9,14.2c1.3,4.4,3.8,7.9,7.6,10.7 c4.7,3.2,10.3,4.8,16.8,4.9c6.5,0.1,12.7-1,18.8-3.3c12.6-4.2,24.8-11.4,36.6-21.5c7.3-6.3,14-12.3,20.1-18 c-0.8,5.1-1.4,10.2-1.6,15.4c-0.2,5.4,0.2,10.2,1.3,14.6c1,4.4,3.4,7.3,7.1,8.7c3.2,1.1,6.2,1,9-0.1c2.8-1.1,5.3-2.9,7.6-5.3 s4.2-4.9,5.7-7.5c1.6-2.6,2.9-4.8,4.1-6.7c3.1-5.2,6.2-9.9,9.2-14.2c3-4.3,5.6-8.1,8-11.4c6.4-9,13.2-17.6,20.5-25.8 s15.1-13.8,23.3-16.7c2.1-1.1,5.7-1.4,10.6-0.9c5,0.5,8.4-0.9,10.3-4.2c2-2.8,2.6-5.2,1.7-7.2c-0.8-1.9-2.5-3.4-5.1-4.6 c-2.5-1.1-5.7-1.7-9.5-1.8c-3.8-0.1-7.2,0-10.3,0.2c-4.4,1.3-8.4,2.8-12.3,4.7c-3.8,1.9-7.4,4.1-10.8,6.6 c-8.8,6.1-16.6,13.9-23.4,23.4c-6.8,9.5-13.4,17.7-20,24.5c0.2-3.1,0.6-7,1.3-11.5c0.7-4.5,1.1-8.7,1.3-12.5c0.1-3.8-0.6-7-2.2-9.5 c-1.5-2.5-4.3-3.6-8.3-3.3c-5.7,1-9.3,4.6-10.8,11c-0.5,2.1-0.9,4.2-1.4,6.4c-1.8,1.8-3.6,3.4-5.3,4.9c-7.4,6.9-14.8,13.5-22,20 c-7.3,6.4-15.6,12-25,16.9c-4.2,2.6-9.2,4.9-14.8,7c-5.6,2.1-11.1,0.9-16.3-3.6c-0.6-7.1-0.5-13.3,0.4-18.8 c0.9-5.4,1.9-11.5,3.1-18.3c0.2-2.7,0.5-5.7,0.9-9.1c0.4-3.4,0.4-6.6,0.2-9.7c-0.3-3.1-1.1-5.8-2.4-8.2c-1.3-2.3-3.3-3.8-6.1-4.5 c-5-0.5-9.6,1.3-13.9,5.2c-4.4,3.9-8.2,7.6-11.4,11c-9.8,10.2-19.2,21.4-28.2,33.5c-9,12.2-17.6,22.8-25.7,32 c0-0.4,0.3-1.1,1.1-2.1c1.3-5.9,2.6-10.9,4.1-15.1c1.4-4.1,3.1-10.1,5.2-17.8c0.3-0.9,1-3,1.8-6.2c0.8-3.2,1.5-6.5,2.2-9.9 c0.6-3.4,0.5-6.5-0.1-9.3c-0.7-2.8-2.6-4.3-5.7-4.5c-3.6-0.6-6.4,0.9-8.3,4.4c-1.8,3.2-3.4,6.6-4.7,10c-2-0.3-4.1-0.4-6.4-0.3 c-4,0.1-8.1,0.5-12.3,1.1c-4.2,0.6-7.6,1-10.3,1.2c-10.1,1.8-19.7,4-28.8,6.8c-9.1,2.8-18.1,5-26.8,6.7c-1.2-3.4-3.1-6-5.7-7.5 c-2.6-1.5-5.1-3.3-7.5-5.4c1.9-3.7,3.3-7.5,4.4-11.4c1-3.9,1-8.7,0.1-14.4c-3.9-3.7-7.6-5.2-11.1-4.7c-3.5,0.5-6.8,2.3-9.9,5.2 c-3.1,2.9-5.8,6.4-8.1,10.4c-2.3,4-4.3,7.6-5.8,10.9c-3.3,5.9-6.2,12.2-9,18.6c-5.2,3-9.8,5.7-13.8,8.1c-5.3,3.1-12,6.2-20.3,9.1 c-3.9,1.2-8,2.7-12.3,4.4c-4.3,1.7-8.3,2.3-11.9,1.7c-3.2-0.6-6.1-2.2-8.7-4.6c-2.7-2.4-5.8-4.4-9.5-5.9 c-8.7-2.8-15.9-1.7-21.5,3.2c-5.6,5-10.6,9.8-15.1,14.7c-4.1,4.4-7.6,8.5-10.6,12.3c-3,3.8-6.8,7.3-11.5,10.4 c-1.4-5.7-2.3-12.4-2.7-20.2c-0.5-7.8-1-15.3-1.6-22.6c-0.6-7.3-1.8-14-3.4-20.1c-1.6-6.1-4.4-10.3-8.1-12.7 c-3.8-2.8-7.2-3.8-10.3-3.1c-3.1,0.7-5.9,2.3-8.6,4.8c-2.7,2.5-5,5.3-6.9,8.6c-2,3.3-3.5,6.1-4.6,8.4c-6.6,11.3-12.7,23.6-18.2,37 c-5.5,13.4-10.8,24.8-15.8,34.1c0.7-22.8,2.2-44.1,4.5-63.9c2.5-2,4.7-3.6,6.6-4.9c1.9-1.3,2.7-3.5,2.4-6.6 c-0.3-3.1-2.1-5.8-5.4-8.2c-3.3-2.4-6.9-3-10.8-1.7c-3.9,1.2-6.6,4.5-8.2,9.7c-1.5,5.3-2.6,10.4-3,15.3c-1.3,7.1-2.2,13.8-2.9,20.1 c-1.1-0.2-2.2-0.4-3.4-0.5c-5.8-0.6-12.1-0.6-18.7-0.1c-6.6,0.6-13.3,1.4-19.9,2.4c-6.6,1-12.6,1.5-17.9,1.5 c3.5-15.9,6.7-31.8,9.6-47.6c2.9-15.9,5.3-33.2,7.2-52.1c1.1-8.1,2-17,2.7-26.6c0.7-9.6,0.8-19.3,0.2-29.1 c-0.6-9.7-1.9-19.2-3.8-28.4c-1.9-9.2-5-17.2-9.1-24c-4.2-6.8-9.7-12.2-16.8-16.3c-7-4.1-15.2-5.3-24.4-3.6 c-7.5,1.1-14.7,3.7-21.7,7.9c-7,4.2-13.4,8.7-19.2,13.7c-17.5,14-32.7,29.9-45.4,47.7c-12.7,17.8-24.6,35.7-35.5,53.6 c-14.8,25.3-27.4,52.6-38.1,81.9c-10.6,29.2-16.5,61.3-17.5,96.1c-12,5.9-24.4,12.5-37.4,19.6c-13,7.1-24.2,15.6-33.6,25.3 c-2.5,2.5-5.6,5.6-9.5,9.5c-3.9,3.9-5.7,8.1-5.3,12.5c0.7,2.6,2.1,4.8,4.2,6.7c2.2,1.8,4.4,2.6,6.6,2.4c4-0.3,7.2-2.2,9.6-5.5 c2.4-3.3,4.8-6.2,7.3-8.6c8.3-7,17.7-13.2,28.1-18.8c10.4-5.6,20.6-10.8,30.4-15.7c1.2,9.3,2.9,18.6,5.1,28 c2.1,9.4,5.3,17,9.3,22.9c2.5,2.9,5.5,5.7,9.1,8.2c3.6,2.6,7.4,3.7,11.3,3.4c2.7-0.2,5.4-1.1,8.1-2.7c2.8-1.6,5.2-3.5,7.2-6 c2-2.4,3.3-5,4-7.7c0.7-2.7,0-5.3-2-7.8c-1-0.8-2-1.5-3.2-2.1c-1.2-0.6-2.6-0.8-4.4-0.6c-1.8-0.3-3.3,0-4.6,0.7 c-1.3,0.8-2.6,1.2-3.9,1.3c-3.2-6.4-5.5-14.1-6.7-23.2c-1.2-9-2.2-18.4-3.1-28.1c24-11,48.8-20.9,74.3-29.8 c25.5-8.9,52-17.6,79.3-26.2c-8.3,38.6-16.8,78.1-25.6,118.6c-6.1,28.1-12.8,55.4-20,81.8C866.1,484,788.6,506,736.6,527 c-4.8,1.9-7.1,7.4-5.2,12.1c1.5,3.6,5,5.8,8.6,5.8c1.2,0,2.3-0.2,3.5-0.7c49.5-19.9,122.3-40.9,208.6-61.4c-1.4,4.7-2.7,9.4-4.1,14 c-2.8,8.7-6.2,17.7-10,26.9c-3.9,9.2-8.2,17.4-12.9,24.5c-0.8,1.4-1.8,3.3-3.2,5.6c-1.4,2.3-2.4,4.8-3.1,7.3 c-0.7,2.5-0.7,4.6-0.1,6.4c0.6,1.7,2.5,2.9,5.7,3.5c2.7,0.6,5.5,0.1,8.2-1.7c2.7-1.8,5.3-4.1,7.8-7c2.4-2.9,4.7-6,6.9-9.3 c2.1-3.3,3.8-6.1,5-8.4c3.4-6.6,6.4-12.9,8.7-19.1c2.3-6.2,4.8-12.3,7.4-18.4c3.5-10,6.7-20.1,9.8-30.4 C1248.5,414.8,1635.9,357.8,1869.3,345.4z M1348.2,255.1c-5.2,9.8-11.5,17.7-19,23.7c0-10.7,1.2-20.3,3.5-28.7 c2.4-8.4,5-17,7.8-25.7l19.2-1.7C1357.2,234.5,1353.4,245.3,1348.2,255.1z M851.4,291.2c3-27,8.8-52.5,17.2-76.4 c8.4-23.9,19-47.1,31.8-69.6c8.5-15,18-29.9,28.6-44.6c10.5-14.7,22.4-28.4,35.6-41.2c5.3-5.8,11.1-11.2,17.3-16.2 c6.2-5,13.5-8.5,21.8-10.6c4.3-1.3,8-0.5,10.9,2.4c2.9,2.9,5.1,6.7,6.7,11.5c1.5,4.8,2.6,10.1,3.4,16.1c0.7,6,1.1,11.6,1.1,17 c1.2,29.3-0.6,57.4-5.5,84.1c-4.8,26.7-9.4,52.1-13.5,76.1C951.9,254.7,900.1,271.9,851.4,291.2z"></path> <path d="M2705.2,869.8c-0.5-5.1-5.3-9-10.1-8.5c-948.9,84.4-1178,142.3-1284.3,192.4c-4.7,2.2-6.7,7.7-4.5,12.4 c1.6,3.4,4.9,5.4,8.4,5.4c1.3,0,2.7-0.3,4-0.9c99.7-47,329.5-106.3,1278-190.6C2701.9,879.4,2705.7,874.9,2705.2,869.8z"></path> <path d="M1382.9,577.1c-4.8,20-9.8,39.4-15,58c-5.2,18.7-10.2,38.3-15,58.7c-0.9,4-1.9,8.7-3.3,14c-1.3,5.3-0.4,8.7,2.7,10 c2.7,1.3,4.8,1.4,6.3,0.3c1.5-1.1,3-2.8,4.3-5c1.3-2.2,2.3-4.4,3-6.7c0.7-2.2,1.2-3.8,1.6-4.7c7.4-21.4,14.1-42.3,20-62.8 c5.9-20.5,11.7-41.6,17.3-63.4c2.2-7.6,4.1-17,5.8-28.3c1.7-11.3,0.8-21-2.8-29c-3.1-6.2-8.4-10-15.7-11.6 c-7.3-1.5-14.6-1.1-21.7,1.1c-8.9,3.6-17.6,8.5-26.2,14.8c-8.6,6.3-16.7,12.8-24.2,19.5c-15.5,13.9-29.8,28.6-43.1,44.2 c-13.2,15.6-25.6,31.5-37.1,47.5c-22.9,33-44.2,68.5-64,106.6c-19.8,38.1-36,78.5-48.6,121.2c-3.5,11.6-6.5,23.4-9.2,35.4 c-2.6,12-3.8,24.7-3.8,38c0.1,24,6.2,43.7,18.3,59.2c12.1,15.5,29.9,23.2,53.4,23c14.7-0.5,28.6-3.6,41.9-9.2 c13.3-5.6,24.6-11.6,33.9-17.8c15.9-10.3,30.4-21.7,43.5-34.2c13-12.5,25.9-25.5,38.8-38.9c7.5-8.5,15.5-17.6,23.8-27.4 c8.4-9.8,15.9-19.8,22.5-30.1c2.6-4,5.8-9.6,9.6-16.7c3.7-7.1,4.7-13.8,2.9-20c-0.9-4.4-3.3-7.9-7-10.3c-3.8-2.4-8.2-4-13.3-4.9 c-5.1-0.9-10.7-1-16.7-0.6c-6,0.5-11.6,1.4-17,2.8c-10.2,2.3-19.8,5.2-28.9,8.8c-9.1,3.6-17.9,7-26.3,10.1 c-12.4,5-25.5,10.2-39.2,15.9c-13.7,5.6-25.7,12.5-35.9,20.5c-3.1,2.2-6.2,5.4-9.3,9.4c-3.1,4-2.9,8.7,0.7,14 c5.3,0.9,9.8-0.3,13.3-3.4c3.5-3.1,7.1-5.8,10.6-8.1c10.2-5.8,21.1-10.9,32.9-15.2c11.8-4.3,23.4-8.5,34.9-12.5 c12-4.1,24.4-7.8,37.3-11.2c12.9-3.4,25.7-5.6,38.6-6.5c-4.4,9.8-9.8,18.9-16.2,27.4c-6.4,8.5-13.1,16.7-20.2,24.8 c-13.7,15.6-28.2,30.9-43.4,45.9c-15.3,15-32.2,28-50.7,39.3c-8.9,5.4-19.1,10.9-30.6,16.5c-11.5,5.6-23.7,7.8-36.6,6.5 c-13.3-1.3-23-6.3-29.1-15.2c-6.1-8.8-9.6-19.5-10.5-31.9c-1-12.4-0.4-25.5,1.8-39.3c2.1-13.8,4.7-26,7.8-36.7 c8.7-32,20-62.3,33.8-90.8c13.9-28.5,28.2-55.2,43.2-80.2c10.6-18.3,21.3-35.5,32.4-51.8c11-16.3,22.9-31.8,35.7-46.5 c8.8-11.1,18.6-22.1,29.5-32.8c10.8-10.7,22.4-19.9,34.8-27.5c4-2.7,8.3-5.5,12.9-8.4c4.6-2.9,9.9-3.9,15.6-3.1 c2.7,8.9,3.1,17.4,1.1,25.6C1387.2,561.7,1385.1,569.6,1382.9,577.1z"></path> <path d="M1475.7,656.9c-2-1.5-4.1-1.9-6.3-1c-4.9,1.4-8.9,4-12,8.1c-3.1,4-6.4,8-9.9,12c-3.1,3.6-5.7,6.9-7.9,10 c-2.2,3.1-2.2,6.5,0.1,10c2.7,2.2,5,3,7,2.3c2-0.7,4-1.9,6-3.7c2-1.8,3.9-3.9,5.6-6.4c1.8-2.4,3.5-4.6,5.3-6.4 c3.5-3.6,7.2-6.7,10.9-9.4c3.7-2.7,5.4-6.2,4.9-10.7C1478.9,660.1,1477.7,658.5,1475.7,656.9z"></path> <path d="M1431,835.4c7.6,0,14.4-1.5,20.6-4.4c6.2-2.9,12.4-5.7,18.6-8.4c16-7.6,31-14.9,45.2-21.9c14.2-7,28.3-14.2,42.5-21.9 c1.6-1,3.2-2,4.8-3c-0.5,1.6-1,3.3-1.4,5c-0.9,3.1-2,7.2-3.3,12.3c-1.3,5.1-2.3,10.3-2.9,15.7c-0.6,5.3-0.6,10.2,0.1,14.7 c0.7,4.4,2.8,7.5,6.4,9.3c3.1,1.3,6.1,1.5,9,0.6c2.9-0.9,5.5-2.5,8-4.7c2.4-2.2,4.5-4.6,6.3-7c1.7-2.4,3.3-4.6,4.6-6.4 c3.5-4.9,6.9-9.4,10.2-13.4c3.3-4,6.3-7.6,8.9-10.7c7.1-8.5,14.6-16.5,22.5-24.1c7.9-7.6,16.1-12.5,24.5-14.8 c2.2-0.9,5.8-0.9,10.7-0.1c4.9,0.9,8.4-0.3,10.6-3.4c2.2-2.7,3-5,2.3-7c-0.7-2-2.3-3.6-4.7-5c-2.5-1.3-5.6-2.2-9.4-2.6 c-3.8-0.4-7.2-0.6-10.3-0.6c-4.4,0.9-8.7,2.2-12.7,3.7c-4,1.6-7.7,3.5-11.3,5.7c-9.3,5.4-17.7,12.5-25.2,21.5 c-7.5,8.9-14.8,16.5-21.9,22.8c0.4-3.1,1.2-6.9,2.3-11.3c1.1-4.5,1.9-8.6,2.3-12.4c0.4-3.8-0.1-7-1.4-9.6c-1.3-2.7-4-4-8-4 c-3.5,0.3-6.3,1.7-8.4,4.1c-0.7,0.2-1.5,0.4-2.2,0.6c-4,0.9-7.6,2.5-11,4.7c-3.3,2.2-6.1,3.8-8.3,4.7 c-14.2,6.7-27.4,12.9-39.6,18.5c-12.2,5.6-24.9,11.6-38.2,17.9c-6.2,3.1-12.9,6.2-19.9,9.1c-7.1,2.9-15.1,4-24,3.1 c-0.4-0.9-0.8-2.4-1-4.7c-0.3-2.2,0.1-3.8,0.9-4.7c2.3,4.4,6.1,6.9,11.4,7.3c4.4-5.8,9-11,13.9-15.7c4.9-4.7,9.7-9.7,14.6-15.1 c2.2-2.7,4.4-5.4,6.6-8c2.2-2.7,4.4-5.6,6.6-8.7c2.6-4.5,5.8-9.4,9.6-14.7c3.7-5.4,5.4-11.1,4.9-17.4c0-4.9-1.3-8.5-3.7-11 c-2.5-2.4-5.4-3.8-8.7-4.3c-3.3-0.4-6.9-0.2-10.7,0.7c-3.8,0.9-7.2,2.3-10.3,4.1c-4.9,3.1-10.5,8-16.9,14.4 c-6.4,6.5-12.4,13.7-17.9,21.8c-5.5,8-10.3,16.3-14.5,24.7c-4.2,8.5-6.5,16.2-6.9,23.3C1404.3,824.4,1412.8,834.6,1431,835.4z M1437.7,778.7c3.3-5.8,6.9-11.1,10.9-16.1c3.5-5.4,7.5-10.4,11.9-15.1c4.4-4.7,9.1-8.8,13.9-12.4c0.4-0.4,0.7-0.2,0.7,0.7 c-5.3,12-12.1,22.7-20.5,32.1c-8.4,9.4-16.6,19-24.5,28.8C1431.9,790.5,1434.4,784.5,1437.7,778.7z"></path> <path d="M1867.9,758.4c-9.6,7.9-19.7,15.3-30.1,22.1c-11.1,7.2-22.4,13.9-33.9,20.2c-4.9,2.2-9.7,4.8-14.6,7.7 c-4.9,2.9-10.4,3.9-16.7,3.1c-2.2-4-2.9-9.7-2.1-17.3s1.7-15.1,2.5-22.7c0.8-7.6,0.8-14.1-0.1-19.6c-0.9-5.5-4.7-8.5-11.4-8.9 c-4.9-0.4-8.4,1-10.6,4.4c-2.2,3.3-4.6,5.5-7.3,6.4l0.7-0.7c1.3-4,2.3-8.1,2.9-12.3c0.7-4.2,0.4-8.1-0.7-11.7 c-1.1-3.5-3-6.4-5.7-8.6c-2.7-2.2-6.3-3.1-10.7-2.6c-2.2,0-5.2,1.3-9,3.7c-3.8,2.5-6.8,4.6-9,6.4c-5.3,4.9-10.2,11-14.6,18.4 c-4.4,7.3-8.8,15.5-13.2,24.4c-4.4,8.9-8.6,17.5-12.5,25.7c-4,8.2-6.4,16.8-7.2,25.7c-0.9,7.6,0.4,13.3,3.7,17.3 c3.3,4,8.6,5.5,15.7,4.6c6.7-0.9,13.3-4.7,19.9-11.4c6.6-6.7,11.9-12.3,15.9-16.8c5.3-5.8,10.3-11.6,14.9-17.4 c4.6-5.8,9.4-11.1,14.3-16.1c-1.3,7.5-1.6,14.8-0.9,21.6c0.7,6.9,2.5,12.8,5.4,17.6c2.9,4.9,6.9,8.3,12.1,10.3 c5.1,2,11.4,1.8,19-0.4c4.9-1.4,9.7-3.5,14.6-6.4c4.9-2.9,9.7-5.7,14.6-8.4c9.3-5.8,18.6-12,27.9-18.5c1.2-0.8,2.4-1.7,3.6-2.5 c-0.6,2.4-1.1,4.9-1.5,7.5c-0.9,4.9-0.8,8.9,0.1,12c0.9,3.1,2.6,4.9,5,5.3c2.5,0.4,4.6,1.3,6.4,2.6c-1.3,8-2,16.3-2.2,25 c-0.2,8.7,0.7,16.3,2.8,23c2,6.7,5.3,12,9.8,15.9c4.5,4,10.7,5.5,18.7,4.6c7.6-0.9,15-4.5,22.3-10.8c7.3-6.3,13.4-12.1,18.2-17.4 c13.4-16.1,25.3-31.9,35.7-47.4c-0.3,3.9-0.3,7.6,0.1,11.2c0.9,6.2,3.5,11.1,7.7,14.6c4.2,3.5,9.9,4.8,17,3.9 c4.9-0.9,9.8-3.8,14.6-8.7c4.8-4.9,9-9.6,12.6-14.1c11.9-14.7,21.9-29.8,30.1-45.1c8.1-15.4,15-33.5,20.7-54.4 c3.5-12.9,6.2-27,8.1-42.4c1.9-15.3,1.7-31.2-0.6-47.6c-1.9-14.2-5.4-27.7-10.6-40.6c-5.2-12.9-11.6-23-19.1-30.6 c-5.4-4.9-12.3-8.8-20.7-11.9c-8.4-3-18.2-4.1-29.3-3.2c-9.8,0.9-19.3,4.6-28.6,10.8c-9.3,6.3-16.8,13.2-22.6,20.8 c-0.9,1.3-2.2,4.2-3.9,8.7c-1.8,4.5-0.4,7.3,4,8.6c3.6,0.9,6.7-0.3,9.3-3.4c2.6-3.1,5.3-6,8-8.7c4.9-4.9,10.5-8.9,16.9-12.1 c6.4-3.1,13.2-5.2,20.3-6.1c7.1-0.9,13.3-0.4,18.7,1.6c5.3,2,10,4.8,14,8.6c4,3.7,7.3,8.1,9.7,12.9c2.5,4.9,4.6,9.5,6.4,14 c4.5,12,7,24.8,7.6,38.6c0.5,13.8-0.2,27.4-2.1,41c-1.9,13.6-4.8,26.5-8.5,38.7c-3.7,12.2-7.8,23-12.1,32.4c-0.9,2.2-2,4.3-3.3,6.4 c-1.3,2-2.9,3.9-4.6,5.7c-2.3-6.2-4.7-11-7.4-14.3c-2.5-3.1-6.2-4.9-10.9-5.5c-0.7-4.5-3.1-6.8-7.1-6.8c-3.6-0.4-6.6,1.1-9,4.7 c-2.4,3.6-4.8,6.7-7,9.4c-2.2,3.6-4.3,6.7-6.3,9.4c-2,2.7-4.1,5.6-6.3,8.7c-9.3,12.9-17.7,25-25.4,36.1 c-7.7,11.2-16.4,22.5-26.1,34.1c-4.9,5.8-9.9,11.3-15.2,16.4c-5.3,5.2-11.7,8.8-19.3,11.1c-3.1-4.9-4.7-11-4.8-18.3 c-0.1-7.3,0.3-14.5,1.2-21.7c0.4-3.1,0.9-6.2,1.3-9.3c0.4-3.1,1.1-6.4,1.9-10c1.7-8.9,3.8-15.8,6.2-20.7c2.4-4.9,5.4-10.4,8.9-16.7 c18.5-33,34.7-67.9,48.7-104.9c1.3-3.1,2.7-6.9,4.3-11.4c1.5-4.4,2.8-9,3.9-13.7c1.1-4.7,1.6-9.1,1.6-13.3s-1.1-7.7-3.4-10.3 c-1.3-1.3-3.6-2.4-6.7-3.3c-3.1-0.9-5.8-0.9-8,0c-6.2,2.7-11.4,7.7-15.6,15.1c-4.2,7.4-8,14.2-11.5,20.4 c-4.4,8.5-8.7,17.7-12.9,27.7c-4.2,10-8.1,20.3-11.8,30.7c-3.7,10.5-7.2,20.8-10.5,31C1871.3,746.5,1869.5,752.6,1867.9,758.4z M1729.7,756.1c-2.2,5.1-2.6,10.8-1.2,17c-6.2,7.1-12.5,14.7-18.9,22.8c-6.4,8-13.4,14.5-20.9,19.4c4.8-15.1,10.6-29.3,17.4-42.4 c6.8-13.1,14.8-25.1,24.1-35.8c1.3-0.4,2-0.2,2,0.7C1732.8,744.9,1731.9,751,1729.7,756.1z M2005,768.6c0.9,1.1,1.7,2.2,2.3,3.3 c0.7,1.1,1.6,2.1,2.7,3c1.1,0.9,2.8,1.1,5,0.6c-3.9,6.7-8.4,13.6-13.2,20.7c-4.8,7.1-9.9,12.7-15.2,16.7 c2.1-19.5,6.9-35.1,14.4-46.7C2002.8,766.7,2004.1,767.5,2005,768.6z"></path> <path d="M2101.9,698.1c1.8-0.7,3.8-0.6,6,0.3c1.8,0.4,3.2,1.1,4.3,2c1.1,0.9,2.3,1.3,3.7,1.3c2.2-0.4,4-1.6,5.3-3.4 c1.3-1.8,1.5-4,0.6-6.7c-0.5-1.8-2-3.3-4.7-4.6c-2.7-1.3-5.4-2-8.3-2c-2.9,0-5.4,0.8-7.7,2.4c-2.2,1.6-3.1,4.4-2.6,8.3 C2099,698,2100.1,698.8,2101.9,698.1z"></path> <path d="M2088.7,841.7c11.1,0.8,19.7-0.7,26-4.5c6.2-3.8,13.1-8.2,20.6-13.1c13.7-8.5,26.9-16.8,39.5-24.9 c7.6-4.9,15.1-9.9,22.5-15.1c-1.5,3.8-2.9,7.5-4.2,11c-1.3,2.7-2.7,6.7-4.2,12c-1.5,5.3-2.4,10.6-2.6,15.7c-0.2,5.1,0.6,9.4,2.4,13 c1.8,3.6,5.8,4.9,12,3.9c3.6-0.9,7.2-3.4,11-7.4c3.7-4,6.7-7.8,8.9-11.4c5.7-8.5,10.9-16.5,15.5-24.1c4.6-7.6,9.8-14.7,15.5-21.4 c2.6-3.6,5.5-7.1,8.6-10.7c3.1-3.6,6.8-6.5,11.3-8.7c2.3,7.5,4.2,15.1,5.8,22.6c1.6,7.5,3.9,14.4,6.8,20.6 c2.9,6.2,7.2,11.2,12.7,14.9c5.6,3.8,13.3,5.2,23,4.2c9.3-0.9,18.7-3.6,28.3-8.1c9.5-4.5,18.3-9.6,26.2-15.5 c0.5-0.3,0.9-0.6,1.4-0.9c-0.4,1.9-0.6,3.8-0.7,5.6c-1.2,19.6,7.3,29.7,25.5,30.5c7.6,0,14.4-1.5,20.6-4.4 c6.2-2.9,12.4-5.7,18.6-8.4c16-7.6,31-14.9,45.2-21.9c14.2-7,28.3-14.3,42.5-21.9c2.7-1.8,5.4-3.5,8.3-5c2.9-1.6,5.9-2.8,9-3.7 c2.7-0.9,5.7-2,9-3.4c3.3-1.4,4.8-3.8,4.3-7.4c-0.9-3.5-3.5-5.5-7.7-6c-4.2-0.4-8.3,0-12.3,1.4c-4,0.9-7.6,2.5-11,4.7 c-3.3,2.2-6.1,3.8-8.3,4.7c-14.2,6.7-27.4,12.9-39.6,18.5c-12.2,5.6-24.9,11.6-38.2,17.9c-6.2,3.1-12.9,6.2-19.9,9.1 c-7.1,2.9-15.1,4-24,3.1c-0.4-0.9-0.8-2.4-1-4.7c-0.3-2.2,0.1-3.8,0.9-4.7c2.3,4.4,6.1,6.9,11.4,7.3c4.4-5.8,9-11,13.9-15.7 c4.9-4.7,9.7-9.7,14.6-15.1c2.2-2.7,4.4-5.4,6.6-8c2.2-2.7,4.4-5.6,6.6-8.7c2.6-4.5,5.8-9.4,9.6-14.7c3.7-5.4,5.4-11.1,4.9-17.4 c0-4.9-1.3-8.5-3.7-11c-2.5-2.4-5.4-3.8-8.7-4.3c-3.3-0.4-6.9-0.2-10.7,0.7c-3.8,0.9-7.2,2.3-10.3,4.1c-4.9,3.1-10.5,8-16.9,14.4 c-6.4,6.5-12.4,13.7-17.9,21.8c-2,2.9-3.8,5.8-5.6,8.7c-0.4,0.2-0.9,0.5-1.3,0.7c-7.5,5.8-14.5,11.1-20.9,15.8 c-6.4,4.7-14.3,9.3-23.6,13.8c-4,1.8-8.9,3.6-14.6,5.4c-5.8,1.8-11.1,2.1-16,0.8c-3.6-0.9-6.1-3.2-7.7-7c-1.6-3.8-3.1-8.2-4.4-13.3 c-1.4-5.1-2.6-10.3-3.8-15.6c-1.1-5.3-2.6-10-4.4-14c-0.9-2.2-2.3-4.5-4-7c-1.8-2.4-3.3-4.1-4.7-5c-4.9-3.1-9.5-4.3-13.7-3.6 c-4.2,0.7-8.3,2.4-12.3,5.1c-4,2.7-7.5,5.7-10.6,9.1c-3.1,3.3-5.5,6.1-7.3,8.4c-2.2,2.2-4.1,4.5-5.6,6.7c-1.5,2.2-3,4.5-4.3,6.7 c-1.8,2.2-3.4,4.4-5,6.4c-1.6,2-3.4,4.1-5.6,6.4c1.7-3.6,2.9-7.4,3.6-11.7c0.7-4.2,2.1-7.7,4.3-10.3c0.9-0.9,2-1.6,3.3-2 c1.3-0.4,2.4-1.3,3.3-2.7c0-3.5,0.4-7.1,1.3-10.7c0.9-3.6,0.6-6.9-0.7-10c-3.6-1.7-6.5-2.4-8.7-2c-2.2,0.5-4.3,1.7-6.3,3.7 c-2,2-3.6,4.5-5,7.4c-1.3,2.9-2.6,5.7-4,8.4c-1.2,2.5-2.4,5-3.6,7.6c-1.6,0.8-3.3,1.6-5,2.4c-12.8,8.1-25.2,15.9-37.2,23.5 c-12,7.6-24.2,15.2-36.5,22.8c-5.3,3.1-10.7,6.2-16.3,9.1c-5.5,2.9-11.4,4.4-17.6,4.4c-0.5-6.2-0.1-12.1,1.3-17.7 c1.3-5.6,3-11.7,5.2-18.3c0.4-2.2,1.2-5.1,2.3-8.7c1.1-3.5,1.8-7.1,2.3-10.7c0.4-3.6,0.3-6.8-0.4-9.7c-0.7-2.9-2.1-5-4.4-6.3 c-3.6-1.8-7-1.6-10.3,0.4c-3.3,2-6,4.9-7.9,8.7c-2,3.8-3.2,7.8-3.6,12c-0.4,4.2,0.3,7.4,2,9.6c-2.2,4.5-4,9.8-5.6,16 c-1.5,6.2-2.4,12.6-2.5,19c-0.2,6.4,0.7,12.2,2.7,17.3C2079,836.6,2082.9,840,2088.7,841.7z M2418,757.3 c3.5-5.4,7.5-10.4,11.9-15.1c4.4-4.7,9.1-8.8,13.9-12.4c0.4-0.4,0.7-0.2,0.7,0.7c-5.3,12-12.1,22.7-20.5,32.1 c-8.4,9.4-16.6,19-24.5,28.8c1.7-6.2,4.3-12.2,7.6-18C2410.4,767.6,2414.1,762.2,2418,757.3z"></path> </g> </svg> 